<svg width="293" height="324" viewBox="0 0 293 324" fill="none" xmlns="http://www.w3.org/2000/svg">
<circle cx="146.499" cy="176.64" r="146.499" fill="white"/>
<path d="M161.568 312.163C142.613 310.498 123.41 303.463 112.668 290.1C104.165 279.526 101.842 266.205 102.589 253.467C103.418 239.48 108.52 224.743 121.461 216.043C136.807 205.719 159.204 206.385 175.338 196.977C192.053 187.236 200.929 167.503 220.796 163.965C233.903 161.634 247.59 167.878 255.719 176.912C263.849 185.945 267.457 197.268 270.07 208.425C274.466 227.074 276.457 247.181 267.167 264.54C258 281.65 240.331 291.64 223.451 302.755C207.399 313.329 181.435 313.912 161.568 312.163Z" fill="#D5B9B2"/>
<path d="M168.288 89.4079C167.169 101.147 160.823 111.221 154.601 120.921C145.269 135.533 137.803 179.035 87.2439 167.295C67.0864 162.591 51.118 142.901 46.0579 123.96C42.8228 111.887 45.9335 99.8567 49.0857 88.4088C55.7634 63.9311 60.3672 1.27985 100.765 11.8535C132.494 20.1793 171.441 56.9791 168.288 89.4079Z" fill="#ECE2D0"/>
<path d="M99.3948 191.398C92.8001 188.9 87.1593 184.321 82.7628 178.826C78.5737 173.539 75.5459 167.378 73.3062 161.009C71.0665 154.64 69.5319 148.021 68.0802 141.402C66.6286 134.783 65.2184 128.164 63.269 121.712C61.3196 115.342 58.831 109.056 55.2226 103.437C54.7663 102.729 54.3101 102.063 53.8124 101.355C53.5635 101.563 53.3147 101.73 53.0658 101.938C58.8725 107.849 65.9649 112.179 73.0574 116.342C80.2328 120.546 87.5741 124.667 93.9199 130.121C100.141 135.491 105.492 141.86 109.598 148.978C113.787 156.222 116.649 164.131 117.935 172.415C119.262 181.033 119.137 189.983 117.561 198.558C117.354 199.557 117.147 200.598 116.939 201.597C116.815 202.18 117.727 202.43 117.852 201.847C119.801 193.355 120.257 184.446 119.345 175.787C118.889 171.458 118.059 167.212 116.815 163.049C115.612 159.094 113.994 155.223 112.087 151.559C108.271 144.233 103.211 137.531 97.238 131.869C91.0995 126.083 83.9656 121.67 76.7488 117.424C69.5319 113.219 62.1491 109.057 55.9277 103.395C55.1811 102.729 54.4345 102.021 53.7294 101.272C53.3561 100.897 52.6511 101.397 52.9829 101.855C56.9231 107.391 59.6605 113.636 61.7344 120.046C63.8496 126.541 65.3013 133.243 66.753 139.903C68.2047 146.564 69.6978 153.266 71.8546 159.719C73.9698 166.13 76.7902 172.332 80.772 177.786C84.8781 183.447 90.27 188.318 96.6574 191.273C97.4454 191.648 98.2749 191.981 99.1045 192.272C99.7266 192.522 99.9755 191.606 99.3948 191.398Z" fill="#4C4942"/>
<path d="M98.3987 192.064C105.284 194.021 111.547 197.85 117.229 202.18C117.727 202.555 118.183 201.722 117.727 201.347C112.003 196.976 105.657 193.105 98.6891 191.107C98.0669 190.982 97.8181 191.898 98.3987 192.064Z" fill="#4C4942"/>
<path d="M117.893 201.639C116.233 194.354 114.035 187.152 111.298 180.158C108.602 173.165 105.367 166.338 101.717 159.802C98.0254 153.225 93.9192 146.939 89.3568 140.944C84.7945 134.908 79.7758 129.205 74.4254 123.835C68.5358 118.007 62.7706 112.095 57.4201 105.768C56.798 105.019 56.1758 104.269 55.5537 103.52C55.1804 103.062 54.5168 103.728 54.8901 104.186C60.1161 110.597 65.7983 116.633 71.6465 122.419C76.9969 127.748 82.14 133.201 86.8268 139.154C91.5136 145.065 95.7442 151.351 99.5185 157.887C103.251 164.339 106.569 171.042 109.39 177.952C112.21 184.862 114.533 191.981 116.316 199.224C116.524 200.099 116.731 201.014 116.939 201.889C117.146 202.513 118.058 202.263 117.893 201.639Z" fill="#4C4942"/>
<path d="M116.815 197.559C115.322 193.063 114.077 188.359 114.451 183.614C114.658 181.241 115.28 178.951 115.944 176.62C116.524 174.497 117.064 172.374 117.395 170.168C117.686 168.003 117.686 165.713 116.69 163.715C116.607 163.59 116.4 163.715 116.483 163.84C117.478 165.838 117.437 168.128 117.105 170.292C116.773 172.457 116.234 174.58 115.653 176.662C115.031 178.868 114.409 181.033 114.202 183.322C113.994 185.529 114.16 187.776 114.534 189.983C114.99 192.605 115.736 195.145 116.566 197.643C116.649 197.767 116.898 197.684 116.815 197.559ZM112.709 184.405C107.939 174.663 112.086 163.59 110.676 153.308C110.303 150.519 109.473 147.813 108.063 145.357C107.98 145.232 107.773 145.357 107.856 145.482C113.289 154.89 109.308 166.171 110.303 176.37C110.593 179.201 111.257 181.99 112.501 184.529C112.584 184.654 112.792 184.529 112.709 184.405ZM107.566 171.916C104.828 166.504 104.994 160.302 104.496 154.39C104.082 149.103 102.92 143.733 100.763 138.904C99.5192 136.198 97.9431 133.701 96.1596 131.328C96.0766 131.203 95.8693 131.328 95.9522 131.453C97.5698 133.617 99.0629 135.865 100.224 138.28C101.344 140.611 102.174 143.067 102.837 145.565C103.584 148.396 104.082 151.268 104.289 154.224C104.538 157.138 104.579 160.093 104.911 163.007C105.284 166.13 105.948 169.252 107.358 172.041C107.441 172.166 107.649 172.041 107.566 171.916ZM99.5192 156.971C96.4499 147.313 95.3715 136.781 89.5649 128.206C88.1132 126.083 86.4127 124.168 84.4218 122.544C84.2974 122.461 84.1315 122.628 84.2559 122.711C91.929 128.997 94.625 138.904 96.9062 148.146C97.6527 151.143 98.3993 154.099 99.3118 157.054C99.3533 157.179 99.5606 157.096 99.5192 156.971ZM89.6063 142.026C87.9058 135.574 85.2099 129.538 81.6844 123.876C80.6475 122.17 79.5276 120.546 78.3663 118.881C78.2833 118.756 78.0759 118.881 78.1589 119.006C81.9747 124.459 85.3758 130.204 87.657 136.531C88.3206 138.363 88.9012 140.236 89.399 142.11C89.399 142.235 89.6478 142.151 89.6063 142.026ZM81.9747 132.369C79.5276 126.124 76.2095 120.338 72.1034 115.009C72.0204 114.885 71.8545 115.051 71.9375 115.176C76.0021 120.463 79.2788 126.208 81.7259 132.452C81.7673 132.535 82.0162 132.494 81.9747 132.369ZM116.815 200.223C115.695 194.479 111.215 190.108 106.363 187.277C100.556 183.863 94.0028 182.198 87.9058 179.409C84.6292 177.91 81.4355 176.079 78.781 173.539C78.6566 173.415 78.4907 173.623 78.6151 173.706C83.219 178.077 89.2331 180.325 95.0397 182.531C101.054 184.779 107.275 187.11 111.879 191.814C114.16 194.146 115.944 197.018 116.607 200.307C116.607 200.432 116.815 200.39 116.815 200.223ZM114.077 188.234C112.75 185.653 111.381 183.072 109.515 180.824C107.566 178.535 105.118 176.953 102.298 175.996C99.1459 174.913 95.7863 174.497 92.5097 173.831C89.1501 173.165 85.7905 172.291 82.6798 170.834C79.7765 169.46 77.2049 167.462 74.5919 165.588C74.4675 165.505 74.3431 165.713 74.4675 165.797C76.7487 167.42 78.9884 169.168 81.477 170.501C84.2974 171.999 87.3666 172.915 90.4359 173.623C93.671 174.372 96.9891 174.83 100.224 175.621C103.335 176.412 106.197 177.702 108.437 180.034C110.759 182.406 112.335 185.404 113.828 188.359C113.911 188.484 114.119 188.359 114.077 188.234ZM108.727 175.746C107.69 172.915 105.865 170.417 103.501 168.586C102.298 167.628 100.929 166.837 99.4777 166.296C97.6942 165.588 95.8278 165.255 93.9614 164.922C90.5188 164.298 87.2422 163.507 84.09 162.008C81.1867 160.635 78.4492 158.803 76.0851 156.597C73.4306 154.14 71.1909 151.268 69.5318 148.063C69.4489 147.938 69.2415 148.063 69.3245 148.188C72.1863 153.724 76.7902 158.303 82.2236 161.301C85.0025 162.841 87.9888 163.965 91.058 164.589C94.6664 165.38 98.3993 165.672 101.676 167.587C104.828 169.46 107.317 172.374 108.561 175.829C108.561 175.954 108.768 175.871 108.727 175.746ZM103.376 163.424C99.4777 157.721 92.0534 156.513 86.1223 154.016C80.0253 151.476 75.0067 146.897 71.1494 141.61C69.0341 138.738 67.2092 135.616 65.5916 132.452C65.5086 132.327 65.3013 132.452 65.3842 132.577C68.2046 138.155 71.6886 143.525 76.2925 147.855C78.5737 150.019 81.1867 151.893 83.9656 153.35C87.1592 154.973 90.6847 155.93 94.0443 157.221C97.5283 158.595 101.054 160.426 103.211 163.59C103.252 163.673 103.459 163.549 103.376 163.424Z" fill="#4C4942"/>
<path d="M98.1919 153.641C95.4545 147.563 88.9427 144.691 83.5508 141.569C77.7441 138.197 72.9329 133.576 68.7023 128.372C66.3382 125.5 64.2229 122.419 62.1905 119.339C62.1076 119.214 61.9002 119.339 61.9832 119.464C65.5501 124.917 69.4489 130.162 74.1357 134.7C76.4584 136.948 78.947 138.988 81.6429 140.694C84.6292 142.609 87.8229 144.108 90.7677 146.064C93.7125 148.021 96.4914 150.477 97.9846 153.807C98.0675 153.891 98.2749 153.766 98.1919 153.641ZM84.09 134.741C82.0991 134.825 80.3571 133.784 78.864 132.535C77.2879 131.203 75.9192 129.621 74.509 128.122C71.2738 124.751 68.0802 121.379 64.845 118.007C63.0201 116.092 61.2366 114.218 59.4116 112.304C59.2872 112.179 59.1213 112.345 59.2457 112.47C62.5638 115.967 65.9234 119.464 69.2415 122.96C70.9006 124.709 72.5596 126.457 74.2601 128.206C75.7118 129.746 77.122 131.369 78.7396 132.743C80.2327 134.034 82.0577 135.033 84.09 134.991C84.2559 134.95 84.2559 134.741 84.09 134.741ZM112.335 183.53C113.538 174.913 114.368 166.296 114.824 157.596C114.824 157.429 114.575 157.429 114.575 157.596C114.119 166.254 113.289 174.872 112.086 183.447C112.086 183.614 112.294 183.697 112.335 183.53ZM116.898 197.351C116.441 193.813 115.985 190.149 116.649 186.611C117.271 183.239 119.303 180.2 119.096 176.703C119.096 176.537 118.847 176.537 118.847 176.703C119.054 180.325 116.898 183.447 116.359 186.944C115.819 190.399 116.234 193.937 116.649 197.393C116.69 197.476 116.939 197.476 116.898 197.351ZM117.188 200.598C114.741 197.309 111.921 193.896 108.229 191.939C104.704 190.066 100.598 189.983 96.7403 189.233C94.5005 188.817 92.3438 188.109 90.4774 186.777C90.3529 186.694 90.2285 186.902 90.3529 186.985C93.5051 189.317 97.5283 189.608 101.261 190.191C103.211 190.482 105.16 190.857 106.943 191.606C108.934 192.439 110.676 193.771 112.211 195.228C113.953 196.893 115.488 198.766 116.939 200.723C117.064 200.848 117.271 200.723 117.188 200.598ZM114.99 191.44C111.589 187.194 108.022 182.781 103.211 180.075C97.9016 177.119 91.7631 177.119 85.9979 175.787C82.8457 175.08 79.735 173.956 77.2879 171.791C77.1635 171.708 76.9976 171.874 77.122 171.957C81.4355 175.787 87.4496 176.37 92.9245 177.203C95.9937 177.702 99.0629 178.285 101.883 179.659C104.413 180.866 106.612 182.573 108.602 184.529C110.884 186.736 112.833 189.15 114.824 191.606C114.907 191.731 115.073 191.565 114.99 191.44ZM110.179 178.285C107.026 173.664 101.469 171.541 96.2426 170.292C90.2285 168.835 83.7997 168.253 78.4078 164.922C75.7948 163.299 73.5136 161.051 72.3522 158.137C72.3108 158.012 72.0619 158.053 72.1034 158.22C74.0528 163.215 79.0714 166.171 83.9656 167.711C90.0626 169.668 96.5744 169.959 102.464 172.582C105.367 173.872 108.105 175.746 109.93 178.41C110.054 178.535 110.262 178.41 110.179 178.285ZM105.658 168.086C102.713 162.674 96.284 160.759 90.7677 159.302C87.4496 158.428 84.1315 157.596 81.0622 156.055C78.4078 154.723 76.0021 152.975 73.9283 150.893C71.6057 148.562 69.6977 145.856 68.329 142.859C68.2461 142.734 68.0802 142.859 68.1216 142.984C70.4858 148.187 74.509 152.559 79.4032 155.431C82.1821 157.054 85.2099 158.095 88.2791 158.928C91.5143 159.802 94.8738 160.551 97.9431 161.925C100.971 163.299 103.833 165.255 105.45 168.253C105.533 168.336 105.699 168.211 105.658 168.086Z" fill="#4C4942"/>
<path d="M99.2703 155.681C97.4868 153.224 94.7494 151.851 92.0949 150.685C89.233 149.436 86.4541 148.146 83.7582 146.522C78.4077 143.275 73.5965 139.071 69.6977 134.159C67.5409 131.411 65.633 128.455 64.0569 125.333C63.974 125.208 63.7666 125.333 63.8495 125.458C66.587 130.911 70.3198 135.865 74.7578 140.028C79.3202 144.274 84.5877 147.646 90.2699 150.144C93.4221 151.518 96.9061 152.891 99.0214 155.805C99.1458 155.93 99.3532 155.805 99.2703 155.681ZM102.962 162.716C101.842 160.718 101.469 158.511 101.261 156.263C101.054 154.057 100.888 151.892 100.556 149.728C99.8924 145.149 98.7311 140.653 97.155 136.323C96.284 133.95 95.2471 131.578 94.1272 129.33C94.0443 129.205 93.8369 129.33 93.9198 129.454C95.9937 133.659 97.6527 138.03 98.8555 142.568C99.4362 144.815 99.8924 147.063 100.266 149.353C100.639 151.643 100.805 153.932 101.012 156.222C101.22 158.511 101.593 160.843 102.754 162.882C102.837 162.966 103.045 162.841 102.962 162.716ZM108.478 174.455C108.644 171.458 108.976 168.502 109.308 165.547C109.556 163.132 109.888 160.634 109.681 158.22C109.349 154.14 108.146 150.102 106.86 146.273C106.197 144.358 105.533 142.484 104.662 140.653C104.579 140.528 104.413 140.653 104.455 140.778C106.114 144.316 107.317 148.146 108.271 151.934C108.768 153.891 109.183 155.847 109.39 157.845C109.598 160.135 109.349 162.424 109.142 164.672C108.81 167.961 108.437 171.208 108.229 174.497C108.229 174.622 108.478 174.622 108.478 174.455ZM93.0903 146.397C92.3437 139.279 89.4819 132.285 85.749 126.207C84.7536 124.542 83.6337 122.96 82.4309 121.462C82.348 121.337 82.1821 121.503 82.265 121.628C86.6615 127.165 89.9381 133.825 91.7631 140.694C92.2608 142.568 92.6341 144.482 92.8415 146.439C92.8415 146.564 93.0903 146.564 93.0903 146.397ZM73.7624 123.543C73.555 118.506 67.7898 116.341 66.504 111.804C66.4625 111.637 66.2552 111.721 66.2552 111.887C67.4995 116.425 73.3061 118.631 73.472 123.585C73.5135 123.71 73.7624 123.71 73.7624 123.543ZM184.877 220.996C193.919 218.707 202.007 213.503 208.519 206.884C214.491 200.806 219.178 193.563 222.911 185.903C226.685 178.243 229.589 170.209 232.368 162.175C235.188 154.099 237.925 145.939 241.326 138.113C244.686 130.37 248.751 122.877 254.143 116.341C254.806 115.55 255.47 114.76 256.175 113.969C256.714 113.386 255.926 112.636 255.345 113.136C246.884 119.963 236.93 124.459 227.059 128.83C217.229 133.159 207.357 137.489 198.523 143.733C189.979 149.769 182.43 157.179 176.292 165.671C170.07 174.247 165.508 183.78 162.77 194.021C159.95 204.553 158.83 215.584 159.535 226.491C159.618 227.782 159.743 229.072 159.867 230.321C159.95 231.07 161.153 231.07 161.07 230.321C159.909 219.539 160.655 208.549 163.019 197.975C164.222 192.73 165.798 187.61 167.913 182.656C169.946 177.869 172.517 173.331 175.379 169.002C181.144 160.385 188.403 152.767 196.657 146.522C200.887 143.317 205.367 140.528 210.053 138.072C214.782 135.574 219.676 133.368 224.57 131.203C234.4 126.874 244.396 122.627 253.106 116.3C254.143 115.55 255.138 114.76 256.134 113.969C255.843 113.677 255.553 113.386 255.304 113.136C249.663 119.422 245.308 126.665 241.741 134.283C238.174 141.985 235.354 149.977 232.575 157.97C229.796 166.005 227.017 174.081 223.492 181.865C220.049 189.483 215.819 196.851 210.302 203.179C204.247 210.131 196.615 215.876 187.864 218.831C186.785 219.206 185.665 219.539 184.545 219.789C183.799 220.039 184.131 221.204 184.877 220.996Z" fill="#4C4942"/>
<path d="M185.5 219.623C178.449 220.788 171.688 223.536 165.342 226.866C163.559 227.782 161.817 228.781 160.075 229.822C159.411 230.238 160.033 231.237 160.697 230.862C166.752 227.199 173.223 224.077 180.025 222.12C181.933 221.579 183.882 221.121 185.831 220.788C186.578 220.663 186.288 219.498 185.5 219.623Z" fill="#4C4942"/>
<path d="M160.988 230.529C164.14 221.662 167.956 213.045 172.353 204.761C176.749 196.435 181.768 188.401 187.284 180.741C192.842 173.04 198.939 165.713 205.492 158.886C212.087 151.976 219.138 145.565 226.604 139.654C234.857 133.118 243.07 126.499 250.784 119.255C251.697 118.381 252.609 117.507 253.522 116.633C254.061 116.092 253.231 115.259 252.692 115.8C245.061 123.252 236.89 130.121 228.511 136.698C220.921 142.651 213.622 148.937 206.861 155.806C200.183 162.591 193.962 169.793 188.28 177.411C182.597 184.987 177.454 192.98 172.892 201.264C168.329 209.548 164.348 218.124 161.03 226.991C160.615 228.073 160.2 229.155 159.827 230.279C159.578 230.945 160.698 231.237 160.988 230.529Z" fill="#4C4942"/>
<path d="M162.065 225.284C164.512 220.08 166.711 214.585 167.084 208.757C167.291 205.76 166.918 202.804 166.462 199.89C166.047 197.101 165.632 194.271 165.508 191.44C165.384 188.484 165.632 185.404 167.25 182.864C167.374 182.698 167.084 182.531 167.001 182.698C165.632 184.779 165.218 187.277 165.176 189.733C165.135 192.439 165.466 195.145 165.84 197.809C166.296 200.89 166.877 203.928 166.877 207.051C166.877 209.965 166.337 212.837 165.549 215.626C164.595 218.873 163.268 222.037 161.817 225.117C161.734 225.284 161.982 225.451 162.065 225.284ZM169.199 209.382C172.808 203.804 173.886 197.143 174.342 190.649C174.799 184.072 174.716 177.411 176.333 170.958C177.246 167.42 178.656 164.006 180.854 161.051C180.979 160.884 180.73 160.759 180.605 160.884C176.748 166.046 175.338 172.499 174.757 178.826C174.135 185.487 174.342 192.231 173.015 198.766C172.269 202.471 171.024 206.052 168.95 209.215C168.826 209.382 169.075 209.548 169.199 209.382ZM177.495 194.395C181.559 188.276 182.43 180.825 183.799 173.748C185.085 166.962 187.283 160.177 190.808 154.224C192.799 150.893 195.205 147.896 197.901 145.107C198.025 144.982 197.818 144.774 197.693 144.899C195.371 147.355 193.173 149.978 191.348 152.85C189.606 155.556 188.237 158.428 187.076 161.426C185.707 164.839 184.628 168.336 183.882 171.958C183.135 175.538 182.596 179.201 181.808 182.781C180.896 186.861 179.568 190.857 177.246 194.312C177.163 194.395 177.412 194.562 177.495 194.395ZM189.854 176.745C192.675 170.542 194.749 164.09 197.403 157.845C199.726 152.309 202.588 146.855 206.486 142.276C208.643 139.779 211.09 137.531 213.869 135.782C214.035 135.699 213.869 135.408 213.703 135.532C208.809 138.655 204.952 143.15 201.966 148.063C198.606 153.558 196.283 159.594 194.044 165.588C192.633 169.293 191.223 173.04 189.606 176.62C189.523 176.787 189.772 176.911 189.854 176.745ZM204.579 159.344C207.689 151.476 212.003 144.233 217.312 137.614C218.846 135.699 220.464 133.826 222.082 131.994C222.206 131.869 221.999 131.619 221.874 131.786C216.233 138.113 211.09 144.941 207.275 152.559C206.196 154.765 205.201 156.971 204.288 159.261C204.247 159.427 204.537 159.511 204.579 159.344ZM215.611 148.312C218.68 142.568 222.33 137.156 226.602 132.202C227.847 130.745 229.174 129.33 230.501 127.956C230.626 127.831 230.418 127.623 230.294 127.748C225.731 132.41 221.625 137.531 218.224 143.109C217.229 144.774 216.275 146.439 215.362 148.146C215.238 148.312 215.528 148.479 215.611 148.312ZM161.734 228.614C164.015 221.537 170.444 216.708 176.997 213.836C184.836 210.423 193.338 209.215 201.426 206.509C205.657 205.094 209.805 203.221 213.372 200.515C213.537 200.39 213.372 200.14 213.206 200.265C206.445 205.344 198.067 207.3 190.062 209.34C182.306 211.338 174.301 213.586 168.079 218.915C165.093 221.496 162.646 224.701 161.443 228.489C161.402 228.698 161.692 228.781 161.734 228.614ZM166.918 214.003C168.992 210.964 171.066 207.842 173.803 205.344C175.172 204.095 176.665 202.971 178.324 202.138C180.191 201.223 182.181 200.64 184.214 200.265C188.444 199.474 192.758 199.391 197.03 198.975C201.178 198.558 205.325 197.892 209.265 196.477C212.957 195.145 216.316 193.105 219.717 191.19C219.883 191.107 219.717 190.857 219.551 190.94C216.399 192.689 213.289 194.604 209.929 195.894C205.947 197.434 201.758 198.184 197.528 198.6C193.297 199.058 189.066 199.141 184.877 199.807C181.02 200.432 177.453 201.805 174.425 204.345C171.273 207.009 168.909 210.464 166.628 213.836C166.545 214.003 166.835 214.169 166.918 214.003ZM175.504 199.016C177.287 195.436 180.191 192.439 183.675 190.482C185.458 189.483 187.366 188.734 189.398 188.318C191.887 187.777 194.458 187.693 196.988 187.485C201.178 187.194 205.284 186.444 209.224 184.946C212.957 183.572 216.524 181.657 219.717 179.243C223.284 176.578 226.395 173.373 228.842 169.668C228.967 169.501 228.676 169.377 228.593 169.501C224.031 176.329 217.229 181.532 209.597 184.446C205.615 185.986 201.426 186.819 197.154 187.11C194.707 187.277 192.26 187.36 189.854 187.818C187.905 188.193 186.039 188.817 184.255 189.733C180.398 191.69 177.163 194.895 175.213 198.766C175.172 199.058 175.421 199.183 175.504 199.016ZM184.048 184.405C190.02 177.494 200.016 177.328 208.104 174.705C215.777 172.207 222.455 167.212 227.93 161.342C230.999 158.054 233.695 154.432 236.183 150.685C236.308 150.519 236.018 150.394 235.935 150.519C231.455 157.263 226.188 163.59 219.634 168.378C216.358 170.792 212.708 172.79 208.892 174.122C204.496 175.663 199.85 176.329 195.412 177.619C191.14 178.868 186.868 180.741 183.882 184.155C183.716 184.321 183.923 184.529 184.048 184.405Z" fill="#4C4942"/>
<path d="M192.012 172.79C196.45 165.422 205.326 162.799 212.668 159.51C220.299 156.055 226.977 150.893 232.949 145.024C236.268 141.777 239.337 138.321 242.323 134.741C242.448 134.575 242.24 134.367 242.116 134.533C236.724 140.986 230.917 147.188 224.198 152.267C220.838 154.806 217.271 157.013 213.497 158.803C209.474 160.676 205.285 162.133 201.386 164.256C197.612 166.254 194.003 168.919 191.763 172.665C191.639 172.832 191.888 172.957 192.012 172.79ZM212.211 151.143C214.617 151.518 216.898 150.602 218.93 149.311C221.17 147.854 223.161 146.023 225.193 144.358C229.797 140.528 234.401 136.656 239.005 132.826C241.618 130.662 244.189 128.497 246.803 126.332C246.968 126.207 246.72 125.999 246.595 126.124C242.157 129.829 237.719 133.534 233.24 137.239C231 139.112 228.802 140.944 226.562 142.817C224.405 144.607 222.331 146.481 220.092 148.146C217.852 149.811 215.198 151.268 212.294 150.852C212.128 150.852 212.045 151.143 212.211 151.143ZM169.864 208.174C169.698 199.641 169.823 191.107 170.196 182.573C170.32 180.158 170.445 177.744 170.611 175.371C170.611 175.163 170.32 175.163 170.32 175.371C169.781 183.905 169.491 192.439 169.491 200.973C169.491 203.387 169.532 205.802 169.574 208.216C169.574 208.341 169.864 208.341 169.864 208.174ZM162.066 224.909C162.937 221.454 163.767 217.999 163.974 214.419C164.057 212.712 164.016 211.047 163.767 209.34C163.477 207.633 162.937 206.01 162.44 204.345C161.901 202.43 161.444 200.473 161.776 198.517C161.818 198.308 161.527 198.267 161.486 198.433C160.905 201.722 162.398 204.844 163.145 207.966C164.016 211.546 163.726 215.251 163.062 218.79C162.689 220.788 162.191 222.786 161.693 224.784C161.735 225.034 161.984 225.117 162.066 224.909ZM161.154 229.114C164.762 225.284 168.869 221.329 173.887 219.456C178.698 217.666 183.966 218.207 188.985 217.707C191.681 217.458 194.335 216.875 196.699 215.501C196.865 215.418 196.699 215.126 196.533 215.251C191.971 217.874 186.537 217.499 181.477 217.791C178.989 217.916 176.5 218.207 174.136 219.04C171.689 219.914 169.491 221.288 167.458 222.869C165.136 224.659 163.02 226.741 160.988 228.864C160.781 229.03 161.03 229.239 161.154 229.114ZM165.219 217.957C170.196 213.045 175.38 207.925 181.975 205.26C189.192 202.305 197.072 203.346 204.621 202.346C208.437 201.847 212.294 200.806 215.488 198.558C215.654 198.433 215.488 198.184 215.322 198.308C209.101 202.679 201.096 202.346 193.837 202.721C190.021 202.929 186.164 203.346 182.556 204.719C179.362 205.927 176.417 207.758 173.721 209.84C170.652 212.254 167.832 215.002 165.053 217.749C164.887 217.874 165.094 218.124 165.219 217.957ZM173.265 202.097C178.201 196.435 186.04 194.728 193.132 193.937C200.805 193.105 208.852 193.022 215.861 189.358C219.096 187.652 222 185.237 223.742 181.948C223.825 181.782 223.576 181.615 223.493 181.782C220.133 188.109 212.833 190.982 206.156 192.147C198.317 193.521 190.146 193.105 182.514 195.769C178.947 197.018 175.546 198.933 173.058 201.847C172.933 202.013 173.141 202.222 173.265 202.097ZM180.523 189.899C185.293 183.114 194.335 181.948 201.842 180.866C205.99 180.242 210.096 179.534 213.995 177.952C217.313 176.62 220.424 174.747 223.202 172.499C226.355 169.959 229.051 166.879 231.124 163.424C231.207 163.257 230.959 163.091 230.876 163.257C227.06 169.626 221.129 174.622 214.285 177.494C210.428 179.118 206.363 179.909 202.216 180.491C198.068 181.116 193.879 181.615 189.897 183.031C186.164 184.363 182.556 186.444 180.233 189.733C180.15 189.899 180.399 190.066 180.523 189.899Z" fill="#4C4942"/>
<path d="M190.355 175.246C193.051 172.291 196.991 170.958 200.724 169.834C204.498 168.669 208.189 167.378 211.756 165.672C218.849 162.3 225.361 157.72 230.877 152.142C233.946 149.062 236.684 145.648 239.089 141.985C239.214 141.818 238.923 141.652 238.84 141.818C234.527 148.437 228.969 154.182 222.623 158.844C219.43 161.176 216.07 163.215 212.544 164.964C208.936 166.754 205.203 168.128 201.387 169.293C197.406 170.542 193.092 171.833 190.189 174.996C190.023 175.163 190.23 175.371 190.355 175.246ZM184.672 183.53C186.29 181.324 187.12 178.701 187.7 176.079C188.322 173.331 188.82 170.584 189.525 167.878C191.06 162.175 193.175 156.638 195.83 151.351C197.323 148.437 198.94 145.565 200.765 142.817C200.89 142.651 200.599 142.526 200.516 142.651C197.323 147.521 194.627 152.725 192.47 158.137C191.392 160.843 190.479 163.548 189.65 166.338C188.862 169.127 188.281 171.957 187.659 174.788C187.037 177.786 186.249 180.824 184.382 183.364C184.299 183.53 184.548 183.655 184.672 183.53ZM176.045 197.351C176.294 193.646 176.294 189.941 176.377 186.236C176.419 184.404 176.46 182.531 176.585 180.7C176.668 179.409 176.75 178.16 176.999 176.87C177.456 174.497 178.244 172.166 179.073 169.876C180.027 167.295 181.105 164.797 182.267 162.341C183.345 160.01 184.548 157.72 185.875 155.556C185.958 155.389 185.709 155.223 185.626 155.389C183.013 159.594 180.94 164.173 179.156 168.752C178.244 171.125 177.414 173.539 176.833 176.037C176.211 178.826 176.17 181.74 176.087 184.613C175.962 188.859 176.004 193.105 175.755 197.351C175.755 197.559 176.045 197.559 176.045 197.351ZM199.562 164.298C200.516 159.968 202.217 155.806 204.208 151.851C206.323 147.73 208.853 143.775 211.715 140.111C213.208 138.197 214.826 136.323 216.568 134.617C216.692 134.492 216.485 134.283 216.36 134.408C213.167 137.572 210.388 141.152 207.941 144.899C205.411 148.77 203.171 152.892 201.47 157.221C200.558 159.469 199.811 161.8 199.314 164.173C199.231 164.423 199.521 164.506 199.562 164.298ZM227.269 138.321C227.725 135.241 230.172 132.993 232.453 131.078C234.651 129.246 236.974 127.373 238.094 124.626C238.177 124.459 237.886 124.376 237.804 124.542C235.564 130.079 227.932 131.994 226.978 138.238C226.937 138.446 227.227 138.53 227.269 138.321ZM131.002 88.9081C124.159 86.5769 118.269 82.1227 113.624 76.6277C109.269 71.4657 106.075 65.3879 103.628 59.1436C101.181 52.8577 99.3972 46.2803 97.7382 39.7446C96.0377 33.1673 94.4201 26.5899 92.2218 20.1791C90.0651 13.8932 87.3277 7.7321 83.5118 2.23711C83.0141 1.52942 82.5164 0.863358 82.0187 0.197299C81.7698 0.405442 81.521 0.571958 81.2721 0.780102C87.3691 6.5665 94.7104 10.6877 102.01 14.6425C109.434 18.6388 116.942 22.5519 123.536 27.8388C129.965 33.0007 135.523 39.2451 139.878 46.2803C144.316 53.3988 147.427 61.225 148.961 69.4675C150.579 78.043 150.786 86.9516 149.501 95.5687C149.335 96.5678 149.169 97.5669 149.003 98.6077C148.878 99.1905 149.791 99.4818 149.915 98.8574C151.574 90.3235 151.699 81.4566 150.496 72.8395C149.293 64.3472 146.639 56.2296 142.45 48.778C138.385 41.5346 133.117 34.9989 126.937 29.5039C120.55 23.8424 113.25 19.6379 105.785 15.5999C98.3603 11.6036 90.7287 7.64884 84.2169 2.15385C83.4289 1.48779 82.6823 0.82173 81.9357 0.114042C81.5625 -0.218988 80.8574 0.238928 81.1892 0.696844C85.2953 6.10858 88.3231 12.228 90.6458 18.5972C93.0099 25.0497 94.669 31.6686 96.411 38.3292C98.1115 44.9482 99.812 51.5672 102.176 57.9364C104.499 64.2223 107.527 70.3001 111.633 75.6702C115.988 81.3317 121.67 86.1607 128.265 88.9498C129.094 89.2828 129.924 89.6158 130.753 89.9072C131.334 90.0321 131.583 89.1163 131.002 88.9081Z" fill="#4C4942"/>
<path d="M130.006 89.616C136.974 91.3228 143.444 94.9861 149.251 99.149C149.748 99.5237 150.204 98.6911 149.748 98.3164C143.859 94.1119 137.347 90.4486 130.254 88.7002C129.674 88.5337 129.425 89.4495 130.006 89.616Z" fill="#4C4942"/>
<path d="M149.954 98.6075C148.005 91.3641 145.558 84.2456 142.571 77.3352C139.626 70.4248 136.142 63.7226 132.244 57.2701C128.345 50.8177 123.99 44.615 119.22 38.787C114.409 32.8757 109.183 27.2974 103.584 22.0938C97.4865 16.4323 91.4725 10.7292 85.8732 4.5265C85.2096 3.77718 84.546 3.02786 83.8823 2.27855C83.4676 1.82063 82.804 2.48669 83.2187 2.94461C88.6936 9.18892 94.6247 15.0586 100.722 20.6785C106.321 25.8404 111.671 31.2105 116.607 37.0386C121.501 42.8249 125.939 48.9027 130.004 55.3136C133.986 61.6411 137.553 68.3017 140.622 75.1289C143.691 81.956 146.263 88.9912 148.336 96.193C148.585 97.0672 148.834 97.9414 149.042 98.8156C149.207 99.44 150.12 99.1903 149.954 98.6075Z" fill="#4C4942"/>
<path d="M148.71 94.4865C147.092 90.0739 145.641 85.4115 145.848 80.6658C145.931 78.2513 146.512 75.8785 147.092 73.5473C147.59 71.4242 148.046 69.3011 148.295 67.1364C148.544 64.8885 148.461 62.5989 147.383 60.5591C147.3 60.4342 147.092 60.5591 147.175 60.684C148.212 62.5989 148.295 64.8469 148.088 66.9699C147.881 69.2179 147.383 71.4242 146.844 73.5889C146.304 75.7952 145.765 78.0015 145.641 80.2911C145.516 82.5391 145.765 84.787 146.221 86.9934C146.761 89.5743 147.59 92.1137 148.503 94.6114C148.544 94.6947 148.793 94.653 148.71 94.4865ZM144.106 81.4567C138.963 71.8821 142.737 60.6007 140.954 50.3601C140.456 47.5709 139.544 44.8651 138.051 42.4506C137.968 42.3257 137.76 42.4506 137.843 42.5755C143.65 51.8171 140.083 63.265 141.41 73.4224C141.784 76.2531 142.572 79.0423 143.899 81.5816C143.982 81.7065 144.189 81.5816 144.106 81.4567ZM138.507 69.093C135.604 63.8061 135.479 57.6867 134.816 51.8171C134.235 46.447 132.866 41.0352 130.461 36.2063C129.133 33.5004 127.433 31.0443 125.525 28.7131C125.442 28.5882 125.276 28.7547 125.359 28.8796C127.101 31.0027 128.677 33.2506 129.963 35.7067C131.166 38.038 132.078 40.4524 132.825 42.9501C133.654 45.7393 134.235 48.57 134.567 51.4424C134.898 54.3148 135.064 57.2288 135.521 60.0596C135.977 63.2233 136.765 66.3455 138.341 69.1763C138.382 69.3428 138.59 69.2179 138.507 69.093ZM129.88 54.3564C126.437 44.7402 124.986 34.1248 118.764 25.7158C117.23 23.676 115.488 21.8444 113.455 20.3041C113.331 20.2208 113.206 20.429 113.331 20.5122C121.294 26.5484 124.322 36.4561 126.935 45.656C127.765 48.57 128.636 51.5257 129.672 54.398C129.714 54.5646 129.963 54.5229 129.88 54.3564ZM119.386 39.7031C117.437 33.2923 114.492 27.2977 110.759 21.7195C109.639 20.0543 108.478 18.4724 107.275 16.8905C107.192 16.7657 106.985 16.8905 107.068 17.0154C111.133 22.3855 114.741 28.0471 117.23 34.2914C117.935 36.0814 118.598 37.9131 119.137 39.7864C119.179 39.9112 119.428 39.8696 119.386 39.7031ZM111.34 30.2534C108.644 24.0507 105.119 18.3892 100.846 13.1856C100.764 13.0607 100.598 13.2272 100.681 13.3521C104.953 18.5141 108.478 24.1756 111.133 30.3783C111.216 30.5031 111.423 30.3783 111.34 30.2534ZM148.793 97.1924C147.466 91.5309 142.862 87.2848 137.926 84.6205C132.037 81.4151 125.442 79.9165 119.262 77.3771C115.819 75.9617 112.501 74.2133 109.681 71.7156C109.556 71.6324 109.391 71.7989 109.515 71.8821C114.285 76.0866 120.382 78.1681 126.313 80.1662C132.451 82.2477 138.839 84.3707 143.608 88.9915C145.973 91.2395 147.839 94.0702 148.586 97.2757C148.586 97.4005 148.834 97.3589 148.793 97.1924ZM145.599 85.245C144.189 82.7056 142.737 80.1662 140.747 78.0015C138.714 75.7536 136.184 74.2133 133.322 73.3808C130.087 72.4233 126.645 72.0903 123.327 71.5075C119.926 70.9247 116.566 70.1753 113.414 68.8432C110.469 67.5527 107.856 65.6794 105.16 63.8894C105.036 63.8061 104.911 64.0143 105.036 64.0975C107.358 65.6378 109.639 67.303 112.128 68.5102C114.99 69.9256 118.101 70.7998 121.253 71.3826C124.571 72.007 127.93 72.3817 131.207 73.0894C134.359 73.797 137.304 75.0043 139.668 77.2522C142.074 79.5418 143.733 82.4974 145.35 85.3698C145.475 85.4947 145.682 85.3698 145.599 85.245ZM139.793 72.8812C138.673 70.0505 136.723 67.636 134.276 65.846C133.032 64.9301 131.622 64.1808 130.17 63.6813C128.345 63.0152 126.479 62.7238 124.571 62.474C121.128 61.9745 117.769 61.2668 114.575 59.893C111.589 58.6025 108.81 56.8541 106.321 54.7727C103.584 52.3999 101.22 49.6107 99.4363 46.447C99.3533 46.3221 99.1459 46.447 99.2289 46.5718C102.298 52.0252 107.068 56.4795 112.626 59.3102C115.446 60.7256 118.474 61.7663 121.585 62.3491C125.234 63.0152 128.967 63.1817 132.327 65.0134C135.521 66.7618 138.175 69.5925 139.544 73.0477C139.627 73.0894 139.876 73.0477 139.793 72.8812ZM133.986 60.7256C129.88 55.1474 122.456 54.1899 116.442 51.9003C110.22 49.5691 105.077 45.1981 100.971 40.0361C98.6897 37.1637 96.7403 34.0832 94.9568 30.8778C94.8739 30.7529 94.6665 30.8778 94.7494 31.0027C97.7772 36.4977 101.469 41.7845 106.238 45.9474C108.644 48.0288 111.298 49.8605 114.16 51.1926C117.478 52.7329 121.045 53.5655 124.488 54.7727C128.013 56.0216 131.539 57.77 133.82 60.8505C133.862 60.9754 134.069 60.8505 133.986 60.7256Z" fill="#4C4942"/>
<path d="M128.431 51.0677C125.486 45.1147 118.974 42.4505 113.458 39.5365C107.444 36.3311 102.384 31.8352 97.9043 26.7148C95.4572 23.8841 93.1761 20.9284 91.0193 17.8479C90.9363 17.723 90.729 17.8479 90.8119 17.9728C94.5862 23.3013 98.6924 28.4632 103.545 32.8343C105.992 35.0406 108.605 37.0388 111.467 38.7039C114.536 40.494 117.771 41.9093 120.799 43.7826C123.786 45.6143 126.606 47.9871 128.182 51.1925C128.306 51.3591 128.514 51.2342 128.431 51.0677ZM113.624 32.5845C111.592 32.7094 109.767 31.7103 108.19 30.4614C106.573 29.1293 105.121 27.589 103.628 26.132C100.31 22.885 96.9919 19.638 93.6738 16.3909C91.8073 14.5592 89.9409 12.7276 88.0745 10.8959C87.95 10.771 87.7841 10.9375 87.9086 11.0624C91.3511 14.4344 94.7936 17.8063 98.2362 21.1782C99.9782 22.8434 101.679 24.5501 103.421 26.2153C104.955 27.7139 106.448 29.3374 108.149 30.6696C109.725 31.9184 111.592 32.9591 113.665 32.7926C113.748 32.8343 113.748 32.5845 113.624 32.5845ZM143.694 80.5824C144.565 71.9237 145.104 63.2232 145.27 54.5228C145.27 54.3563 145.021 54.3563 145.021 54.5228C144.855 63.2232 144.358 71.9237 143.445 80.5824C143.445 80.7073 143.694 80.7073 143.694 80.5824ZM148.796 94.2367C148.215 90.5733 147.593 86.7851 148.215 83.0802C148.505 81.3734 149.169 79.7915 149.791 78.168C150.372 76.6277 150.87 75.0874 150.745 73.4223C150.745 73.2558 150.496 73.2558 150.496 73.4223C150.662 75.2123 150.04 76.8775 149.418 78.5426C148.754 80.2078 148.174 81.8313 147.925 83.6213C147.427 87.2014 148.008 90.8231 148.588 94.3615C148.588 94.4864 148.796 94.4032 148.796 94.2367ZM149.169 97.5253C146.597 94.2783 143.653 90.9896 139.878 89.158C136.228 87.3679 132.081 87.4512 128.141 86.7851C125.942 86.4105 123.744 85.8277 121.878 84.5372C121.753 84.4539 121.629 84.662 121.753 84.7453C124.988 86.9516 129.012 87.1598 132.786 87.6177C134.818 87.8675 136.851 88.2005 138.717 88.9082C140.749 89.6991 142.533 90.9896 144.15 92.4466C145.934 94.0285 147.51 95.8186 148.962 97.6918C149.086 97.8167 149.252 97.6502 149.169 97.5253ZM146.68 88.4503C143.113 84.2874 139.381 79.9996 134.445 77.4603C129.012 74.6711 122.873 74.8793 117.025 73.7553C113.831 73.1309 110.679 72.0902 108.149 70.0087C108.025 69.9255 107.859 70.092 107.983 70.1752C112.421 73.8386 118.394 74.2549 123.868 74.9209C127.021 75.2956 130.173 75.7951 133.118 77.0856C135.689 78.2096 137.97 79.8747 140.044 81.7064C142.408 83.8295 144.482 86.2023 146.515 88.6168C146.597 88.7417 146.763 88.5752 146.68 88.4503ZM141.33 75.4205C137.97 70.8829 132.371 68.9264 127.062 67.8857C120.924 66.6368 114.37 66.2621 108.854 63.0151C106.2 61.4748 103.918 59.3101 102.674 56.4794C102.633 56.3545 102.425 56.4794 102.467 56.6043C104.623 61.5581 109.808 64.3472 114.785 65.7626C120.924 67.4694 127.435 67.5943 133.408 70.0087C136.394 71.216 139.215 73.006 141.164 75.6286C141.247 75.6286 141.454 75.5454 141.33 75.4205ZM136.436 65.3047C133.284 59.9346 126.73 58.2694 121.09 56.9789C117.771 56.2296 114.412 55.4803 111.26 54.0233C108.605 52.7744 106.117 51.1093 103.96 49.1111C101.554 46.8632 99.5219 44.1989 98.0288 41.2433C97.9458 41.1184 97.7384 41.2433 97.8214 41.3682C100.351 46.4885 104.541 50.7346 109.559 53.4405C112.38 54.9808 115.449 55.9382 118.56 56.6459C121.836 57.3952 125.154 58.0197 128.265 59.2685C131.417 60.5174 134.445 62.4323 136.228 65.4296C136.311 65.5961 136.519 65.4712 136.436 65.3047Z" fill="#4C4942"/>
<path d="M129.547 53.0658C127.722 50.693 124.943 49.4441 122.247 48.3201C119.302 47.1129 116.399 45.9473 113.62 44.3654C108.145 41.2849 103.209 37.2469 99.1447 32.5012C96.8635 29.837 94.8312 26.923 93.1722 23.8008C93.0892 23.6759 92.8818 23.8008 92.9648 23.9257C95.9096 29.3791 99.8913 34.2496 104.578 38.2876C109.265 42.3672 114.615 45.531 120.422 47.8206C123.657 49.1111 127.183 50.36 129.422 53.1907C129.464 53.3572 129.63 53.1907 129.547 53.0658ZM133.529 60.0178C132.326 58.0613 131.87 55.7717 131.579 53.5237C131.289 51.3174 131.04 49.1111 130.625 46.9464C129.796 42.4505 128.468 38.0378 126.768 33.8333C125.772 31.4189 124.694 29.0877 123.45 26.8397C123.367 26.7148 123.159 26.8397 123.242 26.9646C125.482 31.0858 127.307 35.4152 128.676 39.9111C129.339 42.0758 129.879 44.3238 130.335 46.5301C130.791 48.7781 131.04 51.0676 131.33 53.3156C131.621 55.6884 132.077 58.0613 133.363 60.1427C133.404 60.2676 133.612 60.1427 133.529 60.0178ZM139.501 71.6322C139.543 68.635 139.791 65.6377 139.999 62.6404C140.165 60.1843 140.414 57.6866 140.123 55.2721C139.667 51.1925 138.298 47.1962 136.847 43.3663C136.142 41.493 135.354 39.6197 134.441 37.7881C134.358 37.6632 134.151 37.7881 134.234 37.913C136.017 41.4098 137.386 45.198 138.506 48.9446C139.045 50.8595 139.543 52.7744 139.833 54.731C140.165 57.0206 139.957 59.3934 139.833 61.683C139.626 64.9716 139.335 68.2603 139.294 71.5906C139.252 71.7988 139.501 71.7988 139.501 71.6322ZM123.035 43.9491C122.537 40.4107 121.459 36.9555 120.09 33.6668C118.68 30.2533 116.938 27.0062 114.906 23.9257C113.827 22.3022 112.666 20.7619 111.422 19.3049C111.339 19.18 111.173 19.3465 111.256 19.4714C115.901 24.9248 119.468 31.5438 121.5 38.3709C122.04 40.2025 122.496 42.0758 122.745 43.9908C122.828 44.1573 123.035 44.1156 123.035 43.9491ZM102.795 21.7194C102.421 16.7239 96.5732 14.7257 95.1215 10.1882C95.0801 10.0633 94.8312 10.105 94.8727 10.2715C95.5778 12.4362 97.2368 14.0597 98.8129 15.6C100.513 17.2651 102.38 19.2217 102.546 21.761C102.587 21.8859 102.836 21.8859 102.795 21.7194ZM167.871 322.279H166.668C166.751 320.78 166.834 319.282 166.834 317.783C167 309.124 165.88 300.59 163.765 292.306C163.64 291.807 163.516 291.307 163.35 290.808C162.106 286.187 160.571 281.608 158.746 277.112C156.465 271.409 153.81 265.872 151.197 260.294C150.368 258.545 149.58 256.797 148.792 255.007C148.543 254.507 148.336 254.008 148.128 253.508C146.386 249.595 144.727 245.682 143.11 241.727C136.722 226.241 130.999 209.965 130.667 192.98C130.501 184.571 131.952 176.287 134.275 168.211C136.681 159.968 139.874 152.017 142.736 143.983C145.598 135.907 148.17 127.665 149.29 119.172C150.202 112.512 150.326 105.435 148.626 98.8574C148.419 98.1081 149.58 97.7751 149.787 98.5244C150.078 99.5651 150.285 100.647 150.451 101.688C153.022 117.84 147.713 133.909 142.239 148.895C139.294 156.93 136.225 164.922 134.192 173.248C132.118 181.657 131.413 190.191 132.201 198.808C133.736 215.959 140.331 232.236 147.008 247.93C147.589 249.304 148.211 250.677 148.792 252.01C148.999 252.509 149.248 253.009 149.455 253.508C153.686 262.833 158.29 271.991 161.815 281.608C162.769 284.23 163.599 286.894 164.345 289.6C164.47 290.1 164.594 290.558 164.719 291.057C167.373 301.215 168.452 311.705 167.871 322.279ZM143.856 298.467C143.566 306.418 142.902 314.369 142.114 322.279H140.911C140.953 321.821 140.994 321.405 141.036 320.947C141.865 312.455 142.57 303.921 142.736 295.345C142.861 288.643 142.695 281.941 141.99 275.28C141.865 274.239 141.741 273.199 141.616 272.158C141.533 271.492 141.451 270.784 141.326 270.118C140.123 261.959 137.925 254.049 135.229 246.265C132.616 238.73 129.505 231.362 126.353 224.035C123.201 216.667 119.966 209.34 117.062 201.889C116.772 201.181 117.933 200.848 118.224 201.556C118.597 202.513 118.97 203.47 119.344 204.428C122.33 211.879 125.565 219.248 128.717 226.616C131.828 233.943 134.856 241.311 137.386 248.887C139.584 255.59 141.326 262.417 142.404 269.369C142.57 270.285 142.695 271.242 142.819 272.2C142.861 272.408 142.861 272.616 142.902 272.824C143.981 281.4 144.146 289.933 143.856 298.467Z" fill="#4C4942"/>
<path d="M160.906 230.612C157.297 236.69 154.021 243.018 151.159 249.512C150.578 250.844 149.997 252.176 149.458 253.508C149.251 254.008 149.043 254.507 148.836 255.007C146.555 260.668 144.564 266.413 142.822 272.283C142.532 273.282 142.241 274.281 141.993 275.28C141.039 278.818 140.168 282.398 139.421 285.978C136.932 297.926 135.688 310.082 135.647 322.279H134.444C134.444 315.66 134.817 308.999 135.564 302.422C136.725 292.181 138.757 282.065 141.619 272.158C141.868 271.242 142.158 270.368 142.407 269.452C142.905 267.912 143.403 266.33 143.9 264.789C145.186 260.96 146.596 257.213 148.131 253.466C148.338 252.967 148.546 252.467 148.753 251.968C151.947 244.391 155.638 237.023 159.869 229.946C160.284 229.322 161.32 229.946 160.906 230.612ZM142.781 237.106C140.748 220.288 138.716 202.971 142.988 186.319C144.896 178.868 148.048 171.666 152.735 165.588C157.339 159.677 163.228 154.973 168.662 149.853C179.487 139.653 187.99 126.707 191.93 112.262C194.916 101.313 195.207 89.9071 193.672 78.709C193.091 74.3796 192.22 70.1335 191.308 65.8457C190.686 62.9317 189.898 59.9761 189.649 57.0204C189.607 56.5209 189.566 56.063 189.607 55.5634C189.649 54.7725 188.446 54.7725 188.404 55.5634C188.321 58.1444 189.027 60.8086 189.566 63.3064C190.395 67.2611 191.308 71.1742 191.971 75.1706C193.796 85.994 194.128 97.1089 191.806 107.891C188.695 122.461 180.939 135.907 170.487 146.439C165.219 151.726 159.33 156.347 154.311 161.883C149.292 167.461 145.684 174.08 143.278 181.199C137.928 197.143 139.006 214.211 140.873 230.612C141.122 232.777 141.37 234.9 141.619 237.023C141.661 237.897 142.864 237.897 142.781 237.106ZM125.07 300.132C124.531 307.584 123.328 314.952 122.001 322.279H120.798C120.881 321.904 120.964 321.488 121.006 321.113C122.457 313.287 123.66 305.377 124.033 297.426C124.365 290.225 123.992 282.981 122.457 275.904C120.964 269.036 118.434 262.417 114.535 256.547C111.134 251.385 106.655 246.931 101.47 243.559C96.2442 240.187 90.3131 237.939 84.0917 237.356C83.3451 237.273 83.3451 236.066 84.0917 236.149C84.8797 236.232 85.6678 236.315 86.4973 236.44C92.7602 237.398 98.7328 240.02 103.834 243.725C109.019 247.472 113.415 252.259 116.692 257.754C120.383 263.874 122.748 270.742 124.033 277.778C125.402 285.146 125.609 292.681 125.07 300.132ZM226.894 233.651C226.563 234.484 226.189 235.358 225.775 236.191C222.622 242.851 217.811 248.554 212.336 253.425C206.695 258.42 200.433 262.666 194.128 266.829C187.824 270.992 181.436 275.113 175.588 279.942C171.565 283.273 167.832 286.936 164.68 291.057C164.348 291.473 164.058 291.89 163.768 292.306C162.44 294.179 161.237 296.136 160.159 298.176C157.878 302.547 156.219 307.417 155.638 312.329C155.223 315.66 155.472 318.99 155.929 322.279H154.726C154.684 322.071 154.643 321.821 154.643 321.613C154.104 317.491 154.104 313.37 154.975 309.291C156.011 304.378 157.878 299.591 160.449 295.262C161.362 293.721 162.357 292.223 163.436 290.807C163.726 290.391 164.058 289.975 164.39 289.6C167.832 285.229 171.938 281.399 176.293 277.944C182.266 273.198 188.736 269.077 195.082 264.831C201.345 260.668 207.566 256.38 213.083 251.218C218.475 246.181 223.037 240.229 225.816 233.36C226.023 232.652 227.185 232.943 226.894 233.651Z" fill="#4C4942"/>
<path d="M123.533 305.461C121.625 307.542 118.141 308.083 115.611 306.959C112.542 305.586 110.385 302.672 108.768 299.841C105.491 294.096 104.205 287.519 102.339 281.233C101.426 278.111 100.348 274.989 98.8134 272.075C97.3203 269.16 95.3709 266.538 92.9652 264.29C88.154 259.752 81.974 256.797 75.6282 255.048C67.9551 252.967 59.9501 252.509 52.0282 252.259C51.0327 252.218 50.0373 252.218 49.0419 252.176C49.1663 252.509 49.3322 252.842 49.4567 253.217C58.374 246.098 67.9965 238.522 79.7343 237.439C82.9695 237.148 86.2461 237.356 89.3568 238.189C90.1034 238.397 90.4352 237.231 89.6886 237.023C83.9234 235.483 77.8264 235.982 72.2271 237.772C66.5449 239.604 61.4018 242.685 56.5906 246.181C53.8946 248.18 51.2816 250.261 48.6686 252.384C48.2538 252.717 48.6271 253.383 49.0834 253.425C57.1298 253.633 65.2591 253.883 73.1396 255.714C79.7343 257.255 86.2046 259.961 91.3477 264.498C93.8362 266.663 95.8686 269.244 97.4862 272.158C99.0623 275.072 100.182 278.194 101.136 281.358C103.044 287.727 104.371 294.346 107.606 300.216C109.224 303.088 111.298 305.96 114.201 307.625C116.856 309.124 120.132 309.166 122.787 307.625C123.367 307.292 123.907 306.876 124.363 306.377C124.902 305.752 124.031 304.878 123.533 305.461Z" fill="#4C4942"/>
<path d="M124.448 306.21C126.231 302.921 127.641 299.383 128.844 295.844C130.171 291.89 131.291 287.81 132.079 283.689C133.697 275.113 133.863 265.996 131.042 257.629C128.637 250.511 124.074 244.266 118.143 239.687C112.088 234.983 104.788 232.111 97.1976 231.528C89.1927 230.903 80.939 232.693 73.888 236.565C73.017 237.023 72.1875 237.564 71.3579 238.105C70.7358 238.521 71.3165 239.562 71.9801 239.146C78.5333 234.817 86.3723 232.569 94.2114 232.61C101.76 232.652 109.143 234.941 115.406 239.188C121.295 243.184 126.107 248.804 128.927 255.34C132.328 263.332 132.66 272.366 131.374 280.858C130.752 284.854 129.798 288.809 128.637 292.639C127.517 296.302 126.19 299.966 124.531 303.421C124.199 304.128 123.825 304.878 123.411 305.585C123.079 306.251 124.116 306.876 124.448 306.21ZM167.583 286.644C166.836 280.858 167.21 274.905 169.283 269.41C171.357 264.04 175.049 259.586 179.777 256.339C184.381 253.175 189.607 251.052 194.833 249.303C200.183 247.472 205.658 245.973 210.967 243.892C216.152 241.852 221.212 239.229 225.318 235.399C225.816 234.941 226.313 234.442 226.769 233.942C226.438 233.817 226.106 233.651 225.733 233.526C225.442 239.437 224.198 245.307 222.124 250.844C220.009 256.38 217.064 261.625 213.373 266.246C209.889 270.617 205.782 274.447 201.22 277.694C196.616 280.941 191.598 283.564 186.33 285.437C180.15 287.643 173.638 288.726 167.21 290.1C166.38 290.266 165.592 290.433 164.762 290.641C164.016 290.807 164.348 291.973 165.094 291.806C171.689 290.308 178.367 289.267 184.837 287.227C190.312 285.479 195.579 282.939 200.349 279.776C205.077 276.653 209.349 272.865 213.041 268.577C216.94 263.998 220.133 258.836 222.456 253.3C224.779 247.763 226.272 241.893 226.769 235.941C226.852 235.191 226.894 234.4 226.935 233.651C226.977 233.151 226.272 232.86 225.898 233.235C222.041 237.398 217.023 240.228 211.797 242.393C206.488 244.599 200.971 246.14 195.538 247.93C190.187 249.72 184.837 251.759 180.109 254.84C175.297 257.92 171.357 262.167 168.952 267.37C166.504 272.699 165.716 278.693 166.173 284.521C166.214 285.271 166.297 286.02 166.422 286.811C166.504 287.394 167.707 287.394 167.583 286.644ZM148.006 172.457C145.766 169.418 145.02 165.63 145.393 161.925C145.766 157.97 147.342 154.348 149.458 151.018C151.739 147.438 154.601 144.316 157.463 141.194C160.325 138.03 163.145 134.824 165.758 131.411C170.942 124.75 175.546 117.673 179.321 110.097C183.219 102.312 186.247 94.0698 188.072 85.5359C189.98 76.7939 190.685 67.802 189.897 58.8935C189.814 57.7695 189.69 56.6455 189.524 55.5632C189.151 55.6465 188.777 55.7713 188.404 55.8546C192.925 65.1378 197.446 74.4626 200.639 84.287C203.792 94.0281 205.534 104.394 204.331 114.634C203.294 123.501 199.81 131.91 194.833 139.279C189.773 146.772 183.178 153.141 175.837 158.303C168.164 163.673 159.702 167.836 150.909 171.041C149.831 171.416 148.753 171.832 147.674 172.165C146.969 172.415 147.259 173.581 148.006 173.331C157.048 170.292 165.799 166.337 173.804 161.134C181.477 156.138 188.445 149.977 193.962 142.609C199.312 135.49 203.294 127.248 204.953 118.506C206.902 108.307 205.741 97.7331 203.004 87.7838C200.183 77.7097 195.745 68.1351 191.224 58.727C190.644 57.5614 190.104 56.3958 189.524 55.2302C189.275 54.7306 188.321 54.9388 188.404 55.5216C189.524 64.5134 189.192 73.6301 187.491 82.497C185.874 91.239 183.012 99.6897 179.155 107.682C175.463 115.342 170.942 122.585 165.799 129.371C163.228 132.743 160.49 136.032 157.629 139.154C154.808 142.276 151.905 145.398 149.458 148.853C145.103 155.014 142.282 163.257 145.642 170.542C146.015 171.374 146.513 172.165 147.052 172.915C147.425 173.664 148.462 173.081 148.006 172.457Z" fill="#4C4942"/>
<path d="M167.747 286.312C168.784 284.563 169.531 282.607 169.863 280.567C170.194 278.402 170.153 276.196 170.402 274.031C170.817 270.16 172.144 266.413 174.093 263.041C175.213 261.085 176.54 259.211 178.033 257.505C178.158 257.38 177.951 257.13 177.826 257.296C175.296 260.21 173.222 263.458 171.812 267.079C171.107 268.869 170.568 270.743 170.277 272.657C169.946 274.781 169.946 276.945 169.738 279.068C169.489 281.608 168.784 283.98 167.457 286.187C167.374 286.353 167.623 286.478 167.747 286.312ZM169.406 285.021C172.061 281.483 173.927 277.528 174.84 273.157C175.338 270.867 175.628 268.536 176.209 266.288C176.748 264.082 177.536 261.959 178.49 259.919C179.029 258.795 179.61 257.713 180.273 256.63C180.895 255.631 181.6 254.632 182.679 254.091C182.845 254.008 182.72 253.758 182.513 253.841C180.729 254.715 179.734 256.797 178.863 258.42C177.826 260.377 176.955 262.458 176.333 264.581C174.923 269.119 174.757 273.948 172.89 278.361C171.895 280.65 170.609 282.815 169.116 284.855C169.033 285.021 169.282 285.188 169.406 285.021ZM173.554 281.15C175.42 279.401 177.37 277.611 178.697 275.405C180.066 273.199 180.564 270.659 180.895 268.12C181.227 265.539 181.476 262.875 182.388 260.419C183.218 258.212 184.462 256.214 186.038 254.507C187.863 252.551 190.103 250.969 192.592 249.928C192.758 249.845 192.675 249.553 192.509 249.637C188.32 251.385 184.753 254.632 182.762 258.753C181.683 260.96 181.227 263.333 180.895 265.789C180.522 268.536 180.315 271.409 179.153 273.948C177.868 276.737 175.586 278.86 173.347 280.942C173.181 281.066 173.43 281.275 173.554 281.15Z" fill="#4C4942"/>
<path d="M180.691 275.696C184.839 272.741 185.005 267.287 186.456 262.833C187.95 258.212 190.811 254.049 194.71 251.135C197.033 249.387 199.646 248.055 202.217 246.723C202.383 246.639 202.217 246.39 202.051 246.473C199.729 247.68 197.448 248.846 195.291 250.344C193.341 251.718 191.558 253.342 190.106 255.256C188.738 257.005 187.659 258.961 186.788 261.001C185.793 263.416 185.378 265.955 184.714 268.453C184.009 271.117 182.848 273.781 180.567 275.405C180.359 275.53 180.525 275.779 180.691 275.696Z" fill="#4C4942"/>
<path d="M185.584 271.741C193.215 266.371 193.63 255.922 199.81 249.428C201.469 247.68 203.46 246.306 205.783 245.64C205.949 245.599 205.907 245.307 205.7 245.349C196.575 248.096 194.833 258.67 190.519 265.788C189.192 267.995 187.533 269.993 185.418 271.492C185.252 271.617 185.418 271.866 185.584 271.741ZM192.51 267.87C196.202 265.414 199.437 262.292 202.008 258.628C204.787 254.674 206.654 250.094 209.64 246.223C211.175 244.225 213.041 242.476 215.281 241.269C215.447 241.186 215.281 240.936 215.115 241.019C211.258 243.142 208.645 246.806 206.446 250.511C205.161 252.717 203.999 254.965 202.63 257.088C201.386 259.045 199.976 260.835 198.358 262.5C196.533 264.415 194.501 266.122 192.303 267.579C192.22 267.703 192.344 267.953 192.51 267.87ZM191.971 267.495C194.626 264.498 196.824 261.084 198.898 257.629C200.93 254.257 202.838 250.677 205.285 247.597C206.612 245.932 208.188 244.433 210.262 243.809C210.428 243.767 210.387 243.475 210.179 243.517C206.654 244.641 204.538 247.971 202.63 250.927C200.391 254.424 198.4 258.087 196.077 261.542C194.75 263.541 193.34 265.455 191.764 267.245C191.598 267.412 191.805 267.62 191.971 267.495ZM204.414 259.253C206.82 257.504 208.893 255.298 210.511 252.759C212.129 250.219 213.082 247.347 214.327 244.599C215.073 243.018 215.903 241.436 217.064 240.104C217.189 239.979 216.981 239.729 216.857 239.895C214.949 242.102 213.871 244.766 212.792 247.43C211.589 250.303 210.221 253.008 208.188 255.381C207.027 256.713 205.7 257.921 204.29 258.961C204.124 259.086 204.29 259.336 204.414 259.253ZM213.829 251.427C218.806 248.055 219.138 241.436 222.622 236.94C222.746 236.773 222.539 236.565 222.415 236.732C218.972 241.186 218.599 247.847 213.705 251.177C213.539 251.302 213.663 251.551 213.829 251.427ZM165.592 290.266C174.8 283.231 187.201 284.688 197.529 280.4C200.1 279.318 202.548 277.902 204.621 275.988C204.746 275.863 204.538 275.655 204.414 275.779C200.432 279.484 195.123 281.233 189.939 282.398C184.381 283.606 178.657 284.188 173.224 286.02C170.445 286.978 167.79 288.226 165.426 290.016C165.302 290.141 165.426 290.391 165.592 290.266ZM167.832 286.769C172.27 282.44 177.952 279.776 183.842 278.111C186.994 277.236 190.229 276.612 193.464 276.112C196.326 275.696 199.146 275.363 201.967 274.739C205.036 274.031 208.064 272.99 210.635 271.117C210.801 270.992 210.635 270.742 210.469 270.867C205.7 274.364 199.644 274.947 193.962 275.779C187.699 276.695 181.436 278.069 175.712 280.9C172.726 282.398 169.947 284.272 167.583 286.603C167.5 286.686 167.707 286.894 167.832 286.769ZM174.012 280.525C178.865 277.195 184.464 275.238 190.063 273.656C195.704 272.033 201.469 270.742 206.985 268.578C210.013 267.412 212.917 265.997 215.613 264.165C215.778 264.04 215.613 263.79 215.447 263.915C210.594 267.245 204.995 269.16 199.354 270.784C193.713 272.407 187.948 273.698 182.432 275.863C179.404 277.028 176.5 278.444 173.804 280.275C173.722 280.4 173.887 280.65 174.012 280.525Z" fill="#4C4942"/>
<path d="M166.295 288.56C170.609 285.438 175.42 282.981 180.48 281.358C183.01 280.525 185.582 279.901 188.236 279.485C190.891 279.068 193.587 278.777 196.241 278.361C199.186 277.903 202.089 277.195 204.785 275.905C204.951 275.821 204.827 275.572 204.619 275.655C199.725 278.028 194.167 278.277 188.858 279.068C183.632 279.859 178.572 281.4 173.844 283.689C171.148 284.98 168.577 286.52 166.129 288.268C166.005 288.393 166.129 288.643 166.295 288.56ZM181.31 275.322C189.937 269.161 200.845 268.869 210.426 264.956C213.081 263.874 215.611 262.5 217.85 260.793C218.016 260.668 217.85 260.419 217.684 260.544C209.265 266.996 198.315 267.412 188.734 271.076C186.038 272.116 183.466 273.407 181.144 275.072C181.019 275.155 181.185 275.405 181.31 275.322ZM191.679 267.62C196.034 266.122 200.389 264.623 204.744 263.125C206.901 262.375 209.016 261.626 211.173 260.918C212.998 260.294 214.823 259.711 216.565 258.962C218.389 258.171 220.09 257.13 221.334 255.548C221.459 255.382 221.251 255.173 221.127 255.34C218.846 258.296 214.905 259.336 211.504 260.502C207.274 261.959 203.043 263.416 198.813 264.873C196.407 265.706 194.001 266.538 191.596 267.371C191.43 267.371 191.513 267.662 191.679 267.62ZM198.191 262.875C202.048 261.543 205.864 260.127 209.597 258.587C211.463 257.838 213.329 257.047 215.154 256.256C216.896 255.506 218.721 254.799 220.339 253.8C221.832 252.842 223.118 251.344 223.076 249.512C223.076 249.304 222.786 249.304 222.786 249.512C222.827 251.385 221.459 252.801 219.966 253.716C218.431 254.632 216.689 255.298 215.03 256.048C211.463 257.588 207.855 259.045 204.246 260.419C202.214 261.168 200.181 261.917 198.149 262.625C197.942 262.667 198.025 262.958 198.191 262.875Z" fill="#4C4942"/>
<path d="M205.862 257.796C211.544 255.049 218.471 253.633 222.494 248.305C223.448 247.056 224.153 245.641 224.443 244.059C224.485 243.851 224.195 243.809 224.153 243.975C222.867 250.303 216.231 253.217 210.881 255.298C209.139 256.006 207.397 256.672 205.696 257.463C205.53 257.63 205.696 257.879 205.862 257.796Z" fill="#4C4942"/>
<path d="M212.252 253.05C217.27 250.303 222.704 247.305 225.649 242.185C225.731 242.019 225.483 241.852 225.4 242.019C222.455 247.139 217.063 250.053 212.086 252.8C211.92 252.884 212.086 253.133 212.252 253.05ZM123.368 304.67C117.354 304.004 111.672 300.923 107.773 296.302C106.695 295.012 105.782 293.597 104.994 292.056C104.911 291.89 104.662 292.015 104.745 292.223C107.483 297.718 112.543 301.881 118.266 303.837C119.926 304.42 121.626 304.795 123.327 304.961C123.575 305.003 123.575 304.711 123.368 304.67Z" fill="#4C4942"/>
<path d="M123.951 302.505C123.08 301.298 122.002 300.132 120.591 299.591C119.472 299.133 118.227 299.092 117.024 298.925C113.043 298.342 109.849 295.678 107.443 292.556C105.909 290.599 104.623 288.435 103.213 286.353C103.088 286.187 102.84 286.353 102.964 286.52C105.37 290.1 107.485 293.93 110.927 296.594C112.379 297.718 113.997 298.634 115.78 299.05C117.024 299.341 118.269 299.341 119.513 299.633C121.297 300.049 122.582 301.256 123.661 302.713C123.827 302.796 124.075 302.672 123.951 302.505ZM124.241 299.466C123.868 295.928 120.84 293.43 117.771 292.056C113.997 290.349 109.766 289.767 106.324 287.435C104.582 286.27 103.088 284.646 102.549 282.565C102.508 282.398 102.217 282.44 102.259 282.648C103.171 286.02 106.324 288.143 109.351 289.392C113.209 290.974 117.564 291.598 120.84 294.304C122.416 295.636 123.702 297.385 123.951 299.508C123.951 299.633 124.283 299.633 124.241 299.466Z" fill="#4C4942"/>
<path d="M124.698 298.009C124.366 293.305 123.537 287.685 118.891 285.271C116.693 284.147 114.163 283.98 111.757 283.564C109.435 283.148 107.195 282.398 105.204 281.191C102.964 279.817 101.056 277.944 99.8537 275.655C99.7707 275.488 99.5219 275.655 99.6048 275.821C101.637 279.651 105.494 282.274 109.601 283.439C112.006 284.105 114.495 284.188 116.9 284.854C119.306 285.562 121.214 287.061 122.458 289.267C123.951 291.931 124.242 295.054 124.491 298.092C124.408 298.217 124.698 298.217 124.698 298.009Z" fill="#4C4942"/>
<path d="M124.864 293.097C124.781 287.685 124.449 281.358 119.679 277.861C117.564 276.321 114.992 275.613 112.504 275.072C109.766 274.489 107.029 273.948 104.374 272.949C101.264 271.825 98.2774 270.243 95.5815 268.328C95.4156 268.203 95.2911 268.494 95.4156 268.578C97.6968 270.201 100.185 271.533 102.757 272.616C105.287 273.656 107.941 274.364 110.596 274.947C113.126 275.488 115.697 275.946 118.02 277.153C120.467 278.444 122.209 280.567 123.205 283.106C124.449 286.27 124.49 289.725 124.573 293.055C124.573 293.305 124.864 293.305 124.864 293.097ZM124.242 278.652C123.371 273.781 119.762 269.66 115.2 267.912C112.379 266.829 109.31 266.621 106.324 266.413C103.42 266.163 100.517 265.872 97.6553 265.164C94.586 264.415 91.5997 263.208 89.0282 261.293C88.8623 261.168 88.7379 261.418 88.8623 261.542C93.2588 264.831 98.7751 265.997 104.126 266.496C107.07 266.788 110.057 266.871 112.96 267.537C115.614 268.161 118.062 269.41 120.052 271.325C122.085 273.323 123.454 275.863 123.951 278.694C123.993 278.943 124.283 278.86 124.242 278.652ZM121.38 268.286C120.716 265.913 119.347 263.832 117.522 262.25C115.49 260.543 113.001 259.586 110.388 259.211C104.748 258.42 99.1899 260.085 93.5491 260.21C90.3969 260.294 87.2033 259.836 84.4658 258.254C84.2999 258.171 84.134 258.42 84.2999 258.504C88.9867 261.251 94.669 260.627 99.812 259.961C105.204 259.253 111.342 258.42 116.154 261.584C118.559 263.166 120.343 265.58 121.131 268.37C121.172 268.536 121.463 268.453 121.38 268.286Z" fill="#4C4942"/>
<path d="M116.939 259.753C116.648 257.63 115.155 255.923 113.372 254.882C111.215 253.592 108.643 253.175 106.196 252.926C103.5 252.634 100.721 252.468 98.067 253.175C95.5784 253.883 93.3387 255.174 90.9745 256.298C88.1956 257.588 85.0434 258.587 82.0157 257.671C81.8498 257.63 81.7668 257.921 81.9327 257.963C86.9513 259.503 91.5137 256.131 95.9102 254.258C98.4403 253.175 101.053 252.842 103.791 253.009C106.404 253.175 109.141 253.425 111.588 254.383C113.994 255.298 116.234 257.172 116.648 259.836C116.648 260.044 116.939 259.961 116.939 259.753Z" fill="#4C4942"/>
<path d="M112.253 251.718C111.506 249.387 108.562 248.346 106.446 247.763C103.833 247.056 101.054 247.014 98.3585 247.389C92.3859 248.18 86.994 250.969 81.3947 252.967C78.4914 254.008 75.588 254.59 72.5188 254.715C72.3114 254.715 72.3114 255.007 72.5188 255.007C75.0488 254.923 77.5374 254.507 79.9845 253.758C82.639 252.925 85.252 251.801 87.8235 250.802C93.091 248.721 98.6903 246.847 104.414 247.68C105.907 247.888 107.359 248.263 108.769 248.887C110.096 249.47 111.548 250.303 112.004 251.801C112.046 251.968 112.336 251.885 112.253 251.718ZM105.244 244.849C100.723 242.06 95.2063 241.186 90.0218 242.102C87.3673 242.56 84.8787 243.559 82.5975 244.974C80.0675 246.556 77.8277 248.596 75.3392 250.261C72.4358 252.218 68.9933 253.758 65.4263 253.258C65.219 253.217 65.1775 253.508 65.3434 253.55C71.4404 254.466 76.2102 249.928 80.7725 246.598C83.0952 244.891 85.5423 243.559 88.3212 242.809C90.9342 242.102 93.7131 241.894 96.4091 242.185C99.4783 242.518 102.423 243.517 105.078 245.099C105.244 245.224 105.409 244.974 105.244 244.849ZM92.9251 238.605C87.9479 237.606 82.639 237.273 77.7863 239.063C75.8369 239.771 73.9704 240.853 72.3943 242.268C70.6109 243.85 69.491 245.932 68.2467 247.93C66.878 250.178 65.136 252.384 62.4815 253.092C62.3156 253.133 62.3571 253.425 62.5645 253.383C67.2098 252.176 68.5785 247.056 71.3574 243.725C74.4267 240.145 79.155 238.438 83.7588 238.147C86.7866 237.939 89.8559 238.314 92.8421 238.896C93.0495 238.938 93.1325 238.647 92.9251 238.605Z" fill="#4C4942"/>
<path d="M80.1093 236.815C78.5747 236.44 76.8327 236.773 75.3395 237.148C73.4731 237.606 71.6481 238.272 69.9476 239.105C69.2425 239.479 68.5374 239.854 67.8738 240.353C67.0028 241.02 66.2562 241.894 65.5096 242.726C63.8091 244.641 62.316 246.764 60.574 248.679C58.749 250.677 56.3849 252.634 53.5645 252.676C53.3571 252.676 53.3571 252.967 53.5645 252.967C58.4172 252.884 61.5279 248.013 64.2653 244.641C65.6341 242.976 67.0443 241.144 68.9107 239.979C70.5283 238.98 72.3532 238.272 74.2196 237.731C76.0031 237.19 78.1599 236.648 80.0263 237.065C80.2337 237.148 80.3167 236.857 80.1093 236.815ZM124.53 301.048C125.277 294.679 128.678 289.101 131.913 283.731C131.996 283.564 131.747 283.398 131.664 283.564C128.388 288.976 124.987 294.637 124.24 301.048C124.199 301.215 124.489 301.215 124.53 301.048ZM124.945 291.723C125.152 288.018 127.226 284.855 128.885 281.691C130.503 278.527 131.457 275.197 131.955 271.658C132.245 269.702 132.452 267.704 132.618 265.747C132.618 265.539 132.328 265.539 132.328 265.747C131.996 269.327 131.664 272.949 130.669 276.446C130.171 278.236 129.466 279.901 128.636 281.566C127.807 283.148 126.894 284.688 126.148 286.312C125.36 288.018 124.779 289.85 124.655 291.723C124.655 291.89 124.945 291.89 124.945 291.723ZM124.24 285.271C124.779 275.488 129.217 266.122 128.222 256.214C127.973 253.716 127.351 251.26 126.272 249.012C126.189 248.846 125.941 248.971 126.023 249.179C130.254 258.129 126.977 268.12 125.111 277.237C124.572 279.901 124.116 282.565 123.991 285.312C123.908 285.479 124.199 285.479 124.24 285.271ZM123.286 275.655C121.793 270.243 123.991 264.748 124.116 259.336C124.24 253.841 122.083 248.554 119.138 244.058C117.438 241.477 115.489 239.063 113.415 236.732C113.29 236.607 113.083 236.815 113.207 236.94C116.899 241.144 120.383 245.64 122.332 250.927C123.286 253.508 123.867 256.214 123.825 258.962C123.825 261.751 123.245 264.456 122.871 267.204C122.457 270.035 122.249 272.949 123.037 275.738C123.037 275.946 123.328 275.863 123.286 275.655Z" fill="#4C4942"/>
<path d="M120.092 264.998C119.47 259.295 118.806 253.467 116.691 248.097C114.783 243.226 111.589 239.022 107.317 235.983C104.953 234.276 102.299 232.944 99.4783 232.07C99.3124 232.028 99.2295 232.319 99.3954 232.361C104.248 233.901 108.645 236.774 111.963 240.645C115.571 244.891 117.438 250.136 118.474 255.548C119.097 258.67 119.428 261.834 119.802 264.956C119.843 265.206 120.133 265.206 120.092 264.998Z" fill="#4C4942"/>
<path d="M113.581 254.258C112.005 249.928 110.346 245.557 107.609 241.811C106.281 240.021 104.747 238.397 102.922 237.107C100.972 235.733 98.8156 234.734 96.5759 233.984C93.9629 233.11 91.2255 232.569 88.4881 232.236C88.2807 232.194 88.2807 232.527 88.4881 232.527C93.2163 233.152 98.0276 234.276 102.051 236.898C105.867 239.396 108.48 243.143 110.388 247.222C111.507 249.554 112.378 251.968 113.291 254.383C113.332 254.507 113.623 254.424 113.581 254.258Z" fill="#4C4942"/>
<path d="M100.143 241.561C95.7046 236.815 89.1514 234.276 82.7225 234.401C80.8976 234.442 79.0726 234.692 77.2891 235.192C77.1232 235.233 77.1647 235.525 77.3721 235.483C83.5935 233.818 90.4371 234.942 95.829 238.397C97.3222 239.355 98.7324 240.52 99.9352 241.811C100.06 241.894 100.308 241.686 100.143 241.561ZM148.379 171.5C148.462 167.17 148.545 162.841 148.628 158.512C148.711 155.098 148.504 151.018 150.992 148.354C151.117 148.229 150.91 148.021 150.785 148.146C148.96 150.103 148.504 152.767 148.379 155.348C148.214 158.678 148.214 162.05 148.172 165.422C148.131 167.462 148.089 169.46 148.048 171.5C148.089 171.708 148.379 171.708 148.379 171.5ZM149.997 168.294C150.163 166.671 150.785 165.131 151.366 163.632C151.946 162.133 152.444 160.676 152.569 159.053C152.859 155.639 151.781 152.267 152.029 148.854C152.112 147.646 152.237 145.648 153.564 145.107C153.73 145.024 153.647 144.732 153.481 144.816C152.444 145.232 152.071 146.439 151.863 147.48C151.615 149.02 151.656 150.56 151.781 152.101C151.946 153.932 152.278 155.764 152.278 157.637C152.32 159.469 151.946 161.176 151.283 162.883C150.619 164.631 149.79 166.379 149.624 168.294C149.665 168.461 149.956 168.461 149.997 168.294ZM153.149 164.673C155.223 162.092 156.55 158.969 156.924 155.681C157.131 153.891 157.007 152.101 156.758 150.311C156.467 148.437 156.136 146.522 156.218 144.608C156.301 142.693 156.882 140.736 158.292 139.321C158.417 139.196 158.209 138.988 158.085 139.113C155.762 141.485 155.721 144.982 156.136 148.063C156.384 150.019 156.799 151.934 156.758 153.932C156.716 155.681 156.426 157.388 155.887 159.053C155.223 161.009 154.228 162.841 152.942 164.423C152.817 164.589 153.025 164.839 153.149 164.673ZM159.08 157.637C161.113 155.306 162.523 152.434 163.062 149.395C163.352 147.896 163.394 146.356 163.228 144.816C163.021 142.901 162.523 141.069 162.315 139.154C162.108 137.239 162.274 135.241 163.311 133.618C163.394 133.451 163.145 133.285 163.062 133.451C161.237 136.323 162.067 139.737 162.647 142.859C163.269 146.189 163.062 149.52 161.776 152.684C161.071 154.432 160.076 156.014 158.831 157.429C158.749 157.596 158.956 157.804 159.08 157.637ZM157.504 160.218C158.707 156.763 159.495 153.141 159.785 149.478C160.076 145.815 159.827 142.151 159.122 138.571C159.08 138.363 158.79 138.447 158.831 138.655C159.537 142.235 159.785 145.856 159.495 149.478C159.205 153.1 158.375 156.68 157.214 160.135C157.172 160.302 157.463 160.385 157.504 160.218ZM165.551 152.184C167.334 149.27 168.371 145.856 168.371 142.443C168.371 140.611 168.081 138.821 167.707 137.031C167.334 135.199 166.878 133.368 167.002 131.495C167.127 129.621 167.749 127.748 169.201 126.499C169.325 126.374 169.118 126.166 168.993 126.291C166.505 128.456 166.463 131.952 167.002 134.991C167.376 136.948 167.915 138.863 168.039 140.861C168.164 142.693 168.039 144.566 167.624 146.356C167.168 148.354 166.38 150.311 165.302 152.059C165.219 152.184 165.468 152.351 165.551 152.184ZM170.86 147.272C173.431 144.774 174.219 141.111 174.136 137.614C174.053 135.449 173.68 133.285 173.39 131.161C173.099 129.163 172.892 127.123 172.809 125.125C172.726 122.961 172.892 120.713 174.012 118.839C174.095 118.673 173.846 118.506 173.763 118.673C171.897 121.753 172.477 125.791 172.85 129.205C173.307 133.368 174.427 137.572 173.514 141.735C173.058 143.733 172.187 145.648 170.694 147.105C170.486 147.189 170.694 147.397 170.86 147.272Z" fill="#4C4942"/>
<path d="M169.116 148.77C172.352 143.317 170.9 136.823 170.07 130.953C169.78 128.997 169.573 127.04 169.531 125.083C169.531 124.875 169.241 124.875 169.241 125.083C169.282 129.288 170.278 133.368 170.692 137.53C171.066 141.319 170.858 145.315 168.868 148.645C168.785 148.77 169.033 148.937 169.116 148.77ZM175.587 142.068C178.614 137.905 178.614 132.577 178.407 127.664C178.283 124.709 178.075 121.753 178.49 118.839C178.863 116.175 179.9 113.677 180.813 111.179C181.808 108.557 182.679 105.809 182.347 102.979C182.306 102.77 182.016 102.77 182.057 102.979C182.679 108.224 179.278 112.803 178.366 117.798C177.37 123.168 178.573 128.622 178.075 133.992C177.785 136.823 177.038 139.612 175.338 141.943C175.213 142.068 175.462 142.193 175.587 142.068ZM182.264 132.993C183.343 128.33 181.684 123.668 182.264 119.006C182.43 117.674 182.762 116.341 183.301 115.093C183.84 113.802 184.546 112.595 184.96 111.263C185.748 108.848 186.039 106.309 186.246 103.77C186.495 100.647 186.495 97.4419 185.707 94.403C185.665 94.2365 185.375 94.2782 185.417 94.4863C186.08 97.1922 186.163 100.023 185.997 102.812C185.831 105.435 185.582 108.141 184.836 110.68C184.463 112.012 183.84 113.178 183.26 114.426C182.721 115.592 182.347 116.841 182.098 118.09C181.684 120.379 181.85 122.669 182.057 124.959C182.306 127.581 182.555 130.245 181.933 132.868C181.933 133.118 182.223 133.159 182.264 132.993Z" fill="#4C4942"/>
<path d="M184.836 128.164C187.283 117.757 189.73 107.1 188.984 96.3595C188.776 93.4455 188.32 90.5315 187.615 87.7007C187.573 87.5342 187.283 87.5759 187.325 87.784C189.979 98.1496 188.693 108.973 186.536 119.297C185.914 122.253 185.251 125.167 184.546 128.081C184.504 128.289 184.794 128.372 184.836 128.164ZM192.053 111.096C192.965 102.687 192.592 94.1532 190.974 85.8691C190.518 83.4962 189.938 81.165 189.274 78.8755C189.232 78.7089 188.942 78.7506 188.984 78.9587C191.306 87.1179 192.426 95.5686 192.219 104.061C192.177 106.434 192.011 108.807 191.762 111.138C191.721 111.304 192.053 111.304 192.053 111.096ZM148.918 171.749C150.577 168.294 154.061 166.296 157.545 165.005C161.277 163.673 165.218 163.215 169.075 162.258C171.19 161.717 173.264 160.967 175.089 159.76C175.255 159.635 175.089 159.385 174.923 159.51C171.481 161.8 167.209 162.383 163.185 163.174C159.494 163.923 155.678 164.964 152.526 167.17C150.908 168.294 149.498 169.793 148.627 171.583C148.586 171.791 148.835 171.916 148.918 171.749Z" fill="#4C4942"/>
<path d="M151.575 166.921C153.898 163.341 157.423 160.593 161.363 159.053C163.354 158.262 165.511 157.721 167.668 157.554C170.073 157.346 172.438 157.846 174.843 157.721C176.751 157.637 179.24 157.221 180.484 155.598C180.608 155.431 180.401 155.223 180.277 155.389C179.032 156.971 176.544 157.346 174.636 157.429C172.189 157.513 169.783 157.055 167.336 157.304C163.188 157.721 159.207 159.303 155.889 161.842C154.105 163.216 152.529 164.881 151.285 166.796C151.202 166.921 151.451 167.087 151.575 166.921ZM158.004 159.303C160.949 156.513 164.557 154.557 168.456 153.516C170.488 152.975 172.562 152.767 174.677 152.767C176.876 152.767 179.074 152.85 181.272 152.559C183.138 152.309 185.129 151.893 186.457 150.477C186.581 150.352 186.374 150.144 186.249 150.269C184.922 151.684 182.89 152.059 181.065 152.309C178.825 152.6 176.544 152.434 174.304 152.475C170.405 152.517 166.548 153.475 163.105 155.306C161.197 156.305 159.414 157.596 157.838 159.094C157.672 159.261 157.879 159.469 158.004 159.303Z" fill="#4C4942"/>
<path d="M162.773 154.64C165.717 151.851 169.326 149.853 173.225 148.77C175.215 148.229 177.289 147.938 179.322 147.854C181.561 147.771 183.801 147.938 186.041 147.605C188.073 147.313 189.981 146.522 191.474 145.065C191.599 144.94 191.391 144.732 191.267 144.857C187.99 148.063 183.22 147.396 179.031 147.563C175.133 147.73 171.275 148.77 167.791 150.602C165.883 151.643 164.141 152.892 162.565 154.39C162.441 154.557 162.648 154.765 162.773 154.64ZM170.695 147.938C173.681 145.357 176.875 142.651 180.856 141.818C183.096 141.36 185.419 141.568 187.7 141.277C189.608 141.027 191.433 140.32 193.133 139.404C195.041 138.321 196.783 136.989 198.525 135.616C198.691 135.491 198.484 135.283 198.318 135.407C195.124 137.905 191.682 140.528 187.534 141.027C185.377 141.277 183.137 141.069 180.981 141.527C179.073 141.902 177.289 142.734 175.672 143.775C173.847 144.94 172.146 146.356 170.529 147.771C170.363 147.854 170.57 148.063 170.695 147.938ZM175.755 141.36C181.81 135.158 191.806 136.989 198.442 131.827C199.977 130.62 201.221 129.121 201.926 127.29C202.009 127.123 201.719 127.04 201.636 127.207C200.267 130.912 196.617 133.076 193.092 134.283C189.069 135.657 184.797 136.115 180.856 137.739C178.907 138.53 177.04 139.612 175.547 141.152C175.381 141.277 175.63 141.485 175.755 141.36ZM179.114 137.239C180.815 136.448 181.686 134.783 182.681 133.284C183.925 131.369 185.626 130.037 187.7 129.038C189.981 127.956 192.387 127.331 194.751 126.457C196.908 125.666 198.94 124.626 200.848 123.293C202.59 122.086 204.871 120.504 204.995 118.173C204.995 117.965 204.705 117.965 204.705 118.173C204.581 120.463 202.175 122.003 200.475 123.169C198.567 124.459 196.493 125.5 194.295 126.291C190.313 127.706 185.667 128.664 183.013 132.244C181.769 133.909 180.981 136.073 178.99 136.948C178.782 137.073 178.948 137.322 179.114 137.239ZM183.925 130.62C184.34 126.291 187.99 123.21 191.433 121.046C193.341 119.838 195.331 118.798 197.198 117.549C198.94 116.383 200.516 115.009 201.885 113.427C203.378 111.679 204.581 109.722 205.452 107.599C205.535 107.433 205.244 107.35 205.161 107.516C203.461 111.679 200.475 115.051 196.742 117.507C193.133 119.88 189.027 121.67 186.165 125.042C184.796 126.665 183.843 128.539 183.635 130.662C183.594 130.828 183.884 130.828 183.925 130.62ZM187.783 121.67C188.944 117.674 192.677 115.301 195.871 113.011C197.488 111.846 199.023 110.638 200.35 109.181C201.594 107.766 202.59 106.226 203.378 104.519C204.207 102.687 204.747 100.689 204.954 98.6909C204.954 98.4827 204.664 98.4827 204.664 98.6909C204.249 102.562 202.59 106.226 200.018 109.14C197.322 112.137 193.631 113.885 190.728 116.633C189.276 118.007 188.032 119.672 187.451 121.628C187.451 121.753 187.741 121.836 187.783 121.67ZM190.935 113.053C194.834 106.018 200.018 99.2737 201.055 91.0728C201.346 88.9081 201.304 86.7018 200.848 84.5371C200.806 84.329 200.516 84.4122 200.557 84.6204C202.258 92.6963 198.069 100.356 194.087 107.058C192.926 109.015 191.765 110.93 190.645 112.928C190.603 113.053 190.852 113.219 190.935 113.053ZM192.967 105.518C194.336 101.438 195.331 97.2339 196.161 92.9877C196.991 88.7832 197.779 84.6204 197.737 80.3326C197.737 77.9598 197.488 75.5453 196.991 73.2141C196.949 73.0059 196.659 73.0892 196.7 73.2973C197.613 77.4602 197.613 81.748 197.115 85.9941C196.866 88.1172 196.41 90.2402 195.995 92.3217C195.58 94.4031 195.124 96.4846 194.626 98.5244C194.046 100.856 193.424 103.145 192.636 105.435C192.636 105.643 192.926 105.684 192.967 105.518ZM193.963 83.538C194.792 78.3344 195.083 73.0892 194.875 67.8023C194.875 67.5942 194.585 67.5942 194.585 67.8023C194.792 73.0476 194.502 78.2928 193.672 83.4548C193.631 83.6213 193.921 83.7045 193.963 83.538Z" fill="#4C4942"/>
</svg>
