<svg width="418" height="461" viewBox="0 0 418 461" fill="none" xmlns="http://www.w3.org/2000/svg">
<circle cx="209" cy="252" r="209" fill="white"/>
<path d="M230.498 445.343C203.457 442.967 176.061 432.93 160.735 413.867C148.605 398.782 145.292 379.777 146.357 361.604C147.54 341.65 154.818 320.626 173.28 308.214C195.173 293.485 227.126 294.435 250.143 281.013C273.989 267.116 286.652 238.966 314.995 233.918C333.693 230.592 353.22 239.501 364.818 252.388C376.415 265.275 381.563 281.429 385.291 297.345C391.563 323.952 394.403 352.637 381.149 377.402C368.072 401.811 342.865 416.064 318.782 431.921C295.883 447.006 258.842 447.837 230.498 445.343Z" fill="#D5B9B2"/>
<path d="M240.086 127.552C238.488 144.3 229.435 158.672 220.559 172.51C207.246 193.355 196.595 255.417 124.465 238.669C95.7076 231.958 72.9266 203.867 65.7077 176.845C61.0923 159.622 65.5302 142.459 70.0272 126.127C79.5538 91.2063 86.1218 1.82592 143.755 16.9107C189.021 28.7885 244.583 81.2884 240.086 127.552Z" fill="#ECE2D0"/>
<path d="M141.8 273.055C132.392 269.492 124.344 262.959 118.072 255.12C112.096 247.577 107.776 238.788 104.581 229.701C101.386 220.615 99.1965 211.172 97.1255 201.729C95.0545 192.286 93.0427 182.843 90.2616 173.638C87.4806 164.551 83.9303 155.584 78.7824 147.566C78.1315 146.557 77.4806 145.606 76.7705 144.597C76.4155 144.894 76.0605 145.131 75.7054 145.428C83.9894 153.861 94.1078 160.038 104.226 165.977C114.463 171.975 124.936 177.855 133.989 185.635C142.865 193.296 150.498 202.382 156.356 212.538C162.332 222.871 166.415 234.155 168.25 245.974C170.143 258.267 169.966 271.036 167.717 283.27C167.421 284.695 167.125 286.18 166.829 287.605C166.652 288.437 167.954 288.793 168.131 287.962C170.912 275.846 171.563 263.137 170.261 250.784C169.61 244.608 168.427 238.55 166.652 232.611C164.936 226.969 162.628 221.446 159.906 216.22C154.463 205.767 147.244 196.206 138.723 188.129C129.966 179.874 119.788 173.579 109.492 167.521C99.1965 161.523 88.664 155.584 79.7883 147.507C78.7232 146.557 77.6581 145.547 76.6522 144.478C76.1196 143.944 75.1137 144.656 75.5871 145.309C81.2084 153.208 85.1137 162.117 88.0723 171.262C91.09 180.527 93.161 190.089 95.232 199.591C97.303 209.093 99.4332 218.655 102.51 227.86C105.528 237.006 109.551 245.855 115.232 253.635C121.09 261.712 128.782 268.66 137.895 272.877C139.019 273.411 140.202 273.887 141.386 274.302C142.273 274.659 142.628 273.352 141.8 273.055Z" fill="#4C4942"/>
<path d="M140.379 274.005C150.201 276.796 159.136 282.26 167.243 288.437C167.953 288.971 168.604 287.783 167.953 287.249C159.787 281.013 150.734 275.49 140.793 272.639C139.906 272.461 139.551 273.768 140.379 274.005Z" fill="#4C4942"/>
<path d="M168.189 287.665C165.823 277.272 162.686 266.997 158.781 257.02C154.935 247.043 150.32 237.303 145.113 227.979C139.846 218.595 133.988 209.628 127.479 201.076C120.971 192.464 113.811 184.328 106.178 176.667C97.7754 168.352 89.5506 159.919 81.9174 150.892C81.0299 149.823 80.1423 148.754 79.2547 147.685C78.7222 147.032 77.7754 147.982 78.308 148.635C85.7636 157.781 93.8701 166.393 102.213 174.648C109.846 182.249 117.184 190.029 123.87 198.522C130.556 206.955 136.592 215.923 141.976 225.247C147.302 234.452 152.036 244.014 156.059 253.873C160.083 263.731 163.396 273.887 165.941 284.22C166.237 285.467 166.533 286.774 166.828 288.021C167.124 288.912 168.426 288.556 168.189 287.665Z" fill="#4C4942"/>
<path d="M166.652 281.845C164.522 275.431 162.747 268.72 163.279 261.949C163.575 258.564 164.463 255.298 165.409 251.972C166.238 248.943 167.007 245.914 167.48 242.767C167.895 239.679 167.895 236.412 166.474 233.562C166.356 233.383 166.06 233.562 166.179 233.74C167.599 236.59 167.54 239.857 167.066 242.945C166.593 246.033 165.824 249.062 164.995 252.031C164.108 255.179 163.22 258.267 162.924 261.534C162.628 264.681 162.865 267.888 163.398 271.036C164.048 274.777 165.113 278.4 166.297 281.964C166.415 282.142 166.77 282.023 166.652 281.845ZM160.794 263.078C153.989 249.181 159.906 233.383 157.895 218.714C157.362 214.735 156.179 210.875 154.167 207.371C154.048 207.193 153.753 207.371 153.871 207.549C161.622 220.971 155.942 237.065 157.362 251.616C157.776 255.654 158.723 259.633 160.498 263.256C160.616 263.434 160.912 263.256 160.794 263.078ZM153.457 245.261C149.551 237.541 149.788 228.692 149.078 220.258C148.486 212.716 146.83 205.055 143.753 198.166C141.977 194.305 139.729 190.742 137.185 187.357C137.066 187.179 136.77 187.357 136.889 187.535C139.196 190.623 141.327 193.83 142.983 197.275C144.581 200.601 145.764 204.105 146.711 207.668C147.776 211.706 148.486 215.804 148.782 220.021C149.137 224.178 149.196 228.395 149.67 232.552C150.202 237.006 151.149 241.46 153.161 245.439C153.279 245.617 153.575 245.439 153.457 245.261ZM141.977 223.94C137.599 210.162 136.06 195.137 127.776 182.903C125.705 179.874 123.279 177.142 120.439 174.826C120.262 174.707 120.025 174.945 120.202 175.063C131.149 184.031 134.995 198.166 138.25 211.35C139.315 215.626 140.38 219.843 141.682 224.059C141.741 224.237 142.037 224.119 141.977 223.94ZM127.835 202.62C125.409 193.415 121.563 184.803 116.534 176.726C115.054 174.291 113.457 171.975 111.8 169.6C111.682 169.421 111.386 169.6 111.504 169.778C116.948 177.558 121.8 185.753 125.054 194.78C126.001 197.394 126.83 200.066 127.54 202.739C127.54 202.917 127.895 202.798 127.835 202.62ZM116.948 188.842C113.457 179.933 108.723 171.678 102.865 164.076C102.747 163.898 102.51 164.136 102.628 164.314C108.427 171.856 113.102 180.052 116.593 188.96C116.652 189.079 117.007 189.02 116.948 188.842ZM166.652 285.646C165.054 277.45 158.664 271.214 151.741 267.176C143.457 262.306 134.108 259.93 125.409 255.951C120.735 253.813 116.179 251.2 112.392 247.577C112.214 247.399 111.978 247.696 112.155 247.815C118.723 254.051 127.303 257.258 135.587 260.405C144.167 263.612 153.043 266.938 159.611 273.649C162.865 276.975 165.409 281.073 166.356 285.764C166.356 285.943 166.652 285.883 166.652 285.646ZM162.747 268.542C160.853 264.859 158.9 261.177 156.238 257.97C153.457 254.704 149.966 252.447 145.942 251.081C141.445 249.537 136.652 248.943 131.977 247.993C127.185 247.043 122.392 245.796 117.954 243.717C113.812 241.757 110.143 238.907 106.415 236.234C106.238 236.115 106.06 236.412 106.238 236.531C109.492 238.847 112.688 241.341 116.238 243.242C120.262 245.38 124.64 246.686 129.019 247.696C133.634 248.765 138.368 249.418 142.983 250.547C147.421 251.675 151.504 253.516 154.699 256.842C158.013 260.227 160.261 264.503 162.392 268.72C162.51 268.898 162.806 268.72 162.747 268.542ZM155.114 250.725C153.634 246.686 151.031 243.123 147.658 240.51C145.942 239.144 143.989 238.016 141.918 237.244C139.374 236.234 136.711 235.759 134.048 235.284C129.137 234.393 124.463 233.265 119.966 231.127C115.824 229.167 111.918 226.554 108.546 223.406C104.759 219.902 101.563 215.804 99.1965 211.231C99.0782 211.053 98.7823 211.231 98.9007 211.409C102.983 219.308 109.552 225.841 117.303 230.117C121.267 232.314 125.528 233.918 129.906 234.809C135.054 235.937 140.38 236.353 145.054 239.085C149.551 241.757 153.102 245.914 154.877 250.844C154.877 251.022 155.173 250.903 155.114 250.725ZM147.48 233.146C141.918 225.009 131.327 223.287 122.865 219.724C114.167 216.101 107.007 209.568 101.504 202.026C98.4865 197.928 95.8829 193.474 93.5752 188.96C93.4569 188.782 93.161 188.96 93.2794 189.139C97.303 197.097 102.273 204.758 108.841 210.934C112.096 214.023 115.824 216.695 119.788 218.774C124.344 221.09 129.374 222.456 134.167 224.297C139.137 226.257 144.167 228.87 147.244 233.383C147.303 233.502 147.599 233.324 147.48 233.146Z" fill="#4C4942"/>
<path d="M140.084 219.189C136.179 210.519 126.889 206.421 119.196 201.966C110.912 197.156 104.048 190.564 98.0129 183.14C94.6402 179.042 91.6224 174.648 88.723 170.253C88.6047 170.075 88.3088 170.253 88.4272 170.431C93.5159 178.211 99.078 185.694 105.764 192.167C109.078 195.374 112.628 198.284 116.474 200.719C120.735 203.451 125.291 205.589 129.492 208.381C133.693 211.172 137.658 214.676 139.788 219.427C139.906 219.546 140.202 219.367 140.084 219.189ZM119.966 192.227C117.125 192.345 114.64 190.861 112.51 189.079C110.261 187.179 108.309 184.922 106.297 182.784C101.682 177.973 97.1254 173.163 92.51 168.352C89.9065 165.62 87.3621 162.948 84.7585 160.216C84.581 160.038 84.3443 160.275 84.5219 160.454C89.2556 165.442 94.0485 170.431 98.7822 175.42C101.149 177.914 103.516 180.408 105.942 182.903C108.013 185.1 110.025 187.416 112.332 189.376C114.463 191.217 117.066 192.642 119.966 192.583C120.202 192.524 120.202 192.227 119.966 192.227ZM160.261 261.831C161.977 249.537 163.161 237.244 163.812 224.831C163.812 224.594 163.457 224.594 163.457 224.831C162.806 237.184 161.622 249.478 159.906 261.712C159.906 261.949 160.202 262.068 160.261 261.831ZM166.77 281.548C166.119 276.5 165.468 271.273 166.415 266.225C167.303 261.415 170.202 257.079 169.906 252.091C169.906 251.853 169.551 251.853 169.551 252.091C169.847 257.258 166.77 261.712 166.001 266.7C165.232 271.63 165.823 276.678 166.415 281.607C166.474 281.726 166.829 281.726 166.77 281.548ZM167.184 286.18C163.693 281.488 159.67 276.618 154.403 273.827C149.374 271.155 143.516 271.036 138.013 269.967C134.818 269.373 131.741 268.363 129.078 266.463C128.9 266.344 128.723 266.641 128.9 266.76C133.397 270.086 139.137 270.501 144.463 271.333C147.244 271.749 150.025 272.283 152.569 273.352C155.409 274.54 157.894 276.44 160.084 278.519C162.569 280.894 164.758 283.567 166.829 286.358C167.007 286.536 167.303 286.358 167.184 286.18ZM164.048 273.114C159.196 267.057 154.107 260.762 147.244 256.901C139.67 252.685 130.912 252.685 122.687 250.784C118.19 249.775 113.753 248.171 110.261 245.083C110.084 244.964 109.847 245.202 110.025 245.32C116.179 250.784 124.758 251.616 132.569 252.803C136.948 253.516 141.326 254.348 145.35 256.307C148.96 258.03 152.096 260.465 154.936 263.256C158.19 266.404 160.971 269.848 163.812 273.352C163.93 273.53 164.167 273.293 164.048 273.114ZM157.184 254.348C152.687 247.755 144.758 244.727 137.303 242.945C128.723 240.866 119.551 240.035 111.859 235.284C108.131 232.968 104.877 229.761 103.22 225.603C103.161 225.425 102.806 225.485 102.865 225.722C105.646 232.849 112.806 237.065 119.788 239.263C128.486 242.054 137.776 242.47 146.178 246.211C150.32 248.052 154.226 250.725 156.829 254.526C157.007 254.704 157.303 254.526 157.184 254.348ZM150.735 239.797C146.534 232.077 137.362 229.345 129.492 227.266C124.758 226.019 120.025 224.831 115.646 222.634C111.859 220.733 108.427 218.239 105.469 215.27C102.155 211.944 99.4331 208.084 97.4804 203.808C97.3621 203.629 97.1254 203.808 97.1845 203.986C100.557 211.409 106.297 217.645 113.279 221.743C117.244 224.059 121.563 225.544 125.942 226.732C130.557 227.979 135.35 229.048 139.729 231.008C144.048 232.968 148.131 235.759 150.439 240.035C150.557 240.154 150.794 239.975 150.735 239.797Z" fill="#4C4942"/>
<path d="M141.622 222.099C139.078 218.595 135.173 216.635 131.386 214.972C127.303 213.191 123.338 211.35 119.492 209.034C111.859 204.401 104.995 198.403 99.4331 191.395C96.3562 187.475 93.6343 183.259 91.3858 178.805C91.2674 178.626 90.9716 178.805 91.0899 178.983C94.9952 186.763 100.321 193.83 106.652 199.769C113.161 205.827 120.676 210.637 128.782 214.2C133.279 216.16 138.25 218.12 141.267 222.277C141.445 222.455 141.741 222.277 141.622 222.099ZM146.889 232.136C145.291 229.285 144.758 226.138 144.463 222.931C144.167 219.783 143.93 216.695 143.457 213.606C142.51 207.074 140.853 200.66 138.605 194.483C137.362 191.098 135.883 187.713 134.285 184.506C134.167 184.328 133.871 184.506 133.989 184.684C136.948 190.682 139.315 196.918 141.031 203.392C141.859 206.599 142.51 209.806 143.042 213.072C143.575 216.338 143.812 219.605 144.108 222.871C144.403 226.138 144.936 229.463 146.593 232.373C146.711 232.492 147.007 232.314 146.889 232.136ZM154.758 248.884C154.995 244.608 155.468 240.391 155.942 236.174C156.297 232.73 156.77 229.166 156.474 225.722C156.001 219.902 154.285 214.141 152.451 208.677C151.504 205.945 150.557 203.273 149.315 200.66C149.196 200.482 148.96 200.66 149.019 200.838C151.386 205.886 153.102 211.35 154.463 216.754C155.173 219.545 155.764 222.337 156.06 225.187C156.356 228.454 156.001 231.72 155.705 234.927C155.232 239.619 154.699 244.251 154.403 248.943C154.403 249.121 154.758 249.121 154.758 248.884ZM132.806 208.855C131.741 198.7 127.658 188.723 122.332 180.052C120.912 177.676 119.315 175.419 117.599 173.281C117.48 173.103 117.244 173.341 117.362 173.519C123.634 181.418 128.309 190.92 130.912 200.719C131.622 203.392 132.155 206.123 132.451 208.915C132.451 209.093 132.806 209.093 132.806 208.855ZM105.232 176.251C104.936 169.065 96.7112 165.977 94.8769 159.503C94.8177 159.266 94.5219 159.384 94.5219 159.622C96.297 166.095 104.581 169.243 104.818 176.31C104.877 176.488 105.232 176.488 105.232 176.251ZM263.752 315.28C276.652 312.014 288.19 304.59 297.48 295.148C306.001 286.477 312.687 276.143 318.012 265.215C323.397 254.288 327.539 242.826 331.503 231.364C335.527 219.842 339.432 208.202 344.285 197.037C349.077 185.991 354.876 175.301 362.568 165.977C363.515 164.848 364.462 163.72 365.468 162.591C366.237 161.76 365.113 160.691 364.284 161.404C352.213 171.143 338.012 177.557 323.93 183.793C309.906 189.97 295.823 196.146 283.22 205.054C271.03 213.666 260.261 224.237 251.504 236.352C242.628 248.587 236.119 262.187 232.214 276.796C228.19 291.822 226.593 307.56 227.598 323.12C227.717 324.961 227.894 326.802 228.072 328.583C228.19 329.652 229.906 329.652 229.788 328.583C228.131 313.202 229.196 297.523 232.569 282.438C234.285 274.955 236.533 267.65 239.551 260.583C242.45 253.753 246.119 247.28 250.202 241.104C258.427 228.81 268.782 217.942 280.557 209.034C286.592 204.461 292.983 200.482 299.669 196.978C306.415 193.414 313.397 190.267 320.379 187.178C334.403 181.002 348.663 174.944 361.089 165.917C362.568 164.848 363.989 163.72 365.409 162.591C364.995 162.176 364.58 161.76 364.225 161.404C356.178 170.371 349.965 180.705 344.876 191.573C339.787 202.56 335.764 213.963 331.799 225.365C327.835 236.828 323.87 248.349 318.841 259.455C313.93 270.323 307.894 280.835 300.024 289.862C291.385 299.78 280.498 307.976 268.013 312.192C266.474 312.727 264.876 313.202 263.279 313.558C262.214 313.914 262.687 315.577 263.752 315.28Z" fill="#4C4942"/>
<path d="M264.64 313.321C254.581 314.984 244.936 318.904 235.883 323.655C233.339 324.961 230.853 326.387 228.368 327.871C227.421 328.465 228.309 329.891 229.256 329.356C237.895 324.13 247.125 319.676 256.83 316.884C259.551 316.112 262.333 315.459 265.114 314.984C266.179 314.806 265.764 313.143 264.64 313.321Z" fill="#4C4942"/>
<path d="M229.671 328.881C234.168 316.231 239.612 303.937 245.884 292.119C252.156 280.241 259.316 268.779 267.186 257.851C275.115 246.864 283.813 236.412 293.162 226.672C302.57 216.814 312.63 207.668 323.28 199.234C335.056 189.91 346.772 180.468 357.777 170.134C359.079 168.887 360.381 167.64 361.683 166.392C362.452 165.62 361.269 164.433 360.499 165.205C349.612 175.835 337.955 185.634 326.002 195.018C315.174 203.51 304.76 212.478 295.115 222.277C285.588 231.958 276.713 242.232 268.606 253.1C260.5 263.909 253.162 275.312 246.653 287.13C240.145 298.949 234.464 311.183 229.73 323.833C229.139 325.377 228.547 326.921 228.014 328.524C227.659 329.474 229.257 329.89 229.671 328.881Z" fill="#4C4942"/>
<path d="M231.208 321.398C234.699 313.974 237.835 306.135 238.368 297.82C238.664 293.544 238.131 289.328 237.48 285.17C236.888 281.191 236.297 277.153 236.119 273.115C235.942 268.898 236.297 264.503 238.604 260.88C238.782 260.643 238.368 260.405 238.249 260.643C236.297 263.612 235.705 267.176 235.646 270.68C235.587 274.54 236.06 278.4 236.593 282.201C237.244 286.596 238.072 290.931 238.072 295.385C238.072 299.543 237.303 303.64 236.178 307.619C234.817 312.252 232.924 316.765 230.853 321.16C230.735 321.398 231.09 321.635 231.208 321.398ZM241.386 298.711C246.533 290.753 248.072 281.251 248.723 271.986C249.374 262.603 249.255 253.1 251.563 243.895C252.865 238.847 254.877 233.977 258.013 229.761C258.19 229.523 257.835 229.345 257.658 229.523C252.155 236.887 250.143 246.093 249.314 255.12C248.427 264.622 248.723 274.243 246.829 283.567C245.764 288.853 243.989 293.96 241.03 298.474C240.853 298.711 241.208 298.949 241.386 298.711ZM253.22 277.331C259.019 268.601 260.261 257.97 262.214 247.874C264.048 238.194 267.184 228.513 272.214 220.021C275.054 215.27 278.486 210.994 282.332 207.015C282.51 206.836 282.214 206.539 282.036 206.718C278.723 210.222 275.587 213.963 272.983 218.061C270.498 221.921 268.545 226.019 266.888 230.295C264.936 235.165 263.397 240.154 262.332 245.32C261.267 250.428 260.498 255.654 259.374 260.762C258.072 266.582 256.178 272.283 252.865 277.212C252.746 277.331 253.101 277.569 253.22 277.331ZM270.853 252.15C274.877 243.301 277.835 234.096 281.622 225.188C284.936 217.289 289.019 209.509 294.581 202.976C297.658 199.413 301.149 196.206 305.113 193.711C305.35 193.593 305.113 193.177 304.876 193.355C297.894 197.809 292.391 204.223 288.131 211.231C283.338 219.071 280.024 227.682 276.829 236.234C274.817 241.52 272.806 246.865 270.498 251.972C270.38 252.21 270.735 252.388 270.853 252.15ZM291.859 227.326C296.297 216.101 302.45 205.767 310.024 196.325C312.214 193.593 314.521 190.92 316.829 188.307C317.007 188.129 316.711 187.773 316.533 188.01C308.486 197.037 301.149 206.777 295.705 217.645C294.166 220.793 292.746 223.94 291.445 227.207C291.385 227.444 291.8 227.563 291.859 227.326ZM307.598 211.588C311.977 203.392 317.184 195.671 323.279 188.604C325.054 186.525 326.947 184.506 328.841 182.546C329.018 182.368 328.723 182.071 328.545 182.249C322.036 188.901 316.178 196.206 311.326 204.164C309.906 206.539 308.545 208.915 307.243 211.35C307.066 211.588 307.48 211.825 307.598 211.588ZM230.735 326.149C233.989 316.053 243.161 309.164 252.51 305.066C263.693 300.196 275.823 298.474 287.362 294.613C293.397 292.594 299.314 289.922 304.403 286.061C304.64 285.883 304.403 285.527 304.166 285.705C294.521 292.95 282.569 295.742 271.149 298.652C260.084 301.502 248.664 304.709 239.788 312.311C235.528 315.993 232.036 320.566 230.32 325.971C230.261 326.268 230.676 326.386 230.735 326.149ZM238.131 305.303C241.09 300.968 244.048 296.514 247.954 292.95C249.906 291.169 252.036 289.565 254.403 288.377C257.066 287.071 259.906 286.239 262.806 285.705C268.841 284.577 274.995 284.458 281.09 283.864C287.007 283.27 292.924 282.32 298.545 280.301C303.811 278.4 308.604 275.49 313.456 272.758C313.693 272.639 313.456 272.283 313.22 272.402C308.723 274.896 304.285 277.628 299.492 279.469C293.811 281.667 287.835 282.736 281.8 283.329C275.764 283.983 269.729 284.101 263.752 285.052C258.249 285.943 253.161 287.902 248.841 291.525C244.344 295.326 240.971 300.255 237.717 305.066C237.599 305.303 238.013 305.541 238.131 305.303ZM250.38 283.923C252.924 278.816 257.066 274.54 262.036 271.749C264.581 270.323 267.303 269.254 270.202 268.66C273.752 267.888 277.421 267.77 281.03 267.473C287.007 267.057 292.865 265.988 298.486 263.85C303.811 261.89 308.9 259.158 313.456 255.714C318.545 251.913 322.983 247.34 326.474 242.054C326.652 241.817 326.237 241.638 326.119 241.817C319.61 251.556 309.906 258.98 299.018 263.137C293.338 265.335 287.362 266.522 281.267 266.938C277.776 267.176 274.285 267.294 270.853 267.948C268.072 268.482 265.409 269.373 262.865 270.68C257.362 273.471 252.746 278.044 249.965 283.567C249.906 283.983 250.261 284.161 250.38 283.923ZM262.569 263.078C271.09 253.219 285.35 252.982 296.888 249.24C307.835 245.677 317.362 238.55 325.172 230.176C329.551 225.485 333.397 220.318 336.947 214.973C337.125 214.735 336.711 214.557 336.592 214.735C330.202 224.356 322.687 233.383 313.338 240.213C308.663 243.658 303.456 246.508 298.013 248.409C291.74 250.606 285.113 251.556 278.782 253.397C272.687 255.179 266.593 257.852 262.332 262.721C262.096 262.959 262.391 263.256 262.569 263.078Z" fill="#4C4942"/>
<path d="M273.931 246.508C280.263 235.996 292.925 232.255 303.399 227.563C314.286 222.634 323.813 215.27 332.333 206.896C337.067 202.263 341.446 197.334 345.706 192.227C345.884 191.989 345.588 191.692 345.41 191.93C337.718 201.135 329.434 209.984 319.848 217.229C315.055 220.852 309.967 224 304.582 226.553C298.842 229.226 292.866 231.305 287.304 234.333C281.919 237.184 276.771 240.985 273.576 246.33C273.399 246.568 273.754 246.746 273.931 246.508ZM302.748 215.626C306.18 216.16 309.434 214.854 312.334 213.013C315.529 210.934 318.369 208.321 321.268 205.945C327.836 200.482 334.404 194.959 340.972 189.495C344.7 186.407 348.369 183.318 352.097 180.23C352.333 180.052 351.978 179.755 351.801 179.933C345.47 185.219 339.138 190.504 332.748 195.79C329.552 198.462 326.416 201.076 323.221 203.748C320.144 206.302 317.186 208.974 313.99 211.35C310.795 213.725 307.008 215.804 302.866 215.21C302.629 215.21 302.511 215.626 302.748 215.626ZM242.334 296.989C242.097 284.814 242.275 272.639 242.807 260.465C242.985 257.02 243.162 253.575 243.399 250.19C243.399 249.893 242.985 249.893 242.985 250.19C242.215 262.365 241.801 274.54 241.801 286.714C241.801 290.159 241.86 293.604 241.92 297.048C241.92 297.226 242.334 297.226 242.334 296.989ZM231.209 320.863C232.452 315.934 233.636 311.005 233.931 305.897C234.05 303.462 233.991 301.087 233.636 298.652C233.221 296.217 232.452 293.901 231.742 291.525C230.973 288.793 230.322 286.002 230.795 283.211C230.854 282.914 230.44 282.854 230.381 283.092C229.553 287.783 231.683 292.238 232.748 296.692C233.991 301.799 233.576 307.085 232.63 312.133C232.097 314.984 231.387 317.834 230.677 320.685C230.736 321.041 231.091 321.16 231.209 320.863ZM229.908 326.861C235.056 321.398 240.914 315.756 248.073 313.083C254.937 310.529 262.452 311.302 269.612 310.589C273.458 310.233 277.245 309.401 280.618 307.441C280.854 307.322 280.618 306.907 280.381 307.085C273.872 310.826 266.121 310.292 258.902 310.708C255.351 310.886 251.801 311.302 248.428 312.489C244.937 313.736 241.801 315.696 238.902 317.953C235.588 320.507 232.57 323.476 229.671 326.505C229.375 326.743 229.73 327.04 229.908 326.861ZM235.707 310.945C242.807 303.937 250.204 296.632 259.612 292.832C269.908 288.615 281.15 290.1 291.919 288.674C297.363 287.962 302.866 286.477 307.422 283.27C307.659 283.092 307.422 282.735 307.186 282.914C298.31 289.149 286.89 288.674 276.535 289.209C271.091 289.506 265.588 290.1 260.44 292.059C255.884 293.782 251.683 296.395 247.837 299.364C243.458 302.809 239.434 306.729 235.47 310.648C235.233 310.826 235.529 311.183 235.707 310.945ZM247.186 288.318C254.227 280.241 265.411 277.806 275.529 276.678C286.476 275.49 297.955 275.371 307.955 270.145C312.57 267.71 316.712 264.265 319.197 259.574C319.316 259.336 318.961 259.099 318.842 259.336C314.049 268.363 303.635 272.461 294.109 274.124C282.925 276.084 271.269 275.49 260.381 279.291C255.292 281.073 250.44 283.804 246.89 287.962C246.712 288.199 247.008 288.496 247.186 288.318ZM257.541 270.917C264.345 261.237 277.245 259.574 287.955 258.03C293.872 257.139 299.73 256.129 305.292 253.872C310.026 251.972 314.464 249.299 318.428 246.092C322.925 242.47 326.771 238.075 329.73 233.146C329.848 232.908 329.493 232.671 329.375 232.908C323.931 241.995 315.47 249.121 305.706 253.219C300.203 255.535 294.405 256.664 288.487 257.495C282.57 258.386 276.594 259.099 270.914 261.118C265.588 263.018 260.44 265.988 257.127 270.679C257.008 270.917 257.363 271.155 257.541 270.917Z" fill="#4C4942"/>
<path d="M271.566 250.012C275.412 245.795 281.034 243.895 286.359 242.292C291.744 240.629 297.01 238.788 302.099 236.353C312.217 231.542 321.507 225.009 329.377 217.051C333.755 212.656 337.661 207.787 341.093 202.56C341.27 202.323 340.856 202.085 340.738 202.323C334.584 211.766 326.655 219.961 317.602 226.613C313.045 229.939 308.253 232.849 303.223 235.343C298.075 237.897 292.75 239.857 287.306 241.519C281.625 243.301 275.472 245.142 271.33 249.656C271.093 249.893 271.389 250.19 271.566 250.012ZM263.46 261.83C265.767 258.683 266.951 254.941 267.779 251.2C268.667 247.28 269.377 243.361 270.383 239.5C272.572 231.364 275.59 223.465 279.377 215.923C281.507 211.766 283.815 207.668 286.418 203.748C286.596 203.511 286.182 203.332 286.063 203.511C281.507 210.459 277.661 217.883 274.584 225.603C273.046 229.463 271.744 233.324 270.56 237.303C269.436 241.282 268.608 245.32 267.72 249.359C266.833 253.635 265.708 257.97 263.046 261.593C262.927 261.83 263.282 262.009 263.46 261.83ZM251.152 281.548C251.507 276.262 251.507 270.976 251.626 265.691C251.685 263.078 251.744 260.405 251.921 257.792C252.04 255.951 252.158 254.169 252.513 252.328C253.164 248.943 254.288 245.617 255.472 242.351C256.833 238.669 258.371 235.105 260.028 231.601C261.566 228.276 263.282 225.009 265.176 221.921C265.294 221.684 264.939 221.446 264.821 221.684C261.093 227.682 258.134 234.215 255.59 240.747C254.288 244.133 253.105 247.577 252.276 251.14C251.389 255.12 251.33 259.277 251.211 263.375C251.034 269.432 251.093 275.49 250.738 281.548C250.738 281.845 251.152 281.845 251.152 281.548ZM284.702 234.393C286.063 228.216 288.489 222.277 291.33 216.635C294.347 210.756 297.957 205.114 302.04 199.888C304.17 197.156 306.477 194.483 308.963 192.048C309.14 191.87 308.844 191.573 308.667 191.752C304.111 196.265 300.146 201.373 296.655 206.718C293.046 212.241 289.85 218.12 287.424 224.297C286.122 227.504 285.057 230.829 284.347 234.215C284.229 234.571 284.643 234.69 284.702 234.393ZM324.229 197.334C324.88 192.939 328.371 189.732 331.625 187C334.761 184.387 338.075 181.715 339.673 177.795C339.791 177.558 339.377 177.439 339.258 177.676C336.063 185.575 325.176 188.307 323.815 197.215C323.755 197.512 324.17 197.631 324.229 197.334ZM186.892 126.839C177.129 123.514 168.726 117.159 162.099 109.32C155.886 101.955 151.33 93.2846 147.839 84.3762C144.348 75.4085 141.803 66.0251 139.436 56.701C137.01 47.3175 134.703 37.9341 131.567 28.7882C128.49 19.8204 124.584 11.0309 119.141 3.19153C118.431 2.18192 117.721 1.2317 117.011 0.281473C116.655 0.578418 116.3 0.815974 115.945 1.11292C124.644 9.36799 135.117 15.2475 145.531 20.8894C156.123 26.5908 166.833 32.1733 176.241 39.7157C185.413 47.08 193.342 55.9883 199.555 66.0251C205.886 76.1806 210.324 87.3457 212.513 99.1047C214.821 111.339 215.117 124.048 213.282 136.342C213.046 137.767 212.809 139.192 212.572 140.677C212.395 141.508 213.697 141.924 213.874 141.033C216.241 128.859 216.419 116.209 214.703 103.915C212.987 91.7999 209.2 80.219 203.223 69.5884C197.424 59.2547 189.91 49.9306 181.093 42.0913C171.981 34.0144 161.567 28.0161 150.916 22.2554C140.324 16.554 129.437 10.9121 120.147 3.07275C119.022 2.12253 117.957 1.17231 116.892 0.162696C116.36 -0.312416 115.354 0.340862 115.827 0.994141C121.685 8.71471 126.005 17.4449 129.318 26.5314C132.691 35.7367 135.058 45.1795 137.543 54.6818C139.969 64.1246 142.395 73.5675 145.768 82.654C149.081 91.6217 153.401 100.292 159.259 107.954C165.472 116.031 173.578 122.92 182.987 126.899C184.17 127.374 185.354 127.849 186.537 128.265C187.365 128.443 187.72 127.136 186.892 126.839Z" fill="#4C4942"/>
<path d="M185.47 127.849C195.411 130.284 204.642 135.51 212.926 141.449C213.636 141.984 214.287 140.796 213.636 140.262C205.234 134.263 195.944 129.037 185.825 126.543C184.997 126.305 184.642 127.612 185.47 127.849Z" fill="#4C4942"/>
<path d="M213.929 140.677C211.148 130.343 207.657 120.188 203.397 110.329C199.196 100.47 194.225 90.9088 188.663 81.7035C183.101 72.4982 176.888 63.6493 170.083 55.3348C163.219 46.9016 155.764 38.9435 147.776 31.5199C139.077 23.443 130.498 15.3067 122.509 6.45771C121.563 5.38871 120.616 4.31971 119.669 3.25071C119.078 2.59743 118.131 3.54765 118.722 4.20093C126.533 13.1093 134.995 21.4831 143.693 29.5006C151.681 36.8649 159.314 44.526 166.355 52.8405C173.338 61.0956 179.669 69.7664 185.468 78.9123C191.148 87.9394 196.237 97.4416 200.616 107.181C204.994 116.921 208.663 126.958 211.622 137.232C211.977 138.479 212.332 139.727 212.628 140.974C212.864 141.865 214.166 141.508 213.929 140.677Z" fill="#4C4942"/>
<path d="M212.155 134.798C209.847 128.502 207.776 121.851 208.072 115.081C208.19 111.636 209.019 108.251 209.847 104.925C210.557 101.896 211.208 98.8674 211.563 95.7791C211.918 92.5721 211.8 89.3057 210.261 86.3957C210.143 86.2175 209.847 86.3957 209.965 86.5738C211.445 89.3057 211.563 92.5127 211.267 95.5416C210.971 98.7486 210.261 101.896 209.492 104.984C208.723 108.132 207.954 111.28 207.776 114.546C207.599 117.753 207.954 120.96 208.604 124.108C209.374 127.79 210.557 131.413 211.859 134.976C211.918 135.095 212.273 135.035 212.155 134.798ZM205.587 116.209C198.249 102.549 203.634 86.4551 201.09 71.8454C200.38 67.8663 199.078 64.006 196.948 60.5615C196.829 60.3833 196.533 60.5615 196.652 60.7396C204.936 73.924 199.847 90.256 201.741 104.747C202.273 108.785 203.397 112.764 205.291 116.387C205.409 116.565 205.705 116.387 205.587 116.209ZM197.599 98.5704C193.457 91.028 193.279 82.2978 192.332 73.924C191.504 66.2628 189.551 58.5422 186.119 51.6531C184.226 47.7928 181.8 44.2889 179.078 40.9631C178.96 40.7849 178.723 41.0225 178.841 41.2007C181.326 44.2295 183.575 47.4365 185.409 50.9405C187.125 54.2662 188.427 57.7108 189.492 61.2741C190.675 65.2532 191.504 69.2916 191.977 73.3895C192.451 77.4873 192.687 81.6446 193.338 85.683C193.989 90.1966 195.113 94.6507 197.362 98.6892C197.421 98.9267 197.717 98.7486 197.599 98.5704ZM185.291 77.5467C180.38 63.8279 178.309 48.6837 169.433 36.6871C167.244 33.777 164.758 31.1639 161.859 28.9665C161.681 28.8478 161.504 29.1447 161.681 29.2635C173.042 37.8749 177.362 52.0095 181.09 65.1344C182.273 69.2916 183.516 73.5083 184.995 77.6061C185.054 77.8437 185.409 77.7843 185.291 77.5467ZM170.321 56.6418C167.539 47.4959 163.338 38.9439 158.013 30.9858C156.415 28.6102 154.758 26.3534 153.042 24.0966C152.924 23.9185 152.628 24.0966 152.747 24.2748C158.545 31.936 163.693 40.0129 167.244 48.9212C168.25 51.475 169.196 54.0881 169.965 56.7606C170.025 56.9387 170.38 56.8794 170.321 56.6418ZM158.841 43.1605C154.995 34.3115 149.966 26.2346 143.871 18.811C143.753 18.6329 143.516 18.8704 143.634 19.0486C149.729 26.4128 154.758 34.4897 158.545 43.3387C158.664 43.5168 158.96 43.3387 158.841 43.1605ZM212.273 138.658C210.38 130.581 203.812 124.523 196.77 120.723C188.368 116.15 178.96 114.012 170.143 110.389C165.232 108.37 160.498 105.875 156.474 102.312C156.297 102.193 156.06 102.431 156.238 102.549C163.042 108.548 171.741 111.517 180.202 114.368C188.96 117.337 198.072 120.366 204.877 126.958C208.249 130.165 210.912 134.204 211.977 138.777C211.977 138.955 212.332 138.896 212.273 138.658ZM207.717 121.613C205.705 117.991 203.634 114.368 200.794 111.28C197.894 108.073 194.285 105.875 190.202 104.687C185.587 103.322 180.676 102.846 175.942 102.015C171.09 101.184 166.297 100.115 161.8 98.2141C157.599 96.373 153.871 93.7005 150.025 91.1468C149.847 91.028 149.67 91.325 149.847 91.4437C153.161 93.6411 156.415 96.0167 159.966 97.739C164.048 99.7582 168.486 101.005 172.983 101.837C177.717 102.728 182.51 103.262 187.184 104.272C191.681 105.281 195.883 107.004 199.255 110.211C202.687 113.477 205.054 117.694 207.362 121.791C207.539 121.97 207.835 121.792 207.717 121.613ZM199.433 103.975C197.835 99.9364 195.054 96.4918 191.563 93.9381C189.788 92.6315 187.776 91.5625 185.705 90.8498C183.102 89.8996 180.439 89.4839 177.717 89.1276C172.806 88.4149 168.013 87.4053 163.457 85.4454C159.196 83.6044 155.232 81.1101 151.682 78.1406C147.776 74.7554 144.403 70.7764 141.859 66.2628C141.741 66.0846 141.445 66.2628 141.563 66.441C145.942 74.2209 152.747 80.5756 160.676 84.614C164.699 86.6332 169.019 88.118 173.457 88.9494C178.664 89.8996 183.989 90.1372 188.782 92.7503C193.338 95.2446 197.125 99.2831 199.078 104.212C199.196 104.272 199.551 104.212 199.433 103.975ZM191.149 86.6332C185.291 78.6751 174.699 77.3092 166.119 74.0428C157.244 70.717 149.906 64.4811 144.048 57.1169C140.794 53.0191 138.013 48.6243 135.469 44.0513C135.35 43.8732 135.054 44.0513 135.173 44.2295C139.492 52.0689 144.758 59.6112 151.563 65.5501C154.995 68.5196 158.782 71.1327 162.865 73.0332C167.599 75.2305 172.687 76.4183 177.599 78.1406C182.628 79.9223 187.658 82.4166 190.912 86.8114C190.971 86.9896 191.267 86.8114 191.149 86.6332Z" fill="#4C4942"/>
<path d="M183.224 72.8549C179.023 64.3623 169.733 60.5614 161.863 56.4042C153.283 51.8312 146.064 45.4172 139.674 38.1124C136.182 34.0739 132.928 29.8573 129.851 25.4625C129.733 25.2843 129.437 25.4625 129.555 25.6407C134.94 33.2425 140.798 40.6067 147.721 46.8425C151.212 49.9901 154.94 52.8408 159.023 55.2164C163.401 57.7701 168.017 59.7893 172.336 62.4618C176.596 65.0749 180.62 68.4601 182.869 73.0331C183.046 73.2706 183.342 73.0925 183.224 72.8549ZM162.099 46.4862C159.2 46.6644 156.597 45.239 154.348 43.4574C152.04 41.5569 149.969 39.3595 147.839 37.2809C143.105 32.6486 138.372 28.0162 133.638 23.3839C130.975 20.7708 128.313 18.1577 125.65 15.5445C125.472 15.3664 125.236 15.6039 125.413 15.7821C130.324 20.5926 135.236 25.4031 140.147 30.2136C142.632 32.5892 145.058 35.0241 147.543 37.3997C149.733 39.5377 151.863 41.8539 154.289 43.7543C156.537 45.536 159.2 47.0207 162.159 46.7831C162.277 46.8425 162.277 46.4862 162.099 46.4862ZM204.999 114.962C206.241 102.609 207.011 90.1965 207.247 77.7842C207.247 77.5466 206.892 77.5466 206.892 77.7842C206.656 90.1965 205.946 102.609 204.644 114.962C204.644 115.14 204.999 115.14 204.999 114.962ZM212.277 134.441C211.448 129.215 210.561 123.811 211.448 118.525C211.863 116.09 212.809 113.833 213.697 111.517C214.525 109.32 215.235 107.122 215.058 104.747C215.058 104.509 214.703 104.509 214.703 104.747C214.94 107.301 214.052 109.676 213.164 112.052C212.218 114.427 211.389 116.743 211.034 119.297C210.324 124.405 211.153 129.571 211.981 134.619C211.981 134.798 212.277 134.679 212.277 134.441ZM212.809 139.133C209.141 134.501 204.94 129.809 199.555 127.196C194.348 124.642 188.431 124.761 182.809 123.811C179.673 123.276 176.537 122.445 173.875 120.604C173.697 120.485 173.52 120.782 173.697 120.901C178.312 124.048 184.052 124.345 189.437 124.998C192.336 125.355 195.235 125.83 197.898 126.839C200.798 127.968 203.342 129.809 205.65 131.888C208.194 134.144 210.443 136.698 212.514 139.371C212.691 139.549 212.928 139.311 212.809 139.133ZM209.259 126.186C204.17 120.247 198.845 114.13 191.804 110.508C184.052 106.528 175.295 106.825 166.952 105.222C162.395 104.331 157.898 102.846 154.289 99.8769C154.111 99.7581 153.875 99.9957 154.052 100.114C160.384 105.341 168.904 105.935 176.715 106.885C181.212 107.419 185.709 108.132 189.91 109.973C193.579 111.577 196.833 113.952 199.792 116.565C203.164 119.594 206.123 122.979 209.022 126.424C209.141 126.602 209.377 126.364 209.259 126.186ZM201.626 107.597C196.833 101.124 188.845 98.3328 181.271 96.848C172.514 95.0664 163.165 94.5319 155.295 89.8995C151.508 87.7021 148.253 84.6139 146.478 80.5755C146.419 80.3973 146.123 80.5755 146.182 80.7536C149.259 87.8209 156.656 91.8 163.756 93.8192C172.514 96.2542 181.804 96.4323 190.324 99.8769C194.585 101.599 198.608 104.153 201.389 107.894C201.508 107.894 201.804 107.776 201.626 107.597ZM194.644 93.1659C190.147 85.5048 180.798 83.1292 172.75 81.2881C168.017 80.2191 163.224 79.1501 158.727 77.0715C154.94 75.2899 151.389 72.9143 148.313 70.0636C144.881 66.8566 141.981 63.0557 139.851 58.8391C139.733 58.6609 139.437 58.8391 139.555 59.0173C143.165 66.3221 149.141 72.3798 156.301 76.2401C160.324 78.4375 164.703 79.8034 169.141 80.813C173.815 81.882 178.549 82.7729 182.987 84.5545C187.484 86.3362 191.804 89.0681 194.348 93.3441C194.466 93.5817 194.762 93.4035 194.644 93.1659Z" fill="#4C4942"/>
<path d="M184.816 75.7055C182.212 72.3203 178.248 70.5387 174.402 68.9352C170.2 67.2129 166.058 65.55 162.094 63.2932C154.283 58.8984 147.242 53.1377 141.443 46.3674C138.189 42.5665 135.289 38.4092 132.922 33.9551C132.804 33.7769 132.508 33.9551 132.627 34.1332C136.828 41.9132 142.508 48.8617 149.195 54.6224C155.881 60.4425 163.514 64.9561 171.798 68.2225C176.413 70.0636 181.443 71.8452 184.638 75.8837C184.697 76.1212 184.934 75.8837 184.816 75.7055ZM190.496 85.6235C188.78 82.8322 188.129 79.5658 187.715 76.3588C187.301 73.2112 186.946 70.0636 186.354 66.9753C185.171 60.5613 183.277 54.2661 180.851 48.2678C179.431 44.8232 177.893 41.4975 176.118 38.2905C175.999 38.1123 175.703 38.2905 175.822 38.4686C179.017 44.3481 181.62 50.5246 183.573 56.9386C184.52 60.0268 185.289 63.2338 185.94 66.3814C186.591 69.5884 186.946 72.8548 187.36 76.0618C187.774 79.447 188.425 82.8322 190.26 85.8016C190.319 85.9798 190.615 85.8016 190.496 85.6235ZM199.017 102.193C199.076 97.917 199.431 93.641 199.727 89.365C199.964 85.861 200.319 82.2977 199.904 78.8531C199.254 73.033 197.301 67.3317 195.23 61.8679C194.224 59.1954 193.1 56.5229 191.798 53.9098C191.68 53.7316 191.384 53.9098 191.502 54.0879C194.046 59.0766 195.999 64.481 197.597 69.826C198.366 72.5579 199.076 75.2898 199.49 78.0811C199.964 81.3475 199.668 84.7326 199.49 87.999C199.194 92.6908 198.78 97.3825 198.721 102.134C198.662 102.431 199.017 102.431 199.017 102.193ZM175.526 62.6993C174.816 57.6513 173.277 52.722 171.325 48.0302C169.313 43.1604 166.828 38.528 163.928 34.1332C162.39 31.8171 160.733 29.6197 158.958 27.5411C158.839 27.3629 158.603 27.6004 158.721 27.7786C165.348 35.5586 170.437 45.0014 173.336 54.7412C174.106 57.3543 174.757 60.0268 175.112 62.7587C175.23 62.9963 175.526 62.9369 175.526 62.6993ZM146.65 30.9856C146.118 23.8589 137.774 21.0083 135.703 14.5349C135.644 14.3567 135.289 14.4161 135.348 14.6536C136.354 17.7419 138.721 20.058 140.97 22.2554C143.396 24.631 146.058 27.4223 146.295 31.045C146.354 31.2232 146.709 31.2232 146.65 30.9856ZM239.49 459.774H237.774C237.893 457.636 238.011 455.498 238.011 453.36C238.248 441.007 236.65 428.832 233.632 417.014C233.455 416.301 233.277 415.589 233.04 414.876C231.265 408.284 229.076 401.751 226.472 395.337C223.218 387.201 219.431 379.302 215.703 371.344C214.52 368.849 213.396 366.355 212.271 363.801C211.916 363.089 211.62 362.376 211.325 361.663C208.839 356.081 206.472 350.498 204.165 344.856C195.052 322.764 186.887 299.543 186.413 275.312C186.177 263.315 188.248 251.497 191.561 239.975C194.993 228.216 199.549 216.873 203.632 205.411C207.715 193.89 211.384 182.131 212.981 170.015C214.283 160.513 214.461 150.417 212.035 141.033C211.739 139.964 213.396 139.489 213.691 140.558C214.106 142.043 214.401 143.587 214.638 145.072C218.307 168.115 210.733 191.039 202.922 212.419C198.721 223.881 194.342 235.284 191.443 247.161C188.484 259.158 187.478 271.333 188.603 283.626C190.792 308.095 200.2 331.316 209.727 353.705C210.555 355.665 211.443 357.625 212.271 359.525C212.567 360.238 212.922 360.951 213.218 361.663C219.254 374.967 225.822 388.032 230.851 401.751C232.212 405.492 233.395 409.293 234.461 413.154C234.638 413.866 234.816 414.52 234.993 415.232C238.78 429.723 240.319 444.689 239.49 459.774ZM205.23 425.803C204.816 437.147 203.869 448.49 202.745 459.774H201.029C201.088 459.121 201.147 458.527 201.206 457.874C202.39 445.758 203.396 433.583 203.632 421.349C203.81 411.788 203.573 402.226 202.567 392.724C202.39 391.239 202.212 389.754 202.035 388.27C201.916 387.319 201.798 386.31 201.62 385.36C199.904 373.719 196.768 362.435 192.922 351.33C189.194 340.58 184.757 330.068 180.26 319.616C175.763 309.104 171.147 298.652 167.005 288.021C166.591 287.011 168.248 286.536 168.662 287.546C169.194 288.912 169.727 290.278 170.26 291.644C174.52 302.274 179.135 312.786 183.632 323.298C188.07 333.751 192.39 344.262 195.999 355.071C199.135 364.633 201.62 374.373 203.159 384.291C203.396 385.597 203.573 386.963 203.751 388.329C203.81 388.626 203.81 388.923 203.869 389.22C205.407 401.454 205.644 413.629 205.23 425.803Z" fill="#4C4942"/>
<path d="M229.553 328.999C224.406 337.67 219.731 346.697 215.648 355.962C214.82 357.862 213.991 359.763 213.222 361.663C212.926 362.376 212.63 363.089 212.335 363.801C209.08 371.878 206.24 380.074 203.755 388.448C203.341 389.873 202.926 391.298 202.571 392.724C201.21 397.772 199.968 402.879 198.903 407.987C195.352 425.031 193.577 442.373 193.518 459.774H191.802C191.802 450.331 192.335 440.829 193.4 431.445C195.057 416.836 197.956 402.404 202.039 388.269C202.394 386.963 202.808 385.716 203.163 384.409C203.873 382.212 204.583 379.955 205.293 377.758C207.128 372.294 209.139 366.949 211.329 361.604C211.625 360.891 211.92 360.178 212.216 359.466C216.772 348.657 222.039 338.145 228.074 328.049C228.666 327.158 230.145 328.049 229.553 328.999ZM203.696 338.264C200.796 314.271 197.897 289.565 203.991 265.809C206.713 255.179 211.21 244.904 217.897 236.234C224.465 227.8 232.867 221.089 240.619 213.785C256.062 199.234 268.192 180.764 273.814 160.156C278.074 144.537 278.488 128.265 276.299 112.289C275.471 106.112 274.228 100.055 272.926 93.9377C272.039 89.7805 270.914 85.5639 270.559 81.3473C270.5 80.6346 270.441 79.9813 270.5 79.2687C270.559 78.1403 268.843 78.1403 268.784 79.2687C268.666 82.9508 269.672 86.7517 270.441 90.315C271.624 95.9569 272.926 101.54 273.873 107.241C276.476 122.682 276.95 138.539 273.636 153.921C269.198 174.707 258.133 193.889 243.222 208.915C235.707 216.457 227.305 223.049 220.145 230.948C212.986 238.906 207.838 248.349 204.406 258.505C196.773 281.251 198.311 305.6 200.974 328.999C201.329 332.087 201.684 335.116 202.039 338.145C202.098 339.392 203.814 339.392 203.696 338.264ZM178.429 428.179C177.66 438.809 175.944 449.321 174.051 459.774H172.335C172.453 459.239 172.571 458.645 172.631 458.111C174.702 446.946 176.418 435.662 176.95 424.319C177.423 414.044 176.891 403.711 174.702 393.614C172.571 383.815 168.962 374.372 163.4 365.999C158.548 358.634 152.157 352.28 144.761 347.469C137.305 342.659 128.844 339.452 119.968 338.62C118.903 338.501 118.903 336.779 119.968 336.898C121.092 337.017 122.217 337.136 123.4 337.314C132.335 338.68 140.856 342.421 148.134 347.707C155.53 353.052 161.802 359.882 166.477 367.721C171.743 376.451 175.116 386.25 176.95 396.287C178.903 406.799 179.199 417.548 178.429 428.179ZM323.695 333.335C323.222 334.522 322.689 335.77 322.098 336.957C317.601 346.46 310.737 354.596 302.926 361.544C294.879 368.671 285.944 374.729 276.95 380.668C267.956 386.607 258.843 392.486 250.5 399.375C244.761 404.126 239.435 409.353 234.938 415.232C234.465 415.826 234.051 416.42 233.636 417.014C231.743 419.686 230.027 422.477 228.488 425.388C225.234 431.623 222.867 438.572 222.039 445.58C221.447 450.331 221.802 455.082 222.453 459.774H220.737C220.678 459.477 220.619 459.12 220.619 458.824C219.849 452.944 219.849 447.065 221.092 441.244C222.571 434.236 225.234 427.407 228.903 421.23C230.204 419.033 231.624 416.895 233.163 414.876C233.577 414.282 234.051 413.688 234.524 413.153C239.435 406.918 245.293 401.454 251.506 396.525C260.027 389.754 269.258 383.875 278.311 377.817C287.246 371.878 296.121 365.761 303.991 358.397C311.683 351.211 318.192 342.718 322.157 332.919C322.453 331.909 324.109 332.325 323.695 333.335Z" fill="#4C4942"/>
<path d="M176.237 435.781C173.515 438.75 168.544 439.522 164.935 437.919C160.556 435.959 157.479 431.802 155.172 427.763C150.497 419.567 148.663 410.184 146 401.216C144.698 396.762 143.16 392.308 140.97 388.151C138.84 383.993 136.059 380.252 132.627 377.045C125.763 370.572 116.947 366.355 107.894 363.861C96.9469 360.891 85.5269 360.238 74.2251 359.881C72.805 359.822 71.3849 359.822 69.9648 359.763C70.1423 360.238 70.379 360.713 70.5565 361.247C83.2783 351.092 97.0061 340.283 113.752 338.739C118.367 338.323 123.042 338.62 127.479 339.808C128.544 340.105 129.018 338.442 127.953 338.145C119.728 335.948 111.03 336.66 103.042 339.214C94.9351 341.827 87.5979 346.222 80.734 351.211C76.8878 354.061 73.16 357.031 69.4322 360.06C68.8405 360.535 69.3731 361.485 70.0239 361.544C81.5032 361.841 93.1008 362.198 104.343 364.811C113.752 367.008 122.982 370.868 130.32 377.342C133.87 380.43 136.769 384.112 139.077 388.269C141.326 392.427 142.923 396.881 144.284 401.394C147.006 410.481 148.899 419.924 153.515 428.298C155.823 432.395 158.781 436.493 162.923 438.869C166.71 441.007 171.385 441.066 175.172 438.869C176 438.394 176.769 437.8 177.42 437.087C178.189 436.196 176.947 434.949 176.237 435.781Z" fill="#4C4942"/>
<path d="M177.541 436.849C180.086 432.158 182.097 427.11 183.813 422.062C185.707 416.42 187.304 410.599 188.429 404.72C190.736 392.486 190.973 379.48 186.949 367.542C183.517 357.387 177.009 348.479 168.547 341.946C159.908 335.235 149.494 331.137 138.666 330.306C127.245 329.415 115.47 331.968 105.411 337.492C104.169 338.145 102.985 338.917 101.802 339.689C100.914 340.283 101.743 341.768 102.689 341.174C112.038 334.997 123.222 331.79 134.405 331.85C145.174 331.909 155.707 335.175 164.642 341.233C173.044 346.934 179.908 354.952 183.932 364.276C188.784 375.679 189.257 388.566 187.423 400.681C186.535 406.383 185.174 412.025 183.517 417.489C181.92 422.715 180.026 427.941 177.66 432.87C177.186 433.88 176.654 434.949 176.062 435.959C175.589 436.909 177.068 437.8 177.541 436.849ZM239.079 408.937C238.014 400.682 238.547 392.189 241.505 384.35C244.464 376.688 249.73 370.334 256.476 365.701C263.044 361.188 270.499 358.159 277.955 355.665C285.588 353.052 293.399 350.914 300.973 347.944C308.369 345.034 315.588 341.293 321.446 335.829C322.156 335.175 322.866 334.463 323.517 333.75C323.044 333.572 322.57 333.334 322.038 333.156C321.624 341.589 319.848 349.963 316.89 357.862C313.872 365.761 309.671 373.244 304.405 379.836C299.434 386.072 293.576 391.536 287.067 396.168C280.499 400.8 273.34 404.542 265.825 407.214C257.008 410.362 247.718 411.906 238.547 413.866C237.363 414.103 236.239 414.341 235.056 414.638C233.991 414.875 234.464 416.538 235.529 416.301C244.937 414.163 254.464 412.678 263.695 409.768C271.505 407.274 279.02 403.651 285.825 399.137C292.57 394.683 298.665 389.279 303.931 383.162C309.493 376.629 314.05 369.265 317.363 361.366C320.677 353.467 322.807 345.093 323.517 336.601C323.635 335.532 323.695 334.403 323.754 333.334C323.813 332.622 322.807 332.206 322.274 332.74C316.772 338.679 309.612 342.718 302.156 345.806C294.582 348.954 286.712 351.151 278.961 353.705C271.328 356.259 263.695 359.169 256.949 363.563C250.085 367.958 244.464 374.016 241.032 381.439C237.541 389.041 236.417 397.593 237.068 405.908C237.127 406.977 237.245 408.046 237.423 409.174C237.541 410.006 239.257 410.006 239.079 408.937ZM211.151 246.033C207.955 241.697 206.89 236.293 207.423 231.007C207.955 225.365 210.204 220.198 213.222 215.447C216.476 210.34 220.559 205.886 224.642 201.432C228.724 196.918 232.748 192.345 236.476 187.475C243.872 177.973 250.44 167.877 255.825 157.068C261.387 145.962 265.707 134.203 268.31 122.028C271.032 109.557 272.038 96.7288 270.914 84.0195C270.795 82.416 270.618 80.8125 270.381 79.2684C269.849 79.3872 269.316 79.5653 268.784 79.6841C275.233 92.9279 281.683 106.231 286.239 120.247C290.736 134.144 293.221 148.932 291.505 163.541C290.026 176.191 285.056 188.188 277.955 198.7C270.736 209.39 261.328 218.476 250.855 225.84C239.908 233.502 227.837 239.44 215.293 244.013C213.754 244.548 212.216 245.142 210.677 245.617C209.671 245.973 210.085 247.636 211.151 247.28C224.05 242.944 236.535 237.302 247.955 229.879C258.902 222.752 268.843 213.963 276.712 203.451C284.346 193.295 290.026 181.536 292.393 169.065C295.174 154.514 293.517 139.429 289.612 125.235C285.588 110.863 279.257 97.2039 272.807 83.782C271.979 82.1191 271.21 80.4562 270.381 78.7933C270.026 78.0806 268.665 78.3776 268.784 79.209C270.381 92.037 269.908 105.043 267.482 117.693C265.174 130.165 261.091 142.221 255.588 153.623C250.322 164.551 243.872 174.885 236.535 184.565C232.866 189.376 228.961 194.067 224.878 198.521C220.855 202.976 216.713 207.43 213.222 212.359C207.009 221.149 202.985 232.908 207.778 243.301C208.31 244.489 209.02 245.617 209.79 246.686C210.322 247.755 211.801 246.923 211.151 246.033Z" fill="#4C4942"/>
<path d="M239.314 408.462C240.793 405.967 241.858 403.176 242.332 400.266C242.805 397.178 242.746 394.03 243.101 390.942C243.693 385.419 245.586 380.074 248.367 375.263C249.965 372.472 251.858 369.8 253.989 367.365C254.166 367.186 253.87 366.83 253.693 367.068C250.083 371.225 247.125 375.857 245.113 381.024C244.107 383.578 243.338 386.25 242.924 388.982C242.45 392.011 242.45 395.099 242.154 398.128C241.799 401.751 240.793 405.136 238.9 408.284C238.782 408.521 239.137 408.699 239.314 408.462ZM241.681 406.621C245.468 401.573 248.131 395.931 249.432 389.695C250.142 386.429 250.557 383.103 251.385 379.896C252.154 376.748 253.279 373.719 254.639 370.809C255.409 369.206 256.237 367.662 257.184 366.117C258.071 364.692 259.077 363.267 260.616 362.495C260.852 362.376 260.675 362.02 260.379 362.138C257.835 363.386 256.415 366.355 255.172 368.671C253.693 371.462 252.45 374.432 251.563 377.461C249.551 383.934 249.314 390.823 246.651 397.119C245.231 400.385 243.397 403.473 241.267 406.383C241.148 406.621 241.503 406.858 241.681 406.621ZM247.598 401.098C250.261 398.603 253.042 396.05 254.935 392.902C256.888 389.754 257.598 386.132 258.071 382.509C258.545 378.827 258.9 375.026 260.202 371.522C261.385 368.374 263.16 365.524 265.409 363.089C268.012 360.297 271.207 358.041 274.758 356.556C274.994 356.437 274.876 356.021 274.639 356.14C268.663 358.634 263.574 363.267 260.734 369.146C259.196 372.294 258.545 375.679 258.071 379.183C257.539 383.103 257.243 387.201 255.586 390.823C253.752 394.802 250.497 397.831 247.302 400.801C247.066 400.979 247.421 401.276 247.598 401.098Z" fill="#4C4942"/>
<path d="M257.78 393.317C263.697 389.101 263.934 381.321 266.005 374.966C268.135 368.374 272.218 362.435 277.78 358.278C281.094 355.784 284.822 353.883 288.49 351.983C288.727 351.864 288.49 351.508 288.253 351.626C284.94 353.349 281.685 355.012 278.609 357.15C275.827 359.109 273.283 361.426 271.212 364.158C269.259 366.652 267.721 369.443 266.478 372.353C265.058 375.798 264.467 379.42 263.52 382.984C262.514 386.785 260.857 390.586 257.603 392.902C257.307 393.08 257.543 393.436 257.78 393.317Z" fill="#4C4942"/>
<path d="M264.76 387.675C275.648 380.014 276.239 365.108 285.056 355.843C287.423 353.349 290.263 351.389 293.577 350.439C293.813 350.379 293.754 349.963 293.458 350.023C280.441 353.943 277.955 369.027 271.801 379.183C269.908 382.33 267.541 385.181 264.523 387.319C264.287 387.497 264.523 387.854 264.76 387.675ZM274.642 382.152C279.908 378.648 284.523 374.194 288.192 368.968C292.156 363.326 294.819 356.793 299.08 351.27C301.269 348.419 303.932 345.925 307.127 344.203C307.364 344.084 307.127 343.728 306.89 343.846C301.387 346.875 297.659 352.101 294.523 357.387C292.689 360.535 291.032 363.742 289.08 366.771C287.304 369.562 285.293 372.116 282.985 374.491C280.381 377.223 277.482 379.658 274.346 381.737C274.228 381.915 274.405 382.271 274.642 382.152ZM273.872 381.618C277.659 377.342 280.796 372.472 283.754 367.543C286.654 362.732 289.375 357.625 292.867 353.23C294.76 350.854 297.009 348.716 299.967 347.825C300.204 347.766 300.145 347.35 299.849 347.41C294.819 349.013 291.801 353.764 289.08 357.981C285.884 362.97 283.044 368.196 279.73 373.125C277.837 375.976 275.825 378.708 273.577 381.261C273.34 381.499 273.636 381.796 273.872 381.618ZM291.624 369.859C295.056 367.364 298.014 364.217 300.322 360.594C302.63 356.971 303.991 352.874 305.766 348.954C306.831 346.697 308.014 344.44 309.671 342.54C309.849 342.362 309.553 342.005 309.375 342.243C306.653 345.39 305.115 349.191 303.577 352.992C301.861 357.09 299.908 360.95 297.009 364.336C295.352 366.236 293.458 367.958 291.446 369.443C291.21 369.621 291.446 369.978 291.624 369.859ZM305.056 358.694C312.156 353.883 312.63 344.44 317.6 338.026C317.778 337.789 317.482 337.492 317.304 337.729C312.393 344.084 311.861 353.586 304.878 358.337C304.642 358.515 304.819 358.872 305.056 358.694ZM236.239 414.104C249.376 404.067 267.068 406.145 281.801 400.028C285.47 398.484 288.961 396.465 291.92 393.733C292.097 393.555 291.801 393.258 291.624 393.436C285.943 398.722 278.37 401.216 270.973 402.879C263.044 404.601 254.878 405.433 247.127 408.046C243.163 409.412 239.376 411.193 236.003 413.747C235.825 413.925 236.003 414.282 236.239 414.104ZM239.435 409.115C245.766 402.938 253.873 399.138 262.275 396.762C266.772 395.515 271.387 394.624 276.003 393.911C280.085 393.317 284.109 392.842 288.133 391.951C292.511 390.942 296.831 389.457 300.5 386.785C300.736 386.606 300.5 386.25 300.263 386.428C293.458 391.417 284.819 392.248 276.713 393.436C267.778 394.743 258.843 396.703 250.677 400.741C246.417 402.879 242.452 405.552 239.08 408.877C238.961 408.996 239.257 409.293 239.435 409.115ZM248.251 400.207C255.174 395.455 263.162 392.664 271.151 390.407C279.198 388.091 287.423 386.25 295.293 383.162C299.612 381.499 303.754 379.48 307.6 376.867C307.837 376.688 307.6 376.332 307.364 376.51C300.44 381.261 292.452 383.993 284.405 386.309C276.358 388.626 268.133 390.467 260.263 393.555C255.944 395.218 251.802 397.237 247.955 399.85C247.837 400.028 248.074 400.385 248.251 400.207Z" fill="#4C4942"/>
<path d="M237.243 411.669C243.396 407.215 250.26 403.711 257.479 401.395C261.089 400.207 264.757 399.316 268.544 398.722C272.331 398.128 276.177 397.713 279.964 397.119C284.166 396.465 288.308 395.456 292.154 393.615C292.39 393.496 292.213 393.14 291.917 393.258C284.935 396.644 277.006 397 269.432 398.128C261.976 399.257 254.757 401.454 248.012 404.72C244.166 406.561 240.497 408.759 237.006 411.253C236.828 411.431 237.006 411.788 237.243 411.669ZM258.663 392.783C270.97 383.994 286.532 383.578 300.201 377.995C303.988 376.451 307.597 374.491 310.793 372.056C311.029 371.878 310.793 371.522 310.556 371.7C298.544 380.905 282.923 381.499 269.254 386.726C265.408 388.21 261.74 390.051 258.426 392.427C258.248 392.546 258.485 392.902 258.663 392.783ZM273.456 381.796C279.669 379.658 285.882 377.52 292.095 375.382C295.171 374.313 298.189 373.244 301.266 372.235C303.87 371.344 306.473 370.512 308.958 369.443C311.562 368.315 313.988 366.83 315.763 364.573C315.941 364.336 315.645 364.039 315.467 364.277C312.213 368.493 306.592 369.978 301.739 371.641C295.704 373.719 289.669 375.798 283.633 377.877C280.201 379.064 276.769 380.252 273.337 381.44C273.101 381.44 273.219 381.856 273.456 381.796ZM282.745 375.026C288.248 373.125 293.692 371.106 299.018 368.909C301.68 367.84 304.343 366.711 306.947 365.583C309.432 364.514 312.035 363.504 314.343 362.079C316.473 360.713 318.307 358.575 318.248 355.962C318.248 355.665 317.834 355.665 317.834 355.962C317.893 358.635 315.941 360.654 313.81 361.96C311.621 363.267 309.136 364.217 306.769 365.286C301.68 367.484 296.532 369.562 291.384 371.522C288.485 372.591 285.586 373.66 282.686 374.67C282.39 374.729 282.509 375.145 282.745 375.026Z" fill="#4C4942"/>
<path d="M293.69 367.781C301.796 363.861 311.678 361.842 317.418 354.24C318.779 352.458 319.785 350.439 320.199 348.182C320.258 347.885 319.844 347.826 319.785 348.064C317.95 357.091 308.483 361.248 300.85 364.217C298.364 365.227 295.879 366.177 293.453 367.306C293.217 367.543 293.453 367.899 293.69 367.781Z" fill="#4C4942"/>
<path d="M302.805 361.01C309.965 357.09 317.717 352.814 321.918 345.509C322.036 345.272 321.681 345.034 321.563 345.272C317.362 352.577 309.669 356.734 302.569 360.654C302.332 360.772 302.569 361.129 302.805 361.01ZM176.001 434.652C167.421 433.702 159.315 429.307 153.753 422.715C152.214 420.874 150.912 418.855 149.788 416.657C149.67 416.42 149.315 416.598 149.433 416.895C153.338 424.734 160.557 430.673 168.723 433.464C171.09 434.296 173.516 434.83 175.942 435.068C176.297 435.127 176.297 434.712 176.001 434.652Z" fill="#4C4942"/>
<path d="M176.833 431.564C175.59 429.842 174.051 428.179 172.04 427.407C170.442 426.753 168.667 426.694 166.951 426.456C161.27 425.625 156.714 421.824 153.282 417.37C151.093 414.579 149.259 411.49 147.247 408.521C147.069 408.283 146.714 408.521 146.892 408.759C150.324 413.866 153.342 419.33 158.253 423.131C160.324 424.734 162.631 426.041 165.176 426.635C166.951 427.05 168.726 427.05 170.501 427.466C173.046 428.06 174.88 429.782 176.418 431.861C176.655 431.98 177.01 431.801 176.833 431.564ZM177.247 427.228C176.714 422.18 172.395 418.617 168.016 416.657C162.631 414.222 156.596 413.391 151.685 410.065C149.199 408.402 147.069 406.086 146.3 403.117C146.241 402.879 145.827 402.938 145.886 403.235C147.188 408.046 151.685 411.075 156.004 412.856C161.507 415.113 167.72 416.004 172.395 419.864C174.643 421.765 176.478 424.259 176.833 427.288C176.833 427.466 177.306 427.466 177.247 427.228Z" fill="#4C4942"/>
<path d="M177.898 425.15C177.425 418.439 176.242 410.421 169.614 406.977C166.478 405.373 162.869 405.136 159.437 404.542C156.123 403.948 152.928 402.879 150.088 401.157C146.893 399.197 144.171 396.524 142.455 393.258C142.336 393.021 141.981 393.258 142.1 393.496C144.999 398.959 150.502 402.701 156.36 404.364C159.792 405.314 163.342 405.433 166.774 406.383C170.206 407.393 172.928 409.531 174.703 412.678C176.833 416.479 177.248 420.933 177.603 425.269C177.484 425.447 177.898 425.447 177.898 425.15Z" fill="#4C4942"/>
<path d="M178.135 418.142C178.017 410.422 177.543 401.395 170.739 396.406C167.721 394.208 164.052 393.199 160.502 392.427C156.597 391.595 152.691 390.823 148.904 389.398C144.466 387.794 140.206 385.538 136.36 382.806C136.123 382.628 135.946 383.043 136.123 383.162C139.378 385.478 142.928 387.379 146.597 388.923C150.206 390.408 153.993 391.417 157.78 392.249C161.389 393.021 165.058 393.674 168.372 395.396C171.863 397.237 174.348 400.266 175.768 403.889C177.543 408.402 177.602 413.332 177.721 418.083C177.721 418.439 178.135 418.439 178.135 418.142ZM177.247 397.534C176.005 390.586 170.857 384.706 164.348 382.212C160.324 380.668 155.946 380.371 151.685 380.074C147.543 379.718 143.401 379.302 139.318 378.292C134.94 377.223 130.679 375.501 127.011 372.769C126.774 372.591 126.597 372.947 126.774 373.125C133.046 377.817 140.916 379.48 148.549 380.193C152.75 380.608 157.011 380.727 161.153 381.677C164.94 382.568 168.431 384.35 171.271 387.082C174.17 389.932 176.123 393.555 176.833 397.594C176.892 397.95 177.307 397.831 177.247 397.534ZM173.165 382.746C172.218 379.361 170.265 376.392 167.662 374.135C164.762 371.7 161.212 370.334 157.484 369.8C149.437 368.671 141.508 371.047 133.461 371.225C128.963 371.344 124.407 370.69 120.502 368.434C120.265 368.315 120.029 368.671 120.265 368.79C126.952 372.71 135.058 371.819 142.395 370.869C150.088 369.859 158.845 368.671 165.709 373.185C169.141 375.442 171.685 378.886 172.81 382.865C172.869 383.103 173.283 382.984 173.165 382.746Z" fill="#4C4942"/>
<path d="M166.828 370.572C166.414 367.543 164.284 365.108 161.74 363.623C158.663 361.782 154.994 361.188 151.503 360.832C147.657 360.416 143.692 360.179 139.905 361.188C136.355 362.198 133.16 364.039 129.787 365.643C125.823 367.484 121.326 368.909 117.006 367.602C116.769 367.543 116.651 367.959 116.888 368.018C124.048 370.216 130.556 365.405 136.829 362.733C140.438 361.188 144.166 360.713 148.071 360.951C151.799 361.188 155.704 361.545 159.195 362.911C162.627 364.217 165.823 366.89 166.414 370.691C166.414 370.988 166.828 370.869 166.828 370.572Z" fill="#4C4942"/>
<path d="M160.144 359.109C159.079 355.784 154.878 354.299 151.86 353.467C148.132 352.458 144.168 352.398 140.322 352.933C131.801 354.061 124.109 358.04 116.12 360.891C111.978 362.376 107.836 363.207 103.458 363.385C103.162 363.385 103.162 363.801 103.458 363.801C107.067 363.682 110.617 363.088 114.109 362.019C117.896 360.832 121.623 359.228 125.292 357.803C132.807 354.833 140.795 352.161 148.961 353.349C151.091 353.646 153.162 354.18 155.174 355.071C157.067 355.902 159.138 357.09 159.789 359.228C159.848 359.466 160.262 359.347 160.144 359.109ZM150.144 349.31C143.694 345.331 135.824 344.084 128.428 345.391C124.641 346.044 121.091 347.469 117.836 349.488C114.227 351.745 111.032 354.655 107.481 357.031C103.339 359.822 98.4281 362.019 93.3394 361.307C93.0435 361.247 92.9844 361.663 93.2211 361.723C101.919 363.029 108.724 356.556 115.233 351.805C118.546 349.37 122.038 347.469 126.002 346.4C129.73 345.391 133.694 345.094 137.54 345.509C141.919 345.984 146.12 347.41 149.907 349.667C150.144 349.845 150.381 349.488 150.144 349.31ZM132.57 340.402C125.469 338.977 117.896 338.501 110.972 341.055C108.191 342.065 105.529 343.609 103.28 345.628C100.736 347.885 99.1382 350.854 97.3631 353.705C95.4104 356.912 92.9252 360.06 89.1382 361.069C88.9015 361.129 88.9607 361.544 89.2566 361.485C95.8838 359.763 97.8364 352.458 101.801 347.707C106.18 342.599 112.925 340.164 119.493 339.749C123.813 339.452 128.191 339.986 132.452 340.818C132.748 340.877 132.866 340.461 132.57 340.402Z" fill="#4C4942"/>
<path d="M114.287 337.848C112.097 337.314 109.612 337.789 107.482 338.323C104.819 338.977 102.216 339.927 99.7897 341.115C98.7838 341.649 97.7778 342.184 96.8311 342.896C95.5885 343.847 94.5234 345.094 93.4583 346.281C91.0323 349.013 88.9021 352.042 86.4169 354.774C83.8134 357.625 80.4406 360.416 76.417 360.475C76.1211 360.475 76.1211 360.891 76.417 360.891C83.34 360.772 87.7779 353.824 91.6832 349.013C93.6358 346.638 95.6477 344.025 98.3104 342.362C100.618 340.936 103.222 339.927 105.884 339.155C108.429 338.383 111.506 337.611 114.168 338.205C114.464 338.323 114.583 337.908 114.287 337.848ZM177.659 429.485C178.724 420.399 183.576 412.441 188.192 404.78C188.31 404.542 187.955 404.304 187.837 404.542C183.162 412.263 178.31 420.339 177.245 429.485C177.186 429.723 177.6 429.723 177.659 429.485ZM178.251 416.182C178.547 410.897 181.505 406.383 183.872 401.87C186.18 397.356 187.541 392.605 188.251 387.557C188.665 384.766 188.961 381.915 189.198 379.124C189.198 378.827 188.783 378.827 188.783 379.124C188.31 384.231 187.837 389.398 186.417 394.387C185.707 396.94 184.701 399.316 183.517 401.691C182.334 403.948 181.032 406.146 179.967 408.462C178.843 410.897 178.014 413.51 177.837 416.182C177.837 416.42 178.251 416.42 178.251 416.182ZM177.245 406.977C178.014 393.021 184.346 379.658 182.926 365.523C182.57 361.96 181.683 358.456 180.144 355.249C180.026 355.012 179.671 355.19 179.789 355.487C185.825 368.255 181.15 382.509 178.488 395.515C177.718 399.316 177.068 403.117 176.89 407.036C176.772 407.274 177.186 407.274 177.245 406.977ZM175.884 393.258C173.754 385.538 176.89 377.698 177.068 369.978C177.245 362.138 174.168 354.596 169.967 348.182C167.541 344.5 164.76 341.055 161.801 337.729C161.624 337.551 161.328 337.848 161.505 338.026C166.772 344.025 171.742 350.439 174.523 357.981C175.884 361.663 176.713 365.523 176.653 369.443C176.653 373.422 175.825 377.282 175.292 381.202C174.701 385.241 174.405 389.398 175.529 393.377C175.529 393.674 175.943 393.555 175.884 393.258Z" fill="#4C4942"/>
<path d="M171.327 378.055C170.44 369.919 169.493 361.604 166.475 353.943C163.753 346.995 159.197 340.996 153.103 336.661C149.73 334.226 145.943 332.325 141.919 331.078C141.683 331.019 141.564 331.435 141.801 331.494C148.724 333.691 154.996 337.789 159.73 343.312C164.878 349.37 167.54 356.853 169.02 364.574C169.907 369.028 170.381 373.541 170.913 377.996C170.972 378.352 171.387 378.352 171.327 378.055Z" fill="#4C4942"/>
<path d="M162.039 362.732C159.79 356.556 157.423 350.32 153.518 344.975C151.625 342.421 149.435 340.105 146.832 338.264C144.051 336.304 140.974 334.879 137.778 333.81C134.051 332.563 130.145 331.791 126.24 331.316C125.944 331.256 125.944 331.731 126.24 331.731C132.986 332.622 139.849 334.226 145.589 337.967C151.033 341.531 154.761 346.876 157.482 352.696C159.08 356.022 160.323 359.466 161.624 362.911C161.684 363.089 162.098 362.97 162.039 362.732Z" fill="#4C4942"/>
<path d="M142.867 344.619C136.535 337.849 127.186 334.226 118.015 334.404C115.411 334.463 112.808 334.82 110.263 335.532C110.027 335.592 110.086 336.008 110.382 335.948C119.257 333.573 129.021 335.176 136.713 340.105C138.843 341.471 140.855 343.134 142.571 344.975C142.748 345.094 143.103 344.797 142.867 344.619ZM211.683 244.667C211.801 238.491 211.92 232.314 212.038 226.138C212.156 221.268 211.861 215.448 215.411 211.647C215.588 211.469 215.293 211.172 215.115 211.35C212.511 214.141 211.861 217.942 211.683 221.624C211.446 226.376 211.446 231.186 211.387 235.997C211.328 238.907 211.269 241.757 211.21 244.667C211.269 244.964 211.683 244.964 211.683 244.667ZM213.991 240.094C214.227 237.778 215.115 235.581 215.943 233.443C216.772 231.305 217.482 229.226 217.659 226.91C218.074 222.04 216.535 217.23 216.89 212.36C217.009 210.637 217.186 207.787 219.08 207.015C219.316 206.896 219.198 206.48 218.961 206.599C217.482 207.193 216.949 208.915 216.653 210.4C216.298 212.597 216.358 214.795 216.535 216.992C216.772 219.605 217.245 222.218 217.245 224.891C217.304 227.504 216.772 229.939 215.825 232.374C214.878 234.868 213.695 237.363 213.458 240.094C213.517 240.332 213.932 240.332 213.991 240.094ZM218.488 234.928C221.446 231.245 223.34 226.791 223.872 222.1C224.168 219.546 223.991 216.992 223.636 214.438C223.222 211.766 222.748 209.034 222.866 206.302C222.985 203.57 223.813 200.779 225.825 198.76C226.003 198.582 225.707 198.285 225.529 198.463C222.216 201.848 222.156 206.837 222.748 211.231C223.103 214.023 223.695 216.755 223.636 219.605C223.577 222.1 223.162 224.534 222.393 226.91C221.446 229.701 220.026 232.314 218.192 234.571C218.014 234.809 218.31 235.165 218.488 234.928ZM226.949 224.891C229.849 221.565 231.861 217.467 232.63 213.132C233.044 210.994 233.103 208.796 232.866 206.599C232.571 203.867 231.861 201.254 231.565 198.522C231.269 195.79 231.506 192.94 232.985 190.623C233.103 190.386 232.748 190.148 232.63 190.386C230.026 194.484 231.21 199.354 232.038 203.808C232.926 208.559 232.63 213.31 230.795 217.824C229.79 220.318 228.369 222.575 226.594 224.594C226.476 224.831 226.772 225.128 226.949 224.891ZM224.701 228.573C226.417 223.644 227.541 218.477 227.955 213.251C228.369 208.024 228.014 202.798 227.008 197.691C226.949 197.394 226.535 197.513 226.594 197.809C227.6 202.917 227.955 208.084 227.541 213.251C227.127 218.417 225.943 223.525 224.287 228.454C224.227 228.692 224.642 228.811 224.701 228.573ZM236.18 217.111C238.724 212.954 240.204 208.084 240.204 203.214C240.204 200.601 239.79 198.047 239.257 195.493C238.724 192.88 238.074 190.267 238.251 187.595C238.429 184.922 239.316 182.25 241.387 180.468C241.565 180.29 241.269 179.993 241.091 180.171C237.541 183.259 237.482 188.248 238.251 192.583C238.784 195.375 239.553 198.106 239.73 200.957C239.908 203.57 239.73 206.243 239.139 208.796C238.488 211.647 237.363 214.438 235.825 216.933C235.707 217.111 236.062 217.348 236.18 217.111ZM243.754 210.103C247.423 206.54 248.547 201.313 248.429 196.325C248.31 193.236 247.778 190.148 247.363 187.119C246.949 184.269 246.653 181.359 246.535 178.508C246.417 175.42 246.653 172.213 248.251 169.54C248.369 169.303 248.014 169.065 247.896 169.303C245.233 173.698 246.062 179.458 246.594 184.328C247.245 190.267 248.843 196.265 247.541 202.204C246.89 205.055 245.647 207.787 243.517 209.865C243.221 209.984 243.517 210.281 243.754 210.103Z" fill="#4C4942"/>
<path d="M241.267 212.241C245.883 204.461 243.812 195.196 242.628 186.822C242.214 184.031 241.918 181.24 241.859 178.448C241.859 178.151 241.445 178.151 241.445 178.448C241.504 184.447 242.924 190.267 243.516 196.206C244.048 201.61 243.752 207.311 240.912 212.062C240.794 212.241 241.149 212.478 241.267 212.241ZM250.498 202.679C254.818 196.74 254.818 189.138 254.522 182.13C254.344 177.914 254.048 173.697 254.64 169.54C255.173 165.739 256.652 162.176 257.954 158.612C259.374 154.871 260.616 150.951 260.143 146.913C260.084 146.616 259.67 146.616 259.729 146.913C260.616 154.396 255.764 160.928 254.463 168.055C253.042 175.716 254.758 183.496 254.048 191.157C253.634 195.196 252.569 199.175 250.143 202.501C249.965 202.679 250.321 202.857 250.498 202.679ZM260.025 189.732C261.563 183.081 259.196 176.429 260.025 169.777C260.261 167.877 260.735 165.977 261.504 164.195C262.273 162.354 263.279 160.632 263.871 158.731C264.995 155.287 265.409 151.664 265.705 148.041C266.06 143.587 266.06 139.014 264.936 134.679C264.877 134.441 264.462 134.5 264.522 134.797C265.468 138.658 265.587 142.696 265.35 146.675C265.113 150.417 264.758 154.277 263.693 157.9C263.161 159.8 262.273 161.463 261.445 163.245C260.676 164.908 260.143 166.689 259.788 168.471C259.196 171.737 259.433 175.004 259.729 178.27C260.084 182.012 260.439 185.812 259.551 189.554C259.551 189.91 259.965 189.97 260.025 189.732Z" fill="#4C4942"/>
<path d="M263.693 182.843C267.184 167.996 270.676 152.792 269.61 137.47C269.315 133.313 268.664 129.155 267.658 125.117C267.599 124.879 267.184 124.939 267.244 125.236C271.031 140.024 269.196 155.465 266.119 170.193C265.232 174.41 264.285 178.567 263.279 182.724C263.22 183.021 263.634 183.14 263.693 182.843ZM273.989 158.494C275.291 146.497 274.758 134.322 272.451 122.504C271.8 119.119 270.971 115.793 270.025 112.526C269.965 112.289 269.551 112.348 269.61 112.645C272.924 124.285 274.522 136.341 274.226 148.457C274.167 151.842 273.93 155.227 273.575 158.553C273.516 158.79 273.989 158.79 273.989 158.494ZM212.451 245.023C214.818 240.094 219.788 237.243 224.758 235.402C230.084 233.502 235.705 232.849 241.208 231.483C244.226 230.711 247.184 229.642 249.788 227.919C250.025 227.741 249.788 227.385 249.551 227.563C244.64 230.829 238.545 231.661 232.806 232.789C227.54 233.858 222.096 235.343 217.599 238.49C215.291 240.094 213.279 242.232 212.037 244.786C211.977 245.083 212.332 245.261 212.451 245.023Z" fill="#4C4942"/>
<path d="M216.242 238.135C219.555 233.027 224.585 229.108 230.206 226.91C233.047 225.782 236.123 225.01 239.2 224.772C242.632 224.475 246.005 225.188 249.437 225.01C252.159 224.891 255.709 224.297 257.484 221.981C257.662 221.743 257.366 221.446 257.188 221.684C255.413 223.941 251.863 224.475 249.141 224.594C245.65 224.713 242.218 224.059 238.727 224.416C232.81 225.01 227.129 227.266 222.396 230.889C219.851 232.849 217.603 235.225 215.828 237.956C215.709 238.135 216.064 238.372 216.242 238.135ZM225.413 227.266C229.615 223.287 234.762 220.496 240.325 219.011C243.224 218.239 246.183 217.942 249.2 217.942C252.336 217.942 255.472 218.061 258.609 217.645C261.271 217.289 264.112 216.695 266.005 214.676C266.183 214.498 265.887 214.201 265.709 214.379C263.816 216.398 260.916 216.933 258.313 217.289C255.117 217.705 251.863 217.467 248.668 217.527C243.106 217.586 237.603 218.952 232.691 221.565C229.97 222.99 227.425 224.832 225.177 226.97C224.94 227.207 225.236 227.504 225.413 227.266Z" fill="#4C4942"/>
<path d="M232.217 220.615C236.418 216.635 241.566 213.785 247.128 212.241C249.968 211.469 252.927 211.053 255.826 210.934C259.022 210.815 262.217 211.053 265.412 210.578C268.312 210.162 271.034 209.034 273.164 206.955C273.341 206.777 273.045 206.48 272.868 206.658C268.193 211.231 261.389 210.281 255.412 210.518C249.85 210.756 244.347 212.241 239.377 214.854C236.655 216.339 234.17 218.12 231.921 220.258C231.744 220.496 232.04 220.793 232.217 220.615ZM243.519 211.053C247.779 207.371 252.335 203.511 258.016 202.323C261.211 201.669 264.525 201.966 267.779 201.551C270.501 201.194 273.105 200.185 275.531 198.878C278.252 197.334 280.738 195.434 283.223 193.474C283.46 193.296 283.164 192.999 282.927 193.177C278.371 196.74 273.46 200.482 267.542 201.194C264.465 201.551 261.27 201.254 258.193 201.907C255.471 202.442 252.927 203.629 250.619 205.114C248.016 206.777 245.59 208.796 243.282 210.815C243.045 210.934 243.341 211.231 243.519 211.053ZM250.738 201.669C259.377 192.821 273.637 195.434 283.104 188.069C285.294 186.347 287.069 184.209 288.075 181.596C288.193 181.358 287.779 181.24 287.661 181.477C285.708 186.763 280.501 189.851 275.471 191.573C269.732 193.533 263.637 194.186 258.016 196.503C255.235 197.631 252.572 199.175 250.442 201.373C250.205 201.551 250.56 201.848 250.738 201.669ZM255.531 195.79C257.957 194.662 259.199 192.286 260.619 190.148C262.394 187.416 264.821 185.516 267.779 184.09C271.034 182.546 274.465 181.655 277.838 180.408C280.915 179.28 283.815 177.795 286.536 175.895C289.022 174.172 292.276 171.916 292.454 168.59C292.454 168.293 292.039 168.293 292.039 168.59C291.862 171.856 288.43 174.054 286.004 175.717C283.282 177.558 280.323 179.042 277.187 180.171C271.507 182.19 264.88 183.556 261.093 188.663C259.318 191.039 258.193 194.127 255.353 195.374C255.057 195.552 255.294 195.909 255.531 195.79ZM262.394 186.347C262.986 180.171 268.193 175.776 273.105 172.688C275.826 170.965 278.667 169.481 281.329 167.699C283.815 166.036 286.063 164.076 288.016 161.819C290.146 159.325 291.862 156.534 293.104 153.505C293.223 153.267 292.809 153.149 292.69 153.386C290.264 159.325 286.004 164.136 280.678 167.64C275.531 171.025 269.673 173.579 265.59 178.389C263.637 180.705 262.276 183.378 261.98 186.407C261.921 186.644 262.335 186.644 262.394 186.347ZM267.897 173.579C269.554 167.877 274.88 164.492 279.436 161.226C281.744 159.563 283.933 157.84 285.826 155.762C287.602 153.743 289.022 151.545 290.146 149.11C291.329 146.497 292.099 143.646 292.394 140.796C292.394 140.499 291.98 140.499 291.98 140.796C291.388 146.319 289.022 151.545 285.353 155.702C281.507 159.978 276.241 162.473 272.099 166.392C270.028 168.352 268.252 170.728 267.424 173.519C267.424 173.697 267.838 173.816 267.897 173.579ZM272.394 161.285C277.957 151.248 285.353 141.627 286.832 129.928C287.246 126.839 287.187 123.692 286.536 120.604C286.477 120.307 286.063 120.425 286.122 120.722C288.548 132.244 282.572 143.171 276.891 152.733C275.235 155.524 273.578 158.256 271.98 161.107C271.921 161.285 272.276 161.523 272.394 161.285ZM275.294 150.536C277.247 144.715 278.667 138.717 279.85 132.66C281.033 126.661 282.158 120.722 282.099 114.605C282.099 111.22 281.744 107.776 281.033 104.45C280.974 104.153 280.56 104.272 280.619 104.569C281.921 110.507 281.921 116.624 281.211 122.682C280.856 125.711 280.205 128.74 279.613 131.709C279.022 134.679 278.371 137.648 277.661 140.558C276.832 143.884 275.945 147.15 274.82 150.417C274.82 150.714 275.235 150.773 275.294 150.536ZM276.714 119.178C277.897 111.755 278.312 104.272 278.016 96.7292C278.016 96.4322 277.602 96.4322 277.602 96.7292C277.897 104.212 277.483 111.695 276.3 119.059C276.241 119.297 276.655 119.416 276.714 119.178Z" fill="#4C4942"/>
</svg>
