<?xml version="1.0" encoding="utf-8"?>
<!-- Generator: Adobe Illustrator 27.5.0, SVG Export Plug-In . SVG Version: 6.00 Build 0)  -->
<svg version="1.1" id="Слой_2" xmlns="http://www.w3.org/2000/svg" xmlns:xlink="http://www.w3.org/1999/xlink" x="0px" y="0px"
	 viewBox="0 0 3200 2000" style="enable-background:new 0 0 3200 2000;" xml:space="preserve">
<rect style="fill:#FFFFFF;" width="3200" height="2000"/>
<g>
	<path style="fill:#FCECDB;" d="M393.408,1713.073c0.121,0.086,2363.64-0.28,2363.64-0.28s6.832-13.999,15.391-32.319
		c6.344-13.578,14.201-31.604,22.362-53.299v-0.009c1.522-4.032,3.055-8.195,4.586-12.479c2.146-6.015,4.301-12.263,6.438-18.736
		c0.796-2.396,1.583-4.828,2.371-7.286c4.726-14.755,9.32-30.591,13.561-47.345c0.294-1.169,0.589-2.346,0.883-3.522
		c1.584-6.413,3.115-12.964,4.595-19.636c0.814-3.704,1.602-7.451,2.381-11.224l0.155-0.779c0.286-1.401,0.563-2.804,0.839-4.214
		c5.314-26.932,9.425-55.627,11.527-85.578c0.372-5.271,0.675-10.584,0.917-15.94c0.251-5.4,0.425-10.844,0.528-16.321
		c0.657-34.01-1.471-69.309-7.469-105.17c-2.345-14.046-5.278-28.178-8.879-42.353c-2.631-10.358-5.607-20.717-8.974-31.11
		c-0.623-1.93-1.246-3.868-1.912-5.807c-7.771-23.132-17.438-46.255-29.259-69.214c-1.056-2.06-2.138-4.137-3.246-6.204
		c-8.861-16.642-18.891-33.188-30.158-49.544c-1.15-1.679-2.319-3.349-3.504-5.02c-6.578-9.312-13.57-18.563-21.004-27.753
		c-10.809-13.396-22.578-26.628-35.299-39.678c-17.619-18.069-35.092-34.46-52.408-49.284c-7.121-6.126-14.227-11.977-21.297-17.576
		c-6.058-4.811-12.106-9.424-18.121-13.846c-0.337-0.251-0.691-0.502-1.029-0.753c-13.934-10.238-27.744-19.506-41.418-27.883
		c-2.795-1.705-5.572-3.383-8.368-5.028c-13.422-7.91-26.723-14.971-39.886-21.263c-2.873-1.376-5.737-2.717-8.602-4.015
		c-90.052-40.985-173.527-46.324-247.37-39.531c-57.09,5.253-108.433,17.766-152.594,26.688c-2.899,0.588-5.764,1.159-8.602,1.713
		c-28.748,5.582-54.277,9.259-76.181,7.832c-34.961-2.285-63.467-23.53-94.102-54.856c-2.232-2.285-4.474-4.613-6.732-7.001
		c-17.854-18.866-36.623-40.864-57.946-64.289c-3.886-4.275-7.866-8.593-11.942-12.955c-8.057-8.619-16.485-17.394-25.355-26.229
		c-1.367-1.368-2.744-2.726-4.137-4.093c-2.994-2.942-6.049-5.894-9.156-8.844c-1.367-1.307-2.743-2.614-4.136-3.912
		c-10.082-9.459-20.727-18.926-32.028-28.324c-48.756-40.526-109.766-79.589-190.498-109.462c-0.043-0.018-0.078-0.026-0.112-0.043
		c-34.105-12.617-71.732-23.582-113.435-32.331c-45.813-9.615-95.028-16.789-145.549-20.986c-12.176-1.012-24.421-1.852-36.718-2.51
		c-13.197-0.701-26.446-1.203-39.712-1.479c-7.962-0.165-15.932-0.251-23.902-0.26c-19.713-0.035-39.436,0.441-59.036,1.445
		c-6.958,0.346-13.898,0.762-20.813,1.246c-84.808,5.945-166.518,21.998-235.463,50.694
		c-48.357,20.111-230.547,110.103-284.002,262.333c-16.884,48.046-20.934,102.289-3.912,162.493
		c60.248,213.041-31.483,239.556-146.259,341.083C319.868,1436.521,270.54,1619.352,393.408,1713.073z"/>
	<path style="fill:#A8D29F;" d="M1222.091,1709.737h-70.099c-3.756-3.186,2.6-10.422,9.241-10.908
		c2.884-0.218,6.532,0.386,10.699,1.266c0.964-12.813,6.473-70.409,27.234-68.095c23.344,2.592,0,25.365-6.599,38.848
		c-4.888,9.986-10.045,24.309-12.401,31.066c1.895,0.411,3.857,0.813,5.861,1.183c3.094-9.5,14.606-41.455,29.247-39.594
		c17.189,2.18,10.28,14.992-1.903,22.598c-8.938,5.593-19.915,13.542-25.13,17.382c4.419,0.721,9.031,1.207,13.709,1.099
		C1213.958,1704.296,1219.819,1707.834,1222.091,1709.737z"/>
	<g>
		<path style="fill:#A8D29F;" d="M541.549,1709.737c0,0-30.113-82.7-51.257-75.652
			C469.149,1641.133,541.549,1709.737,541.549,1709.737z"/>
		<path style="fill:#A8D29F;" d="M530.016,1709.737c-2.563,0-50.616-49.868-53.819-36.812
			C472.993,1685.982,530.016,1709.737,530.016,1709.737z"/>
		<path style="fill:#A8D29F;" d="M581.273,1709.737c0,0-19.873-18.222-45.035-13.478c-25.162,4.744-35.908,9.938-51.712,6.345
			c-15.804-3.595-23.878,7.133-23.878,7.133H581.273z"/>
	</g>
	<path style="fill:#7F2722;" d="M2640.622,851.513l0.107-0.143C2640.664,851.438,2640.631,851.479,2640.622,851.513z"/>
	<g>
		<path style="fill:#AA443E;" d="M1660.476,849.778c0,0,29.649-33.25-21.046-39.59c-50.695-6.339-59.311-46.478-94.125-58.334
			c-32.214-10.971-89.002,11.907-94.22,21.609c0,0,13.654,40.313,3.901,72.823c-9.753,32.51,45.514,66.971,65.02,63.07
			c0,0-33.811,2.803-49.903-6.726c0,0,27.309,26.01,59.006,14.336c31.697-11.674,60.254-18.013,65.238-2.896
			C1599.332,929.187,1660.476,849.778,1660.476,849.778z"/>
		<path style="fill:#FFB27D;" d="M1667.066,1363.345c-7.256,29.035-12.191,51.633-7.188,63.142
			c11.947,27.494-16.073,128.594-32.722,183.104c-6.486,21.232-11.245,35.394-11.245,35.394h-25.358c0,0,0.585-14.2,1.375-35.394
			c1.921-50.97,5.052-142.386,4.203-173.663c-1.2-44.279-27.016-272.638-27.016-272.638s3.901-0.391,10.261-0.956
			c27.445-2.429,100.7-8.095,103.178,0.517C1702.48,1231.99,1680.682,1308.972,1667.066,1363.345z"/>
		<path style="fill:#ED975D;" d="M1667.066,1363.345c-31.736-15.604-80.092-71.665-80.092-71.665s-9.89-71.091-7.598-129.346
			c27.445-2.429,100.7-8.095,103.178,0.517C1702.48,1231.99,1680.682,1308.972,1667.066,1363.345z"/>
		<path style="fill:#FFB27D;" d="M1583.205,938.728c2.38-0.659,4.914-9.48,6.944-18.919c2.446-11.346,4.203-23.56,4.203-23.56
			l10.854,0.212l29.008,0.561l2.375,0.049c-1.405,6.302-2.3,12.186-2.772,17.553c-0.883,9.72-0.435,17.774,0.688,23.649
			c1.148,5.991,3.018,9.733,4.893,10.701C1641.017,949.697,1580.407,938.377,1583.205,938.728z"/>
		<path style="fill:#ED975D;" d="M1634.508,938.273c-18.014-4.443-40.16-42.026-40.16-42.026c3.328-0.891,7.021-0.734,10.861,0.214
			c9.924,2.413,20.783,10.044,28.604,18.164C1632.935,924.345,1633.379,932.399,1634.508,938.273z"/>
		<path style="fill:#FFB27D;" d="M1643.045,920.456c0,0-51.78-0.935-50.701-33.172c1.079-32.237-4.877-54.069,28.228-54.835
			c33.106-0.766,39.114,11.75,41.371,22.598C1664.201,865.895,1656.543,919.869,1643.045,920.456z"/>
		<path style="fill:#FFB27D;" d="M1556.905,935.057c0,0,58.031,2.439,106.797,17.312c0,0,18.205,54.699,3.901,96.961
			c-14.305,42.264,28.898,123.652,28.898,123.652s-123.857,12.811-127.271-3.77S1526.184,1012.594,1556.905,935.057z"/>
		<path style="fill:#FFB27D;" d="M1914.473,1532.99l-21.633,21.935c0,0-16.385-13.615-38.66-32.127
			c-46.941-39.022-120.021-99.843-120.743-100.837c-46.181-46.562-128.312-266.844-128.312-266.844s11.957-24.48,74.698-26.87
			c25.622-0.976,45.762,37.695,61.328,85.339c17.828,54.521,29.668,120.792,36.944,152.841c0.956,4.233,2.721,8.192,5.13,11.685
			c3.141,4.545,7.374,8.3,12.387,10.894c34.37,17.79,69.871,65.297,93.015,100.905
			C1904.438,1514.225,1914.473,1532.99,1914.473,1532.99z"/>
		<path style="fill:#FFB27D;" d="M1651.736,949.007c0,0,81.691-37.957,86.739-45.973c5.048-8.016,6.177-105.008,4.226-118.663h12.68
			c0,0,24.707,106.585,17.556,132.594c-7.152,26.008-109.285,80.034-109.285,80.034L1651.736,949.007z"/>
		<path style="fill:#ED975D;" d="M1783.226,1378.111c-14.601-1.239-82.462-138.777-86.725-141.654c0,0,23.817-15.039,44.65-22.871
			c17.828,54.521,29.668,120.792,36.944,152.841C1779.052,1370.66,1780.816,1374.619,1783.226,1378.111z"/>
		<path style="fill:#FFB27D;" d="M1548.131,949.867c0,0,4.146-16.25-83.508,84.354l-80.103-39.459l-7.699,8.588
			c0,0,82.027,74.239,92.688,70.878s78.622-63.589,78.622-63.589V949.867z"/>
		<path style="fill:#6BB7BF;" d="M1731.456,1128.228c-26.411-34.185-41.889-80.307-51.018-116.511
			c-0.081-0.318-0.158-0.631-0.237-0.948c39.634-27.951,18.912-84.702,18.912-84.702c-17.242,3.523-58.129,20.29-58.192,20.315
			l-0.002,0c0,0-14.601,19.721-35.414,16.795c-20.773-2.922-25.374-26.274-25.386-26.34l0-0.001l-0.001,0v-0.001l-0.002,0
			c-0.063-0.012-20.791-4.208-33.208,0.001c-7.548,2.559-56.162,42.924-56.487,46.825c-0.317,3.814,16.463,47.408,49.728,54.509
			c-3.687,110.948,28.967,268.969,28.967,268.969c90.147,7.773,161.189-42.815,195.022-73.05
			c13.977-12.484,21.604-21.506,21.604-21.506S1763.252,1169.386,1731.456,1128.228z"/>
		<path style="fill:#FFFFFF;" d="M1628.753,899.133c0,0,1.301,5.039,4.714,5.852c3.414,0.813,12.354,1.951,13.167,1.3
			c0.813-0.65,3.576-5.039,3.576-5.039S1635.905,897.67,1628.753,899.133z"/>
		<path style="fill:#FFB27D;" d="M1742.701,784.372c0,0-5.445-1.381-6.258-10.484c-0.543-6.086-3.25-10.18-2.032-10.484
			c1.301-0.325,4.949,6.472,6.34,7.965c1.175,1.26,3.901-19.994,6.827-19.506c2.926,0.488,9.916,4.064,7.803,32.51H1742.701z"/>
		<path style="fill:#FFB27D;" d="M1384.52,994.762c0,0-10.417-17.307-13.546-20.729c-6.2-6.78-21.469-9.385-21.936-5.923
			c-0.464,3.449,10.54,6.879,12.088,14.474c0.43,2.106-4.52-1.393-7.44-2.61c-1.759-0.733-2.61,0.209-1.592,1.314
			c5.182,5.627,8.439,11.697,12.881,13.474c4.442,1.777,11.845,8.588,11.845,8.588L1384.52,994.762z"/>
		<path style="fill:#FFB27D;" d="M1619.491,1689.332c-12.357,3.481-22.11,11.508-28.938,16.707c-6.827,5.198-47.79,9.753-52.988,3.9
			c-5.208-5.852,16.902-17.126,24.051-20.744c7.159-3.608,28.938-44.211,28.938-44.211h25.358
			C1615.912,1644.984,1631.839,1685.859,1619.491,1689.332z"/>
		<path style="fill:#FFB27D;" d="M1938.738,1619.539c-9.753,0.799-10.729-19.341-24.266-30.069s-21.633-34.545-21.633-34.545
			l21.633-21.935c0,0,27.68,9.178,27.191,24.295c-0.487,15.117,13.167,28.283,15.605,39.5
			C1959.707,1608.001,1948.491,1618.729,1938.738,1619.539z"/>
		<path style="fill:#AA443E;" d="M1660.476,849.778c0,0-7.665,5.931-31.723,0c-24.058-5.931-20.156,41.372-41.125,35.52
			c-20.969-5.852-54.517-71.197-7.509-72.173C1627.128,812.15,1653.349,821.573,1660.476,849.778z"/>
		<path style="fill:#5EA7AA;" d="M1785.742,1212.582c0,0-7.627,9.021-21.604,21.506c-99.539-37.413-85.154-222.468-85.154-222.468
			c0.449-0.02,0.937,0.01,1.454,0.097c9.129,36.204,24.606,82.326,51.018,116.511
			C1763.251,1169.386,1785.742,1212.582,1785.742,1212.582z"/>
		<path style="fill:#C65447;" d="M1618.364,1637.529c-1.531,4.713-1.518,9.782,0.04,14.486c3.92,11.849,10.193,34.755,1.087,37.316
			c-12.357,3.481-22.11,11.508-28.938,16.707c-6.827,5.198-47.79,9.753-52.988,3.9c-5.208-5.852,16.902-17.126,24.051-20.744
			c5.4-2.723,19.12-26.495,25.534-38.011c2.241-4.022,3.499-8.505,3.682-13.104c0.246-6.176,0.637-16.146,1.097-28.489
			c0,0,22.734,11.674,35.228,0C1623.492,1621.587,1620.379,1631.326,1618.364,1637.529z"/>
		<path style="fill:#C65447;" d="M1938.738,1619.539c-9.753,0.799-10.729-19.341-24.266-30.069
			c-9.768-7.741-16.703-22.298-19.807-29.804c-1.346-3.252-3.477-6.113-6.184-8.363c-6.296-5.231-18.89-15.696-34.303-28.505
			c0,0,8.231-28.089,34.447-32.888c11.225,17.262,19.538,31.727,23.417,38.666c1.519,2.717,3.88,4.869,6.746,6.084
			c7.762,3.29,23.24,11.287,22.874,22.625c-0.487,15.117,13.167,28.283,15.605,39.5
			C1959.707,1608.001,1948.491,1618.729,1938.738,1619.539z"/>
	</g>
	<g>
		<path style="fill:#163560;" d="M1963.455,1061.462c0,0,36.251,14.112,68.893-22.35c-0.759,1.161-22.878,35.138-41.81,41.291
			c2.438,1.709,4.79,3.504,7.065,5.348c9.716,7.834,18.193,16.426,27.707,21.553c0.01,0,0.01,0.01,0.02,0.01
			c23.607,12.711,43.873,18.567,60.952,19.229c16.157-7.248,25.47-22.878,30.712-36.453c2.525-1.958,5.03-3.936,7.479-5.855
			c-1.133,19.814-10.234,32.986-17.098,40.225c23.435-6.019,38.41-24.02,45.611-46.514c0.441-1.363,0.845-2.745,1.219-4.138
			c0.211-0.749,0.413-1.497,0.586-2.256c1.286-5.165,2.188-10.513,2.707-15.966c1.814-18.845-0.826-38.958-7.623-56.93
			c-0.307-0.816-0.623-1.623-0.94-2.419c-0.019-0.039-0.028-0.067-0.038-0.096c-2.707-6.691-5.991-13.056-9.851-18.913
			c-6.998-10.637-8.228-24.615-6.614-38.786c3.504-30.971,20.545-62.863,20.545-62.863s-2.583-4.205-8.228-9.322
			c-10.829-9.802-32.91-22.945-69.642-16.167c-55.893,10.311-75.229,50.095-68.777,99.133c6.442,49.048,4.964,77.408-32.314,90.282
			c-0.125,0.048-0.25,0.086-0.384,0.135C1963.896,1043.049,1960.498,1053.282,1963.455,1061.462z"/>
		<path style="fill:#FFB27D;" d="M2084.914,1188.271c0,0,45.599,51.535,64.645,58.33c19.621,6.993,90.029-3.179,90.029-3.179
			s-8.135-61.99-6.417-81.155c1.719-19.175,44.242-89.188,47.679-118.122c3.436-28.934-29.354-58.399-29.354-58.399
			s-22.189,0.052-23.624-2.594c-0.645-1.203-1.221-2.423-1.735-3.651c-5.722-13.728-3.531-28.521-3.531-28.521l-42.438-1.753
			c0.378,5.137,0.679,9.527,0.911,13.341c0.799,13.049-7.32,25.025-19.768,29.019c-11.614,3.737-21.614,8.161-22.336,10.885
			c-3.659,13.882,31.141,109.393,19.174,118.705C2108.039,1160.119,2084.914,1188.271,2084.914,1188.271z"/>
		<path style="fill:#ED975D;" d="M2180.167,949.227c0,0,2.841,20.999,45.969,30.273c-5.722-13.728-3.531-28.521-3.531-28.521
			L2180.167,949.227z"/>
		<path style="fill:#FFB27D;" d="M2236.397,945.879c0,0-41.73,30.193-60.133,3.916c-18.403-26.277-36.183-40.077-10.317-60.466
			c25.866-20.389,38.121-14.026,46.396-6.75C2220.62,889.856,2246.778,937.348,2236.397,945.879z"/>
		<path style="fill:#FFFFFF;" d="M2215.641,938.291c0,0,2.783,2.845,10.727-2.648c0,0,6.669-4.611,4.256-8.129
			C2230.623,927.515,2222.34,928.977,2215.641,938.291z"/>
		<path style="fill:#163560;" d="M2204.27,877.261c0,0,16.083-25.198-10.232-38.384c-44.212-22.153-45.914,37.323-59.132,41.467
			c-13.218,4.143-28.771,30.757-12.771,49.266c16.002,18.508,36.66,14.116,40.94,23.495s18.477,4.871,17.478,1.498
			c-0.386-1.304-3.841-3.206-5.78-8.101c-1.071-2.702,1.848-5.735,0.772-5.776c-10.609-0.405-16.956-16.577-5.561-15.404
			c11.395,1.173,16.114-9.715,15.632-14.217c-0.482-4.501-11.358-14.882-1.254-20.674S2198.543,885,2204.27,877.261z"/>
		<path style="fill:#FFB27D;" d="M2120.634,1477.975c-15.464,68.467,46.621,207.584,46.621,207.584h21.331
			c0,0-9.089-163.325,3.35-204.148c7.269-23.855,22.311-101.086,33.564-161.169c8.006-42.747,14.088-76.818,14.088-76.818h-164.484
			c0,0,12.6,135.473,36.652,201.478C2117.673,1461.134,2121.562,1473.877,2120.634,1477.975z"/>
		<path style="fill:#ED975D;" d="M2094.922,1243.423c0,0-10.008,136.188,18.151,205.129l112.427-128.311
			c8.006-42.747,14.088-76.818,14.088-76.818H2094.922z"/>
		<path style="fill:#FFB27D;" d="M1866.402,1328.498c75.031,70.445,211.73,128.09,211.73,128.09
			c30.93-14.782,145.713-223.798,145.713-223.798s-49.199-42.081-123.125-52.751c-23.953-3.457-36.967,16.21-43.604,44.377
			c-5.035,21.372-6.409,47.646-6.117,72.419c0.514,43.319,6.117,82.063,6.117,82.063s-22.478-25.784-56.698-31.498
			c-92.204-15.405-120.039-34.252-120.039-34.252L1866.402,1328.498z"/>
		<path style="fill:#FFB27D;" d="M2251.498,985.743c0,0,65.566-10.557,72.949-49.625c5.154-27.275,19.83-123.634,19.83-123.634
			l15.008-2.132c0,0,6.336,116.246-0.689,133.865c-8.934,22.402-75.236,86.414-75.236,86.414L2251.498,985.743z"/>
		<path style="fill:#FFB27D;" d="M2171.899,990.944l-32.924,11.527c0,0-51.253,63.731-65.759,71.039
			c-18.445,9.293-98.338,13.874-98.338,13.874l-0.859,10.596c0,0,74.738,17.754,110.895,10.595
			c9.4-1.861,80.438-59.282,80.438-59.282L2171.899,990.944z"/>
		<path style="fill:#FFB27D;" d="M1866.406,1328.496c0,0-20.674-16.322-27.547-23.194c-6.872-6.872-26.631-33.504-23.194-39.517
			c3.437-6.014,20.798,13.349,37.799,14.604s19.343,6.84,23.13,19.8s6.031,17.848,6.031,17.848L1866.406,1328.496z"/>
		<path style="fill:#C65447;" d="M2045.126,1109.444c0,0.01,0,0.01,0,0.01s36.376,3.38,42.424,0.999
			c5.99-2.362,17.789-11.271,29.444-20.363c2.525-1.958,5.03-3.936,7.479-5.855c11.674-9.14,21.831-17.013,23.905-16.609
			c0,0,0.01,0,0.028,0.01c0.145,0.029,0.278,0.096,0.423,0.221c1.229,0.979,2.698,4.867,4.157,10.09
			c3.83,13.738,7.604,36.741,6.932,40.351c-0.01,0.02-0.01,0.029-0.01,0.039c-0.029,0.134-0.067,0.239-0.105,0.307
			c-0.01,0.02-0.01,0.029-0.02,0.038c-0.01,0.01-0.01,0.02-0.029,0.039c-1.526,2.141-24.51,20.938-34.522,29.069
			c-2.804,2.305-4.599,3.744-4.599,3.744s0.23,0.125,0.672,0.346c0.403,0.212,0.998,0.509,1.747,0.884
			c1.729,0.873,4.32,2.15,7.623,3.715l0.01,0.01c7.574,3.601,18.846,8.698,31.681,13.633c22.85,8.822,50.643,17.146,71.264,15.716
			c1.488-0.105,2.938-0.26,4.35-0.461c0,0-3.38-19.527,1.497-28.119c4.868-8.583,37.576-87.556,39.026-93.335
			c1.286-5.146,1.737-12.317,2.207-18.721c0.125-1.699,0.24-3.332,0.385-4.867c0.432-4.753,1.027-8.487,2.266-9.697
			c0.048-0.048,0.115-0.115,0.191-0.182c0.029-0.039,0.067-0.067,0.105-0.106c0.077-0.076,0.174-0.173,0.279-0.269
			c0.163-0.173,0.354-0.365,0.576-0.566c0.047-0.058,0.096-0.105,0.153-0.153c8.073-8.007,48.684-48.607,66.233-72.301
			c0.115-0.163,0.23-0.317,0.336-0.461c3.753-5.117,6.403-9.408,7.354-12.374l0.01-0.01c0.393-1.219,0.748-2.506,1.074-3.84
			c4.397-18.077,2.775-45.275,2.775-45.275s-0.01-0.009-0.048-0.019c-0.375-0.134-3.159-1.037-13.623-2.419
			c-7.536-0.998-16.599-0.182-16.983-0.144c-0.01,0-0.01,0-0.01,0s-6.537,38.67-8.41,40.763
			c-4.973,5.549-60.904,49.279-70.946,52.303c-0.02,0-0.028,0.009-0.038,0.009c-0.346,0.106-0.634,0.154-0.864,0.154
			c0,0-0.01,0-0.02,0h-0.124c-1.287-0.019-2.555-0.039-3.745-0.039c-0.067-0.01-0.134-0.01-0.201,0
			c-4.905-0.038-9.278-0.394-9.278-0.394s15.058,20.142,13.349,36.193c-1.728,16.062-48.116,15.476-60.713,5.741
			c-6.653-5.136-14.496-14.784-20.41-22.743c-3.197-4.282-5.817-8.074-7.411-10.426c-1.066-1.565-1.661-2.486-1.661-2.486
			s-0.02,0.01-0.048,0.019c-0.087,0.02-0.26,0.077-0.528,0.173c-0.105,0.029-0.221,0.077-0.354,0.115
			c-0.135,0.048-0.279,0.096-0.433,0.144c-2.16,0.739-6.576,2.294-11.012,4.195c-2.371,1.008-4.752,2.122-6.797,3.254
			c-0.02,0.01-0.029,0.019-0.038,0.029c-1.479,0.815-2.775,1.651-3.764,2.467c-10.177,8.372-58.591,67.213-64.726,71.312
			c-0.02,0.02-0.029,0.029-0.048,0.029c-0.145,0.096-0.26,0.153-0.346,0.183c-3.984,1.219-28.091,6.893-28.091,6.893s0,0,0,0.01
			c-0.058,0.211-1.901,7.172-2.036,14.017C2042.908,1103.464,2045.011,1109.147,2045.126,1109.444z"/>
		<path style="fill:#FFB27D;" d="M2188.586,1685.559c0,0,20.961,14.055,31.699,16.202c10.738,2.148,30.926,3.684,32.645,10.433
			h-88.48c0,0-2.116-11.91,2.806-26.635C2172.178,1670.835,2188.586,1685.559,2188.586,1685.559z"/>
		<path style="fill:#ED975D;" d="M2051,1296.835c4.396-4.673,28.277-23.582,118.217-11.325c0,0-56.508-64.739-112.1-61.094
			C2052.082,1245.788,2050.708,1272.062,2051,1296.835z"/>
		<path style="fill:#C4453B;" d="M2120.633,1151.532c0,0,18.263,9.55,41.733,18.586c12.959-16.124,19.581-43.312,17.797-59.838
			c-2.833-26.353-27.678-40.479-31.332-42.421c4.625,3.678,12.541,48.387,10.954,50.818c-0.008,0.016-0.016,0.023-0.031,0.039
			c-1.523,2.146-24.513,20.938-34.52,29.074C2122.424,1150.088,2120.633,1151.532,2120.633,1151.532z"/>
		<path style="fill:#C4453B;" d="M2283.361,1030.633c3.141-3.063,69.506-68.654,75.235-86.419
			C2358.597,944.213,2273.259,997.912,2283.361,1030.633z"/>
		<g>
			<path style="fill:#C65447;" d="M2237.979,1190.502c0,0,104.101,91.759,129.621,134.707c0.675,1.135,0,3.912,0,5.13
				c0,0-27.419,4.146-48.896-8.059c-21.477-12.204-33.503-9.627-48.107-7.05c-14.604,2.578-33.252,0.859-49.271-15.463
				s-39.213-8.877-51.24-8.305c-12.027,0.573-26.345-6.3-33.218-14.317c-6.872-8.019-29.208-15.463-38.371-10.022
				s-26.337,3.15-37.223-5.44s-16.612-23.481-38.375-18.899c-21.764,4.581-32.646,4.581-42.381-2.291
				c-9.736-6.873-26.917-18.586-41.809-14.447c-14.89,4.139-37.326-20.521-37.326-20.521s-1.091-4.602,0-5.13
				c14.857-7.182,128.333-55.074,223.854-47.472C2125.237,1152.922,2173.549,1187.446,2237.979,1190.502z"/>
			<path style="fill:#F99746;" d="M1901.381,1200.393c0,0,1.089,1.199,2.951,3.03c6.274,6.148,21.285,19.415,32.737,17.829
				c0.552-0.079,1.104-0.189,1.642-0.34c0,0,0.008,0,0.016-0.008c14.893-4.12,32.058,7.584,41.789,14.458
				c9.738,6.874,20.622,6.874,42.381,2.289c4.813-1.01,8.847-1.073,12.312-0.458c11.002,1.941,16.439,10.631,23.582,17.221v0.008
				c0.805,0.742,1.626,1.452,2.485,2.131c5.833,4.602,13.465,7.396,20.709,8.161c6.274,0.663,12.257-0.197,16.511-2.723
				c2.92-1.736,7.182-2.155,11.854-1.674c9.344,0.971,20.33,5.588,25.539,10.662c0.354,0.34,0.678,0.687,0.979,1.034
				c6.873,8.019,21.189,14.893,33.218,14.316c8.579-0.402,22.824-4.309,36.114-0.6c0.008,0.008,0.008,0.008,0.008,0.008
				c5.343,1.491,10.528,4.223,15.121,8.902c8.287,8.444,17.276,12.975,26.045,15.026h0.008c8.184,1.918,16.171,1.674,23.219,0.435
				c9.549-1.689,17.994-3.37,28.695-0.932c0.008,0.008,0.008,0.008,0.008,0.008c5.667,1.295,11.965,3.749,19.399,7.972
				c21.482,12.201,48.899,8.058,48.899,8.058c-21.908-41.229-129.62-139.833-129.62-139.833
				c-64.432-3.055-112.747-37.583-112.747-37.583C2022.699,1139.631,1901.381,1200.393,1901.381,1200.393z"/>
			<g>
				<path style="fill:#ED7D2B;" d="M2247.373,1309.667h0.008c8.184,1.918,16.171,1.674,23.219,0.435
					c9.549-1.689,17.994-3.37,28.695-0.932c-0.607-0.773-40.597-51.859-45.688-48.615
					C2248.478,1263.813,2236.395,1303.148,2247.373,1309.667z"/>
				<path style="fill:#ED7D2B;" d="M2135.889,1270.979c0.354,0.34,0.678,0.687,0.979,1.034c6.873,8.019,21.189,14.893,33.218,14.316
					c8.579-0.402,22.824-4.309,36.114-0.6c-0.315-0.694-20.938-44.953-31.379-46.517
					C2165.76,1237.856,2138.318,1257.2,2135.889,1270.979z"/>
				<path style="fill:#ED7D2B;" d="M1904.332,1203.423c6.274,6.148,21.285,19.415,32.737,17.829c0.544-0.104,1.089-0.214,1.642-0.34
					c0,0,0.008,0,0.016-0.008c1.104-0.466,71.969-30.677,75.614-37.456C2017.734,1177.15,1922.792,1194.466,1904.332,1203.423z"/>
				<path style="fill:#ED7D2B;" d="M1980.516,1235.362c9.738,6.874,20.622,6.874,42.381,2.289c4.813-1.01,8.847-1.073,12.312-0.458
					c0,0,41.726-23.992,39.895-31.505C2073.271,1198.175,1980.516,1230.232,1980.516,1235.362z"/>
				<path style="fill:#ED7D2B;" d="M2058.79,1254.414v0.008c0.805,0.742,1.626,1.452,2.485,2.131
					c5.833,4.602,13.465,7.396,20.709,8.161c6.274,0.663,12.257-0.197,16.511-2.723c2.92-1.736,7.182-2.155,11.854-1.674
					c2.659-2.359,24.741-22.208,20.535-27.148C2126.41,1227.904,2056.359,1247.138,2058.79,1254.414z"/>
			</g>
		</g>
		<path style="fill:#FFB27D;" d="M2343.83,812.484c0,0-0.989-11.785-5.256-19.845c-4.268-8.06,11.142-23.469,16.357-25.129
			c5.215-1.66,9.008-0.711,9.008,2.37c0,3.082-7.349,8.297-5.927,12.802c1.423,4.504,3.388,9.72,2.998,15.172
			c-0.39,5.453-1.726,12.498-1.726,12.498L2343.83,812.484z"/>
		<path style="fill:#FFB27D;" d="M1977.388,1087.231c0,0-7.603-2.904-13.695-7.021s-19.774,6.905-21.555,10.942
			s-1.348,7.159,1.122,7.426c2.471,0.266,7.286-5.175,10.773-3.646s7.498,3.555,11.902,3.713s10.167-0.304,10.167-0.304
			L1977.388,1087.231z"/>
	</g>
	<g>
		<path style="fill:#6BB7BF;" d="M2855.645,1320.342c0,0-8.791,6.613-18.936,6.064c-7.53-0.408-15.236-7.005-15.544-7.451
			l-5.492,10.664c0,0,14.047,7.648,25.649,4.836c3.557-0.862,9.209-4.696,11.713-7.489
			C2855.793,1323.888,2855.645,1320.342,2855.645,1320.342z"/>
		<path style="fill:#86D1CD;" d="M2854.394,1298.72l14.72-6.915c0,0-0.609,31.293-25.945,42.022
			C2843.168,1333.827,2858.461,1311.716,2854.394,1298.72z"/>
	</g>
	<g>
		<path style="fill:#6BB7BF;" d="M355.085,1463.604c0,0-12.958-9.786-16.302-24.402c-2.482-10.85,3.745-24.466,4.253-25.083
			l-17.362-3.457c0,0-5.143,23.039,3.564,38.358c2.668,4.694,10.407,11.157,15.387,13.573
			C350.114,1465.256,355.085,1463.604,355.085,1463.604z"/>
		<path style="fill:#86D1CD;" d="M385.255,1453.039l15.794,18.074c0,0-44.648,11.856-70.169-19.73
			C330.88,1451.383,368.469,1464.094,385.255,1453.039z"/>
	</g>
	<g>
		<path style="fill:#6BB7BF;" d="M1986.166,607.269c0,0-1.945-15.251,5.743-27.188c5.706-8.859,19.049-13.65,19.804-13.714
			l-9.146-14.048c0,0-19.008,11.76-23.623,27.794c-1.414,4.914-0.671,14.431,0.987,19.403
			C1981.758,604.996,1986.166,607.269,1986.166,607.269z"/>
		<path style="fill:#86D1CD;" d="M2013.283,620.715l-1.791,22.657c0,0-37.571-22.397-33.063-60.583
			C1978.43,582.788,1994.689,616.659,2013.283,620.715z"/>
	</g>
	<g>
		<path style="fill:#F1A34F;" d="M1383.121,1456.194c0,0,6.436-13.86,35.079-6.574c12.838,3.266,35.062,22.148,5.677,38.09
			c-30.566,16.583-40.219-0.743-40.219-0.743s49.226-8.083,42.199-27.968c-7.755-21.945-28.38,1.815-28.38,1.815
			S1391.527,1457.132,1383.121,1456.194z"/>
		<path style="fill:#DB7714;" d="M1378.336,1486.06c0,0-6.6-10.23,3.3-19.47l12.21,9.734c0,0-11.88,9.369,0,17.803
			C1393.847,1494.127,1380.045,1490.334,1378.336,1486.06z"/>
	</g>
	<g>
		<path style="fill:#5685D8;" d="M1837.237,993.984c0,0,16.736-11.626,29.3,5.707l13.798-5.937c0,0-6.813-10.757-33.559-5.988
			C1829.279,990.887,1837.237,993.984,1837.237,993.984z"/>
		<path style="fill:#739AF0;" d="M1820.756,1005.354c0,0,4.558-18.808,38.882-18.808c0,0-12.861,1.22-22.911,17.914
			L1820.756,1005.354z"/>
	</g>
	<path style="fill:#F1A34F;" d="M2291.848,1318.762c0,0,12.129-7.66,13.405-16.916c0,0,11.81,0.639,14.362,4.469
		c0,0-5.426,15.32-11.81,18.193C2307.806,1324.508,2293.443,1325.465,2291.848,1318.762z"/>
	<path style="fill:#ED7D2B;" d="M1356.476,631.488c0,0-7.866-4.968-8.694-10.972c0,0-7.659,0.414-9.315,2.898
		c0,0,3.52,9.936,7.659,11.799C1346.125,635.214,1355.44,635.834,1356.476,631.488z"/>
	<path style="fill:#86D1CD;" d="M2295.01,1489.475c0,0,10.748-6.788,11.879-14.99c0,0,10.465,0.566,12.727,3.96
		c0,0-4.808,13.575-10.464,16.121C2309.151,1494.565,2296.424,1495.414,2295.01,1489.475z"/>
	<g>
		<path style="fill:#163560;" d="M1276.043,1337.354c0,0,51.085,17.73,67.91,15.498c0,0,1.125-8.616-13.684-16.646
			s-27.561-34.819-35.603-32.792c-8.042,2.026-18.669,9.285-18.669,9.285L1276.043,1337.354z"/>
		<path style="fill:#163560;" d="M1348.833,1258.065c0,0,53.359-8.767,67.085-18.749c0,0-3.12-8.11-19.965-8.11
			c-16.846,0-40.826-17.47-46.929-11.854c-6.103,5.615-11.985,17.063-11.985,17.063L1348.833,1258.065z"/>
		<path style="fill:#1C468A;" d="M1276.08,1337.391c-14.543-0.459-28.207-1.086-41.046-1.844
			c-194.77-11.502-200.459-54.813-200.459-54.813c-32.39-99.257,97.769-197.82,97.769-197.82s78.977-11.09,75.841,35.328
			c-3.135,46.409-112.396,137.599-112.396,137.599c36.377,3.406,95.523,23.864,136.073,39.277
			c25.867,9.836,44.172,17.622,44.172,17.622s3.443,5.893,2.939,12.519C1278.426,1332.434,1276.08,1337.391,1276.08,1337.391z"/>
		<path style="fill:#163560;" d="M1235.033,1335.547c-194.77-11.502-200.459-54.813-200.459-54.813
			c-32.39-99.257,97.769-197.82,97.769-197.82s78.977-11.09,75.841,35.328c-3.135,46.409-112.396,137.599-112.396,137.599
			c36.377,3.406,95.523,23.864,136.073,39.277C1236.746,1307.743,1239.946,1322.866,1235.033,1335.547z"/>
		<path style="fill:#1C468A;" d="M1349.024,1258.018c-0.066,0.018-0.125,0.03-0.191,0.048
			c-167.658,45.277-226.818,44.616-243.86,41.211c-7.558-1.514-12.877-12.543-12.877-12.543
			c-32.378-99.261,105.675-211.14,105.675-211.14s59.479-2.692,76.079,24.438c3.058,4.99,4.655,10.992,4.17,18.209
			c-2.017,29.896-47.26,72.979-79.214,99.858c-16.887,14.212-30.063,23.894-31.188,24.719l-0.06,0.042
			c55.77-34.419,169.481-6.446,169.481-6.446s6.592,4.645,8.69,8.518C1349.024,1251.015,1349.024,1258.018,1349.024,1258.018z"/>
		<path style="fill:#FFB27D;" d="M1417.475,690.887c-6.177-0.325-19.831,19.181-22.432,20.807
			c-2.601,1.625-1.301-7.152-3.347-13.329c-2.046-6.177-6.731,7.802-6.731,16.58c0,8.778,6.731,15.936,6.731,15.936
			c-0.123,1.475-0.614,2.946-1.473,4.298c-7.98,13.26-24.799,43.337-38.303,67.644c-11.172,20.01-20.011,36.093-20.011,36.093
			c-16.328,0.737-35.725,3.315-53.281,6.138c-18.169,2.946-34.374,6.261-43.458,8.224c-4.788,0.983-7.611,1.598-7.611,1.598
			s-1.105,3.315-2.333,8.347c-0.859,3.438-1.718,7.856-2.455,12.522c-2.209,16.329-1.228,36.215,16.819,37.321
			c2.946,0.123,6.261,0,10.067-0.737c9.944-1.352,22.589-5.032,35.725-9.822c20.379-7.241,42.108-16.94,57.699-24.676
			c11.172-5.647,19.274-10.067,21.361-11.908c2.701-2.332,9.085-19.764,16.083-41.002c11.417-34.744,24.675-79.798,26.763-87.042
			c0,0,18.315-30.087,18.966-34.313C1426.903,699.339,1423.652,691.212,1417.475,690.887z"/>
		<path style="fill:#FFB27D;" d="M1190.065,618.063c-5.364-1.463,23.896-29.778,5.364-29.584
			c-14.853,0.156-31.228,32.037-31.228,32.037c-2.456,4.541-5.148,9.082-5.148,9.082c-24.921,31.92-40.512,57.457-50.21,77.466
			c-18.906,39.039-15.346,56.348-15.346,56.348c-0.369,6.384,0.245,14.366,1.596,23.45c5.033,37.69,21.116,91.951,24.798,104.228
			c0.492,1.717,0.737,2.578,0.737,2.578l43.95-31.552c0.368-2.943,0.368-6.384-0.123-10.433c-0.736-7.49-2.946-16.821-5.647-26.517
			c-0.122-0.492-0.368-0.983-0.491-1.475c-4.173-14.608-9.821-30.2-14.732-42.968c-0.859-2.208-1.596-4.298-2.455-6.261
			c-0.246-0.369-0.368-0.86-0.491-1.226c-4.788-12.034-8.348-20.258-8.348-20.258c1.473-3.192,3.069-6.384,4.542-9.699
			c0.246-0.615,0.491-1.226,0.736-1.84c0.982-2.209,1.965-4.421,2.823-6.63c0.123-0.492,0.369-0.86,0.492-1.228
			c0.246-0.489,0.491-0.981,0.614-1.472c0.123-0.123,0.123-0.246,0.123-0.246c14.977-36.215,26.394-76.974,31.059-94.897
			c0.305-1.068,1.26-2.47,2.659-3.7c0.05-0.022,22.047-9.354,27.954-12.75C1209.207,617.117,1195.43,619.526,1190.065,618.063z"/>
		<path style="fill:#AA443E;" d="M1194.856,980.739c0,0-59.438-61.664-110.276-99.171c-3.477-9.401-5.368-21.901-5.368-21.901
			c-2.854,5.206-2.412,11.926-1.472,16.97c-13.811-9.73-26.724-17.305-37.309-20.919c-3.561-20.687,16.342-42.426,16.342-42.426
			c-17.096,6.929-24.025,29.734-26.293,40.182c-1.837-0.149-3.548-0.096-5.122,0.167c0,0-1.717-69.85,104.968-69.85
			c41.51,0,35.563-72.117,94.647-66.941c0,0,64.524,12.608,52.478,68.88c-12.045,56.272,7.749,68.88,14.631,81.494
			C1298.963,879.839,1269.708,968.125,1194.856,980.739z"/>
		<path style="fill:#FFB27D;" d="M1247.358,866.03l-62.225,24.641l-6.607-27.57c-0.655-8.329,0.197-17.584,1.591-26.091
			c2.284-14.057,6.027-26.054,6.785-28.394c0.084-0.271,0.131-0.412,0.131-0.412l1.601-0.038l5.166-0.14l34.973-0.898
			c-1.395,5.203-2.115,10.051-2.302,14.543C1225.179,851.674,1247.358,866.03,1247.358,866.03z"/>
		<path style="fill:#E5B0B4;" d="M1151.8,849.343c0,0-83.611,46.264-19.458,233.566l133.676,7.285c0,0-57.109-79.456-43.452-106.769
			c13.656-27.313,40.969-112.977,40.969-112.977L1151.8,849.343z"/>
		<path style="fill:#FFB93E;" d="M1380.596,825.273c0,0-11.642,39.138-17.238,42.263c-5.606,3.125-78.911,40.747-101.128,43.77
			c0,0-7.768,0.796-10.519,2.115c0,0,0,0-0.009,0.009c-0.449,0.197-0.767,0.431-0.889,0.684c-0.019,0.028-0.037,0.084-0.065,0.168
			c-1.572,4.137-21.253,71.19-21.712,88.981c-0.327,12.399,54.326,92.172,53.681,101.222c-0.056,0.813-0.243,1.544-0.552,2.218
			c-3.079,6.785-18.127,6.205-30.49-0.271c-6.514-3.416-18.24-8.76-31.464-12.83c-14.337-4.418-30.443-7.328-43.573-4.643
			c-25.221,5.176-51.098-1.291-60.157-29.104c-9.05-27.813-7.758-84.732-10.341-96.375c-2.592-11.632-4.857-48.159,10.65-72.416
			h0.01c0-0.009,0-0.019,0.009-0.028c0,0,1.937-3.884-1.292-11.96c-3.238-8.086-26.84-93.146-23.284-118.694
			c0,0,0.993-24.866,16.615-53.33c0,0,9.648,2.176,17.893,9.533c8.245,7.357,13.622,15,14.923,15.322c0,0-8.684,19.415-8.197,21.034
			c0.487,1.619,29.91,85.06,31.529,89.907c0,0,11.58-1.005,14.088,1.513c0,0-0.986,23.934,53.34,4.093c0,0,3.351-0.542,3.51,2.265
			c0,0,70.064-11.188,94.437-12.933c0,0,1.304-0.145,8.835-14.234c8.955-16.754,12.639-20.717,12.639-20.717
			S1373.96,802.834,1380.596,825.273z"/>
		<path style="fill:#FFA412;" d="M1282.715,1104.485c-0.056,0.813-0.243,1.544-0.552,2.218c-3.079,6.785-18.127,6.205-30.49-0.271
			c-6.514-3.416-18.24-8.76-31.464-12.83c-8.656-21.525-20.598-54.195-25.155-80.765c-6.944-40.494,47.71-91.377,55.692-98.555
			c-1.572,4.137-21.253,71.19-21.712,88.981C1228.707,1015.663,1283.36,1095.436,1282.715,1104.485z"/>
		<path style="fill:#ED975D;" d="M1226.47,821.67c0,0-29.133,14.815-46.353,15.339c2.284-14.057,6.027-26.054,6.785-28.394
			c0.58-0.178,1.16-0.337,1.731-0.449c1.216-0.252,2.424-0.356,3.612-0.281c0.515,0.028,1.029,0.084,1.554,0.141
			C1208.258,809.701,1226.47,821.67,1226.47,821.67z"/>
		<path style="fill:#FFB27D;" d="M1172.942,815.69c0,0,49.679,25.173,64.88-6.006c15.2-31.179,31.85-48.929,0.773-66.319
			c-31.076-17.391-43.086-8.521-50.691,0.652C1180.3,753.19,1160.411,808.338,1172.942,815.69z"/>
		<path style="fill:#AA443E;" d="M1211.892,743.094c0,0,15.061,14.98,10.633,29.21c-4.427,14.23,2.73,42.542,22.141,45.776
			c19.41,3.234,42.483-62.373,16.943-74.986c-25.54-12.613-67.274-18.85-79.874-3.003c-12.6,15.847-7.756,35.883-7.756,35.883
			S1191.46,742.124,1211.892,743.094z"/>
		<path style="fill:#FFFFFF;" d="M1192.083,805.377c0,0-2.041,3.356-10.903-0.153c0,0-7.441-2.945-5.906-6.865
			C1175.274,798.358,1183.564,797.917,1192.083,805.377z"/>
	</g>
	<g>
		<path style="fill:#233862;" d="M806.145,871.209l6.091-9.723c24.231-32.389,14.646-49.073,7.2-57.597
			c-9.362-10.718-21.174-15.124-21.174-15.124c-0.31-0.131-0.614-0.249-0.921-0.374c-6.783-3.701-12.645-4.792-12.645-4.792
			c-51.631-25.713-83.502,73.575-77.004,81.863c6.498,8.288,26.36,12.789,26.36,12.789c-0.8-1.355-1.345-4.042-1.345-4.042
			c4.667,6.451,26.271,10.405,26.271,10.405c-4.529-8.425-5.494-15.629-4.624-21.59l12.364,2.36
			c1.325,9.617,4.38,19.239,8.229,24.15c7.534,9.614,26.872,12.822,26.872,12.822c-0.629-1.181-0.518-4.338-0.518-4.338
			c0.175,2.074,3.258,4.291,3.258,4.291c2.347,0.621,7.841-0.487,7.841-0.487S801.316,898.885,806.145,871.209z"/>
		<path style="fill:#FFB27D;" d="M732.882,926.298c-0.033,0.011-0.055,0.022-0.088,0.033
			C732.641,926.309,732.674,926.298,732.882,926.298z"/>
		<path style="fill:#FFB27D;" d="M792.862,909.031c0.725,6.498,1.592,12.327,1.976,15.104c0.867,6.224-58.19,2.173-61.956,2.163
			c2.624-1.142,10.637-26.554,13.172-36.247c3.074-11.756,5.489-24.457,5.489-24.457l41.703,2.634l2.481,0.154
			c-1.537,5.686-2.635,11.054-3.392,16.038c-0.099,0.67-0.198,1.351-0.285,2.009C791.292,891.961,791.962,901.007,792.862,909.031z"
			/>
		<path style="fill:#ED975D;" d="M792.862,909.031c-29.172-8.546-41.55-42.243-41.55-42.243
			c12.338,0.362,28.411,8.927,41.024,17.631c-0.099,0.67-0.198,1.351-0.285,2.009C791.292,891.961,791.962,901.007,792.862,909.031z
			"/>
		<path style="fill:#FFB27D;" d="M794.925,897.193c0,0-52.703-13.026-44.085-45.722c8.617-32.696,7.619-56.397,41.632-49.462
			s37.237,21.127,37.015,32.74C829.265,846.361,808.856,899.739,794.925,897.193z"/>
		<path style="fill:#233862;" d="M816.583,807.535c0,0-24.52,34.543-48.07,34.376c-23.55-0.167-31.55-8.607-31.55-8.607
			s20.469-8.958,30.188-31.481C767.151,801.822,810.577,786.414,816.583,807.535z"/>
		<path style="fill:#233862;" d="M812.198,809.705c0,0,8.463,11.402,8.875,20.418c0.412,9.016-2.947,26.462,2.201,27.202
			c0,0,17.725-23.199,9.463-41.164C823.978,797.111,812.198,809.705,812.198,809.705z"/>
		<path style="fill:#233862;" d="M813.848,811.528c0,0-20.867,37.447-52.093,42.942c0,0,34.352-17.306,43.733-43.189
			C814.868,785.398,813.848,811.528,813.848,811.528z"/>
		<path style="fill:#FFFFFF;" d="M786.7,876.232c0,0,0.658,4.978,3.832,6.154c3.175,1.177,11.604,3.31,12.459,2.782
			c0.854-0.528,4.013-4.409,4.013-4.409S793.721,875.666,786.7,876.232z"/>
		<path style="fill:#FFB27D;" d="M767.021,1376.376c-0.67,2.799-1.339,5.565-1.998,8.31c-3.974,16.51-7.673,31.823-10,44.633
			c-3.03,16.675-3.743,29.079,0.231,34.293c16.367,21.461,0,191.762,0,191.762l-18.628,19.188c0,0-32.383-168.139-41.165-194.483
			c-3.996-11.977-9.813-63.131-14.951-115.35c-0.263-2.612-0.516-5.225-0.769-7.838c-0.889-9.133-1.745-18.232-2.568-27.113
			c-4.61-49.408-8.058-91.715-8.058-91.715s34.348-24.15,65.556-26.839c18.387-1.603,35.676,4.248,44.216,26.839
			C791.325,1270.929,778.723,1327.681,767.021,1376.376z"/>
		<path style="fill:#ED975D;" d="M767.021,1376.376c-25.522-18.431-61.429-51.231-74.458-104.997
			c-2.492-26.73,18.584-52.131,42.108-60.155c18.387-1.603,35.676,4.248,44.216,26.839
			C791.325,1270.929,778.723,1327.681,767.021,1376.376z"/>
		<path style="fill:#FFB27D;" d="M860.092,1051.628l125.424,32.397v14.645c0,0-124.815-1.464-132.865-15.368
			C844.601,1069.397,860.092,1051.628,860.092,1051.628z"/>
		<path style="fill:#FFB27D;" d="M985.512,1534.35l-5.862,24.204c0,0-169.664-87.631-191.607-104.459
			c-8.815-6.763-20.462-43.481-31.253-85.019c-16.071-61.912-30.231-134.526-30.231-134.526s23.788-91.474,87.456-35.489
			c38.102,33.503,32.174,98.06,28.003,148.27c-2.777,33.689-4.775,60.924,7.859,67.982c24.644,13.754,96.962,77.114,119.85,120.705
			L985.512,1534.35z"/>
		<path style="fill:#FFB27D;" d="M697.702,1127.733c-44.31-11.275-93.018-80.017-93.018-80.017l12.477-10.822
			c12.917,15.229,66.625,41.457,66.625,41.457c-0.289-13.937,0.077-26.648,0.957-38.218c5.959-78.633,35.603-104.831,43.694-110.58
			c1.305-0.933,2.055-1.323,2.055-1.323s0.031,0.571,0.077,1.654c0.118,2.335,0.333,7.044,0.552,13.504
			C732.765,991.517,734.728,1137.166,697.702,1127.733z"/>
		<path style="fill:#F99746;" d="M732.791,1033.364c-2.297,56.097-10.689,111.644-35.112,108.069
			c-29.936-4.369-37.734-32.311-39.325-53.082c-0.985-12.93,0.437-23.079,0.437-23.079s14.733-0.067,17.119-2.264
			c11.315-10.452,7.955-112.965,13.556-123.608c5.602-10.644,41.946-17.478,41.946-17.478S735.077,977.918,732.791,1033.364z"/>
		<path style="fill:#ED7D2B;" d="M732.791,1033.364c-2.297,56.097-10.689,111.644-35.112,108.069
			c-29.936-4.369-37.734-32.311-39.325-53.082c7.35-0.37,20.29-2.162,25.432-10.005c7.361-11.226,30.328-83.489,30.328-83.489
			S723.144,1011.08,732.791,1033.364z"/>
		<path style="fill:#F99746;" d="M921.642,1051.628c8.115,11.524,3.646,33.869-13.373,51.858
			c-10.568,11.172-24.882,17.779-48.177,14.346c-10.154-1.496-38.528-17.516-41.511-37.047c-0.534-3.542-0.835-5.612-0.835-5.612
			s-12.916,12.935-13.399,15.377c-0.218,1.099-1.332,10.871-1.506,12.208c-0.201,1.615,0.948,7.551,0.948,7.551
			s-61.711,26.988-112.729-3.746c0,0-14.547-124.657-4.1-145.399c5.192-10.306,34.313-30.375,44.453-39.241
			c2.276-1.995,4.592-8.006,3.965-11.878c-0.515-3.271,3.25-8.787,6.403-7.782c6.097,1.953,23.352,10.49,35.493,7.233
			c6.047-1.607,13.716-8.597,19.577-6.997c7.166,1.957-0.403,19.2,3.658,19.424c5.595,0.276,35.82,6.322,38.356,11.197
			c0.883,1.699,9.565,24.698,20.451,55.135c0,0,0.01,0.023,0.018,0.079C879.767,1045.43,909.733,1034.715,921.642,1051.628z"/>
		<path style="fill:#ED7D2B;" d="M817.746,1075.173c0,0-1.503-47.552-5.345-46.972c-3.842,0.58-59.277,53.939-46.104,75.285
			C779.47,1124.832,817.746,1075.173,817.746,1075.173z"/>
		<path style="fill:#2B478B;" d="M860.092,1270.149c0,0-21.366,6.6-52.84,10.954c-38.972,5.389-93.451,7.331-142.104-10.954
			c0,0-4.01-72.399,7.519-110.14c11.529-37.75,16.917-55.805,16.917-55.805s46.188,11.58,93.097,2.6
			c6.589-1.253,13.189-2.924,19.674-5.085c0,0,28.937,61.434,36.894,87.76C847.206,1215.806,860.092,1270.149,860.092,1270.149z"/>
		<path style="fill:#233862;" d="M860.092,1270.149c0,0-21.366,6.6-52.84,10.954c-57.716-32.728-29.573-170.445-29.573-170.445
			c1.712-1.389,3.383-2.673,5.002-3.854c6.589-1.253,13.189-2.924,19.674-5.085c0,0,28.937,61.434,36.894,87.76
			C847.206,1215.806,860.092,1270.149,860.092,1270.149z"/>
		<g>
			<path style="fill:#B64C41;" d="M738.633,1117.832c-34.216,0-48.318-11.774-49.362-12.577l-2.213-16.114
				c0.328,0.243,46.239,27.811,117.29,1.409l-1.506,12.208C775.517,1112.912,756.405,1117.832,738.633,1117.832z"/>
		</g>
		<path style="fill:#FFB27D;" d="M985.517,1084.025c0,0,23.011-11.335,32.159-12.433c9.147-1.098,24.516-1.464,24.516,0
			s-16.466,11.692-20.857,12.433c-4.391,0.74-12.807,6.961-10.245,7.692c2.561,0.731,16.1-2.378,16.283,0s-8.233,3.842-9.696,5.672
			c-1.464,1.829-6.586,4.024-14.819,2.927c-8.233-1.098-17.34-1.646-17.34-1.646V1084.025z"/>
		<path style="fill:#FFB27D;" d="M617.138,1036.853l-12.507,10.912c0,0-22.221-16.232-23.285-22.886v-0.666
			c0-6.919,14.104-21.29,25.813-21.823c1.197,0,2.262,0.267,3.193,0.8c6.24,3.9,6.979,20.158,6.928,28.57
			C617.261,1034.828,617.138,1036.853,617.138,1036.853z"/>
		<path style="fill:#2B478B;" d="M985.512,1534.35l-5.862,24.204c0,0-169.664-87.631-191.607-104.459
			c-8.815-6.763-20.462-43.481-31.253-85.019c14.479,2.975,45.753,4.555,85.228-21.746c-2.777,33.689-4.775,60.924,7.859,67.982
			c24.644,13.754,96.962,77.114,119.85,120.705L985.512,1534.35z"/>
		<path style="fill:#F99746;" d="M1019.051,1543.744c0,0-0.051-0.008-0.151-0.034c-0.76-0.19-4.251-1.341-6.563-6.892
			c-1.524-3.654-1.982-6.655-3.38-10.271l-5.729-9.888c-5.993-7.891-8.094-6.042-8.094-6.042s-1.566,2.009-3.881,4.658
			c-3.822,4.37-9.684,10.468-13.832,12.033c-2.946,1.104-4.794,2.938-5.926,4.639c-1.445,2.136-1.768,4.064-1.768,4.064
			s12.303,2.145,11.23,8.207c-2.088,11.733-1.595,13.867-1.382,14.252l0.074,0.079c0,0,20.982,10.982,27.691,13.139
			c11.94,3.824,18.176,11.94,22.046,15.647c1.567,1.502,3.737,2.193,5.873,1.85c3.148-0.496,7.231-1.507,8.127-3.438
			L1019.051,1543.744z"/>
		<path style="fill:#233862;" d="M755.254,1463.611c16.367,21.461,0,191.762,0,191.762l-18.628,19.188
			c0,0-32.383-168.139-41.165-194.483c-3.996-11.977-9.813-63.131-14.951-115.35c15.522,6.927,53.393,22.01,84.514,19.957
			c-3.974,16.51-7.673,31.823-10,44.633C751.994,1445.993,751.28,1458.397,755.254,1463.611z"/>
		<path style="fill:#F99746;" d="M773.976,1683.097l-10.05,5.44c-3.654,1.292-6.667,1.663-10.363,3.081
			c-5.616,2.151-9.567,6.38-9.755,7.141c-2.835,11.526-6.86,10.794-6.86,10.794l-40.375,0.379
			c-1.904-0.951,1.322-9.102,2.869-10.624c3.817-3.762,15.241-1.869,19.408-13.692c2.35-6.645,13.935-27.3,13.935-27.3l0.081-0.071
			c0.391-0.202,2.538-0.633,14.207,1.794c6.028,1.247,8.528-10.989,8.528-10.989s1.918,0.379,4.012,1.885
			c1.667,1.182,3.446,3.081,4.465,6.059c1.444,4.191,7.37,10.228,11.628,14.175c2.581,2.391,4.544,4.014,4.544,4.014
			S782.036,1677.335,773.976,1683.097z"/>
	</g>
	<path style="fill:#233862;" d="M3053.364,1713.677H132.981c-1.791,0-3.257-1.466-3.257-3.257v-0.976
		c0-1.791,1.466-3.257,3.257-3.257h2920.383c1.791,0,3.257,1.466,3.257,3.257v0.976
		C3056.621,1712.211,3055.155,1713.677,3053.364,1713.677z"/>
	<g>
		<path style="fill:#86D1CD;" d="M798.167,448.064c4.641,6.606,8.098,14.636,10.595,23.595
			c16.582,59.366-8.814,159.651-8.814,159.651s-136.373-13.407-171.787-63.82c-26.775-38.115-27.967-86.055-6.66-121.429
			c6.871-11.417,16.084-21.52,27.542-29.569C695.988,383.513,762.752,397.65,798.167,448.064z"/>
		<path style="fill:#86D1CD;" d="M799.946,631.312c0,0,7.649,15.005,13.472,12.28c5.822-2.725,10.123-13.23,7.481-16.127
			C818.257,624.567,799.946,631.312,799.946,631.312z"/>
		<path style="fill:#F99746;" d="M802.096,630.953l-2.769,1.945c-0.594,0.418-1.421,0.273-1.838-0.321l0,0
			c-0.417-0.594-0.273-1.421,0.321-1.838l2.769-1.945c0.594-0.417,1.421-0.273,1.838,0.321l0,0
			C802.834,629.709,802.69,630.536,802.096,630.953z"/>
		<g>
			<path style="fill:#F99746;" d="M921.651,766.893c0,0-1.271-2.862-4.009-4.978c-1.778-1.374-3.521-0.754-3.521-0.754
				c0.227-0.533,22.636-53.569,13.796-76.21c-4.795-12.28-37.161-1.584-63.168,7.009c-22.941,7.581-41.125,17.126-47.586,9.225
				c-5.997-7.334,3.31-25.291,9.603-39.697c3.706-8.483,7.907-18.099,6.12-20.002c-2.178-2.317-9.48,1.765-15.348,5.044
				c-7.34,4.103-13.679,7.646-16.775,4.606c-5.553-5.452-1.608-18.748-1.438-19.311l0.644,0.195
				c-0.038,0.126-2.231,13.015,2.358,17.522c1.903,1.868,8.677-1.918,14.12-4.961c7.556-4.224,16.56-9.787,19.933-6.197
				c2.667,2.838-2.141,11.578-7.567,23.999c-5.745,13.151-12.895,29.517-7.895,35.946c3.565,4.583,23.679-2.063,43.129-8.49
				c29.687-9.81,63.001-22.116,68.566-7.862c3.868,9.908,2.673,26.603-1.605,49.975
				C927.975,748.532,921.709,766.758,921.651,766.893z"/>
		</g>
		<path style="fill:#ABDDDA;" d="M798.167,448.064c4.641,6.606,8.098,14.636,10.595,23.595
			c-0.172,41.335-32.94,73.496-97.788,78.393c-134.277,10.143-89.469-103.986-89.469-103.986l-0.004-0.006
			c6.871-11.417,16.084-21.52,27.542-29.569C695.988,383.513,762.752,397.65,798.167,448.064z"/>
		<path style="fill:#C5EFEB;" d="M741.821,427.728c-0.784,6.144-20.011,15.759-34.659,13.89
			c-14.648-1.869-22.032-12.77-22.048-18.963c-0.03-11.861,17.386-14.386,32.034-12.517
			C731.796,412.008,742.605,421.585,741.821,427.728z"/>
	</g>
	<g>
		<path style="fill:#ED7D2B;" d="M1782.866,367.74c1.362,9.994,0.595,20.888-1.77,32.264
			c-15.636,75.399-101.325,172.148-101.325,172.148s-143.677-93.075-154.078-169.337c-7.863-57.657,18.302-111.551,62.234-138.597
			c14.172-8.732,30.192-14.664,47.524-17.027C1706.468,237.505,1772.465,291.478,1782.866,367.74z"/>
		<path style="fill:#ED7D2B;" d="M1679.77,572.153c0,0-0.114,21.04,7.911,21.354c8.024,0.315,18.822-8.879,17.551-13.61
			C1703.96,575.167,1679.77,572.153,1679.77,572.153z"/>
		<path style="fill:#1C468A;" d="M1682.361,572.989l-4.189,0.571c-0.898,0.122-1.733-0.512-1.856-1.411l0,0
			c-0.122-0.898,0.513-1.734,1.411-1.856l4.188-0.571c0.898-0.123,1.734,0.512,1.856,1.411l0,0
			C1683.895,572.031,1683.26,572.866,1682.361,572.989z"/>
		<g>
			<path style="fill:#1C468A;" d="M1737.113,792.424c0,0,0.23-3.905-1.596-7.823c-1.186-2.544-3.476-2.855-3.476-2.855
				c0.558-0.461,55.84-46.479,59.011-76.678c1.72-16.379-40.337-23.066-74.131-28.44c-29.809-4.74-55.466-4.572-58.106-17.046
				c-2.45-11.579,18.175-26.174,33.42-38.555c8.979-7.291,19.155-15.556,18.262-18.692c-1.089-3.821-11.534-3.477-19.927-3.201
				c-10.5,0.345-19.567,0.644-21.261-4.507c-3.037-9.235,8.964-21.731,9.477-22.258l0.604,0.586
				c-0.114,0.117-9.939,13.166-7.429,20.8c1.04,3.165,10.73,2.846,18.517,2.589c10.81-0.355,23.993-1.368,25.678,4.551
				c1.333,4.679-9.014,11.623-22.16,22.299c-13.917,11.302-31.237,25.368-29.372,35.371c1.329,7.131,27.464,11.288,52.737,15.307
				c38.576,6.134,82.608,11.577,80.612,30.589c-1.388,13.215-12.287,31.06-30.437,54.548
				C1754.66,775.671,1737.254,792.307,1737.113,792.424z"/>
		</g>
		<path style="fill:#F99746;" d="M1782.866,367.74c1.362,9.994,0.595,20.888-1.77,32.264
			c-23.892,45.78-78.703,62.687-153.488,30.941c-154.854-65.735-39.68-166.718-39.68-166.718l-0.001-0.009
			c14.172-8.732,30.192-14.664,47.524-17.027C1706.468,237.505,1772.465,291.478,1782.866,367.74z"/>
		<path style="fill:#FFB680;" d="M1731.986,312.861c-4.394,6.37-31.247,6.018-46.434-4.456
			c-15.187-10.474-17.132-26.807-13.598-33.69c6.768-13.182,27.545-5.998,42.731,4.476
			C1729.873,289.665,1736.379,306.492,1731.986,312.861z"/>
	</g>
	<g>
		<path style="fill:#FFA412;" d="M2559.747,563.956c-3.485,4.926-8.27,9.376-13.948,13.385
			c-37.626,26.583-114.601,33.896-114.601,33.896s-24.815-99.367,1.778-136.96c20.105-28.422,53.554-41.302,83.807-35.189
			c9.763,1.969,19.189,5.917,27.733,11.961C2579.523,475.814,2586.34,526.363,2559.747,563.956z"/>
		<path style="fill:#FFA412;" d="M2431.196,611.236c0,0-8.642,9.153-5.261,12.568c3.381,3.414,11.855,3.804,13.231,1.216
			C2440.543,622.432,2431.196,611.236,2431.196,611.236z"/>
		<path style="fill:#F99746;" d="M2431.988,612.659l-2.064-1.46c-0.443-0.313-0.549-0.932-0.236-1.375l0,0
			c0.313-0.443,0.932-0.549,1.375-0.235l2.064,1.46c0.443,0.313,0.549,0.932,0.236,1.375l0,0
			C2433.05,612.867,2432.432,612.973,2431.988,612.659z"/>
		<g>
			<path style="fill:#F99746;" d="M2366.322,730.965c0,0,1.695-1.614,2.498-4.072c0.52-1.597-0.354-2.668-0.354-2.668
				c0.433,0.026,43.396,2.479,57.114-9.43c7.44-6.46-8.219-26.558-20.8-42.707c-11.099-14.245-22.386-24.648-18.446-31.181
				c3.656-6.063,18.635-4.023,30.356-3.211c6.903,0.479,14.728,1.02,15.618-0.716c1.084-2.115-3.624-6.23-7.406-9.537
				c-4.732-4.136-8.818-7.708-7.456-10.652c2.443-5.278,12.794-5.841,13.233-5.863l0.023,0.503
				c-0.098,0.005-9.722,1.698-11.741,6.061c-0.837,1.809,3.53,5.627,7.039,8.694c4.872,4.258,11.05,9.199,9.369,12.475
				c-1.328,2.59-8.688,1.401-18.795,0.701c-10.7-0.741-24.018-1.664-27.287,3.472c-2.331,3.661,7.399,16.15,16.81,28.228
				c14.361,18.435,31.393,38.795,22.756,46.292c-6.003,5.212-18.056,8.564-35.583,11.423
				C2380.836,730.805,2366.432,730.972,2366.322,730.965z"/>
		</g>
		<path style="fill:#FFB93E;" d="M2559.747,563.956c-3.485,4.926-8.27,9.376-13.948,13.385
			c-29.141,10.261-60.012-4.729-79.748-49.148c-40.867-91.977,50.729-89.1,50.729-89.1l0.003-0.005
			c9.763,1.969,19.189,5.917,27.733,11.961C2579.523,475.814,2586.34,526.363,2559.747,563.956z"/>
		<path style="fill:#FFD599;" d="M2559.909,519.184c-4.521,0.991-16.12-10.128-18.483-20.91
			c-2.363-10.781,3.456-18.717,7.812-20.283c8.343-3,14.494,8.626,16.856,19.406
			C2568.458,508.178,2564.432,518.192,2559.909,519.184z"/>
	</g>
	<g>
		<path style="fill:#FFB27D;" d="M2425.669,1103.11c0,0-8.516-10.333-13.095-11.784c-4.578-1.45-13.441-8.311-14.598-5.482
			c-1.155,2.828,5.956,7.186,5.582,10.416c-0.375,3.232-22.612,8.418-22.476,11.837c0.138,3.42,5.232,11.683,13.713,10.734
			c8.481-0.949,29.991-6.054,34.409-3.849S2425.669,1103.11,2425.669,1103.11z"/>
		<path style="fill:#233862;" d="M2562.596,1706.458h91.892c6.584-4.465-1.776-48.117-1.776-48.117s-25.079-9.516-29.411,9.836
			c-4.345,19.338-31.944,25.487-46.551,27.846C2566.754,1697.648,2563.596,1703.14,2562.596,1706.458z"/>
		<path style="fill:#6BB7BF;" d="M2587.319,1261.136c0,0,4.13,51.531,8.984,113.475c6.599,84.146,24.395,292.771,24.395,292.771
			s11.667,9.954,37.509,4.509c0,0,21.997-71.973,28.575-154.118c0.102-1.347,0.204-2.702,0.306-4.06
			c6.119-83.624,15.634-259.716,15.634-259.716L2587.319,1261.136z"/>
		<path style="fill:#599DAD;" d="M2585.909,1243.329c0,0,5.54,69.338,10.395,131.281l90.479,143.162
			c0.102-1.347,0.204-2.702,0.306-4.06c6.119-83.624,15.634-259.716,15.634-259.716L2585.909,1243.329z"/>
		<path style="fill:#FFB27D;" d="M2641.592,1002.533c10.018,5.276,19.795,5.606,28.271,3.806c7.754-1.631,14.411-5.053,19.153-8.084
			c4.865-3.11,7.727-5.82,7.727-5.82s-0.339-0.49-0.909-1.453c-2.959-5.062-11.934-23.261-7.941-52.503
			c0.054-0.383-2.843,0.16-7.219,1.194c-13.021,3.084-39.197,10.508-40.355,10.838c-0.026,0-0.045,0-0.045,0
			s-0.32,6.149-1.399,17.174c-0.089,0.971-0.187,1.987-0.293,3.039c-0.134,1.292-0.268,2.664-0.428,4.073
			C2636.939,986.259,2641.592,1002.533,2641.592,1002.533z"/>
		<path style="fill:#ED975D;" d="M2638.873,967.686c19.438,4.456,48.448-24.242,48.448-24.242c-2.121-1.578-4.349-2.826-6.648-3.77
			c-13.021,3.084-39.197,10.508-40.355,10.838c-0.026,0-0.045,0-0.045,0S2639.952,956.661,2638.873,967.686z"/>
		<path style="fill:#FFB27D;" d="M2632.27,948.958c0,0,7.993,2.868,18.184,4.238c14.901,2.012,34.496,0.826,40.652-17.204
			c10.369-30.348,23.613-48.544-6.898-60.936c-16.334-6.634-26.783-6.986-33.881-4.454c-6.166,2.184-9.802,6.55-12.554,10.868
			C2631.848,890.759,2619.928,943.646,2632.27,948.958z"/>
		<g>
			<path style="fill:#233862;" d="M2849.255,1630.622c0,0,8.038,16.387,7.484,25.38c-0.417,6.766-4.259,14.859-7.317,21.76
				c-1.641,3.701-4.371,6.812-7.981,8.645c-6.036,3.064-15.324,9.342-17.803,19.781h40.863c0,0,17.187-34.455,29.423-39.464
				c10.615-4.346,10.563-21.757-1.703-28.617c-5.951-3.329-17.048-22.038-17.048-22.038L2849.255,1630.622z"/>
			<path style="fill:#6BB7BF;" d="M2612.246,1243.423c0,0,70.964,215.888,108.663,245.825
				c37.7,29.938,129.731,150.799,129.731,150.799s26.611-12.197,31.047-24.394c0,0-69.301-158.838-102.565-171.288
				c-29.456-11.024-8.315-182.486-68.318-212.361C2671.186,1212.278,2612.246,1243.423,2612.246,1243.423z"/>
		</g>
		<path style="fill:#A9453D;" d="M2613.755,883.867c17.668,12.698,42.107,0.214,49.704,3.594c7.588,3.371,8.951,16.1,9.088,20.14
			c0.137,4.048,0.669,7.46,10.975,5.039c1.688-0.395,2.905-0.278,3.742,0.224c4.274,2.536-1.188,14.83-2.836,17.49
			c0,0-2.371,8.806,2.891,13.093c0.637,0.512,10.974,5.03,35.885-33.092c3.916-5.984,7.654-19.465,1.606-32.444
			c-6.039-12.98-31.286-25.525-52.694-32.174c-8.023-2.493-13.971-2.402-18.625-0.695c-7.762,2.837-11.9,10.172-16.006,17.54
			C2630.598,874.96,2613.755,883.867,2613.755,883.867z"/>
		<path style="fill:#F99746;" d="M2655.006,1052.84c38.979-52.365-12.248-74.493-40.425-64.448
			c-19.481,6.945-31.298,18.777-41.854,34.807c-12.495,18.975-31.989,45.6-53.698,64.3c-0.007,0.01-0.007,0.01-0.007,0.01
			l-0.01-0.016l-96.597,8.457l-0.574,19.733c1.527,4.374,72.791,10.481,90.714,16.22
			C2512.555,1131.903,2602.559,1123.299,2655.006,1052.84z"/>
		<path style="fill:#F99746;" d="M2591.094,1247.955c0,0,38.564,13.565,84.642,13.922c9.011,0.071,21.755-1.676,32.335-3.449
			c10.811-1.827,19.357-3.682,19.357-3.682c9.26-2.139,19.491-7.86,18.119-18.422c-4.153-32.084-1.471-116.138-3.601-168.632
			c0,0-0.107-10.24,6.407-17.406c0.01-0.009,0.019-0.009,0.019-0.018c1.069-1.167-8.638-54.303-19.283-64.236
			c-6.156-5.744-34.727-8.685-36.901-8.222c-0.65-0.142-1.301-0.294-1.979-0.41c0,0-30.228,16.403-52.197,4.059
			c0,0-32.064,7.389-41.289,17.139c-3.182,3.36-15.887,23.97-16.226,46.616c-0.49,31.551,0.74,67.405,0.74,67.414
			C2579.009,1146.986,2567.324,1247.955,2591.094,1247.955z"/>
		<path style="fill:#ED7D2B;" d="M2692.041,977.846c0,0-32.741,33.769-56.148,26.852c0,0-3.119-4.561,7.423-6.023
			C2653.858,997.213,2665.237,997.811,2692.041,977.846z"/>
		<path style="fill:#ED7D2B;" d="M2708.07,1258.428c10.811-1.827,19.357-3.682,19.357-3.682c9.26-2.139,19.491-7.86,18.119-18.422
			c-4.153-32.084-1.471-116.138-3.601-168.632c0,0-0.107-10.24,6.407-17.406c-10.213,9.02-37.984,37.589-58.629,58.917
			C2661.071,1138.803,2658.955,1192.779,2708.07,1258.428z"/>
		<path style="fill:#FFFFFF;" d="M2632.038,929.365c0,0-0.639,3.929,8.495,7.064c0,0,7.669,2.634,9.069-1.396
			C2649.603,935.033,2643.512,929.232,2632.038,929.365z"/>
		<g>
			<path style="fill:#7693CE;" d="M2619.812,1185.775l7.692-1.15c2.955-0.826,5.217-2.15,5.303-4.993l0.45-15.011
				c0.073-2.425-1.392-4.688-3.69-5.464c-7.337-2.479-13.894-8.508-12.311-17.658c0,0,4.236-21.946,4.33-22.593l28.32,0.85
				c0.055,0.65,3.488,22.828,3.488,22.828c1.686,8.397-5.942,14.935-13.481,16.924c-2.202,0.581-3.795,2.486-3.863,4.763
				l-0.457,15.214c-0.089,2.971,2.041,4.383,5.218,5.54l7.323,1.687c0.569,0.018,0.602,0.716,0.032,0.698l-28.378-0.852
				C2619.219,1186.541,2619.243,1186.034,2619.812,1185.775z"/>
			<path style="fill:#EBF3FA;" d="M2618.561,1146.092c1.354,7.721,8.401,12.727,16.324,12.965c7.867,0.236,15.785-5.23,17.351-12.27
				c0.291-1.354,0.36-2.762,0.145-4.197c-0.178-1.192-0.439-2.368-0.758-3.51c-0.126-0.439-3.101-19.365-3.101-19.365l-25.715-0.772
				l-4.005,20.35c-0.074,0.322-0.14,0.645-0.187,0.968l-0.075,0.351l0.019,0.001c-0.047,0.322-0.103,0.637-0.141,0.96
				C2618.25,1143.161,2618.307,1144.666,2618.561,1146.092z"/>
			<path style="fill:#C94C43;" d="M2618.561,1146.092c1.354,7.721,8.401,12.727,16.324,12.965c7.867,0.236,15.785-5.23,17.351-12.27
				c-3.149-0.456-11.872-1.524-18.732-0.413C2628.918,1147.117,2623.023,1146.672,2618.561,1146.092z"/>
			<path style="opacity:0.7;fill:#FFFFFF;" d="M2645.98,1146.6c0.291-1.354,0.361-2.762,0.145-4.197
				c-0.178-1.192-0.439-2.369-0.758-3.51c-0.126-0.439-3.101-19.366-3.101-19.366l3.243,0.098c0,0,2.976,18.926,3.102,19.366
				c0.318,1.141,0.579,2.317,0.757,3.51c0.217,1.435,0.146,2.843-0.145,4.197c-1.565,7.039-9.483,12.505-17.351,12.27
				c-0.563-0.018-1.12-0.064-1.673-0.129C2637.523,1158.366,2644.52,1153.17,2645.98,1146.6z"/>
		</g>
		<path style="fill:#FFB27D;" d="M2664.776,1167.813c0,0-26.196-11.624-32.849-7.881c-6.653,3.742-14.97,16.632-11.227,21.621
			c3.742,4.99,45.738,0,45.738,0L2664.776,1167.813z"/>
		<path style="fill:#F99746;" d="M2824.584,1168.802c-44.838-159.6-95.495-182.77-95.495-182.77s-23.979,37.515-26.013,59.137
			c-1.645,17.494,48.061,79.622,69.303,101.518l-0.001-0.001c0,0-100.383,12.414-105.032,14.908
			c-4.648,2.495-14.628,12.213-11.302,24.402c0,0,120.803,4.082,139.71,2.631
			C2826.523,1186.266,2824.584,1168.802,2824.584,1168.802z"/>
	</g>
	<path style="fill:#F99746;" d="M1296.663,652.584l-17.963,114.294c-7.451-0.533-14.503-1.995-21.022-4.126
		c-38.321-12.24-60.275-46.17-60.275-46.17L1296.663,652.584z"/>
	<path style="fill:#ED7D2B;" d="M1257.677,762.753c-38.321-12.24-60.275-46.17-60.275-46.17l99.261-63.998
		C1296.663,652.584,1247.963,705.142,1257.677,762.753z"/>
	<g>
		<path style="fill:#F99746;" d="M2717.85,869.199c-6.652,1.065-13.04,1.598-18.895,1.732
			c-39.119,1.329-58.279-13.838-58.279-13.838l56.018-86.887L2717.85,869.199z"/>
		<path style="fill:#ED7D2B;" d="M2698.955,870.931c-39.119,1.329-58.279-13.838-58.279-13.838l56.018-86.887
			C2696.693,770.205,2688.71,841.126,2698.955,870.931z"/>
	</g>
	<g>
		<polygon style="fill:#F99746;" points="576.455,1062.722 581.523,1065.382 638.419,948.482 638.419,948.482 		"/>
		<path style="fill:#FFB93E;" d="M636.113,931.507c0,0,11.558,4.505,16.59-4.875c0,0-5.985,10.942,1.898,15.669
			c0,0-10.033-4-16.182,6.181C638.419,948.482,644.81,937.84,636.113,931.507z"/>
		<path style="fill:#FFB93E;" d="M640.899,927.538c0,0-1.015-7.722-4.836-8.078C632.243,919.105,639.661,924.059,640.899,927.538z"
			/>
		<path style="fill:#FFB93E;" d="M635.222,937.219c0,0-7.614-1.641-9.233,1.838C624.37,942.536,631.529,937.215,635.222,937.219z"/>
		<path style="fill:#FFB93E;" d="M655.777,935.345c0,0,11.217-0.713,10.792,1.893C666.145,939.843,660.21,935.432,655.777,935.345z"
			/>
		<path style="fill:#FFB93E;" d="M648.446,949.508c0,0,8.587,7.252,6.477,8.838C652.813,959.932,651.584,952.64,648.446,949.508z"/>
		<path style="fill:#FFB93E;" d="M650.022,925.226c0,0,0.871-12.126-2.188-10.902C644.776,915.547,649.705,922.261,650.022,925.226z
			"/>
		<path style="fill:#FFB93E;" d="M655.062,926.602c0,0,6.326-8.348,7.618-6.432C663.973,922.086,655.062,926.602,655.062,926.602z"
			/>
	</g>
	<path style="fill:#FFB27D;" d="M604.63,1024.879c-9.181,5.588-23.285,0-23.285,0v-0.666c0-6.919,14.104-21.29,25.813-21.823
		c1.197,0,2.262,0.267,3.193,0.8C611.017,1008.11,611.948,1020.62,604.63,1024.879z"/>
</g>
</svg>
