<svg width="206" height="227" viewBox="0 0 206 227" fill="none" xmlns="http://www.w3.org/2000/svg">
<path d="M115.936 225.851C144.817 223.322 174.076 212.636 190.444 192.338C203.399 176.277 206.938 156.043 205.8 136.694C204.536 115.448 196.763 93.0642 177.046 79.8487C153.664 64.1672 119.539 65.1789 94.9556 50.8885C69.4879 36.0923 55.964 6.1204 25.6934 0.745694C5.72369 -2.79529 -15.1308 6.68947 -27.5171 20.4108C-39.9034 34.1321 -45.4014 51.3312 -49.3827 68.2773C-56.0814 96.6051 -59.1148 127.146 -44.959 153.514C-30.9928 179.502 -4.07159 194.678 21.6489 211.561C46.1056 227.621 85.6659 228.507 115.936 225.851Z" fill="#D5B9B2"/>
</svg>
