<svg width="73" height="102" viewBox="0 0 73 102" fill="none" xmlns="http://www.w3.org/2000/svg">
<path d="M36.8506 98.421C30.8744 97.896 24.8198 95.6779 21.4329 91.4648C18.7521 88.131 18.0198 83.931 18.2552 79.9148C18.5167 75.5048 20.1252 70.8585 24.2052 68.1154C29.0437 64.8604 36.1052 65.0704 41.1921 62.1042C46.4621 59.0329 49.2606 52.8117 55.5244 51.696C59.6567 50.961 63.9721 52.9298 66.5352 55.7779C69.0983 58.626 70.236 62.196 71.0598 65.7135C72.446 71.5935 73.0737 77.9329 70.1444 83.406C67.2544 88.8004 61.6837 91.9504 56.3613 95.4548C51.3006 98.7885 43.1144 98.9723 36.8506 98.421Z" fill="#D5B9B2"/>
<path d="M38.9692 28.1892C38.6161 31.8904 36.6153 35.0667 34.6538 38.1248C31.7115 42.7317 29.3576 56.4473 13.4168 52.7461C7.06146 51.2629 2.02685 45.0548 0.431461 39.0829C-0.588539 35.2767 0.392231 31.4836 1.38608 27.8742C3.49146 20.1567 4.943 0.403557 17.6799 3.73731C27.6838 6.36231 39.963 17.9648 38.9692 28.1892Z" fill="#ECE2D0"/>
<path d="M17.2482 60.3454C15.169 59.5579 13.3905 58.1141 12.0044 56.3816C10.6836 54.7147 9.72897 52.7722 9.02282 50.7641C8.31666 48.756 7.83282 46.6691 7.37512 44.5822C6.91743 42.4954 6.47282 40.4085 5.8582 38.3741C5.24359 36.366 4.45897 34.3841 3.32128 32.6122C3.17743 32.3891 3.03359 32.1791 2.87666 31.956C2.7982 32.0216 2.71974 32.0741 2.64128 32.1397C4.47205 34.0035 6.7082 35.3685 8.94436 36.681C11.2067 38.0066 13.5213 39.306 15.522 41.0254C17.4836 42.7185 19.1705 44.7266 20.4651 46.971C21.7859 49.2547 22.6882 51.7485 23.0936 54.3604C23.512 57.0772 23.4728 59.8991 22.9759 62.6029C22.9105 62.9179 22.8451 63.246 22.7797 63.561C22.7405 63.7447 23.0282 63.8235 23.0674 63.6397C23.682 60.9622 23.8259 58.1535 23.5382 55.4235C23.3944 54.0585 23.1328 52.7197 22.7405 51.4072C22.3613 50.1604 21.8513 48.9397 21.2497 47.7847C20.0467 45.4747 18.4513 43.3616 16.5682 41.5766C14.6328 39.7522 12.3836 38.361 10.1082 37.0222C7.83282 35.6966 5.50512 34.3841 3.54359 32.5991C3.3082 32.3891 3.07282 32.166 2.85051 31.9297C2.73282 31.8116 2.51051 31.9691 2.61513 32.1135C3.85743 33.8591 4.72051 35.8279 5.37436 37.8491C6.04128 39.8966 6.49897 42.0097 6.95666 44.1097C7.41436 46.2097 7.88512 48.3229 8.56512 50.3572C9.23205 52.3785 10.1213 54.3341 11.3767 56.0535C12.6713 57.8385 14.3713 59.3741 16.3851 60.306C16.6336 60.4241 16.8951 60.5291 17.1567 60.621C17.3528 60.6997 17.4313 60.411 17.2482 60.3454Z" fill="#4C4942"/>
<path d="M16.9345 60.5553C19.1052 61.1722 21.0798 62.3797 22.8714 63.7447C23.0283 63.8628 23.1721 63.6003 23.0283 63.4822C21.2237 62.1041 19.2229 60.8834 17.026 60.2534C16.8298 60.2141 16.7514 60.5028 16.9345 60.5553Z" fill="#4C4942"/>
<path d="M23.0803 63.5741C22.5572 61.2772 21.8641 59.0066 21.001 56.8016C20.151 54.5966 19.131 52.4441 17.9803 50.3835C16.8164 48.3097 15.5218 46.3279 14.0833 44.4379C12.6449 42.5347 11.0626 40.7366 9.37565 39.0435C7.51872 37.206 5.70103 35.3422 4.01411 33.3472C3.81795 33.111 3.6218 32.8747 3.42565 32.6385C3.30795 32.4941 3.09872 32.7041 3.21641 32.8485C4.86411 34.8697 6.65564 36.7729 8.49949 38.5972C10.1864 40.2772 11.808 41.9966 13.2856 43.8735C14.7633 45.7372 16.0972 47.7191 17.2872 49.7797C18.4641 51.8141 19.5103 53.9272 20.3995 56.106C21.2887 58.2847 22.021 60.5291 22.5833 62.8129C22.6487 63.0885 22.7141 63.3772 22.7795 63.6529C22.8449 63.8497 23.1326 63.771 23.0803 63.5741Z" fill="#4C4942"/>
<path d="M22.74 62.2879C22.2692 60.8704 21.8769 59.3873 21.9946 57.891C22.06 57.1429 22.2562 56.421 22.4654 55.686C22.6485 55.0166 22.8185 54.3473 22.9231 53.6516C23.0146 52.9691 23.0146 52.2473 22.7008 51.6173C22.6746 51.5779 22.6092 51.6173 22.6354 51.6566C22.9492 52.2866 22.9362 53.0085 22.8315 53.691C22.7269 54.3735 22.5569 55.0429 22.3738 55.6991C22.1777 56.3948 21.9815 57.0773 21.9162 57.7991C21.8508 58.4948 21.9031 59.2035 22.0208 59.8991C22.1646 60.726 22.4 61.5266 22.6615 62.3141C22.6877 62.3535 22.7662 62.3273 22.74 62.2879ZM21.4454 58.1404C19.9415 55.0691 21.2492 51.5779 20.8046 48.336C20.6869 47.4566 20.4254 46.6035 19.9808 45.8291C19.9546 45.7898 19.8892 45.8291 19.9154 45.8685C21.6285 48.8348 20.3731 52.3916 20.6869 55.6073C20.7785 56.4998 20.9877 57.3791 21.38 58.1798C21.4062 58.2191 21.4715 58.1798 21.4454 58.1404ZM19.8238 54.2029C18.9608 52.4966 19.0131 50.541 18.8562 48.6773C18.7254 47.0104 18.3592 45.3173 17.6792 43.7948C17.2869 42.9416 16.79 42.1541 16.2277 41.406C16.2015 41.3666 16.1362 41.406 16.1623 41.4454C16.6723 42.1279 17.1431 42.8366 17.5092 43.5979C17.8623 44.3329 18.1238 45.1073 18.3331 45.8948C18.5685 46.7873 18.7254 47.6929 18.7908 48.6248C18.8692 49.5435 18.8823 50.4754 18.9869 51.3941C19.1046 52.3785 19.3138 53.3629 19.7585 54.2423C19.7846 54.2816 19.85 54.2423 19.8238 54.2029ZM17.2869 49.491C16.3192 46.446 15.9792 43.1254 14.1485 40.4216C13.6908 39.7523 13.1546 39.1485 12.5269 38.6366C12.4877 38.6104 12.4354 38.6629 12.4746 38.6891C14.8938 40.671 15.7438 43.7948 16.4631 46.7085C16.6985 47.6535 16.9338 48.5854 17.2215 49.5173C17.2346 49.5566 17.3 49.5304 17.2869 49.491ZM14.1615 44.7791C13.6254 42.7448 12.7754 40.8416 11.6638 39.0566C11.3369 38.5185 10.9838 38.0066 10.6177 37.4816C10.5915 37.4423 10.5262 37.4816 10.5523 37.521C11.7554 39.2404 12.8277 41.0516 13.5469 43.0466C13.7562 43.6241 13.9392 44.2148 14.0962 44.8054C14.0962 44.8448 14.1746 44.8185 14.1615 44.7791ZM11.7554 41.7341C10.9838 39.7654 9.93769 37.941 8.64308 36.261C8.61692 36.2216 8.56462 36.2741 8.59077 36.3135C9.87231 37.9804 10.9054 39.7916 11.6769 41.7604C11.69 41.7866 11.7685 41.7735 11.7554 41.7341ZM22.74 63.1279C22.3869 61.3166 20.9746 59.9385 19.4446 59.046C17.6138 57.9698 15.5477 57.4448 13.6254 56.5654C12.5923 56.0929 11.5854 55.5154 10.7485 54.7148C10.7092 54.6754 10.6569 54.741 10.6962 54.7673C12.1477 56.1454 14.0438 56.8541 15.8746 57.5498C17.7708 58.2585 19.7323 58.9935 21.1838 60.4766C21.9031 61.2116 22.4654 62.1173 22.6746 63.1541C22.6746 63.1935 22.74 63.1804 22.74 63.1279ZM21.8769 59.3479C21.4585 58.5341 21.0269 57.7204 20.4385 57.0116C19.8238 56.2898 19.0523 55.791 18.1631 55.4891C17.1692 55.1479 16.11 55.0166 15.0769 54.8066C14.0177 54.5966 12.9585 54.321 11.9777 53.8616C11.0623 53.4285 10.2515 52.7985 9.42769 52.2079C9.38846 52.1816 9.34923 52.2473 9.38846 52.2735C10.1077 52.7854 10.8138 53.3366 11.5985 53.7566C12.4877 54.2291 13.4554 54.5179 14.4231 54.741C15.4431 54.9773 16.4892 55.1216 17.5092 55.371C18.49 55.6204 19.3923 56.0273 20.0985 56.7623C20.8308 57.5104 21.3277 58.4554 21.7985 59.3873C21.8246 59.4266 21.89 59.3873 21.8769 59.3479ZM20.19 55.4104C19.8631 54.5179 19.2877 53.7304 18.5423 53.1529C18.1631 52.851 17.7315 52.6016 17.2738 52.431C16.7115 52.2079 16.1231 52.1029 15.5346 51.9979C14.4492 51.801 13.4162 51.5516 12.4223 51.0791C11.5069 50.646 10.6438 50.0685 9.89846 49.3729C9.06154 48.5985 8.35538 47.6929 7.83231 46.6823C7.80615 46.6429 7.74077 46.6823 7.76692 46.7216C8.66923 48.4673 10.1208 49.911 11.8338 50.856C12.71 51.3416 13.6515 51.696 14.6192 51.8929C15.7569 52.1423 16.9338 52.2341 17.9669 52.8379C18.9608 53.4285 19.7454 54.3473 20.1377 55.4366C20.1377 55.476 20.2031 55.4498 20.19 55.4104ZM18.5031 51.5254C17.2738 49.7273 14.9331 49.3466 13.0631 48.5591C11.1408 47.7585 9.55846 46.3148 8.34231 44.6479C7.67538 43.7423 7.1 42.7579 6.59 41.7604C6.56385 41.721 6.49846 41.7604 6.52461 41.7998C7.41385 43.5585 8.51231 45.2516 9.96385 46.6166C10.6831 47.2991 11.5069 47.8898 12.3831 48.3491C13.39 48.861 14.5015 49.1629 15.5608 49.5698C16.6592 50.0029 17.7708 50.5804 18.4508 51.5779C18.4638 51.6041 18.5292 51.5648 18.5031 51.5254Z" fill="#4C4942"/>
<path d="M16.8693 48.441C16.0062 46.5247 13.9531 45.6191 12.2531 44.6347C10.4224 43.5716 8.90545 42.1147 7.5716 40.4741C6.82622 39.5685 6.1593 38.5972 5.51853 37.626C5.49237 37.5866 5.42699 37.626 5.45314 37.6654C6.57776 39.3847 7.80699 41.0385 9.28468 42.4691C10.017 43.1779 10.8016 43.821 11.6516 44.3591C12.5931 44.9629 13.6001 45.4354 14.5285 46.0522C15.457 46.6691 16.3331 47.4435 16.8039 48.4935C16.8301 48.5197 16.8955 48.4804 16.8693 48.441ZM12.4231 42.4822C11.7955 42.5085 11.2462 42.1804 10.7755 41.7866C10.2785 41.3666 9.84699 40.8679 9.40237 40.3954C8.38237 39.3322 7.37545 38.2691 6.35545 37.206C5.78007 36.6022 5.21776 36.0116 4.64237 35.4079C4.60314 35.3685 4.55084 35.421 4.59007 35.4604C5.63622 36.5629 6.69545 37.6654 7.74161 38.7679C8.26468 39.3191 8.78776 39.8704 9.32391 40.4216C9.7816 40.9072 10.2262 41.4191 10.7362 41.8522C11.207 42.2591 11.7824 42.5741 12.4231 42.561C12.4755 42.5479 12.4755 42.4822 12.4231 42.4822ZM21.3285 57.8647C21.7078 55.1479 21.9693 52.431 22.1131 49.6879C22.1131 49.6354 22.0347 49.6354 22.0347 49.6879C21.8908 52.4179 21.6293 55.1347 21.2501 57.8385C21.2501 57.891 21.3155 57.9172 21.3285 57.8647ZM22.767 62.2222C22.6231 61.1066 22.4793 59.9516 22.6885 58.836C22.8847 57.7729 23.5255 56.8147 23.4601 55.7122C23.4601 55.6597 23.3816 55.6597 23.3816 55.7122C23.447 56.8541 22.767 57.8385 22.597 58.941C22.427 60.0304 22.5578 61.146 22.6885 62.2354C22.7016 62.2616 22.7801 62.2616 22.767 62.2222ZM22.8585 63.246C22.087 62.2091 21.1978 61.1329 20.0339 60.516C18.9224 59.9254 17.6278 59.8991 16.4116 59.6629C15.7055 59.5316 15.0255 59.3085 14.437 58.8885C14.3978 58.8622 14.3585 58.9279 14.3978 58.9541C15.3916 59.6891 16.6601 59.781 17.837 59.9647C18.4516 60.0566 19.0662 60.1747 19.6285 60.411C20.2562 60.6735 20.8055 61.0935 21.2893 61.5529C21.8385 62.0779 22.3224 62.6685 22.7801 63.2854C22.8193 63.3247 22.8847 63.2854 22.8585 63.246ZM22.1655 60.3585C21.0931 59.0197 19.9685 57.6285 18.4516 56.7754C16.7778 55.8435 14.8424 55.8435 13.0247 55.4235C12.0308 55.2004 11.0501 54.846 10.2785 54.1635C10.2393 54.1372 10.187 54.1897 10.2262 54.216C11.5862 55.4235 13.4824 55.6072 15.2085 55.8697C16.1762 56.0272 17.1439 56.211 18.0331 56.6441C18.8308 57.0247 19.5239 57.5629 20.1516 58.1797C20.8708 58.8754 21.4855 59.6366 22.1131 60.411C22.1393 60.4504 22.1916 60.3979 22.1655 60.3585ZM20.6485 56.211C19.6547 54.7541 17.9024 54.0847 16.2547 53.691C14.3585 53.2316 12.3316 53.0479 10.6316 51.9979C9.80776 51.486 9.08853 50.7772 8.72237 49.8585C8.7093 49.8191 8.63084 49.8322 8.64391 49.8847C9.25853 51.4597 10.8408 52.3916 12.3839 52.8772C14.3062 53.4941 16.3593 53.586 18.2162 54.4129C19.1316 54.8197 19.9947 55.4104 20.5701 56.2504C20.6093 56.2897 20.6747 56.2504 20.6485 56.211ZM19.2231 52.9954C18.2947 51.2891 16.2678 50.6854 14.5285 50.226C13.4824 49.9504 12.4362 49.6879 11.4685 49.2022C10.6316 48.7822 9.87314 48.231 9.2193 47.5747C8.48699 46.8397 7.88545 45.9866 7.45391 45.0416C7.42776 45.0022 7.37545 45.0416 7.38853 45.081C8.13391 46.7216 9.40237 48.0997 10.9455 49.0054C11.8216 49.5172 12.7762 49.8454 13.7439 50.1079C14.7639 50.3835 15.8231 50.6197 16.7908 51.0529C17.7455 51.486 18.6478 52.1029 19.1578 53.0479C19.1839 53.0741 19.2362 53.0347 19.2231 52.9954Z" fill="#4C4942"/>
<path d="M17.2089 49.084C16.6466 48.3097 15.7835 47.8765 14.9466 47.509C14.0443 47.1153 13.1681 46.7084 12.3181 46.1965C10.6312 45.1728 9.11429 43.8472 7.88506 42.2984C7.20506 41.4322 6.60352 40.5003 6.1066 39.5159C6.08045 39.4765 6.01506 39.5159 6.04122 39.5553C6.90429 41.2747 8.08122 42.8365 9.48045 44.149C10.9189 45.4878 12.5797 46.5509 14.3712 47.3384C15.3651 47.7715 16.4635 48.2047 17.1304 49.1234C17.1697 49.1628 17.2351 49.1234 17.2089 49.084ZM18.3728 51.3022C18.0197 50.6722 17.902 49.9765 17.8366 49.2678C17.7712 48.5722 17.7189 47.8897 17.6143 47.2072C17.4051 45.7634 17.0389 44.3459 16.542 42.9809C16.2674 42.2328 15.9404 41.4847 15.5874 40.7759C15.5612 40.7365 15.4958 40.7759 15.522 40.8153C16.1758 42.1409 16.6989 43.519 17.0781 44.9497C17.2612 45.6584 17.4051 46.3672 17.5228 47.089C17.6404 47.8109 17.6928 48.5328 17.7581 49.2547C17.8235 49.9765 17.9412 50.7115 18.3074 51.3547C18.3335 51.3809 18.3989 51.3415 18.3728 51.3022ZM20.112 55.0034C20.1643 54.0584 20.2689 53.1265 20.3735 52.1947C20.452 51.4334 20.5566 50.6459 20.4912 49.8847C20.3866 48.5984 20.0074 47.3253 19.602 46.1178C19.3928 45.514 19.1835 44.9234 18.9089 44.3459C18.8828 44.3065 18.8304 44.3459 18.8435 44.3853C19.3666 45.5009 19.7458 46.7084 20.0466 47.9028C20.2035 48.5197 20.3343 49.1365 20.3997 49.7665C20.4651 50.4884 20.3866 51.2103 20.3212 51.919C20.2166 52.9559 20.0989 53.9797 20.0335 55.0165C20.0335 55.0559 20.112 55.0559 20.112 55.0034ZM15.2604 46.1572C15.0251 43.9128 14.1228 41.7078 12.9458 39.7915C12.632 39.2665 12.2789 38.7678 11.8997 38.2953C11.8735 38.2559 11.8212 38.3084 11.8474 38.3478C13.2335 40.0934 14.2666 42.1934 14.842 44.359C14.9989 44.9497 15.1166 45.5534 15.182 46.1703C15.182 46.2097 15.2604 46.2097 15.2604 46.1572ZM9.1666 38.9515C9.10122 37.3634 7.28352 36.6809 6.87814 35.2503C6.86506 35.1978 6.79968 35.224 6.79968 35.2765C7.19199 36.7072 9.02276 37.4028 9.07506 38.9647C9.08814 39.004 9.1666 39.004 9.1666 38.9515ZM44.1997 69.6772C47.0504 68.9553 49.6004 67.3147 51.6535 65.2278C53.5366 63.3115 55.0143 61.0278 56.1912 58.6128C57.3812 56.1978 58.2966 53.6647 59.1728 51.1315C60.062 48.5853 60.9251 46.0128 61.9974 43.5453C63.0566 41.104 64.3381 38.7415 66.0381 36.6809C66.2474 36.4315 66.4566 36.1822 66.6789 35.9328C66.8489 35.749 66.6004 35.5128 66.4174 35.6703C63.7497 37.8228 60.6112 39.2403 57.4989 40.6184C54.3997 41.9834 51.2874 43.3484 48.502 45.3172C45.8081 47.2203 43.4281 49.5565 41.4928 52.234C39.5312 54.9378 38.0928 57.9434 37.2297 61.1722C36.3404 64.4928 35.9874 67.9709 36.2097 71.4097C36.2358 71.8165 36.2751 72.2234 36.3143 72.6172C36.3404 72.8534 36.7197 72.8534 36.6935 72.6172C36.3274 69.2178 36.5628 65.7528 37.3081 62.419C37.6874 60.7653 38.1843 59.1509 38.8512 57.589C39.492 56.0797 40.3028 54.649 41.2051 53.284C43.0228 50.5672 45.3112 48.1653 47.9135 46.1965C49.2474 45.1859 50.6597 44.3065 52.1374 43.5322C53.6281 42.7447 55.1712 42.049 56.7143 41.3665C59.8135 40.0015 62.9651 38.6628 65.7112 36.6678C66.0381 36.4315 66.352 36.1822 66.6658 35.9328C66.5743 35.8409 66.4828 35.749 66.4043 35.6703C64.6258 37.6522 63.2528 39.9359 62.1281 42.3378C61.0035 44.7659 60.1143 47.2859 59.2381 49.8059C58.362 52.339 57.4858 54.8853 56.3743 57.3397C55.2889 59.7415 53.9551 62.0647 52.2158 64.0597C50.3066 66.2515 47.9005 68.0628 45.1412 68.9947C44.8012 69.1128 44.4481 69.2178 44.0951 69.2965C43.8597 69.3753 43.9643 69.7428 44.1997 69.6772Z" fill="#4C4942"/>
<path d="M44.3956 69.2442C42.1726 69.6117 40.041 70.4779 38.0403 71.5279C37.4779 71.8167 36.9287 72.1317 36.3795 72.4598C36.1703 72.591 36.3664 72.906 36.5756 72.7879C38.4849 71.6329 40.5249 70.6485 42.6695 70.0317C43.271 69.861 43.8856 69.7167 44.5003 69.6117C44.7356 69.5723 44.6441 69.2048 44.3956 69.2442Z" fill="#4C4942"/>
<path d="M36.6675 72.6828C37.6613 69.8872 38.8644 67.1703 40.2506 64.5585C41.6367 61.9335 43.219 59.4003 44.9583 56.9853C46.7106 54.5572 48.6329 52.2472 50.699 50.0947C52.7782 47.916 55.0013 45.8947 57.3552 44.031C59.9575 41.9703 62.5467 39.8835 64.979 37.5997C65.2667 37.3241 65.5544 37.0485 65.8421 36.7728C66.0121 36.6022 65.7506 36.3397 65.5806 36.5103C63.1744 38.8597 60.5982 41.0253 57.9567 43.0991C55.5636 44.976 53.2621 46.9578 51.1306 49.1235C49.0252 51.2628 47.0636 53.5335 45.2721 55.9353C43.4806 58.3241 41.859 60.8441 40.4206 63.456C38.9821 66.0678 37.7267 68.7716 36.6806 71.5672C36.5498 71.9085 36.419 72.2497 36.3013 72.6041C36.2229 72.8141 36.5759 72.906 36.6675 72.6828Z" fill="#4C4942"/>
<path d="M37.007 71.0291C37.7785 69.3885 38.4716 67.656 38.5893 65.8185C38.6547 64.8735 38.537 63.9416 38.3932 63.0229C38.2624 62.1435 38.1316 61.251 38.0924 60.3585C38.0532 59.4267 38.1316 58.4554 38.6416 57.6548C38.6808 57.6023 38.5893 57.5498 38.5632 57.6023C38.1316 58.2585 38.0008 59.046 37.9878 59.8204C37.9747 60.6735 38.0793 61.5266 38.197 62.3666C38.3408 63.3379 38.5239 64.296 38.5239 65.2804C38.5239 66.1992 38.3539 67.1048 38.1055 67.9841C37.8047 69.0079 37.3862 70.0054 36.9285 70.9766C36.9024 71.0291 36.9808 71.0816 37.007 71.0291ZM39.2562 66.0154C40.3939 64.2566 40.7339 62.1566 40.8778 60.1091C41.0216 58.0354 40.9955 55.9354 41.5055 53.901C41.7932 52.7854 42.2378 51.7092 42.9308 50.7773C42.9701 50.7248 42.8916 50.6854 42.8524 50.7248C41.6362 52.3523 41.1916 54.3867 41.0085 56.3817C40.8124 58.4816 40.8778 60.6079 40.4593 62.6685C40.2239 63.8366 39.8316 64.9654 39.1778 65.9629C39.1385 66.0154 39.217 66.0679 39.2562 66.0154ZM41.8716 61.2904C43.1532 59.361 43.4278 57.0117 43.8593 54.7804C44.2647 52.641 44.9578 50.5016 46.0693 48.6248C46.697 47.5748 47.4555 46.6298 48.3055 45.7504C48.3447 45.711 48.2793 45.6454 48.2401 45.6848C47.5078 46.4592 46.8147 47.286 46.2393 48.1917C45.6901 49.0448 45.2585 49.9504 44.8924 50.8954C44.4608 51.9717 44.1208 53.0742 43.8855 54.216C43.6501 55.3448 43.4801 56.4998 43.2316 57.6285C42.9439 58.9148 42.5255 60.1748 41.7932 61.2642C41.767 61.2904 41.8455 61.3429 41.8716 61.2904ZM45.7685 55.7254C46.6578 53.7698 47.3116 51.7354 48.1485 49.7667C48.8808 48.021 49.7832 46.3017 51.0124 44.8579C51.6924 44.0704 52.4639 43.3617 53.3401 42.8104C53.3924 42.7842 53.3401 42.6923 53.2878 42.7317C51.7447 43.716 50.5285 45.1335 49.587 46.6823C48.5278 48.4148 47.7955 50.3179 47.0893 52.2079C46.6447 53.376 46.2001 54.5573 45.6901 55.686C45.6639 55.7385 45.7424 55.7779 45.7685 55.7254ZM50.4108 50.2392C51.3916 47.7585 52.7516 45.4748 54.4255 43.3879C54.9093 42.7842 55.4193 42.1935 55.9293 41.616C55.9685 41.5767 55.9032 41.4979 55.8639 41.5504C54.0855 43.5454 52.4639 45.6979 51.2608 48.0998C50.9208 48.7954 50.607 49.491 50.3193 50.2129C50.3062 50.2654 50.3978 50.2917 50.4108 50.2392ZM53.8893 46.761C54.857 44.9498 56.0078 43.2435 57.3547 41.6817C57.747 41.2223 58.1655 40.776 58.5839 40.3429C58.6232 40.3035 58.5578 40.2379 58.5185 40.2773C57.0801 41.7473 55.7855 43.3617 54.7132 45.1204C54.3993 45.6454 54.0985 46.1704 53.8108 46.7085C53.7716 46.761 53.8632 46.8135 53.8893 46.761ZM36.9024 72.0791C37.6216 69.8479 39.6485 68.3254 41.7147 67.4198C44.1862 66.3435 46.867 65.9629 49.417 65.1098C50.7508 64.6635 52.0585 64.0729 53.1832 63.2198C53.2355 63.1804 53.1832 63.1016 53.1308 63.141C50.9993 64.7423 48.3578 65.3592 45.8339 66.0023C43.3885 66.6323 40.8647 67.341 38.9032 69.021C37.9616 69.8348 37.1901 70.8454 36.8108 72.0398C36.7978 72.1054 36.8893 72.1316 36.9024 72.0791ZM38.537 67.4723C39.1908 66.5142 39.8447 65.5298 40.7078 64.7423C41.1393 64.3485 41.6101 63.9941 42.1332 63.7316C42.7216 63.4429 43.3493 63.2591 43.9901 63.141C45.3239 62.8916 46.6839 62.8654 48.0308 62.7341C49.3385 62.6029 50.6462 62.3929 51.8885 61.9466C53.0524 61.5266 54.1116 60.8835 55.1839 60.2798C55.2362 60.2535 55.1839 60.1748 55.1316 60.201C54.1378 60.7523 53.157 61.356 52.0978 61.7629C50.8424 62.2485 49.5216 62.4848 48.1878 62.616C46.8539 62.7604 45.5201 62.7866 44.1993 62.9966C42.9832 63.1935 41.8585 63.6267 40.9039 64.4273C39.9101 65.2673 39.1647 66.3566 38.4455 67.4198C38.4193 67.4723 38.5108 67.5248 38.537 67.4723ZM41.2439 62.7473C41.8062 61.6185 42.7216 60.6735 43.8201 60.0566C44.3824 59.7416 44.9839 59.5054 45.6247 59.3742C46.4093 59.2035 47.2201 59.1773 48.0178 59.1117C49.3385 59.0198 50.6332 58.7835 51.8755 58.311C53.0524 57.8779 54.177 57.2742 55.1839 56.5129C56.3085 55.6729 57.2893 54.6623 58.0608 53.4942C58.1001 53.4417 58.0085 53.4023 57.9824 53.4417C56.5439 55.5942 54.3993 57.2348 51.9932 58.1535C50.7378 58.6391 49.417 58.9016 48.0701 58.9935C47.2985 59.046 46.527 59.0723 45.7685 59.2166C45.1539 59.3348 44.5655 59.5317 44.0032 59.8204C42.787 60.4373 41.767 61.4479 41.1524 62.6685C41.1393 62.7604 41.2178 62.7998 41.2439 62.7473ZM43.9378 58.1404C45.8208 55.9616 48.9724 55.9092 51.5224 55.0823C53.9416 54.2948 56.047 52.7198 57.7732 50.8692C58.7408 49.8323 59.5908 48.6904 60.3755 47.5091C60.4147 47.4566 60.3232 47.4173 60.297 47.4567C58.8847 49.5829 57.2239 51.5779 55.1578 53.0873C54.1247 53.8485 52.9739 54.4785 51.7708 54.8985C50.3847 55.3842 48.9201 55.5942 47.5208 56.001C46.1739 56.3948 44.827 56.9854 43.8855 58.0617C43.8332 58.1142 43.8985 58.1798 43.9378 58.1404Z" fill="#4C4942"/>
<path d="M46.4492 54.4784C47.8485 52.1553 50.6469 51.3284 52.9615 50.2916C55.3677 49.2022 57.4731 47.5747 59.3562 45.7241C60.4023 44.7003 61.37 43.6109 62.3115 42.4822C62.3508 42.4297 62.2854 42.3641 62.2462 42.4166C60.5462 44.4509 58.7154 46.4066 56.5969 48.0078C55.5377 48.8084 54.4131 49.5041 53.2231 50.0684C51.9546 50.6591 50.6338 51.1184 49.4046 51.7878C48.2146 52.4178 47.0769 53.2578 46.3708 54.4391C46.3315 54.4916 46.41 54.5309 46.4492 54.4784ZM52.8177 47.6534C53.5762 47.7716 54.2954 47.4828 54.9362 47.0759C55.6423 46.6166 56.27 46.0391 56.9108 45.5141C58.3623 44.3066 59.8139 43.0859 61.2654 41.8784C62.0892 41.1959 62.9 40.5134 63.7239 39.8309C63.7762 39.7916 63.6977 39.7259 63.6585 39.7653C62.2592 40.9334 60.86 42.1016 59.4477 43.2697C58.7415 43.8603 58.0485 44.4378 57.3423 45.0284C56.6623 45.5928 56.0085 46.1834 55.3023 46.7084C54.5962 47.2334 53.7592 47.6928 52.8438 47.5616C52.7915 47.5616 52.7654 47.6534 52.8177 47.6534ZM39.4662 65.6347C39.4138 62.9441 39.4531 60.2534 39.5708 57.5628C39.61 56.8016 39.6492 56.0403 39.7015 55.2922C39.7015 55.2266 39.61 55.2266 39.61 55.2922C39.44 57.9828 39.3485 60.6734 39.3485 63.3641C39.3485 64.1253 39.3615 64.8866 39.3746 65.6478C39.3746 65.6872 39.4662 65.6872 39.4662 65.6347ZM37.0077 70.9109C37.2823 69.8216 37.5438 68.7322 37.6092 67.6034C37.6354 67.0653 37.6223 66.5403 37.5438 66.0022C37.4523 65.4641 37.2823 64.9522 37.1254 64.4272C36.9554 63.8234 36.8115 63.2066 36.9162 62.5897C36.9292 62.5241 36.8377 62.5109 36.8246 62.5634C36.6415 63.6003 37.1123 64.5847 37.3477 65.5691C37.6223 66.6978 37.5308 67.8659 37.3215 68.9816C37.2038 69.6116 37.0469 70.2416 36.89 70.8716C36.9031 70.9503 36.9815 70.9766 37.0077 70.9109ZM36.72 72.2366C37.8577 71.0291 39.1523 69.7822 40.7346 69.1916C42.2515 68.6272 43.9123 68.7978 45.4946 68.6403C46.3446 68.5616 47.1815 68.3778 47.9269 67.9447C47.9792 67.9184 47.9269 67.8266 47.8746 67.8659C46.4362 68.6928 44.7231 68.5747 43.1277 68.6666C42.3431 68.7059 41.5585 68.7978 40.8131 69.0603C40.0415 69.3359 39.3485 69.7691 38.7077 70.2678C37.9754 70.8322 37.3085 71.4884 36.6677 72.1578C36.6023 72.2103 36.6808 72.2759 36.72 72.2366ZM38.0015 68.7191C39.5708 67.1703 41.2054 65.5559 43.2846 64.7159C45.56 63.7841 48.0446 64.1122 50.4246 63.7972C51.6277 63.6397 52.8438 63.3116 53.8508 62.6028C53.9031 62.5634 53.8508 62.4847 53.7985 62.5241C51.8369 63.9022 49.3131 63.7972 47.0246 63.9153C45.8215 63.9809 44.6054 64.1122 43.4677 64.5453C42.4608 64.9259 41.5323 65.5034 40.6823 66.1597C39.7146 66.9209 38.8254 67.7872 37.9492 68.6534C37.8969 68.6928 37.9623 68.7716 38.0015 68.7191ZM40.5385 63.7184C42.0946 61.9334 44.5662 61.3953 46.8023 61.1459C49.2215 60.8834 51.7585 60.8572 53.9685 59.7022C54.9885 59.1641 55.9038 58.4028 56.4531 57.3659C56.4792 57.3134 56.4008 57.2609 56.3746 57.3134C55.3154 59.3084 53.0138 60.2141 50.9085 60.5816C48.4369 61.0147 45.8608 60.8834 43.4546 61.7234C42.33 62.1172 41.2577 62.7209 40.4731 63.6397C40.4338 63.6922 40.4992 63.7578 40.5385 63.7184ZM42.8269 59.8728C44.3308 57.7334 47.1815 57.3659 49.5485 57.0247C50.8562 56.8278 52.1508 56.6047 53.38 56.1059C54.4262 55.6859 55.4069 55.0953 56.2831 54.3866C57.2769 53.5859 58.1269 52.6147 58.7808 51.5253C58.8069 51.4728 58.7285 51.4203 58.7023 51.4728C57.4992 53.4809 55.6292 55.0559 53.4715 55.9616C52.2554 56.4734 50.9738 56.7228 49.6662 56.9066C48.3585 57.1034 47.0377 57.2609 45.7823 57.7072C44.6054 58.1272 43.4677 58.7834 42.7354 59.8203C42.7092 59.8728 42.7877 59.9253 42.8269 59.8728Z" fill="#4C4942"/>
<path d="M45.9262 55.2528C46.7762 54.321 48.0185 53.901 49.1954 53.5466C50.3854 53.1791 51.5492 52.7722 52.6739 52.2341C54.91 51.171 56.9631 49.7272 58.7023 47.9685C59.67 46.9972 60.5331 45.921 61.2915 44.766C61.3308 44.7135 61.2392 44.661 61.2131 44.7135C59.8531 46.8003 58.1008 48.6116 56.1 50.0816C55.0931 50.8166 54.0339 51.4597 52.9223 52.011C51.7846 52.5753 50.6077 53.0085 49.4046 53.376C48.1492 53.7697 46.7892 54.1766 45.8739 55.1741C45.8215 55.2266 45.8869 55.2922 45.9262 55.2528ZM44.1346 57.8647C44.6446 57.1691 44.9062 56.3422 45.0892 55.5153C45.2854 54.6491 45.4423 53.7828 45.6646 52.9297C46.1485 51.1316 46.8154 49.386 47.6523 47.7191C48.1231 46.8003 48.6331 45.8947 49.2085 45.0285C49.2477 44.976 49.1562 44.9366 49.13 44.976C48.1231 46.5116 47.2731 48.1522 46.5931 49.8585C46.2531 50.7116 45.9654 51.5647 45.7039 52.4441C45.4554 53.3235 45.2723 54.216 45.0762 55.1085C44.88 56.0535 44.6316 57.0116 44.0431 57.8122C44.0169 57.8647 44.0954 57.9041 44.1346 57.8647ZM41.4146 62.2222C41.4931 61.0541 41.4931 59.886 41.5192 58.7178C41.5323 58.1403 41.5454 57.5497 41.5846 56.9722C41.6108 56.5653 41.6369 56.1716 41.7154 55.7647C41.8592 55.0166 42.1077 54.2816 42.3692 53.5597C42.67 52.746 43.01 51.9585 43.3762 51.1841C43.7162 50.4491 44.0954 49.7272 44.5139 49.0447C44.54 48.9922 44.4616 48.9397 44.4354 48.9922C43.6116 50.3178 42.9577 51.7616 42.3954 53.2053C42.1077 53.9535 41.8462 54.7147 41.6631 55.5022C41.4669 56.3816 41.4539 57.3003 41.4277 58.206C41.3885 59.5447 41.4015 60.8835 41.3231 62.2222C41.3231 62.2878 41.4146 62.2878 41.4146 62.2222ZM48.8292 51.801C49.13 50.436 49.6662 49.1235 50.2939 47.8766C50.9608 46.5772 51.7585 45.3303 52.6608 44.1753C53.1315 43.5716 53.6415 42.981 54.1908 42.4428C54.23 42.4035 54.1646 42.3378 54.1254 42.3772C53.1185 43.3747 52.2423 44.5035 51.4708 45.6847C50.6731 46.9053 49.9669 48.2047 49.4308 49.5697C49.1431 50.2785 48.9077 51.0135 48.7508 51.7616C48.7246 51.8403 48.8162 51.8666 48.8292 51.801ZM57.5646 43.611C57.7085 42.6397 58.48 41.931 59.1992 41.3272C59.8923 40.7497 60.6246 40.1591 60.9777 39.2928C61.0039 39.2403 60.9123 39.2141 60.8862 39.2666C60.18 41.0122 57.7739 41.616 57.4731 43.5847C57.46 43.6503 57.5515 43.6766 57.5646 43.611ZM27.2131 28.0316C25.0554 27.2966 23.1985 25.8922 21.7339 24.1597C20.3608 22.5322 19.3539 20.616 18.5823 18.6472C17.8108 16.6653 17.2485 14.5916 16.7254 12.531C16.1892 10.4572 15.6792 8.38346 14.9862 6.36221C14.3062 4.38033 13.4431 2.43783 12.24 0.705331C12.0831 0.482206 11.9262 0.272206 11.7692 0.0622057C11.6908 0.127831 11.6123 0.180331 11.5339 0.245956C13.4562 2.07033 15.7708 3.36971 18.0723 4.61658C20.4131 5.87658 22.78 7.11033 24.8592 8.77721C26.8862 10.4047 28.6385 12.3735 30.0115 14.5916C31.4108 16.836 32.3915 19.3035 32.8754 21.9022C33.3854 24.606 33.4508 27.4147 33.0454 30.1316C32.9931 30.4466 32.9408 30.7616 32.8885 31.0897C32.8492 31.2735 33.1369 31.3653 33.1762 31.1685C33.6992 28.4778 33.7385 25.6822 33.3592 22.9653C32.98 20.2878 32.1431 17.7285 30.8223 15.3791C29.5408 13.0953 27.88 11.0347 25.9316 9.30221C23.9177 7.51721 21.6162 6.19158 19.2623 4.91846C16.9215 3.65846 14.5154 2.41158 12.4623 0.679081C12.2139 0.469081 11.9785 0.259081 11.7431 0.0359558C11.6254 -0.0690442 11.4031 0.0753308 11.5077 0.219706C12.8023 1.92596 13.7569 3.85533 14.4892 5.86346C15.2346 7.89783 15.7577 9.98471 16.3069 12.0847C16.8431 14.1716 17.3792 16.2585 18.1246 18.2666C18.8569 20.2485 19.8116 22.1647 21.1062 23.8578C22.4792 25.6428 24.2708 27.1653 26.35 28.0447C26.6115 28.1497 26.8731 28.2547 27.1346 28.3466C27.3177 28.386 27.3962 28.0972 27.2131 28.0316Z" fill="#4C4942"/>
<path d="M26.8991 28.2548C29.096 28.7929 31.136 29.9479 32.9668 31.2604C33.1237 31.3786 33.2676 31.1161 33.1237 30.9979C31.2668 29.6723 29.2137 28.5173 26.9776 27.9661C26.7945 27.9136 26.716 28.2023 26.8991 28.2548Z" fill="#4C4942"/>
<path d="M33.1886 31.0897C32.574 28.8059 31.8025 26.5616 30.8609 24.3828C29.9325 22.2041 28.834 20.0909 27.6048 18.0566C26.3755 16.0222 25.0025 14.0666 23.4986 12.2291C21.9817 10.3653 20.334 8.60657 18.5686 6.96595C16.6463 5.18095 14.7502 3.38282 12.9848 1.4272C12.7755 1.19095 12.5663 0.954699 12.3571 0.718449C12.2263 0.574074 12.0171 0.784074 12.1478 0.928449C13.874 2.8972 15.744 4.74782 17.6663 6.5197C19.4317 8.1472 21.1186 9.84032 22.6748 11.6778C24.2178 13.5022 25.6171 15.4184 26.8986 17.4397C28.154 19.4347 29.2786 21.5347 30.2463 23.6872C31.214 25.8397 32.0248 28.0578 32.6786 30.3284C32.7571 30.6041 32.8355 30.8797 32.9009 31.1553C32.9532 31.3522 33.2409 31.2734 33.1886 31.0897Z" fill="#4C4942"/>
<path d="M32.7965 29.7904C32.2865 28.3991 31.8288 26.9291 31.8942 25.4329C31.9203 24.6716 32.1034 23.9235 32.2865 23.1885C32.4434 22.5191 32.5873 21.8498 32.6657 21.1673C32.7442 20.4585 32.718 19.7366 32.378 19.0935C32.3519 19.0541 32.2865 19.0935 32.3126 19.1329C32.6396 19.7366 32.6657 20.4454 32.6003 21.1148C32.5349 21.8235 32.378 22.5191 32.208 23.2016C32.038 23.8973 31.868 24.5929 31.8288 25.3148C31.7896 26.0235 31.868 26.7323 32.0119 27.4279C32.1819 28.2416 32.4434 29.0423 32.7311 29.8298C32.7442 29.856 32.8226 29.8429 32.7965 29.7904ZM31.3449 25.6823C29.7234 22.6635 30.9134 19.1066 30.3511 15.8779C30.1942 14.9985 29.9065 14.1454 29.4357 13.3841C29.4096 13.3448 29.3442 13.3841 29.3703 13.4235C31.2011 16.3373 30.0765 19.9466 30.4949 23.1491C30.6126 24.0416 30.8611 24.921 31.2796 25.7216C31.3057 25.761 31.3711 25.7216 31.3449 25.6823ZM29.5796 21.7841C28.6642 20.1173 28.6249 18.1879 28.4157 16.3373C28.2326 14.6441 27.8011 12.9379 27.0426 11.4154C26.6242 10.5623 26.088 9.78788 25.4865 9.05288C25.4603 9.01351 25.408 9.06601 25.4342 9.10538C25.9834 9.77476 26.4803 10.4835 26.8857 11.2579C27.2649 11.9929 27.5526 12.7541 27.788 13.5416C28.0496 14.421 28.2326 15.3135 28.3373 16.2191C28.4419 17.1248 28.4942 18.0435 28.638 18.936C28.7819 19.9335 29.0303 20.9179 29.5273 21.8104C29.5403 21.8629 29.6057 21.8235 29.5796 21.7841ZM26.8596 17.1379C25.7742 14.106 25.3165 10.7591 23.3549 8.10788C22.8711 7.46476 22.3219 6.88726 21.6811 6.40163C21.6419 6.37538 21.6026 6.44101 21.6419 6.46726C24.1526 8.37038 25.1073 11.4941 25.9311 14.3948C26.1926 15.3135 26.4672 16.2454 26.7942 17.151C26.8072 17.2035 26.8857 17.1904 26.8596 17.1379ZM23.5511 12.5179C22.9365 10.4966 22.008 8.60663 20.8311 6.84788C20.478 6.32288 20.1119 5.82413 19.7326 5.32538C19.7065 5.28601 19.6411 5.32538 19.6672 5.36476C20.9488 7.05788 22.0865 8.84288 22.8711 10.8116C23.0934 11.376 23.3026 11.9535 23.4726 12.5441C23.4857 12.5835 23.5642 12.5704 23.5511 12.5179ZM21.0142 9.53851C20.1642 7.58288 19.0526 5.79788 17.7057 4.15726C17.6796 4.11788 17.6272 4.17038 17.6534 4.20976C19.0003 5.83726 20.1119 7.62226 20.9488 9.57788C20.9749 9.61726 21.0403 9.57788 21.0142 9.53851ZM32.8226 30.6435C32.4042 28.8585 30.9526 27.5198 29.3965 26.6798C27.5396 25.6691 25.4603 25.1966 23.5119 24.396C22.4265 23.9498 21.3803 23.3985 20.4911 22.611C20.4519 22.5848 20.3996 22.6373 20.4388 22.6635C21.9426 23.9891 23.8649 24.6454 25.7349 25.2754C27.6703 25.9316 29.6842 26.601 31.188 28.0579C31.9334 28.7666 32.5219 29.6591 32.7572 30.6698C32.7572 30.7091 32.8357 30.696 32.8226 30.6435ZM31.8157 26.8766C31.3711 26.076 30.9134 25.2754 30.2857 24.5929C29.6449 23.8841 28.8473 23.3985 27.9449 23.136C26.9249 22.8341 25.8396 22.7291 24.7934 22.5454C23.7211 22.3616 22.6619 22.1254 21.668 21.7054C20.7396 21.2985 19.9157 20.7079 19.0657 20.1435C19.0265 20.1173 18.9872 20.1829 19.0265 20.2091C19.7588 20.6948 20.478 21.2198 21.2626 21.6004C22.1649 22.0466 23.1457 22.3223 24.1396 22.506C25.1857 22.7029 26.2449 22.821 27.278 23.0441C28.2719 23.2673 29.2003 23.6479 29.9457 24.3566C30.7042 25.0785 31.2273 26.0104 31.7373 26.916C31.7765 26.9554 31.8419 26.916 31.8157 26.8766ZM29.9849 22.9785C29.6319 22.086 29.0172 21.3248 28.2457 20.7604C27.8534 20.4716 27.4088 20.2354 26.9511 20.0779C26.3757 19.8679 25.7872 19.776 25.1857 19.6973C24.1003 19.5398 23.0411 19.3166 22.0342 18.8835C21.0926 18.4766 20.2165 17.9254 19.4319 17.2691C18.5688 16.521 17.8234 15.6416 17.2611 14.6441C17.2349 14.6048 17.1696 14.6441 17.1957 14.6835C18.1634 16.4029 19.6672 17.8073 21.4196 18.6998C22.3088 19.146 23.2634 19.4741 24.2442 19.6579C25.3949 19.8679 26.5719 19.9204 27.6311 20.4979C28.638 21.0491 29.4749 21.9416 29.9065 23.031C29.9326 23.0441 30.0111 23.031 29.9849 22.9785ZM28.1542 19.146C26.8596 17.3873 24.5188 17.0854 22.6226 16.3635C20.6611 15.6285 19.0396 14.2504 17.7449 12.6229C17.0257 11.7173 16.4111 10.746 15.8488 9.73538C15.8226 9.69601 15.7572 9.73538 15.7834 9.77476C16.738 11.5073 17.9019 13.1741 19.4057 14.4866C20.1642 15.1429 21.0011 15.7204 21.9034 16.1404C22.9496 16.626 24.0742 16.8885 25.1596 17.2691C26.2711 17.6629 27.3826 18.2141 28.1019 19.1854C28.1149 19.2248 28.1803 19.1854 28.1542 19.146Z" fill="#4C4942"/>
<path d="M26.4024 16.101C25.4739 14.2241 23.4208 13.3841 21.6816 12.4653C19.7854 11.4547 18.19 10.0372 16.7777 8.42283C16.0062 7.53033 15.287 6.59846 14.607 5.62721C14.5808 5.58783 14.5154 5.62721 14.5416 5.66658C15.7316 7.34658 17.0262 8.97408 18.5562 10.3522C19.3277 11.0478 20.1516 11.6778 21.0539 12.2028C22.0216 12.7672 23.0416 13.2135 23.9962 13.8041C24.9377 14.3816 25.827 15.1297 26.3239 16.1403C26.3631 16.1928 26.4285 16.1535 26.4024 16.101ZM21.7339 10.2735C21.0931 10.3128 20.5177 9.99783 20.0208 9.60408C19.5108 9.18408 19.0531 8.69846 18.5824 8.23908C17.5362 7.21533 16.49 6.19158 15.4439 5.16783C14.8554 4.59033 14.267 4.01283 13.6785 3.43533C13.6393 3.39596 13.587 3.44846 13.6262 3.48783C14.7116 4.55096 15.797 5.61408 16.8824 6.67721C17.4316 7.20221 17.9677 7.74033 18.517 8.26533C19.0008 8.73783 19.4716 9.24971 20.0077 9.66971C20.5047 10.0635 21.0931 10.3916 21.747 10.3391C21.7731 10.3522 21.7731 10.2735 21.7339 10.2735ZM31.2147 25.4066C31.4893 22.6766 31.6593 19.9335 31.7116 17.1903C31.7116 17.1378 31.6331 17.1378 31.6331 17.1903C31.5808 19.9335 31.4239 22.6766 31.1362 25.4066C31.1362 25.446 31.2147 25.446 31.2147 25.4066ZM32.8231 29.7116C32.64 28.5566 32.4439 27.3622 32.64 26.1941C32.7316 25.656 32.9408 25.1572 33.137 24.6453C33.32 24.1597 33.477 23.6741 33.4377 23.1491C33.4377 23.0966 33.3593 23.0966 33.3593 23.1491C33.4116 23.7135 33.2154 24.2385 33.0193 24.7635C32.81 25.2885 32.627 25.8003 32.5485 26.3647C32.3916 27.4935 32.5747 28.6353 32.7577 29.751C32.7577 29.7903 32.8231 29.7641 32.8231 29.7116ZM32.9408 30.7485C32.13 29.7247 31.2016 28.6878 30.0116 28.1103C28.8608 27.546 27.5531 27.5722 26.3108 27.3622C25.6177 27.2441 24.9247 27.0603 24.3362 26.6535C24.297 26.6272 24.2577 26.6928 24.297 26.7191C25.317 27.4147 26.5854 27.4803 27.7754 27.6247C28.4162 27.7035 29.057 27.8085 29.6454 28.0316C30.2862 28.281 30.8485 28.6878 31.3585 29.1472C31.9208 29.646 32.4177 30.2103 32.8754 30.801C32.9147 30.8403 32.967 30.7878 32.9408 30.7485ZM32.1562 27.8872C31.0316 26.5747 29.8547 25.2228 28.2985 24.4222C26.5854 23.5428 24.65 23.6085 22.8062 23.2541C21.7993 23.0572 20.8054 22.7291 20.0077 22.0728C19.9685 22.0466 19.9162 22.0991 19.9554 22.1253C21.3547 23.2803 23.2377 23.4116 24.9639 23.6216C25.9577 23.7397 26.9516 23.8972 27.88 24.3041C28.6908 24.6585 29.41 25.1835 30.0639 25.761C30.8093 26.4303 31.4631 27.1785 32.1039 27.9397C32.13 27.9791 32.1823 27.9266 32.1562 27.8872ZM30.4693 23.7791C29.41 22.3485 27.6447 21.7316 25.9708 21.4035C24.0354 21.0097 21.9693 20.8916 20.23 19.8678C19.3931 19.3822 18.6739 18.6997 18.2816 17.8072C18.2685 17.7678 18.2031 17.8072 18.2162 17.8466C18.8962 19.4085 20.5308 20.2878 22.1 20.7341C24.0354 21.2722 26.0885 21.3116 27.9716 22.0728C28.9131 22.4535 29.8024 23.0178 30.417 23.8447C30.4431 23.8447 30.5085 23.8185 30.4693 23.7791ZM28.9262 20.5897C27.9324 18.8966 25.8662 18.3716 24.0877 17.9647C23.0416 17.7285 21.9824 17.4922 20.9885 17.0328C20.1516 16.6391 19.367 16.1141 18.687 15.4841C17.9285 14.7753 17.2877 13.9353 16.817 13.0035C16.7908 12.9641 16.7254 13.0035 16.7516 13.0428C17.5493 14.6572 18.87 15.996 20.4524 16.8491C21.3416 17.3347 22.3093 17.6366 23.29 17.8597C24.3231 18.096 25.3693 18.2928 26.35 18.6866C27.3439 19.0803 28.2985 19.6841 28.8608 20.6291C28.887 20.6816 28.9524 20.6422 28.9262 20.5897Z" fill="#4C4942"/>
<path d="M26.7548 16.731C26.1794 15.9829 25.3032 15.5891 24.4532 15.2347C23.5247 14.8541 22.6094 14.4866 21.7332 13.9878C20.0071 13.0166 18.4509 11.7435 17.1694 10.2472C16.4501 9.40723 15.8094 8.48848 15.2863 7.5041C15.2601 7.46473 15.1947 7.5041 15.2209 7.54348C16.1494 9.26285 17.4047 10.7985 18.8824 12.0716C20.3601 13.3579 22.0471 14.3553 23.8778 15.0772C24.8978 15.4841 26.0094 15.8779 26.7155 16.7704C26.7286 16.8229 26.7809 16.7704 26.7548 16.731ZM28.0101 18.9228C27.6309 18.306 27.4871 17.5841 27.3955 16.8753C27.304 16.1797 27.2255 15.4841 27.0948 14.8016C26.8332 13.3841 26.4147 11.9929 25.8786 10.6672C25.5647 9.90598 25.2247 9.17098 24.8324 8.46223C24.8063 8.42285 24.7409 8.46223 24.7671 8.5016C25.4732 9.80098 26.0486 11.166 26.4801 12.5835C26.6894 13.266 26.8594 13.9747 27.0032 14.6704C27.1471 15.3791 27.2255 16.101 27.3171 16.8097C27.4086 17.5578 27.5524 18.306 27.9578 18.9622C27.9709 19.0016 28.0363 18.9622 28.0101 18.9228ZM29.8932 22.5847C29.9063 21.6397 29.9848 20.6947 30.0501 19.7497C30.1024 18.9754 30.1809 18.1879 30.0894 17.4266C29.9455 16.1404 29.514 14.8804 29.0563 13.6729C28.834 13.0822 28.5855 12.4916 28.2978 11.9141C28.2717 11.8747 28.2063 11.9141 28.2324 11.9535C28.7947 13.056 29.2263 14.2503 29.5794 15.4316C29.7494 16.0353 29.9063 16.6391 29.9978 17.256C30.1024 17.9779 30.0371 18.726 29.9978 19.4478C29.9324 20.4847 29.8409 21.5216 29.8278 22.5716C29.8148 22.6372 29.8932 22.6372 29.8932 22.5847ZM24.7017 13.8566C24.5447 12.741 24.2048 11.6516 23.7732 10.6147C23.3286 9.53848 22.7794 8.51473 22.1386 7.54348C21.7986 7.0316 21.4324 6.54597 21.0401 6.0866C21.014 6.04722 20.9617 6.09973 20.9878 6.1391C22.4524 7.85848 23.5771 9.94535 24.2178 12.0979C24.3878 12.6754 24.5317 13.266 24.6101 13.8697C24.6363 13.9222 24.7017 13.9091 24.7017 13.8566ZM18.3201 6.84785C18.2024 5.27285 16.3586 4.64285 15.9009 3.21223C15.8878 3.17285 15.8094 3.18598 15.8224 3.23848C16.0447 3.92098 16.5678 4.43285 17.0647 4.91848C17.6009 5.44348 18.1894 6.06035 18.2417 6.86098C18.2547 6.90035 18.3332 6.90035 18.3201 6.84785ZM38.8378 101.61H38.4586C38.4848 101.138 38.5109 100.665 38.5109 100.193C38.5632 97.4629 38.2101 94.7722 37.5432 92.1603C37.504 92.0028 37.4648 91.8454 37.4124 91.6879C37.0201 90.231 36.5363 88.7872 35.9609 87.3697C35.2417 85.5716 34.4048 83.826 33.5809 82.0672C33.3194 81.516 33.0709 80.9647 32.8224 80.4004C32.744 80.2429 32.6786 80.0853 32.6132 79.9278C32.064 78.6941 31.5409 77.4603 31.0309 76.2135C29.0171 71.331 27.2124 66.1991 27.1078 60.8441C27.0555 58.1928 27.5132 55.581 28.2455 53.0347C29.004 50.436 30.0109 47.9291 30.9132 45.396C31.8155 42.8497 32.6263 40.251 32.9794 37.5735C33.2671 35.4735 33.3063 33.2422 32.7701 31.1685C32.7048 30.9322 33.0709 30.8272 33.1363 31.0635C33.2278 31.3916 33.2932 31.7329 33.3455 32.061C34.1563 37.1535 32.4824 42.2197 30.7563 46.9447C29.8278 49.4778 28.8601 51.9978 28.2194 54.6228C27.5655 57.2741 27.3432 59.9647 27.5917 62.6816C28.0755 68.0891 30.1548 73.221 32.2601 78.1691C32.4432 78.6022 32.6394 79.0354 32.8224 79.4554C32.8878 79.6129 32.9663 79.7703 33.0317 79.9278C34.3655 82.8678 35.8171 85.7553 36.9286 88.7872C37.2294 89.6141 37.4909 90.4541 37.7263 91.3072C37.7655 91.4647 37.8047 91.6091 37.844 91.7666C38.6809 94.9691 39.0209 98.2766 38.8378 101.61ZM31.2663 94.1028C31.1748 96.6097 30.9655 99.1166 30.7171 101.61H30.3378C30.3509 101.466 30.364 101.335 30.3771 101.19C30.6386 98.5128 30.8609 95.8222 30.9132 93.1185C30.9524 91.0053 30.9001 88.8922 30.6778 86.7922C30.6386 86.4641 30.5994 86.136 30.5601 85.8078C30.534 85.5978 30.5078 85.3747 30.4686 85.1647C30.0894 82.5922 29.3963 80.0985 28.5463 77.6441C27.7224 75.2685 26.7417 72.9453 25.7478 70.6353C24.754 68.3122 23.734 66.0022 22.8186 63.6528C22.7271 63.4297 23.0932 63.3247 23.1847 63.5478C23.3024 63.8497 23.4201 64.1516 23.5378 64.4535C24.4794 66.8028 25.4994 69.126 26.4932 71.4491C27.474 73.7591 28.4286 76.0822 29.2263 78.471C29.9194 80.5841 30.4686 82.7366 30.8086 84.9285C30.8609 85.2172 30.9001 85.5191 30.9394 85.821C30.9524 85.8866 30.9524 85.9522 30.9655 86.0179C31.3055 88.7216 31.3578 91.4122 31.2663 94.1028Z" fill="#4C4942"/>
<path d="M36.6411 72.7091C35.5034 74.6253 34.4703 76.6203 33.568 78.6678C33.3849 79.0878 33.2019 79.5078 33.0319 79.9278C32.9665 80.0853 32.9011 80.2428 32.8357 80.4003C32.1165 82.1853 31.4888 83.9966 30.9396 85.8472C30.848 86.1622 30.7565 86.4772 30.678 86.7922C30.3772 87.9078 30.1026 89.0366 29.8672 90.1653C29.0826 93.9322 28.6903 97.7647 28.6772 101.61H28.298C28.298 99.5234 28.4157 97.4234 28.6511 95.3497C29.0172 92.1209 29.658 88.9316 30.5603 85.8078C30.6388 85.5191 30.7303 85.2434 30.8088 84.9547C30.9657 84.4691 31.1226 83.9703 31.2796 83.4847C31.6849 82.2772 32.1296 81.096 32.6134 79.9147C32.6788 79.7572 32.7442 79.5997 32.8096 79.4422C33.8165 77.0534 34.9803 74.7303 36.3142 72.4991C36.4449 72.3022 36.7719 72.4991 36.6411 72.7091ZM30.9265 74.7566C30.2857 69.4541 29.6449 63.9941 30.9919 58.7441C31.5934 56.3947 32.5872 54.1241 34.0649 52.2078C35.5165 50.3441 37.3734 48.8609 39.0865 47.2466C42.4996 44.0309 45.1803 39.9491 46.4226 35.3947C47.3642 31.9428 47.4557 28.3466 46.9719 24.816C46.7888 23.451 46.5142 22.1122 46.2265 20.7603C46.0303 19.8416 45.7819 18.9097 45.7034 17.9778C45.6903 17.8203 45.6772 17.676 45.6903 17.5185C45.7034 17.2691 45.3242 17.2691 45.3111 17.5185C45.2849 18.3322 45.5072 19.1722 45.6772 19.9597C45.9388 21.2066 46.2265 22.4403 46.4357 23.7003C47.0111 27.1128 47.1157 30.6172 46.3834 34.0166C45.4026 38.6103 42.9572 42.8497 39.6619 46.1703C38.0011 47.8372 36.1442 49.2941 34.5619 51.0397C32.9796 52.7985 31.8419 54.8853 31.0834 57.1297C29.3965 62.1566 29.7365 67.5378 30.3249 72.7091C30.4034 73.3916 30.4819 74.061 30.5603 74.7303C30.5734 75.006 30.9526 75.006 30.9265 74.7566ZM25.3426 94.6278C25.1726 96.9772 24.7934 99.3003 24.3749 101.61H23.9957C24.0219 101.492 24.048 101.361 24.0611 101.243C24.5188 98.7753 24.898 96.2816 25.0157 93.7747C25.1203 91.5041 25.0026 89.2203 24.5188 86.9891C24.048 84.8234 23.2503 82.7366 22.0211 80.8859C20.9488 79.2584 19.5365 77.8541 17.9019 76.791C16.2542 75.7278 14.3842 75.0191 12.4226 74.8353C12.1872 74.8091 12.1872 74.4284 12.4226 74.4547C12.6711 74.4809 12.9196 74.5072 13.1811 74.5466C15.1557 74.8484 17.0388 75.6753 18.6472 76.8434C20.2819 78.0247 21.668 79.5341 22.7011 81.2666C23.8649 83.1959 24.6103 85.3616 25.0157 87.5797C25.4472 89.9028 25.5126 92.2784 25.3426 94.6278ZM57.4465 73.6672C57.3419 73.9297 57.2242 74.2053 57.0934 74.4678C56.0996 76.5678 54.5826 78.3659 52.8565 79.9016C51.078 81.4766 49.1034 82.8153 47.1157 84.1278C45.128 85.4403 43.1142 86.7397 41.2703 88.2622C40.0019 89.3122 38.8249 90.4672 37.8311 91.7666C37.7265 91.8978 37.6349 92.0291 37.5434 92.1603C37.1249 92.7509 36.7457 93.3678 36.4057 94.0109C35.6865 95.3891 35.1634 96.9247 34.9803 98.4734C34.8496 99.5234 34.928 100.573 35.0719 101.61H34.6926C34.6796 101.545 34.6665 101.466 34.6665 101.4C34.4965 100.101 34.4965 98.8016 34.7711 97.5153C35.098 95.9666 35.6865 94.4572 36.4972 93.0922C36.7849 92.6066 37.0988 92.1341 37.4388 91.6878C37.5303 91.5566 37.6349 91.4253 37.7396 91.3072C38.8249 89.9291 40.1196 88.7216 41.4926 87.6322C43.3757 86.1359 45.4157 84.8366 47.4165 83.4978C49.3911 82.1853 51.3526 80.8334 53.0919 79.2059C54.7919 77.6178 56.2303 75.741 57.1065 73.5753C57.1719 73.3522 57.538 73.4441 57.4465 73.6672Z" fill="#4C4942"/>
<path d="M24.8587 96.3078C24.2572 96.9641 23.1587 97.1347 22.361 96.7803C21.3933 96.3472 20.7133 95.4284 20.2033 94.5359C19.1702 92.7247 18.7649 90.6509 18.1764 88.6691C17.8887 87.6847 17.5487 86.7003 17.0649 85.7816C16.5941 84.8628 15.9795 84.0359 15.221 83.3272C13.7041 81.8966 11.7556 80.9647 9.75486 80.4134C7.33563 79.7572 4.81179 79.6128 2.31409 79.5341C2.00025 79.5209 1.6864 79.5209 1.37256 79.5078C1.41179 79.6128 1.4641 79.7178 1.50333 79.8359C4.31486 77.5916 7.34871 75.2028 11.0495 74.8616C12.0695 74.7697 13.1026 74.8353 14.0833 75.0978C14.3187 75.1634 14.4233 74.7959 14.1879 74.7303C12.3702 74.2447 10.4479 74.4022 8.68256 74.9666C6.89102 75.5441 5.26948 76.5153 3.75256 77.6178C2.90256 78.2478 2.07871 78.9041 1.25486 79.5734C1.12409 79.6784 1.24179 79.8884 1.38563 79.9016C3.92256 79.9672 6.48563 80.0459 8.97025 80.6234C11.0495 81.1091 13.0895 81.9622 14.711 83.3928C15.4956 84.0753 16.1364 84.8891 16.6464 85.8078C17.1433 86.7266 17.4964 87.7109 17.7972 88.7084C18.3987 90.7166 18.8172 92.8034 19.8372 94.6541C20.3472 95.5597 21.001 96.4653 21.9164 96.9903C22.7533 97.4628 23.7864 97.4759 24.6233 96.9903C24.8064 96.8853 24.9764 96.7541 25.1202 96.5966C25.2902 96.3997 25.0156 96.1241 24.8587 96.3078Z" fill="#4C4942"/>
<path d="M25.1464 96.544C25.7087 95.5072 26.1533 94.3915 26.5325 93.2759C26.951 92.029 27.3041 90.7428 27.5525 89.4434C28.0625 86.7396 28.1148 83.8653 27.2256 81.2271C26.4671 78.9828 25.0287 77.014 23.1587 75.5703C21.2494 74.0871 18.9479 73.1815 16.5548 72.9978C14.031 72.8009 11.4287 73.3653 9.20559 74.5859C8.93098 74.7303 8.66944 74.9009 8.4079 75.0715C8.21174 75.2028 8.39482 75.5309 8.60405 75.3996C10.6702 74.0346 13.1417 73.3259 15.6133 73.339C17.9933 73.3521 20.321 74.074 22.2956 75.4128C24.1525 76.6728 25.6694 78.4446 26.5587 80.5053C27.631 83.0253 27.7356 85.8734 27.3302 88.5509C27.1341 89.8109 26.8333 91.0578 26.4671 92.2653C26.1141 93.4203 25.6956 94.5753 25.1725 95.6647C25.0679 95.8878 24.9502 96.124 24.8194 96.3472C24.7148 96.5572 25.0417 96.754 25.1464 96.544ZM38.7464 90.3753C38.511 88.5509 38.6287 86.674 39.2825 84.9415C39.9364 83.2484 41.1002 81.844 42.591 80.8203C44.0425 79.8228 45.6902 79.1534 47.3379 78.6021C49.0248 78.0246 50.751 77.5521 52.4248 76.8959C54.0594 76.2528 55.6548 75.4259 56.9494 74.2184C57.1064 74.074 57.2633 73.9165 57.4071 73.759C57.3025 73.7196 57.1979 73.6671 57.0802 73.6278C56.9887 75.4915 56.5964 77.3421 55.9425 79.0878C55.2756 80.8334 54.3471 82.4871 53.1833 83.944C52.0848 85.3221 50.7902 86.5297 49.3517 87.5534C47.9002 88.5772 46.3179 89.404 44.6571 89.9947C42.7087 90.6903 40.6556 91.0315 38.6287 91.4647C38.3671 91.5172 38.1187 91.5696 37.8571 91.6353C37.6217 91.6878 37.7264 92.0553 37.9617 92.0028C40.041 91.5303 42.1464 91.2021 44.1864 90.559C45.9125 90.0078 47.5733 89.2072 49.0771 88.2097C50.5679 87.2253 51.9148 86.0309 53.0787 84.679C54.3079 83.2353 55.3148 81.6078 56.0471 79.8621C56.7794 78.1165 57.2502 76.2659 57.4071 74.389C57.4333 74.1528 57.4464 73.9034 57.4594 73.6671C57.4725 73.5096 57.2502 73.4178 57.1325 73.5359C55.9164 74.8484 54.3341 75.7409 52.6864 76.4234C51.0125 77.119 49.2733 77.6046 47.5602 78.169C45.8733 78.7334 44.1864 79.3765 42.6956 80.3478C41.1787 81.319 39.9364 82.6578 39.1779 84.2984C38.4064 85.9784 38.1579 87.8684 38.3017 89.7059C38.3148 89.9421 38.341 90.1784 38.3802 90.4278C38.4064 90.6115 38.7856 90.6115 38.7464 90.3753ZM32.5741 54.3734C31.8679 53.4153 31.6325 52.2209 31.7502 51.0528C31.8679 49.8059 32.3648 48.664 33.0317 47.614C33.751 46.4853 34.6533 45.5009 35.5556 44.5165C36.4579 43.519 37.3471 42.5084 38.171 41.4321C39.8056 39.3321 41.2571 37.1009 42.4471 34.7121C43.6764 32.2578 44.631 29.659 45.2064 26.9684C45.8079 24.2122 46.0302 21.3772 45.7817 18.5684C45.7556 18.214 45.7164 17.8597 45.6641 17.5184C45.5464 17.5447 45.4287 17.584 45.311 17.6103C46.7364 20.5371 48.1617 23.4772 49.1687 26.5747C50.1625 29.6459 50.7117 32.914 50.3325 36.1428C50.0056 38.9384 48.9071 41.5896 47.3379 43.9128C45.7425 46.2753 43.6633 48.2834 41.3487 49.9109C38.9294 51.604 36.2617 52.9165 33.4894 53.9271C33.1494 54.0453 32.8094 54.1765 32.4694 54.2815C32.2471 54.3603 32.3387 54.7278 32.5741 54.649C35.4248 53.6909 38.1841 52.444 40.7079 50.8034C43.1271 49.2284 45.3241 47.2859 47.0633 44.9628C48.7502 42.7184 50.0056 40.1196 50.5287 37.3634C51.1433 34.1478 50.7771 30.814 49.9141 27.6771C49.0248 24.5009 47.6256 21.4821 46.2002 18.5159C46.0171 18.1484 45.8471 17.7809 45.6641 17.4134C45.5856 17.2559 45.2848 17.3215 45.311 17.5053C45.6641 20.3403 45.5594 23.2147 45.0233 26.0103C44.5133 28.7665 43.611 31.4309 42.3948 33.9509C41.231 36.3659 39.8056 38.6496 38.1841 40.789C37.3733 41.8521 36.5102 42.889 35.6079 43.8734C34.7187 44.8578 33.8033 45.8421 33.0317 46.9315C31.6587 48.874 30.7694 51.4728 31.8287 53.7696C31.9464 54.0321 32.1033 54.2815 32.2733 54.5178C32.391 54.754 32.7179 54.5703 32.5741 54.3734Z" fill="#4C4942"/>
<path d="M38.7989 90.2703C39.1258 89.7191 39.3612 89.1022 39.4658 88.4591C39.5705 87.7766 39.5574 87.0809 39.6358 86.3984C39.7666 85.1778 40.1851 83.9966 40.7997 82.9334C41.1528 82.3166 41.5712 81.7259 42.042 81.1878C42.0812 81.1484 42.0158 81.0697 41.9766 81.1222C41.1789 82.0409 40.5251 83.0647 40.0805 84.2066C39.8581 84.7709 39.6881 85.3616 39.5966 85.9653C39.492 86.6347 39.492 87.3172 39.4266 87.9866C39.3481 88.7872 39.1258 89.5353 38.7074 90.2309C38.6812 90.2834 38.7597 90.3228 38.7989 90.2703ZM39.322 89.8634C40.1589 88.7478 40.7474 87.5009 41.0351 86.1228C41.192 85.4009 41.2835 84.6659 41.4666 83.9572C41.6366 83.2616 41.8851 82.5922 42.1858 81.9491C42.3558 81.5947 42.5389 81.2534 42.7481 80.9122C42.9443 80.5972 43.1666 80.2822 43.5066 80.1116C43.5589 80.0853 43.5197 80.0066 43.4543 80.0328C42.892 80.3084 42.5781 80.9647 42.3035 81.4766C41.9766 82.0934 41.702 82.7497 41.5058 83.4191C41.0612 84.8497 41.0089 86.3722 40.4205 87.7634C40.1066 88.4853 39.7012 89.1678 39.2305 89.8109C39.2043 89.8634 39.2828 89.9159 39.322 89.8634ZM40.6297 88.6428C41.2181 88.0916 41.8328 87.5272 42.2512 86.8316C42.6828 86.1359 42.8397 85.3353 42.9443 84.5347C43.0489 83.7209 43.1274 82.8809 43.4151 82.1066C43.6766 81.4109 44.0689 80.7809 44.5658 80.2428C45.1412 79.6259 45.8474 79.1272 46.632 78.7991C46.6843 78.7728 46.6581 78.6809 46.6058 78.7072C45.2851 79.2584 44.1605 80.2822 43.5328 81.5816C43.1928 82.2772 43.0489 83.0253 42.9443 83.7997C42.8266 84.6659 42.7612 85.5716 42.3951 86.3722C41.9897 87.2516 41.2705 87.9209 40.5643 88.5772C40.512 88.6166 40.5905 88.6822 40.6297 88.6428Z" fill="#4C4942"/>
<path d="M42.8793 86.9235C44.187 85.9916 44.2393 84.2722 44.697 82.8679C45.1678 81.411 46.0701 80.0985 47.2993 79.1797C48.0316 78.6285 48.8555 78.2085 49.6662 77.7885C49.7185 77.7622 49.6662 77.6835 49.6139 77.7098C48.8816 78.0904 48.1624 78.4579 47.4824 78.9304C46.8678 79.3635 46.3055 79.8754 45.8478 80.4791C45.4162 81.0304 45.0762 81.6472 44.8016 82.2904C44.4878 83.0516 44.357 83.8522 44.1478 84.6397C43.9255 85.4797 43.5593 86.3198 42.8401 86.8316C42.7747 86.871 42.827 86.9497 42.8793 86.9235Z" fill="#4C4942"/>
<path d="M44.4221 85.6766C46.8283 83.9834 46.959 80.6891 48.9075 78.6416C49.4306 78.0903 50.0583 77.6572 50.7906 77.4472C50.8429 77.4341 50.8298 77.3422 50.7644 77.3553C47.8875 78.2216 47.3383 81.5553 45.9783 83.7997C45.5598 84.4953 45.0367 85.1253 44.3698 85.5978C44.3175 85.6372 44.3698 85.7159 44.4221 85.6766ZM46.6059 84.4559C47.7698 83.6816 48.7898 82.6972 49.6006 81.5422C50.4767 80.2953 51.0652 78.8516 52.0067 77.6309C52.4906 77.0009 53.079 76.4497 53.7852 76.0691C53.8375 76.0428 53.7852 75.9641 53.7329 75.9903C52.5167 76.6597 51.6929 77.8147 50.9998 78.9828C50.5944 79.6784 50.2283 80.3872 49.7967 81.0566C49.4044 81.6734 48.9598 82.2378 48.4498 82.7628C47.8744 83.3666 47.2336 83.9047 46.5406 84.3641C46.5144 84.4034 46.5536 84.4822 46.6059 84.4559ZM46.4359 84.3378C47.2729 83.3928 47.966 82.3166 48.6198 81.2272C49.2606 80.1641 49.8621 79.0353 50.6336 78.0641C51.0521 77.5391 51.549 77.0666 52.2029 76.8697C52.2552 76.8566 52.2421 76.7647 52.1767 76.7778C51.0652 77.1322 50.3983 78.1822 49.7967 79.1141C49.0906 80.2166 48.4629 81.3716 47.7306 82.4609C47.3121 83.0909 46.8675 83.6947 46.3706 84.2591C46.3183 84.3116 46.3836 84.3772 46.4359 84.3378ZM50.359 81.7391C51.1175 81.1878 51.7713 80.4922 52.2813 79.6916C52.7913 78.8909 53.0921 77.9853 53.4844 77.1191C53.7198 76.6203 53.9813 76.1216 54.3475 75.7016C54.3867 75.6622 54.3213 75.5834 54.2821 75.6359C53.6806 76.3316 53.3406 77.1716 53.0006 78.0116C52.6213 78.9172 52.1898 79.7703 51.549 80.5184C51.1829 80.9384 50.7644 81.3191 50.3198 81.6472C50.2675 81.6866 50.3198 81.7653 50.359 81.7391ZM53.3275 79.2716C54.8967 78.2084 55.0013 76.1216 56.0998 74.7041C56.139 74.6516 56.0736 74.5859 56.0344 74.6384C54.949 76.0428 54.8313 78.1428 53.2883 79.1928C53.2359 79.2322 53.2752 79.3109 53.3275 79.2716ZM38.119 91.5172C41.0221 89.2991 44.9321 89.7584 48.1883 88.4066C48.999 88.0653 49.7706 87.6191 50.4244 87.0153C50.4636 86.9759 50.3983 86.9103 50.359 86.9497C49.1036 88.1178 47.4298 88.6691 45.7952 89.0366C44.0429 89.4172 42.2383 89.6009 40.5252 90.1784C39.649 90.4803 38.8121 90.8741 38.0667 91.4384C38.0275 91.4778 38.0667 91.5566 38.119 91.5172ZM38.8252 90.4147C40.2244 89.0497 42.0159 88.2097 43.8729 87.6847C44.8667 87.4091 45.8867 87.2122 46.9067 87.0547C47.809 86.9234 48.6983 86.8184 49.5875 86.6216C50.5552 86.3984 51.5098 86.0703 52.3206 85.4797C52.3729 85.4403 52.3206 85.3616 52.2683 85.4009C50.7644 86.5034 48.8552 86.6872 47.0636 86.9497C45.089 87.2384 43.1144 87.6716 41.3098 88.5641C40.3683 89.0366 39.4921 89.6272 38.7467 90.3622C38.7206 90.3884 38.7859 90.4541 38.8252 90.4147ZM40.7736 88.4459C42.3036 87.3959 44.069 86.7791 45.8344 86.2803C47.6129 85.7684 49.4306 85.3616 51.1698 84.6791C52.1244 84.3116 53.0398 83.8653 53.8898 83.2878C53.9421 83.2484 53.8898 83.1697 53.8375 83.2091C52.3075 84.2591 50.5421 84.8628 48.7636 85.3747C46.9852 85.8866 45.1675 86.2934 43.4283 86.9759C42.4736 87.3434 41.5583 87.7897 40.7083 88.3672C40.6821 88.4066 40.7344 88.4853 40.7736 88.4459Z" fill="#4C4942"/>
<path d="M38.3407 90.9791C39.7007 89.9947 41.2176 89.2204 42.813 88.7085C43.6107 88.446 44.4215 88.2491 45.2584 88.1179C46.0953 87.9866 46.9453 87.8947 47.7822 87.7635C48.7107 87.6191 49.6261 87.396 50.4761 86.9891C50.5284 86.9629 50.4892 86.8841 50.4238 86.9104C48.8807 87.6585 47.1284 87.7372 45.4546 87.9866C43.8069 88.236 42.2115 88.7216 40.7207 89.4435C39.8707 89.8504 39.0599 90.336 38.2884 90.8872C38.2492 90.9266 38.2884 91.0054 38.3407 90.9791ZM43.0745 86.8054C45.7945 84.8629 49.2338 84.771 52.2545 83.5372C53.0915 83.196 53.8892 82.7629 54.5953 82.2247C54.6476 82.1854 54.5953 82.1066 54.543 82.146C51.8884 84.1804 48.4361 84.3116 45.4153 85.4666C44.5653 85.7947 43.7545 86.2016 43.0222 86.7266C42.983 86.7529 43.0353 86.8316 43.0745 86.8054ZM46.3438 84.3772C47.7169 83.9047 49.0899 83.4322 50.463 82.9597C51.143 82.7235 51.8099 82.4872 52.4899 82.2641C53.0653 82.0672 53.6407 81.8835 54.1899 81.6472C54.7653 81.3979 55.3015 81.0697 55.6938 80.571C55.733 80.5185 55.6676 80.4529 55.6284 80.5054C54.9092 81.4372 53.6669 81.7654 52.5946 82.1329C51.2607 82.5922 49.9269 83.0516 48.593 83.511C47.8345 83.7735 47.0761 84.036 46.3176 84.2985C46.2653 84.2985 46.2915 84.3904 46.3438 84.3772ZM48.3969 82.881C49.613 82.461 50.8161 82.0147 51.993 81.5291C52.5815 81.2929 53.1699 81.0435 53.7453 80.7941C54.2945 80.5579 54.8699 80.3347 55.3799 80.0197C55.8507 79.7179 56.2561 79.2454 56.243 78.6679C56.243 78.6022 56.1515 78.6022 56.1515 78.6679C56.1645 79.2585 55.733 79.7047 55.2622 79.9935C54.7784 80.2822 54.2292 80.4922 53.7061 80.7285C52.5815 81.2141 51.4438 81.6735 50.3061 82.1066C49.6653 82.3429 49.0245 82.5791 48.3838 82.8022C48.3184 82.8154 48.3445 82.9072 48.3969 82.881Z" fill="#4C4942"/>
<path d="M50.8162 81.2798C52.6077 80.4135 54.7915 79.9673 56.06 78.2873C56.3608 77.8935 56.5831 77.4473 56.6746 76.9485C56.6877 76.8829 56.5962 76.8698 56.5831 76.9223C56.1777 78.9173 54.0854 79.836 52.3985 80.4923C51.8492 80.7154 51.3 80.9254 50.7639 81.1748C50.7115 81.2273 50.7639 81.306 50.8162 81.2798Z" fill="#4C4942"/>
<path d="M52.8303 79.7834C54.4126 78.9172 56.1257 77.9722 57.0542 76.3578C57.0803 76.3053 57.0019 76.2528 56.9757 76.3053C56.0473 77.9197 54.3473 78.8384 52.778 79.7047C52.7257 79.7309 52.778 79.8097 52.8303 79.7834ZM24.8065 96.0584C22.9103 95.8484 21.1188 94.8772 19.8896 93.4203C19.5496 93.0134 19.2619 92.5672 19.0134 92.0816C18.9873 92.0291 18.9088 92.0684 18.935 92.1341C19.798 93.8666 21.3934 95.1791 23.198 95.7959C23.7211 95.9797 24.2573 96.0978 24.7934 96.1503C24.8719 96.1634 24.8719 96.0716 24.8065 96.0584Z" fill="#4C4942"/>
<path d="M24.9899 95.3759C24.7153 94.9953 24.3753 94.6278 23.9307 94.4572C23.5776 94.3128 23.1853 94.2997 22.8061 94.2472C21.5507 94.0634 20.5438 93.2234 19.7853 92.239C19.3015 91.6222 18.8961 90.9397 18.4515 90.2834C18.4122 90.2309 18.3338 90.2834 18.373 90.3359C19.1315 91.4647 19.7984 92.6722 20.8838 93.5122C21.3415 93.8665 21.8515 94.1553 22.4138 94.2865C22.8061 94.3784 23.1984 94.3784 23.5907 94.4703C24.153 94.6015 24.5584 94.9822 24.8984 95.4415C24.9507 95.4678 25.0292 95.4284 24.9899 95.3759ZM25.0815 94.4178C24.9638 93.3022 24.0092 92.5147 23.0415 92.0815C21.8515 91.5434 20.5176 91.3597 19.4322 90.6247C18.883 90.2572 18.4122 89.7453 18.2422 89.089C18.2291 89.0365 18.1376 89.0497 18.1507 89.1153C18.4384 90.1784 19.4322 90.8478 20.3868 91.2415C21.603 91.7403 22.9761 91.9372 24.0092 92.7903C24.5061 93.2103 24.9115 93.7615 24.9899 94.4309C24.9899 94.4703 25.0945 94.4703 25.0815 94.4178Z" fill="#4C4942"/>
<path d="M25.2254 93.9584C25.1208 92.4753 24.8592 90.7034 23.3946 89.9422C22.7015 89.5878 21.9039 89.5353 21.1454 89.404C20.4131 89.2728 19.7069 89.0365 19.0792 88.6559C18.3731 88.2228 17.7715 87.6322 17.3923 86.9103C17.3662 86.8578 17.2877 86.9103 17.3139 86.9628C17.9546 88.1703 19.1708 88.9972 20.4654 89.3647C21.2239 89.5747 22.0085 89.6009 22.7669 89.8109C23.5254 90.034 24.1269 90.5065 24.5192 91.2022C24.99 92.0422 25.0815 93.0265 25.16 93.9847C25.1339 94.024 25.2254 94.024 25.2254 93.9584Z" fill="#4C4942"/>
<path d="M25.2777 92.4097C25.2515 90.7035 25.1469 88.7085 23.6431 87.606C22.9762 87.1204 22.1654 86.8972 21.3808 86.7266C20.5177 86.5429 19.6546 86.3722 18.8177 86.0572C17.8369 85.7029 16.8954 85.2041 16.0454 84.6004C15.9931 84.561 15.9538 84.6529 15.9931 84.6791C16.7123 85.191 17.4969 85.611 18.3077 85.9522C19.1054 86.2804 19.9423 86.5035 20.7792 86.6872C21.5769 86.8579 22.3877 87.0022 23.12 87.3829C23.8915 87.7897 24.4408 88.4591 24.7546 89.2597C25.1469 90.2572 25.16 91.3466 25.1862 92.3966C25.1862 92.4754 25.2777 92.4754 25.2777 92.4097ZM25.0815 87.8554C24.8069 86.3197 23.6692 85.0204 22.2308 84.4691C21.3415 84.1279 20.3738 84.0622 19.4323 83.9966C18.5169 83.9179 17.6015 83.826 16.6992 83.6029C15.7315 83.3666 14.79 82.986 13.9792 82.3822C13.9269 82.3429 13.8877 82.4216 13.9269 82.461C15.3131 83.4979 17.0523 83.8654 18.7392 84.0229C19.6677 84.1147 20.6092 84.141 21.5246 84.351C22.3615 84.5479 23.1331 84.9416 23.7608 85.5454C24.4015 86.1754 24.8331 86.976 24.99 87.8685C25.0031 87.9472 25.0946 87.921 25.0815 87.8554ZM24.1792 84.5872C23.97 83.8391 23.5385 83.1829 22.9631 82.6841C22.3223 82.146 21.5377 81.8441 20.7138 81.726C18.9354 81.4766 17.1831 82.0016 15.4046 82.041C14.4108 82.0672 13.4038 81.9229 12.5408 81.4241C12.4885 81.3979 12.4362 81.4766 12.4885 81.5029C13.9662 82.3691 15.7577 82.1722 17.3792 81.9622C19.0792 81.7391 21.0146 81.4766 22.5315 82.4741C23.29 82.9729 23.8523 83.7341 24.1008 84.6135C24.1138 84.666 24.2054 84.6397 24.1792 84.5872Z" fill="#4C4942"/>
<path d="M22.7793 81.8966C22.6878 81.2272 22.217 80.6891 21.6547 80.361C20.9747 79.9541 20.1639 79.8229 19.3924 79.7441C18.5424 79.6522 17.6662 79.5997 16.8293 79.8229C16.0447 80.046 15.3385 80.4529 14.5931 80.8072C13.717 81.2141 12.7231 81.5291 11.7685 81.2404C11.7162 81.2272 11.6901 81.3191 11.7424 81.3322C13.3247 81.8179 14.7631 80.7547 16.1493 80.1641C16.947 79.8229 17.7708 79.7179 18.6339 79.7704C19.4578 79.8229 20.3208 79.9016 21.0924 80.2035C21.8508 80.4922 22.557 81.0829 22.6878 81.9229C22.6878 81.9885 22.7793 81.9622 22.7793 81.8966Z" fill="#4C4942"/>
<path d="M21.3017 79.3634C21.0663 78.6284 20.1379 78.3003 19.471 78.1166C18.6471 77.8934 17.771 77.8803 16.921 77.9984C15.0379 78.2478 13.3379 79.1272 11.5725 79.7572C10.6571 80.0853 9.74173 80.2691 8.77404 80.3084C8.70865 80.3084 8.70865 80.4003 8.77404 80.4003C9.57173 80.3741 10.3563 80.2428 11.1279 80.0066C11.9648 79.7441 12.7887 79.3897 13.5994 79.0747C15.2602 78.4184 17.0256 77.8278 18.8302 78.0903C19.301 78.1559 19.7587 78.2741 20.2033 78.4709C20.6217 78.6547 21.0794 78.9172 21.2233 79.3897C21.2363 79.4422 21.3279 79.4159 21.3017 79.3634ZM19.0917 77.1978C17.6663 76.3184 15.9271 76.0428 14.2925 76.3316C13.4556 76.4759 12.671 76.7909 11.9517 77.2372C11.154 77.7359 10.4479 78.3791 9.66327 78.9041C8.74789 79.5209 7.6625 80.0066 6.53789 79.8491C6.4725 79.8359 6.45942 79.9278 6.51173 79.9409C8.43404 80.2297 9.93788 78.7991 11.3763 77.7491C12.1087 77.2109 12.8802 76.7909 13.7563 76.5547C14.5802 76.3316 15.4563 76.2659 16.3063 76.3578C17.274 76.4628 18.2025 76.7778 19.0394 77.2766C19.0917 77.3159 19.144 77.2372 19.0917 77.1978ZM15.2079 75.2291C13.6387 74.9141 11.9648 74.8091 10.4348 75.3734C9.82019 75.5966 9.23173 75.9378 8.73481 76.3841C8.1725 76.8828 7.81942 77.5391 7.42712 78.1691C6.99558 78.8778 6.44635 79.5734 5.60942 79.7966C5.55712 79.8097 5.57019 79.9016 5.63558 79.8884C7.10019 79.5078 7.53173 77.8934 8.40789 76.8434C9.37558 75.7147 10.8663 75.1766 12.3179 75.0847C13.2725 75.0191 14.2402 75.1372 15.1817 75.3209C15.2471 75.3341 15.2733 75.2422 15.2079 75.2291Z" fill="#4C4942"/>
<path d="M11.1673 74.6647C10.6834 74.5466 10.1342 74.6516 9.66345 74.7697C9.07498 74.9141 8.4996 75.1241 7.96345 75.3866C7.74114 75.5047 7.51883 75.6228 7.3096 75.7803C7.03498 75.9903 6.7996 76.266 6.56421 76.5285C6.02806 77.1322 5.55729 77.8016 5.00806 78.4053C4.43268 79.0353 3.68729 79.6522 2.79806 79.6653C2.73268 79.6653 2.73268 79.7572 2.79806 79.7572C4.32806 79.7309 5.30883 78.1953 6.17191 77.1322C6.60345 76.6072 7.04806 76.0297 7.63652 75.6622C8.14652 75.3472 8.72191 75.1241 9.31037 74.9535C9.87268 74.7828 10.5527 74.6122 11.1411 74.7434C11.2065 74.7697 11.2327 74.6778 11.1673 74.6647ZM25.1727 94.9166C25.4081 92.9084 26.4804 91.1497 27.5004 89.4566C27.5265 89.4041 27.4481 89.3516 27.4219 89.4041C26.3888 91.1103 25.3165 92.8953 25.0811 94.9166C25.0681 94.9691 25.1596 94.9691 25.1727 94.9166ZM25.3034 91.9766C25.3688 90.8084 26.0227 89.8109 26.5458 88.8134C27.0558 87.8159 27.3565 86.766 27.5134 85.6503C27.605 85.0335 27.6704 84.4035 27.7227 83.7866C27.7227 83.721 27.6311 83.721 27.6311 83.7866C27.5265 84.9153 27.4219 86.0572 27.1081 87.1597C26.9511 87.7241 26.7288 88.2491 26.4673 88.7741C26.2058 89.2728 25.9181 89.7584 25.6827 90.2703C25.4342 90.8084 25.2511 91.3859 25.2119 91.9766C25.2119 92.0291 25.3034 92.0291 25.3034 91.9766ZM25.0811 89.9422C25.2511 86.8578 26.6504 83.9047 26.3365 80.7809C26.2581 79.9934 26.0619 79.2191 25.7219 78.5103C25.6958 78.4578 25.6173 78.4972 25.6434 78.5628C26.9773 81.3847 25.9442 84.5347 25.3558 87.4091C25.1858 88.2491 25.0419 89.0891 25.0027 89.9553C24.9765 90.0078 25.0681 90.0078 25.0811 89.9422ZM24.7804 86.9103C24.3096 85.2041 25.0027 83.4716 25.0419 81.7653C25.0811 80.0328 24.4011 78.3659 23.4727 76.9484C22.9365 76.1347 22.3219 75.3734 21.6681 74.6384C21.6288 74.5991 21.5634 74.6647 21.6027 74.7041C22.7665 76.0297 23.865 77.4472 24.4796 79.1141C24.7804 79.9278 24.9634 80.781 24.9504 81.6472C24.9504 82.5266 24.7673 83.3797 24.6496 84.246C24.5188 85.1385 24.4534 86.0572 24.7019 86.9366C24.7019 87.0022 24.7934 86.9759 24.7804 86.9103Z" fill="#4C4942"/>
<path d="M23.7736 83.5504C23.5775 81.7523 23.3682 79.9148 22.7013 78.2216C22.0998 76.686 21.0929 75.3604 19.7459 74.4023C19.0005 73.8641 18.1636 73.4441 17.2744 73.1685C17.2221 73.1554 17.1959 73.2473 17.2482 73.2604C18.7782 73.746 20.1644 74.6516 21.2105 75.8723C22.3482 77.211 22.9367 78.8648 23.2636 80.571C23.4598 81.5554 23.5644 82.5529 23.6821 83.5373C23.6952 83.616 23.7867 83.616 23.7736 83.5504Z" fill="#4C4942"/>
<path d="M21.7203 80.1641C21.2234 78.7991 20.7003 77.421 19.8373 76.2397C19.4188 75.6754 18.935 75.1635 18.3596 74.7566C17.745 74.3235 17.065 74.0085 16.3588 73.7722C15.535 73.4966 14.6719 73.326 13.8088 73.221C13.7434 73.2079 13.7434 73.3129 13.8088 73.3129C15.2996 73.5097 16.8165 73.8641 18.085 74.691C19.288 75.4785 20.1119 76.6597 20.7134 77.946C21.0665 78.681 21.3411 79.4422 21.6288 80.2035C21.6419 80.2429 21.7334 80.2166 21.7203 80.1641Z" fill="#4C4942"/>
<path d="M17.4838 76.161C16.0845 74.6648 14.0184 73.8642 11.9914 73.9035C11.4161 73.9167 10.8407 73.9954 10.2784 74.1529C10.2261 74.166 10.2391 74.2579 10.3045 74.2448C12.2661 73.7198 14.4238 74.0742 16.1238 75.1635C16.5945 75.4654 17.0391 75.8329 17.4184 76.2398C17.4576 76.266 17.5361 76.2004 17.4838 76.161ZM32.6922 54.0717C32.7184 52.7067 32.7445 51.3417 32.7707 49.9767C32.7968 48.9004 32.7315 47.6142 33.5161 46.7742C33.5553 46.7348 33.4899 46.6692 33.4507 46.7085C32.8753 47.3254 32.7314 48.1654 32.6922 48.9792C32.6399 50.0292 32.6399 51.0923 32.6268 52.1554C32.6138 52.7985 32.6007 53.4285 32.5876 54.0717C32.6007 54.1373 32.6922 54.1373 32.6922 54.0717ZM33.2022 53.061C33.2545 52.5492 33.4507 52.0635 33.6338 51.591C33.8168 51.1185 33.9738 50.6592 34.013 50.1473C34.1045 49.071 33.7645 48.0079 33.843 46.9317C33.8691 46.551 33.9084 45.921 34.3268 45.7504C34.3791 45.7242 34.353 45.6323 34.3007 45.6585C33.9738 45.7898 33.8561 46.1704 33.7907 46.4985C33.7122 46.9842 33.7253 47.4698 33.7645 47.9554C33.8168 48.5329 33.9214 49.1104 33.9214 49.701C33.9345 50.2785 33.8168 50.8167 33.6076 51.3548C33.3984 51.906 33.1368 52.4573 33.0845 53.061C33.0976 53.1135 33.1891 53.1135 33.2022 53.061ZM34.1961 51.9192C34.8499 51.1054 35.2684 50.121 35.3861 49.0842C35.4514 48.5198 35.4122 47.9554 35.3338 47.391C35.2422 46.8004 35.1376 46.1967 35.1638 45.5929C35.1899 44.9892 35.373 44.3723 35.8176 43.926C35.8568 43.8867 35.7914 43.821 35.7522 43.8604C35.0199 44.6085 35.0068 45.711 35.1376 46.6823C35.2161 47.2992 35.3468 47.9029 35.3338 48.5329C35.3207 49.0842 35.2291 49.6223 35.0591 50.1473C34.8499 50.7642 34.5361 51.3417 34.1307 51.8404C34.0914 51.8929 34.1568 51.9717 34.1961 51.9192ZM36.0661 49.701C36.7068 48.966 37.1514 48.0604 37.3214 47.1023C37.413 46.6298 37.4261 46.1442 37.3738 45.6585C37.3084 45.0548 37.1514 44.4773 37.0861 43.8735C37.0207 43.2698 37.073 42.6398 37.3999 42.1279C37.4261 42.0754 37.3476 42.0229 37.3214 42.0754C36.7461 42.981 37.0076 44.0573 37.1907 45.0417C37.3868 46.0917 37.3215 47.1417 36.9161 48.1392C36.6938 48.6904 36.3799 49.1892 35.9876 49.6354C35.9615 49.6879 36.0268 49.7535 36.0661 49.701ZM35.5691 50.5148C35.9484 49.4254 36.1968 48.2835 36.2884 47.1285C36.3799 45.9735 36.3014 44.8185 36.0791 43.6898C36.0661 43.6242 35.9745 43.6504 35.9876 43.716C36.2099 44.8448 36.2884 45.9867 36.1968 47.1285C36.1053 48.2704 35.8438 49.3992 35.4776 50.4885C35.4645 50.541 35.5561 50.5673 35.5691 50.5148ZM38.1061 47.9817C38.6684 47.0629 38.9953 45.9867 38.9953 44.9104C38.9953 44.3329 38.9038 43.7685 38.7861 43.2042C38.6684 42.6267 38.5245 42.0492 38.5638 41.4585C38.603 40.8679 38.7991 40.2773 39.2568 39.8835C39.2961 39.8442 39.2307 39.7785 39.1915 39.8179C38.4068 40.5004 38.3938 41.6029 38.5638 42.561C38.6814 43.1779 38.8514 43.7817 38.8907 44.4117C38.9299 44.9892 38.8907 45.5798 38.7599 46.1442C38.6161 46.7742 38.3676 47.391 38.0276 47.9423C38.0015 47.9817 38.0799 48.0342 38.1061 47.9817ZM39.7799 46.4329C40.5907 45.6454 40.8391 44.4904 40.813 43.3879C40.7868 42.7054 40.6691 42.0229 40.5776 41.3535C40.4861 40.7235 40.4207 40.0804 40.3945 39.4504C40.3684 38.7679 40.4207 38.0592 40.7738 37.4685C40.7999 37.416 40.7215 37.3635 40.6953 37.416C40.1068 38.3873 40.2899 39.6604 40.4076 40.7367C40.5514 42.0492 40.9045 43.3748 40.6168 44.6873C40.473 45.3173 40.1984 45.921 39.7276 46.3804C39.6622 46.4067 39.7276 46.4723 39.7799 46.4329Z" fill="#4C4942"/>
<path d="M39.2302 46.9053C40.2502 45.186 39.7925 43.1385 39.531 41.2878C39.4394 40.671 39.3741 40.0541 39.361 39.4372C39.361 39.3716 39.2694 39.3716 39.2694 39.4372C39.2825 40.7628 39.5964 42.0491 39.7271 43.3616C39.8448 44.556 39.7794 45.816 39.1517 46.866C39.1256 46.9053 39.2041 46.9578 39.2302 46.9053ZM41.2702 44.7922C42.2248 43.4797 42.2248 41.7997 42.1594 40.251C42.1202 39.3191 42.0548 38.3872 42.1856 37.4685C42.3033 36.6285 42.6302 35.841 42.9179 35.0535C43.2318 34.2266 43.5064 33.3603 43.4017 32.4678C43.3887 32.4022 43.2971 32.4022 43.3102 32.4678C43.5064 34.1216 42.4341 35.5653 42.1464 37.1403C41.8325 38.8335 42.2117 40.5528 42.0548 42.246C41.9633 43.1385 41.7279 44.0178 41.1917 44.7528C41.1525 44.7922 41.231 44.8316 41.2702 44.7922ZM43.3756 41.931C43.7156 40.461 43.1925 38.991 43.3756 37.521C43.4279 37.101 43.5325 36.681 43.7025 36.2872C43.8725 35.8803 44.0948 35.4997 44.2256 35.0797C44.4741 34.3185 44.5656 33.5178 44.631 32.7172C44.7094 31.7328 44.7094 30.7222 44.461 29.7641C44.4479 29.7116 44.3564 29.7247 44.3694 29.7903C44.5787 30.6435 44.6048 31.536 44.5525 32.4153C44.5002 33.2422 44.4217 34.0953 44.1864 34.896C44.0687 35.316 43.8725 35.6835 43.6894 36.0772C43.5194 36.4447 43.4018 36.8385 43.3233 37.2322C43.1925 37.9541 43.2448 38.676 43.3102 39.3978C43.3887 40.2247 43.4671 41.0647 43.271 41.8916C43.271 41.9703 43.3625 41.9835 43.3756 41.931Z" fill="#4C4942"/>
<path d="M44.1862 40.4085C44.9577 37.1272 45.7292 33.7672 45.4939 30.381C45.4285 29.4622 45.2846 28.5435 45.0623 27.651C45.0492 27.5985 44.9577 27.6116 44.9708 27.6772C45.8077 30.9453 45.4023 34.3578 44.7223 37.6128C44.5262 38.5447 44.3169 39.4635 44.0946 40.3822C44.0816 40.4478 44.1731 40.4741 44.1862 40.4085ZM46.4616 35.0272C46.7492 32.376 46.6316 29.6853 46.1216 27.0735C45.9777 26.3253 45.7946 25.5903 45.5854 24.8685C45.5723 24.816 45.4808 24.8291 45.4939 24.8947C46.2262 27.4672 46.5792 30.1316 46.5139 32.8091C46.5008 33.5572 46.4485 34.3053 46.37 35.0403C46.3569 35.0928 46.4616 35.0928 46.4616 35.0272ZM32.8616 54.1503C33.3846 53.061 34.4831 52.431 35.5816 52.0241C36.7585 51.6041 38.0008 51.4597 39.2169 51.1578C39.8839 50.9872 40.5377 50.751 41.1131 50.3703C41.1654 50.331 41.1131 50.2522 41.0608 50.2916C39.9754 51.0135 38.6285 51.1972 37.36 51.4466C36.1962 51.6828 34.9931 52.011 33.9992 52.7066C33.4892 53.061 33.0446 53.5335 32.77 54.0978C32.7569 54.1635 32.8354 54.2028 32.8616 54.1503Z" fill="#4C4942"/>
<path d="M33.6993 52.6279C34.4316 51.4991 35.5432 50.6329 36.7855 50.1472C37.4132 49.8979 38.0932 49.7272 38.7732 49.6747C39.5316 49.6091 40.277 49.7666 41.0355 49.7272C41.637 49.701 42.4216 49.5697 42.8139 49.0579C42.8532 49.0054 42.7878 48.9397 42.7485 48.9922C42.3562 49.491 41.5716 49.6091 40.9701 49.6354C40.1985 49.6616 39.4401 49.5172 38.6685 49.596C37.3608 49.7272 36.1055 50.226 35.0593 51.0266C34.497 51.4597 34.0001 51.9847 33.6078 52.5885C33.5816 52.6279 33.6601 52.6804 33.6993 52.6279ZM35.7262 50.226C36.6547 49.3466 37.7924 48.7297 39.0216 48.4016C39.6624 48.231 40.3162 48.1654 40.9832 48.1654C41.6762 48.1654 42.3693 48.1916 43.0624 48.0997C43.6508 48.021 44.2785 47.8897 44.697 47.4435C44.7362 47.4041 44.6708 47.3385 44.6316 47.3779C44.2132 47.8241 43.5724 47.9422 42.997 48.021C42.2908 48.1129 41.5716 48.0604 40.8655 48.0735C39.6362 48.0866 38.4201 48.3885 37.3347 48.966C36.7332 49.281 36.1708 49.6879 35.6739 50.1604C35.6216 50.2129 35.687 50.2785 35.7262 50.226Z" fill="#4C4942"/>
<path d="M37.2298 48.756C38.1583 47.8766 39.296 47.2466 40.5252 46.9053C41.1529 46.7347 41.8067 46.6428 42.4475 46.6166C43.1537 46.5903 43.8598 46.6428 44.566 46.5378C45.2067 46.446 45.8083 46.1966 46.2791 45.7372C46.3183 45.6978 46.2529 45.6322 46.2137 45.6716C45.1806 46.6822 43.6767 46.4722 42.356 46.5247C41.1267 46.5772 39.9106 46.9053 38.8121 47.4828C38.2106 47.811 37.6614 48.2047 37.1644 48.6772C37.1252 48.7297 37.1906 48.7953 37.2298 48.756ZM39.7275 46.6428C40.6691 45.8291 41.676 44.976 42.9314 44.7135C43.6375 44.5691 44.3698 44.6347 45.0891 44.5428C45.6906 44.4641 46.266 44.241 46.8021 43.9522C47.4037 43.611 47.9529 43.191 48.5021 42.7578C48.5544 42.7185 48.4891 42.6528 48.4367 42.6922C47.4298 43.4797 46.3444 44.3066 45.0367 44.4641C44.3567 44.5428 43.6506 44.4772 42.9706 44.6216C42.3691 44.7397 41.8067 45.0022 41.2967 45.3303C40.7214 45.6978 40.1852 46.1441 39.6752 46.5903C39.6229 46.6166 39.6883 46.6822 39.7275 46.6428ZM41.3229 44.5691C43.2321 42.6135 46.3837 43.191 48.476 41.5635C48.9598 41.1828 49.3521 40.7103 49.5744 40.1328C49.6006 40.0803 49.5091 40.0541 49.4829 40.1066C49.0514 41.2747 47.9006 41.9572 46.7891 42.3378C45.5206 42.771 44.1737 42.9153 42.9314 43.4272C42.3167 43.6766 41.7283 44.0178 41.2575 44.5035C41.2052 44.5428 41.2837 44.6085 41.3229 44.5691ZM42.3821 43.2697C42.9183 43.0203 43.1929 42.4953 43.5067 42.0228C43.8991 41.4191 44.4352 40.9991 45.0891 40.6841C45.8083 40.3428 46.5667 40.146 47.3121 39.8703C47.9921 39.621 48.6329 39.2928 49.2344 38.8728C49.7837 38.4922 50.5029 37.9935 50.5421 37.2585C50.5421 37.1928 50.4506 37.1928 50.4506 37.2585C50.4114 37.9803 49.6529 38.466 49.1167 38.8335C48.5152 39.2403 47.8614 39.5685 47.1683 39.8178C45.9129 40.2641 44.4483 40.566 43.6114 41.6947C43.2191 42.2197 42.9706 42.9022 42.3429 43.1778C42.2775 43.2172 42.3298 43.296 42.3821 43.2697ZM43.8991 41.1828C44.0298 39.8178 45.1806 38.8466 46.266 38.1641C46.8675 37.7835 47.4952 37.4553 48.0837 37.0616C48.6329 36.6941 49.1298 36.261 49.5614 35.7622C50.0321 35.211 50.4114 34.5941 50.686 33.9247C50.7121 33.8722 50.6206 33.846 50.5944 33.8985C50.0583 35.211 49.1167 36.2741 47.9398 37.0485C46.8021 37.7966 45.5075 38.361 44.6052 39.4241C44.1737 39.936 43.8729 40.5266 43.8075 41.196C43.7944 41.2485 43.886 41.2485 43.8991 41.1828ZM45.1152 38.361C45.4814 37.101 46.6583 36.3528 47.6652 35.631C48.1752 35.2635 48.6591 34.8828 49.0775 34.4235C49.4698 33.9772 49.7837 33.4916 50.0321 32.9535C50.2937 32.376 50.4637 31.746 50.5291 31.116C50.5291 31.0503 50.4375 31.0503 50.4375 31.116C50.3067 32.3366 49.7837 33.4916 48.9729 34.4103C48.1229 35.3553 46.9591 35.9066 46.0437 36.7728C45.586 37.206 45.1937 37.731 45.0106 38.3478C45.0106 38.3872 45.1021 38.4135 45.1152 38.361ZM46.1091 35.6441C47.3383 33.426 48.9729 31.2997 49.2998 28.7141C49.3914 28.0316 49.3783 27.336 49.2344 26.6535C49.2214 26.5878 49.1298 26.6141 49.1429 26.6797C49.6791 29.226 48.3583 31.641 47.1029 33.7541C46.7367 34.371 46.3706 34.9747 46.0175 35.6047C46.0044 35.6441 46.0829 35.6966 46.1091 35.6441ZM46.7498 33.2685C47.1814 31.9822 47.4952 30.6566 47.7567 29.3178C48.0183 27.9922 48.2667 26.6797 48.2537 25.3278C48.2537 24.5797 48.1752 23.8185 48.0183 23.0835C48.0052 23.0178 47.9137 23.0441 47.9267 23.1097C48.2144 24.4222 48.2144 25.7741 48.0575 27.1128C47.9791 27.7822 47.8352 28.4516 47.7044 29.1078C47.5737 29.7641 47.4298 30.4203 47.2729 31.0635C47.0898 31.7985 46.8937 32.5203 46.6452 33.2422C46.6452 33.3078 46.7367 33.321 46.7498 33.2685ZM47.0637 26.3385C47.3252 24.6978 47.4167 23.0441 47.3514 21.3772C47.3514 21.3116 47.2598 21.3116 47.2598 21.3772C47.3252 23.031 47.2337 24.6847 46.9721 26.3122C46.9591 26.3647 47.0506 26.391 47.0637 26.3385Z" fill="#4C4942"/>
</svg>
