<svg width="116" height="116" viewBox="0 0 116 116" fill="none" xmlns="http://www.w3.org/2000/svg">
<circle cx="58" cy="58" r="58" fill="#F5F5F5"/>
<path d="M58.301 107.295C52.0896 106.75 45.7967 104.444 42.2764 100.065C39.4901 96.6004 38.729 92.235 38.9736 88.0607C39.2454 83.4771 40.9172 78.6479 45.1578 75.7968C50.1868 72.4137 57.5263 72.6319 62.8135 69.5489C68.2909 66.3568 71.1996 59.8906 77.71 58.7311C82.005 57.9671 86.4902 60.0134 89.1542 62.9736C91.8182 65.9339 93.0007 69.6444 93.8569 73.3004C95.2977 79.4119 95.9501 86.0008 92.9055 91.6894C89.9017 97.2961 84.1117 100.57 78.5799 104.212C73.3199 107.677 64.8115 107.868 58.301 107.295Z" fill="#D5B9B2"/>
<path d="M60.5032 34.2989C60.1362 38.1458 58.0567 41.4471 56.018 44.6256C52.9598 49.4138 50.5133 63.6694 33.945 59.8224C27.3394 58.2809 22.1066 51.8284 20.4484 45.6215C19.3883 41.6654 20.4077 37.7229 21.4406 33.9715C23.6289 25.9502 25.1376 5.41943 38.3759 8.88441C48.7736 11.6127 61.5362 23.672 60.5032 34.2989Z" fill="#ECE2D0"/>
<path d="M37.9269 67.721C35.7658 66.9025 33.9173 65.4019 32.4766 63.6012C31.1038 61.8687 30.1116 59.8497 29.3777 57.7626C28.6437 55.6754 28.1409 53.5064 27.6651 51.3373C27.1894 49.1683 26.7273 46.9993 26.0885 44.8848C25.4497 42.7976 24.6342 40.7377 23.4517 38.8961C23.3022 38.6642 23.1527 38.4459 22.9896 38.214C22.908 38.2822 22.8265 38.3368 22.7449 38.405C24.6478 40.3421 26.972 41.7609 29.2961 43.125C31.6475 44.5028 34.0532 45.8534 36.1328 47.6404C38.1715 49.4002 39.9249 51.4874 41.2704 53.8201C42.6432 56.1938 43.581 58.7857 44.0024 61.5004C44.4373 64.3242 44.3965 67.2572 43.8801 70.0673C43.8121 70.3947 43.7441 70.7358 43.6762 71.0632C43.6354 71.2542 43.9344 71.336 43.9752 71.145C44.614 68.3621 44.7635 65.4428 44.4645 62.6054C44.315 61.1866 44.0432 59.7952 43.6354 58.431C43.2412 57.135 42.7112 55.8664 42.0859 54.6659C40.8355 52.265 39.1773 50.0686 37.2201 48.2134C35.2085 46.3172 32.8708 44.8712 30.5058 43.4797C28.1409 42.1019 25.7215 40.7377 23.6828 38.8825C23.4381 38.6642 23.1935 38.4323 22.9624 38.1867C22.8401 38.064 22.609 38.2277 22.7178 38.3777C24.009 40.1921 24.906 42.2383 25.5856 44.3391C26.2788 46.4672 26.7545 48.6636 27.2302 50.8462C27.7059 53.0289 28.1952 55.2252 28.902 57.3397C29.5952 59.4405 30.5194 61.4731 31.8242 63.2602C33.1698 65.1154 34.9367 66.7115 37.0298 67.6801C37.2881 67.8028 37.5599 67.912 37.8317 68.0075C38.0356 68.0893 38.1172 67.7892 37.9269 67.721Z" fill="#4C4942"/>
<path d="M37.6006 67.9392C39.8569 68.5803 41.9092 69.8354 43.7713 71.2541C43.9344 71.3769 44.0839 71.104 43.9344 70.9813C42.0587 69.5489 39.9792 68.2802 37.6958 67.6254C37.4919 67.5845 37.4103 67.8846 37.6006 67.9392Z" fill="#4C4942"/>
<path d="M43.9886 71.0768C43.4449 68.6895 42.7246 66.3295 41.8275 64.0377C40.944 61.7459 39.8839 59.5087 38.6878 57.3669C37.4782 55.2115 36.1326 53.1516 34.6375 51.1872C33.1424 49.2092 31.4978 47.3403 29.7445 45.5805C27.8145 43.6707 25.9252 41.7335 24.1719 39.66C23.968 39.4145 23.7641 39.1689 23.5603 38.9234C23.4379 38.7733 23.2205 38.9916 23.3428 39.1416C25.0553 41.2424 26.9174 43.2205 28.8338 45.1167C30.5872 46.8628 32.2725 48.6499 33.8084 50.6006C35.3443 52.5378 36.7306 54.5977 37.9675 56.7394C39.1907 58.8539 40.2781 61.0502 41.2023 63.3147C42.1265 65.5792 42.8877 67.9119 43.4721 70.2856C43.5401 70.5721 43.608 70.8722 43.676 71.1587C43.7439 71.3633 44.043 71.2814 43.9886 71.0768Z" fill="#4C4942"/>
<path d="M43.6354 69.7399C43.1461 68.2666 42.7384 66.7251 42.8607 65.1699C42.9286 64.3924 43.1325 63.6421 43.35 62.8781C43.5403 62.1824 43.717 61.4867 43.8257 60.7637C43.9208 60.0543 43.9208 59.304 43.5946 58.6492C43.5675 58.6083 43.4995 58.6492 43.5267 58.6901C43.8529 59.3449 43.8393 60.0952 43.7306 60.8046C43.6218 61.514 43.4451 62.2097 43.2548 62.8918C43.051 63.6148 42.8471 64.3241 42.7791 65.0744C42.7112 65.7974 42.7655 66.5341 42.8879 67.2571C43.0374 68.1165 43.282 68.9487 43.5539 69.7672C43.581 69.8081 43.6626 69.7808 43.6354 69.7399ZM42.2898 65.4291C40.7268 62.237 42.086 58.6083 41.6238 55.2388C41.5015 54.3248 41.2297 53.4381 40.7676 52.6332C40.7404 52.5923 40.6724 52.6332 40.6996 52.6742C42.4801 55.7572 41.1753 59.4541 41.5015 62.7963C41.5967 63.7239 41.8141 64.6379 42.2219 65.47C42.2491 65.511 42.317 65.47 42.2898 65.4291ZM40.6045 61.3366C39.7074 59.5632 39.7618 57.5306 39.5987 55.5935C39.4628 53.861 39.0822 52.1012 38.3754 50.5188C37.9677 49.6321 37.4512 48.8136 36.8667 48.036C36.8396 47.9951 36.7716 48.036 36.7988 48.0769C37.3289 48.7863 37.8182 49.5229 38.1987 50.3141C38.5657 51.0781 38.8375 51.8829 39.055 52.7014C39.2997 53.6291 39.4628 54.5703 39.5307 55.5389C39.6123 56.4938 39.6259 57.4624 39.7346 58.4173C39.8569 59.4404 40.0744 60.4636 40.5365 61.3775C40.5637 61.4185 40.6316 61.3775 40.6045 61.3366ZM37.9677 56.4393C36.9619 53.2744 36.6085 49.823 34.7057 47.0129C34.2299 46.3171 33.6727 45.6896 33.0203 45.1576C32.9795 45.1303 32.9251 45.1849 32.9659 45.2122C35.4804 47.272 36.3638 50.5188 37.1114 53.5472C37.356 54.5294 37.6007 55.498 37.8997 56.4665C37.9133 56.5075 37.9813 56.4802 37.9677 56.4393ZM34.7192 51.5419C34.162 49.4274 33.2785 47.4494 32.1232 45.5941C31.7834 45.0348 31.4165 44.5028 31.0359 43.9571C31.0087 43.9162 30.9408 43.9571 30.9679 43.998C32.2184 45.7851 33.3329 47.6677 34.0804 49.7412C34.2979 50.3414 34.4882 50.9553 34.6513 51.5692C34.6513 51.6101 34.7328 51.5828 34.7192 51.5419ZM32.2184 48.377C31.4165 46.3308 30.3291 44.4346 28.9835 42.6884C28.9564 42.6475 28.902 42.7021 28.9292 42.743C30.2612 44.4755 31.3349 46.3581 32.1368 48.4043C32.1504 48.4316 32.232 48.4179 32.2184 48.377ZM43.6354 70.613C43.2684 68.7304 41.8005 67.298 40.2103 66.3704C38.3075 65.2518 36.16 64.7061 34.162 63.7921C33.0882 63.301 32.0417 62.7008 31.1718 61.8686C31.131 61.8277 31.0767 61.8959 31.1174 61.9232C32.6261 63.3556 34.5969 64.0922 36.4998 64.8152C38.4706 65.5519 40.5093 66.3158 42.018 67.8573C42.7655 68.6213 43.35 69.5626 43.5675 70.6402C43.5675 70.6812 43.6354 70.6675 43.6354 70.613ZM42.7384 66.6842C42.3034 65.8384 41.8549 64.9926 41.2433 64.2559C40.6045 63.5056 39.8025 62.9873 38.8783 62.6735C37.8453 62.3188 36.7444 62.1824 35.6707 61.9641C34.5697 61.7459 33.4688 61.4594 32.4494 60.9819C31.498 60.5318 30.6553 59.877 29.799 59.2631C29.7583 59.2358 29.7175 59.304 29.7583 59.3313C30.5058 59.8633 31.2398 60.4363 32.0553 60.8728C32.9795 61.3639 33.9853 61.664 34.9911 61.8959C36.0512 62.1415 37.1386 62.2915 38.1987 62.5507C39.2181 62.8099 40.1559 63.2328 40.8899 63.9967C41.651 64.7743 42.1675 65.7565 42.6568 66.7251C42.684 66.766 42.7519 66.7251 42.7384 66.6842ZM40.985 62.5917C40.6452 61.664 40.0472 60.8455 39.2725 60.2453C38.8783 59.9315 38.4298 59.6723 37.9541 59.495C37.3696 59.2631 36.758 59.154 36.1464 59.0448C35.0183 58.8402 33.9445 58.581 32.9115 58.0899C31.9601 57.6397 31.0631 57.0395 30.2884 56.3165C29.4185 55.5116 28.6845 54.5703 28.1409 53.5199C28.1137 53.479 28.0457 53.5199 28.0729 53.5609C29.0107 55.3752 30.5194 56.8758 32.2999 57.858C33.2106 58.3627 34.1892 58.7311 35.195 58.9357C36.3774 59.1949 37.6007 59.2904 38.6744 59.9179C39.7074 60.5318 40.5229 61.4867 40.9307 62.6189C40.9307 62.6599 40.9986 62.6326 40.985 62.5917ZM39.2317 58.5537C37.9541 56.6848 35.5212 56.2892 33.5775 55.4707C31.5796 54.6386 29.935 53.138 28.6709 51.4055C27.9778 50.4642 27.3797 49.4411 26.8496 48.4043C26.8225 48.3634 26.7545 48.4043 26.7817 48.4452C27.7059 50.2732 28.8476 52.033 30.3563 53.4517C31.1039 54.1611 31.9601 54.775 32.8708 55.2524C33.9173 55.7845 35.0726 56.0982 36.1736 56.5211C37.3153 56.9713 38.4706 57.5715 39.1773 58.6083C39.1909 58.6356 39.2589 58.5946 39.2317 58.5537Z" fill="#4C4942"/>
<path d="M37.5329 55.3479C36.6359 53.3562 34.502 52.415 32.735 51.3918C30.8322 50.2868 29.2556 48.7726 27.8692 47.0674C27.0945 46.1261 26.4013 45.1167 25.7353 44.1072C25.7081 44.0662 25.6402 44.1072 25.6674 44.1481C26.8362 45.9352 28.1139 47.654 29.6497 49.1409C30.4109 49.8776 31.2264 50.546 32.1098 51.1053C33.0884 51.7329 34.135 52.224 35.1 52.8651C36.065 53.5063 36.9757 54.3111 37.465 55.4025C37.4921 55.4298 37.5601 55.3888 37.5329 55.3479ZM32.9117 49.1546C32.2593 49.1819 31.6885 48.8408 31.1992 48.4316C30.6827 47.995 30.2342 47.4767 29.7721 46.9856C28.7119 45.8806 27.6653 44.7756 26.6052 43.6706C26.0071 43.0431 25.4227 42.4292 24.8247 41.8017C24.7839 41.7608 24.7295 41.8154 24.7703 41.8563C25.8576 43.0022 26.9586 44.1481 28.0459 45.294C28.5896 45.8669 29.1332 46.4399 29.6905 47.0128C30.1662 47.5176 30.6283 48.0496 31.1584 48.4998C31.6477 48.9227 32.2457 49.2501 32.9117 49.2364C32.9661 49.2228 32.9661 49.1546 32.9117 49.1546ZM42.1677 65.1426C42.5618 62.3188 42.8337 59.495 42.9832 56.6439C42.9832 56.5893 42.9016 56.5893 42.9016 56.6439C42.7521 59.4813 42.4803 62.3052 42.0861 65.1154C42.0861 65.1699 42.1541 65.1972 42.1677 65.1426ZM43.6628 69.6717C43.5133 68.5121 43.3638 67.3117 43.5812 66.1521C43.7851 65.0471 44.4511 64.0513 44.3831 62.9054C44.3831 62.8508 44.3016 62.8508 44.3016 62.9054C44.3695 64.0922 43.6628 65.1154 43.4861 66.2613C43.3094 67.3935 43.4453 68.5531 43.5812 69.6853C43.5948 69.7126 43.6764 69.7126 43.6628 69.6717ZM43.7579 70.7357C42.956 69.658 42.0318 68.5394 40.8221 67.8983C39.6668 67.2844 38.3212 67.2571 37.0572 67.0115C36.3233 66.8751 35.6165 66.6432 35.0049 66.2067C34.9641 66.1794 34.9233 66.2476 34.9641 66.2749C35.9971 67.0388 37.3154 67.1343 38.5387 67.3253C39.1775 67.4208 39.8163 67.5436 40.4008 67.7891C41.0532 68.062 41.624 68.4985 42.1269 68.9759C42.6978 69.5216 43.2007 70.1355 43.6764 70.7767C43.7171 70.8176 43.7851 70.7767 43.7579 70.7357ZM43.0376 67.7346C41.923 66.3431 40.7542 64.8971 39.1775 64.0104C37.4378 63.0418 35.4262 63.0418 33.537 62.6053C32.504 62.3734 31.4846 62.0051 30.6827 61.2957C30.6419 61.2684 30.5876 61.323 30.6283 61.3503C32.0419 62.6053 34.0127 62.7963 35.8068 63.0691C36.8126 63.2328 37.8183 63.4238 38.7426 63.874C39.5717 64.2696 40.292 64.8289 40.9444 65.47C41.692 66.193 42.3308 66.9843 42.9832 67.7891C43.0104 67.83 43.0647 67.7755 43.0376 67.7346ZM41.4609 63.4238C40.428 61.9096 38.6067 61.2138 36.8941 60.8046C34.9233 60.3271 32.8166 60.1361 31.0497 59.0448C30.1934 58.5128 29.4458 57.7761 29.0653 56.8212C29.0517 56.7803 28.9701 56.7939 28.9837 56.8485C29.6225 58.4855 31.2671 59.4541 32.871 59.9588C34.8689 60.6 37.0028 60.6954 38.9329 61.5549C39.8843 61.9778 40.7813 62.5916 41.3794 63.4647C41.4201 63.5056 41.4881 63.4647 41.4609 63.4238ZM39.9794 60.0816C39.0144 58.3082 36.9077 57.6806 35.1 57.2032C34.0127 56.9167 32.9253 56.6439 31.9195 56.1391C31.0497 55.7026 30.2614 55.1296 29.5818 54.4476C28.8206 53.6836 28.1954 52.7969 27.7469 51.8147C27.7197 51.7738 27.6653 51.8147 27.6789 51.8556C28.4537 53.5609 29.7721 54.9932 31.3759 55.9345C32.2865 56.4665 33.2787 56.8076 34.2845 57.0804C35.3447 57.3669 36.4456 57.6124 37.4514 58.0626C38.4436 58.5128 39.3814 59.1539 39.9115 60.1361C39.9386 60.1634 39.993 60.1225 39.9794 60.0816Z" fill="#4C4942"/>
<path d="M37.8861 56.0163C37.3016 55.2115 36.4046 54.7613 35.5347 54.3793C34.5969 53.9701 33.6862 53.5472 32.8028 53.0152C31.0495 51.9511 29.4728 50.5733 28.1952 48.9636C27.4884 48.0633 26.8632 47.0947 26.3467 46.0716C26.3195 46.0306 26.2516 46.0716 26.2788 46.1125C27.1758 47.8996 28.3991 49.5229 29.8534 50.8871C31.3485 52.2785 33.0746 53.3835 34.9367 54.202C35.9696 54.6522 37.1114 55.1024 37.8045 56.0573C37.8453 56.0982 37.9133 56.0573 37.8861 56.0163ZM39.0957 58.3218C38.7288 57.667 38.6064 56.944 38.5385 56.2073C38.4705 55.4843 38.4162 54.775 38.3074 54.0656C38.09 52.565 37.7094 51.0917 37.1929 49.673C36.9075 48.8954 36.5677 48.1178 36.2007 47.3812C36.1735 47.3402 36.1056 47.3812 36.1328 47.4221C36.8123 48.7999 37.356 50.2323 37.7502 51.7192C37.9404 52.4559 38.09 53.1925 38.2123 53.9428C38.3346 54.6931 38.389 55.4434 38.4569 56.1937C38.5249 56.944 38.6472 57.7079 39.0278 58.3764C39.055 58.4036 39.1229 58.3627 39.0957 58.3218ZM40.9034 62.1687C40.9578 61.1865 41.0665 60.218 41.1753 59.2494C41.2568 58.4582 41.3656 57.6397 41.2976 56.8485C41.1889 55.5116 40.7947 54.1884 40.3734 52.9333C40.1559 52.3058 39.9384 51.6919 39.653 51.0917C39.6258 51.0508 39.5715 51.0917 39.585 51.1326C40.1287 52.2922 40.5229 53.5472 40.8355 54.7886C40.9986 55.4298 41.1345 56.0709 41.2025 56.7257C41.2704 57.476 41.1889 58.2263 41.1209 58.963C41.0122 60.0406 40.8898 61.1047 40.8219 62.1824C40.8219 62.2233 40.9034 62.2233 40.9034 62.1687ZM35.8609 52.9743C35.6163 50.6415 34.6784 48.3497 33.4552 46.358C33.129 45.8124 32.762 45.294 32.3678 44.8029C32.3407 44.762 32.2863 44.8165 32.3135 44.8575C33.7542 46.6718 34.8279 48.8545 35.426 51.1053C35.5891 51.7192 35.7114 52.3467 35.7794 52.9879C35.7794 53.0288 35.8609 53.0288 35.8609 52.9743ZM29.5272 45.485C29.4592 43.8343 27.57 43.125 27.1486 41.638C27.135 41.5835 27.0671 41.6107 27.0671 41.6653C27.4748 43.1522 29.3777 43.8753 29.432 45.4986C29.4456 45.5395 29.5272 45.5395 29.5272 45.485ZM65.9394 77.4201C68.9024 76.6699 71.5527 74.9646 73.6866 72.7956C75.6438 70.8039 77.1797 68.4303 78.403 65.9202C79.6398 63.4101 80.5912 60.7773 81.5019 58.1445C82.4261 55.498 83.3232 52.8242 84.4377 50.2596C85.5386 47.7222 86.8706 45.2667 88.6375 43.125C88.855 42.8658 89.0725 42.6066 89.3035 42.3474C89.4802 42.1564 89.222 41.9109 89.0317 42.0746C86.259 44.3118 82.997 45.7851 79.7621 47.2175C76.5409 48.6362 73.3061 50.0549 70.411 52.1012C67.6111 54.0792 65.1375 56.5074 63.1259 59.2904C61.0871 62.1005 59.592 65.2245 58.695 68.5803C57.7708 72.0317 57.4038 75.6467 57.6348 79.2208C57.662 79.6437 57.7028 80.0666 57.7436 80.4759C57.7708 80.7214 58.1649 80.7214 58.1377 80.4759C57.7572 76.9427 58.0018 73.3413 58.7765 69.8763C59.1707 68.1574 59.6872 66.4795 60.3804 64.8562C61.0464 63.2874 61.889 61.8004 62.8269 60.3817C64.7161 57.5579 67.0947 55.0614 69.7994 53.0152C71.1858 51.9648 72.6537 51.0508 74.1895 50.2459C75.739 49.4274 77.3428 48.7044 78.9466 47.995C82.1679 46.5763 85.4435 45.1849 88.2977 43.1113C88.6375 42.8658 88.9637 42.6066 89.2899 42.3474C89.1948 42.2519 89.0996 42.1564 89.0181 42.0746C87.1696 44.1344 85.7425 46.5081 84.5736 49.0045C83.4047 51.5282 82.4805 54.1474 81.5698 56.7666C80.6592 59.3995 79.7485 62.046 78.5933 64.597C77.4651 67.0934 76.0788 69.508 74.2711 71.5815C72.2867 73.8597 69.7858 75.7422 66.918 76.7108C66.5646 76.8336 66.1976 76.9427 65.8306 77.0245C65.586 77.1064 65.6947 77.4884 65.9394 77.4201Z" fill="#4C4942"/>
<path d="M66.1434 76.97C63.8328 77.3519 61.6174 78.2523 59.5379 79.3436C58.9534 79.6437 58.3826 79.9712 57.8117 80.3122C57.5943 80.4486 57.7981 80.776 58.0156 80.6532C60 79.4528 62.1203 78.4296 64.3493 77.7885C64.9746 77.6111 65.6134 77.4611 66.2522 77.3519C66.4968 77.311 66.4017 76.9291 66.1434 76.97Z" fill="#4C4942"/>
<path d="M58.111 80.544C59.144 77.6384 60.3945 74.8145 61.8352 72.0998C63.2759 69.3715 64.9205 66.7387 66.7282 64.2286C68.5495 61.7049 70.5475 59.304 72.695 57.0667C74.856 54.8022 77.1666 52.7014 79.6131 50.7643C82.3179 48.6225 85.009 46.4535 87.5371 44.0798C87.8361 43.7934 88.1351 43.5069 88.4342 43.2204C88.6108 43.0431 88.339 42.7702 88.1623 42.9476C85.6614 45.3894 82.9839 47.6403 80.2383 49.7957C77.7511 51.7465 75.3589 53.8064 73.1435 56.0572C70.9552 58.2808 68.9165 60.6408 67.0544 63.1373C65.1923 65.62 63.507 68.2392 62.0119 70.9539C60.5168 73.6686 59.212 76.4788 58.1246 79.3845C57.9887 79.7392 57.8528 80.0939 57.7305 80.4622C57.6489 80.6805 58.0159 80.776 58.111 80.544Z" fill="#4C4942"/>
<path d="M58.464 78.8253C59.2659 77.1201 59.9863 75.3194 60.1086 73.4095C60.1765 72.4273 60.0542 71.4588 59.9047 70.5039C59.7688 69.5899 59.6329 68.6622 59.5921 67.7346C59.5513 66.766 59.6329 65.7566 60.163 64.9244C60.2037 64.8699 60.1086 64.8153 60.0814 64.8699C59.6329 65.5519 59.497 66.3704 59.4834 67.1753C59.4698 68.062 59.5785 68.9487 59.7008 69.8218C59.8503 70.8313 60.0406 71.8271 60.0406 72.8502C60.0406 73.8052 59.8639 74.7464 59.6057 75.6604C59.2931 76.7245 58.8581 77.7612 58.3824 78.7707C58.3553 78.8253 58.4368 78.8799 58.464 78.8253ZM60.8018 73.6142C61.9842 71.7862 62.3376 69.6035 62.4871 67.4754C62.6366 65.32 62.6095 63.1374 63.1395 61.0229C63.4386 59.8634 63.9007 58.7447 64.621 57.7762C64.6618 57.7216 64.5803 57.6807 64.5395 57.7216C63.2755 59.4132 62.8133 61.5276 62.6231 63.6012C62.4192 65.7838 62.4871 67.9938 62.0522 70.1355C61.8075 71.3496 61.3998 72.5228 60.7202 73.5596C60.6794 73.6142 60.761 73.6687 60.8018 73.6142ZM63.5201 68.7032C64.8521 66.6978 65.1375 64.256 65.586 61.9369C66.0074 59.7133 66.7278 57.4897 67.883 55.5389C68.5354 54.4476 69.3238 53.4654 70.2072 52.5514C70.248 52.5105 70.18 52.4423 70.1393 52.4832C69.3781 53.2881 68.6578 54.1475 68.0597 55.0888C67.4889 55.9755 67.0404 56.9168 66.6598 57.899C66.2113 59.0176 65.8579 60.1635 65.6132 61.3503C65.3686 62.5235 65.1919 63.724 64.9336 64.8971C64.6346 66.234 64.1997 67.5436 63.4386 68.6759C63.4114 68.7032 63.4929 68.7577 63.5201 68.7032ZM67.5704 62.9191C68.4947 60.8865 69.1743 58.772 70.0441 56.7258C70.8053 54.9114 71.7431 53.1244 73.0207 51.6238C73.7275 50.8053 74.5294 50.0686 75.44 49.4957C75.4944 49.4684 75.44 49.3729 75.3857 49.4138C73.7818 50.437 72.5178 51.9103 71.5392 53.52C70.4383 55.3207 69.6772 57.2987 68.9432 59.2631C68.4811 60.4772 68.019 61.705 67.4889 62.8782C67.4617 62.9327 67.5433 62.9737 67.5704 62.9191ZM72.3955 57.2169C73.4149 54.6386 74.8284 52.2649 76.5681 50.0959C77.071 49.4684 77.6011 48.8545 78.1312 48.2543C78.172 48.2134 78.104 48.1315 78.0632 48.1861C76.2148 50.2596 74.5294 52.4968 73.279 54.9933C72.9256 55.7163 72.5994 56.4393 72.3004 57.1896C72.2868 57.2442 72.3819 57.2714 72.3955 57.2169ZM76.0109 53.6018C77.0167 51.7193 78.2127 49.9459 79.6127 48.3225C80.0204 47.845 80.4554 47.3812 80.8903 46.931C80.9311 46.8901 80.8631 46.8219 80.8224 46.8628C79.3273 48.3907 77.9817 50.0686 76.8672 51.8966C76.541 52.4423 76.2284 52.988 75.9293 53.5473C75.8886 53.6018 75.9837 53.6564 76.0109 53.6018ZM58.3553 79.9166C59.1028 77.5975 61.2095 76.0151 63.357 75.0738C65.9258 73.9552 68.7121 73.5596 71.3625 72.6729C72.7489 72.2091 74.108 71.5952 75.2769 70.7085C75.3313 70.6676 75.2769 70.5857 75.2226 70.6266C73.0071 72.2909 70.2616 72.9321 67.6384 73.6005C65.0967 74.2553 62.4735 74.992 60.4348 76.7381C59.4562 77.5839 58.6543 78.6343 58.2601 79.8757C58.2465 79.9439 58.3417 79.9712 58.3553 79.9166ZM60.0542 75.1284C60.7338 74.1326 61.4134 73.1094 62.3104 72.2909C62.759 71.8817 63.2483 71.5134 63.7919 71.2405C64.4036 70.9404 65.056 70.7494 65.722 70.6266C67.1083 70.3674 68.5219 70.3402 69.9218 70.2037C71.281 70.0673 72.6401 69.8491 73.9314 69.3852C75.141 68.9487 76.2419 68.2803 77.3565 67.6528C77.4108 67.6255 77.3565 67.5436 77.3021 67.5709C76.2691 68.1439 75.2498 68.7714 74.1488 69.1943C72.844 69.699 71.4713 69.9446 70.0849 70.081C68.6985 70.231 67.3122 70.2583 65.9394 70.4766C64.6754 70.6812 63.5065 71.1314 62.5143 71.9635C61.4814 72.8366 60.7066 73.9689 59.9591 75.0738C59.9319 75.1284 60.027 75.183 60.0542 75.1284ZM62.8677 70.2174C63.4521 69.0442 64.4036 68.062 65.5453 67.4208C66.1297 67.0934 66.7549 66.8479 67.4209 66.7115C68.2364 66.5341 69.0791 66.5069 69.9082 66.4386C71.281 66.3432 72.6266 66.0976 73.9178 65.6065C75.141 65.1563 76.3099 64.5288 77.3565 63.7376C78.5254 62.8645 79.5447 61.8141 80.3466 60.6C80.3874 60.5454 80.2923 60.5045 80.2651 60.5454C78.77 62.7827 76.541 64.4879 74.0401 65.4428C72.7353 65.9475 71.3625 66.2204 69.9626 66.3159C69.1607 66.3704 68.3588 66.3977 67.5704 66.5478C66.9316 66.6706 66.32 66.8752 65.7356 67.1753C64.4715 67.8165 63.4114 68.8669 62.7726 70.1355C62.759 70.231 62.8405 70.272 62.8677 70.2174ZM65.6676 65.4292C67.6248 63.1646 70.9004 63.1101 73.5508 62.2507C76.0653 61.4322 78.2535 59.7951 80.0476 57.8717C81.0534 56.794 81.9369 55.6072 82.7524 54.3794C82.7931 54.3248 82.698 54.2839 82.6708 54.3248C81.2029 56.5348 79.4768 58.6083 77.3293 60.1771C76.2555 60.9683 75.0595 61.6231 73.809 62.0597C72.3683 62.5644 70.846 62.7827 69.3917 63.2056C67.9918 63.6148 66.5918 64.2287 65.6132 65.3473C65.5589 65.4019 65.6268 65.4701 65.6676 65.4292Z" fill="#4C4942"/>
<path d="M68.2777 61.6231C69.732 59.2085 72.6406 58.3491 75.0463 57.2714C77.5472 56.1391 79.7355 54.4475 81.6927 52.5241C82.78 51.46 83.7858 50.3277 84.7644 49.1546C84.8052 49.1 84.7372 49.0318 84.6965 49.0864C82.9295 51.2008 81.0267 53.2334 78.8248 54.8977C77.7239 55.7299 76.555 56.4529 75.3182 57.0395C73.9998 57.6533 72.627 58.1308 71.3494 58.8265C70.1125 59.4813 68.9301 60.3544 68.1961 61.5821C68.1553 61.6367 68.2369 61.6776 68.2777 61.6231ZM74.8968 54.5294C75.6851 54.6522 76.4327 54.352 77.0987 53.9292C77.8326 53.4517 78.485 52.8515 79.151 52.3058C80.6597 51.0508 82.1684 49.7821 83.6771 48.527C84.5334 47.8177 85.376 47.1083 86.2323 46.3989C86.2867 46.358 86.2051 46.2898 86.1644 46.3307C84.71 47.5448 83.2557 48.759 81.7878 49.9731C81.0539 50.5869 80.3335 51.1872 79.5996 51.801C78.8928 52.3876 78.2132 53.0015 77.4793 53.5472C76.7453 54.0929 75.8754 54.5703 74.924 54.4339C74.8696 54.4339 74.8425 54.5294 74.8968 54.5294ZM61.0197 73.2185C60.9653 70.4219 61.0061 67.6254 61.1284 64.8289C61.1692 64.0376 61.21 63.2464 61.2643 62.4688C61.2643 62.4006 61.1692 62.4006 61.1692 62.4688C60.9925 65.2654 60.8974 68.0619 60.8974 70.8585C60.8974 71.6497 60.911 72.4409 60.9245 73.2321C60.9245 73.2731 61.0197 73.2731 61.0197 73.2185ZM58.4644 78.7024C58.7499 77.5702 59.0217 76.4379 59.0897 75.2647C59.1169 74.7054 59.1033 74.1598 59.0217 73.6005C58.9266 73.0411 58.7499 72.5091 58.5868 71.9635C58.4101 71.3359 58.2606 70.6948 58.3693 70.0536C58.3829 69.9854 58.2878 69.9718 58.2742 70.0263C58.0839 71.104 58.5732 72.1272 58.8178 73.1503C59.1033 74.3235 59.0081 75.5376 58.7906 76.6971C58.6683 77.3519 58.5052 78.0067 58.3421 78.6615C58.3557 78.7434 58.4373 78.7706 58.4644 78.7024ZM58.1654 80.0803C59.3479 78.8252 60.6935 77.5293 62.3381 76.9154C63.9147 76.3288 65.6409 76.5061 67.2855 76.3424C68.1689 76.2606 69.0388 76.0696 69.8135 75.6194C69.8679 75.5921 69.8135 75.4966 69.7592 75.5376C68.2641 76.397 66.4836 76.2742 64.8254 76.3697C64.0099 76.4106 63.1944 76.5061 62.4196 76.779C61.6177 77.0654 60.8974 77.5156 60.2314 78.034C59.4702 78.6206 58.7771 79.3027 58.1111 79.9984C58.0431 80.053 58.1247 80.1212 58.1654 80.0803ZM59.4974 76.4243C61.1284 74.8146 62.8274 73.1366 64.9885 72.2636C67.3534 71.295 69.9359 71.636 72.4095 71.3086C73.66 71.1449 74.924 70.8039 75.9706 70.0673C76.0249 70.0263 75.9706 69.9445 75.9162 69.9854C73.8774 71.4178 71.2542 71.3086 68.8757 71.4314C67.6253 71.4996 66.3612 71.636 65.1788 72.0862C64.1322 72.4818 63.1672 73.0821 62.2837 73.7642C61.2779 74.5554 60.3537 75.4557 59.4431 76.3561C59.3887 76.397 59.4566 76.4788 59.4974 76.4243ZM62.1342 71.2268C63.7516 69.3715 66.3205 68.8122 68.6446 68.553C71.1591 68.2802 73.7959 68.2529 76.0929 67.0524C77.1531 66.4931 78.1045 65.7019 78.6753 64.6242C78.7025 64.5697 78.621 64.5151 78.5938 64.5697C77.4928 66.6432 75.1007 67.5845 72.9124 67.9664C70.3436 68.4166 67.666 68.2802 65.1652 69.1533C63.9963 69.5625 62.8818 70.19 62.0663 71.145C62.0255 71.1995 62.0934 71.2677 62.1342 71.2268ZM64.5128 67.2298C66.0758 65.0062 69.0388 64.6242 71.4989 64.2695C72.8581 64.0649 74.2037 63.833 75.4813 63.3146C76.5686 62.8781 77.588 62.2642 78.4986 61.5276C79.5316 60.6954 80.4151 59.6859 81.0947 58.5537C81.1218 58.4991 81.0403 58.4445 81.0131 58.4991C79.7627 60.5863 77.819 62.2233 75.5764 63.1646C74.3124 63.6966 72.9804 63.9558 71.6212 64.1468C70.2621 64.3514 68.8893 64.5151 67.5845 64.9789C66.3612 65.4154 65.1788 66.0975 64.4176 67.1752C64.3904 67.2298 64.472 67.2844 64.5128 67.2298Z" fill="#4C4942"/>
<path d="M67.7343 62.4279C68.6178 61.4594 69.909 61.0228 71.1322 60.6545C72.3691 60.2725 73.5787 59.8496 74.7476 59.2903C77.0718 58.1854 79.2057 56.6848 81.0134 54.8568C82.0192 53.8473 82.9162 52.7287 83.7046 51.5282C83.7453 51.4736 83.6502 51.4191 83.623 51.4736C82.2095 53.6427 80.3882 55.5252 78.3087 57.0531C77.2621 57.817 76.1612 58.4855 75.0059 59.0584C73.8234 59.645 72.6001 60.0952 71.3497 60.4772C70.0449 60.8864 68.6314 61.3093 67.6799 62.3461C67.6256 62.4006 67.6935 62.4688 67.7343 62.4279ZM65.8722 65.1426C66.4023 64.4196 66.6742 63.5602 66.8644 62.7007C67.0683 61.8004 67.2314 60.9 67.4625 60.0133C67.9654 58.1444 68.6585 56.3301 69.5284 54.5976C70.0177 53.6427 70.5478 52.7014 71.1458 51.801C71.1866 51.7465 71.0915 51.7056 71.0643 51.7465C70.0177 53.3426 69.1343 55.0478 68.4275 56.8212C68.0741 57.7079 67.7751 58.5946 67.5032 59.5086C67.245 60.4226 67.0547 61.3502 66.8508 62.2779C66.647 63.2601 66.3887 64.2559 65.7771 65.088C65.7499 65.1426 65.8315 65.1835 65.8722 65.1426ZM63.0452 69.6716C63.1267 68.4575 63.1267 67.2434 63.1539 66.0293C63.1675 65.4291 63.1811 64.8152 63.2219 64.215C63.249 63.7921 63.2762 63.3828 63.3578 62.9599C63.5073 62.1824 63.7655 61.4184 64.0374 60.6681C64.35 59.8224 64.7034 59.0039 65.0839 58.199C65.4373 57.4351 65.8315 56.6848 66.2664 55.9754C66.2936 55.9208 66.212 55.8663 66.1849 55.9208C65.3286 57.2986 64.649 58.7992 64.0645 60.2998C63.7655 61.0774 63.4937 61.8686 63.3034 62.6871C63.0995 63.6011 63.0859 64.556 63.0588 65.4973C63.018 66.8887 63.0316 68.2802 62.95 69.6716C62.95 69.7399 63.0452 69.7399 63.0452 69.6716ZM70.7517 58.8402C71.0643 57.4214 71.6215 56.0573 72.2739 54.7613C72.9671 53.4108 73.7962 52.1148 74.734 50.9143C75.2233 50.2868 75.7534 49.6729 76.3243 49.1136C76.365 49.0727 76.2971 49.0045 76.2563 49.0454C75.2097 50.0822 74.2991 51.2554 73.4972 52.4831C72.6681 53.7518 71.9341 55.1023 71.3769 56.5211C71.0779 57.2577 70.8332 58.0217 70.6701 58.7992C70.6429 58.8811 70.7381 58.9084 70.7517 58.8402ZM79.8309 50.3277C79.9804 49.3183 80.7823 48.5816 81.5299 47.9541C82.2502 47.3539 83.0114 46.74 83.3784 45.8396C83.4055 45.7851 83.3104 45.7578 83.2832 45.8124C82.5493 47.6267 80.0484 48.2542 79.7358 50.3005C79.7222 50.3687 79.8173 50.396 79.8309 50.3277ZM48.2846 34.1351C46.0419 33.3711 44.1119 31.9115 42.5896 30.1108C41.1625 28.4192 40.116 26.4275 39.314 24.3813C38.5121 22.3214 37.9277 20.166 37.384 18.0243C36.8268 15.8689 36.2967 13.7135 35.5763 11.6127C34.8696 9.55277 33.9725 7.5338 32.7221 5.7331C32.559 5.50119 32.3959 5.28292 32.2328 5.06465C32.1512 5.13286 32.0697 5.18743 31.9881 5.25564C33.9861 7.15183 36.3918 8.50236 38.784 9.79832C41.2169 11.1079 43.677 12.3902 45.8381 14.1227C47.9448 15.8143 49.7661 17.8605 51.1932 20.166C52.6475 22.4987 53.6669 25.0634 54.1698 27.7644C54.6999 30.5746 54.7678 33.4939 54.3465 36.3177C54.2921 36.6451 54.2377 36.9725 54.1834 37.3136C54.1426 37.5046 54.4416 37.6001 54.4824 37.3954C55.0261 34.5989 55.0668 31.6932 54.6727 28.8694C54.2785 26.0865 53.4086 23.4264 52.0359 20.9845C50.7039 18.6108 48.9777 16.4691 46.9526 14.6684C44.8595 12.8131 42.4673 11.4353 40.0208 10.1121C37.5879 8.80247 35.087 7.50652 32.9531 5.70581C32.6949 5.48755 32.4502 5.26928 32.2056 5.03737C32.0832 4.92824 31.8522 5.0783 31.9609 5.22835C33.3065 7.00177 34.2987 9.0071 35.0598 11.0943C35.8346 13.2087 36.3782 15.3778 36.9491 17.5604C37.5063 19.7295 38.0636 21.8985 38.8383 23.9857C39.5995 26.0456 40.5917 28.0372 41.9372 29.797C43.3644 31.6523 45.2264 33.2347 47.3875 34.1487C47.6593 34.2578 47.9312 34.367 48.203 34.4625C48.3933 34.5034 48.4749 34.2033 48.2846 34.1351Z" fill="#4C4942"/>
<path d="M47.9579 34.3671C50.2413 34.9265 52.3616 36.1269 54.2645 37.4911C54.4276 37.6139 54.5771 37.341 54.4276 37.2183C52.4975 35.8404 50.3636 34.64 48.0395 34.067C47.8492 34.0125 47.7676 34.3126 47.9579 34.3671Z" fill="#4C4942"/>
<path d="M54.4951 37.3136C53.8563 34.9399 53.0544 32.6072 52.0758 30.3427C51.1108 28.0782 49.9691 25.8818 48.6914 23.7674C47.4138 21.6529 45.9867 19.6203 44.4236 17.7105C42.847 15.7734 41.1344 13.9454 39.2996 12.2402C37.3016 10.3849 35.3308 8.51599 33.4959 6.48338C33.2784 6.23783 33.061 5.99228 32.8435 5.74673C32.7076 5.59667 32.4901 5.81494 32.626 5.96499C34.4201 8.01125 36.3638 9.93472 38.3617 11.7763C40.1966 13.4679 41.95 15.2277 43.5674 17.1375C45.1712 19.0337 46.6255 21.0254 47.9575 23.1262C49.2623 25.1998 50.4312 27.3824 51.437 29.6197C52.4428 31.8569 53.2854 34.1623 53.965 36.5224C54.0466 36.8088 54.1281 37.0953 54.1961 37.3818C54.2504 37.5864 54.5495 37.5046 54.4951 37.3136Z" fill="#4C4942"/>
<path d="M54.0876 35.9631C53.5575 34.5171 53.0818 32.9892 53.1497 31.4341C53.1769 30.6428 53.3672 29.8653 53.5575 29.1013C53.7206 28.4056 53.8701 27.7099 53.9516 27.0005C54.0332 26.2639 54.006 25.5136 53.6526 24.8451C53.6254 24.8042 53.5575 24.8451 53.5847 24.886C53.9245 25.5136 53.9516 26.2502 53.8837 26.9459C53.8157 27.6826 53.6526 28.4056 53.4759 29.115C53.2992 29.838 53.1225 30.561 53.0818 31.3113C53.041 32.0479 53.1225 32.7846 53.2721 33.5076C53.4487 34.3534 53.7206 35.1855 54.0196 36.004C54.0332 36.0313 54.1147 36.0177 54.0876 35.9631ZM52.5789 31.6932C50.8935 28.5557 52.1303 24.8588 51.5459 21.5029C51.3828 20.5889 51.0838 19.7022 50.5945 18.911C50.5673 18.8701 50.4993 18.911 50.5265 18.9519C52.4294 21.9804 51.2605 25.7318 51.6954 29.0604C51.8177 29.988 52.076 30.902 52.5109 31.7342C52.5381 31.7751 52.6061 31.7342 52.5789 31.6932ZM50.744 27.6417C49.7926 25.9092 49.7518 23.9038 49.5343 21.9804C49.344 20.2206 48.8955 18.4472 48.1072 16.8647C47.6723 15.978 47.115 15.1732 46.4898 14.4092C46.4626 14.3683 46.4082 14.4229 46.4354 14.4638C47.0063 15.1595 47.5228 15.8962 47.9441 16.701C48.3383 17.465 48.6373 18.2562 48.8819 19.0747C49.1538 19.9887 49.344 20.9163 49.4528 21.8576C49.5615 22.7989 49.6159 23.7538 49.7654 24.6814C49.9149 25.7182 50.1731 26.7413 50.6896 27.669C50.7032 27.7235 50.7712 27.6826 50.744 27.6417ZM47.9169 22.8125C46.7888 19.6613 46.3131 16.1827 44.2743 13.427C43.7714 12.7586 43.2006 12.1584 42.5346 11.6536C42.4938 11.6263 42.453 11.6945 42.4938 11.7218C45.1034 13.6999 46.0956 16.9466 46.9519 19.9614C47.2237 20.9163 47.5092 21.8849 47.849 22.8262C47.8625 22.8807 47.9441 22.8671 47.9169 22.8125ZM44.4782 18.0106C43.8394 15.9098 42.8744 13.9454 41.6511 12.1174C41.2842 11.5718 40.9036 11.0534 40.5094 10.535C40.4822 10.4941 40.4143 10.535 40.4415 10.5759C41.7735 12.3357 42.9559 14.191 43.7714 16.2372C44.0025 16.8238 44.22 17.424 44.3967 18.0379C44.4103 18.0788 44.4918 18.0652 44.4782 18.0106ZM41.8414 14.914C40.958 12.8814 39.8027 11.0261 38.4027 9.32089C38.3755 9.27997 38.3212 9.33453 38.3483 9.37546C39.7483 11.067 40.9036 12.9223 41.7735 14.9549C41.8006 14.9958 41.8686 14.9549 41.8414 14.914ZM54.1147 36.8498C53.6798 34.9945 52.1711 33.6031 50.5537 32.73C48.6237 31.6796 46.4626 31.1885 44.4374 30.3564C43.3093 29.8925 42.222 29.3196 41.2978 28.5011C41.257 28.4738 41.2026 28.5284 41.2434 28.5557C42.8064 29.9335 44.8044 30.6156 46.748 31.2704C48.7596 31.9524 50.8527 32.6482 52.4158 34.1624C53.1905 34.899 53.8021 35.8267 54.0468 36.8771C54.0468 36.918 54.1283 36.9044 54.1147 36.8498ZM53.0682 32.9346C52.6061 32.1025 52.1303 31.2704 51.4779 30.561C50.8119 29.8243 49.9829 29.3196 49.045 29.0468C47.9849 28.733 46.8568 28.6239 45.7694 28.4329C44.6549 28.2419 43.554 27.9964 42.521 27.5598C41.556 27.1369 40.6997 26.5231 39.8163 25.9365C39.7755 25.9092 39.7347 25.9774 39.7755 26.0047C40.5366 26.5094 41.2842 27.0551 42.0997 27.4507C43.0375 27.9145 44.0569 28.201 45.0898 28.392C46.1772 28.5966 47.2781 28.7194 48.3518 28.9513C49.3848 29.1832 50.3498 29.5788 51.1246 30.3154C51.9129 31.0657 52.4565 32.0343 52.9866 32.9756C53.0274 33.0165 53.0954 32.9756 53.0682 32.9346ZM51.1653 28.8831C50.7984 27.9554 50.1595 27.1642 49.3576 26.5776C48.9499 26.2775 48.4878 26.0319 48.0121 25.8682C47.414 25.65 46.8024 25.5545 46.1772 25.4726C45.0491 25.3089 43.9481 25.077 42.9016 24.6269C41.923 24.204 41.0123 23.631 40.1968 22.9489C39.2998 22.1714 38.525 21.2574 37.9406 20.2206C37.9134 20.1797 37.8455 20.2206 37.8726 20.2615C38.8784 22.0486 40.4415 23.5082 42.2628 24.4359C43.187 24.8997 44.1792 25.2407 45.1986 25.4317C46.3946 25.65 47.6179 25.7045 48.7188 26.3048C49.7654 26.8777 50.6353 27.8054 51.0838 28.9376C51.111 28.9513 51.1925 28.9376 51.1653 28.8831ZM49.2625 24.8997C47.9169 23.0717 45.484 22.7579 43.5132 22.0077C41.4744 21.2437 39.7891 19.8113 38.4435 18.1198C37.6959 17.1785 37.0571 16.169 36.4727 15.1186C36.4455 15.0777 36.3776 15.1186 36.4047 15.1595C37.3969 16.9602 38.6066 18.6927 40.1696 20.0569C40.958 20.739 41.8278 21.3392 42.7657 21.7757C43.853 22.2805 45.0219 22.5533 46.15 22.9489C47.3053 23.3582 48.4606 23.9311 49.2081 24.9406C49.2217 24.9815 49.2897 24.9406 49.2625 24.8997Z" fill="#4C4942"/>
<path d="M47.442 21.7347C46.477 19.784 44.3431 18.9109 42.5354 17.956C40.5646 16.9056 38.9064 15.4323 37.4385 13.7544C36.6366 12.8267 35.889 11.8582 35.1823 10.8487C35.1551 10.8078 35.0871 10.8487 35.1143 10.8896C36.3511 12.6357 37.6967 14.3273 39.287 15.7597C40.0889 16.4827 40.9451 17.1375 41.883 17.6832C42.8888 18.2698 43.9489 18.7336 44.9411 19.3475C45.9197 19.9477 46.8439 20.7253 47.3604 21.7757C47.4012 21.8302 47.4692 21.7893 47.442 21.7347ZM42.5897 15.6778C41.9237 15.7188 41.3257 15.3914 40.8092 14.9821C40.2791 14.5456 39.8034 14.0408 39.3141 13.5634C38.2268 12.4993 37.1395 11.4353 36.0521 10.3712C35.4405 9.77099 34.8289 9.17076 34.2172 8.57052C34.1765 8.5296 34.1221 8.58417 34.1629 8.62509C35.291 9.73007 36.4191 10.835 37.5472 11.94C38.1181 12.4857 38.6753 13.045 39.2462 13.5907C39.7491 14.0818 40.2384 14.6138 40.7956 15.0503C41.3121 15.4596 41.9237 15.8006 42.6033 15.746C42.6305 15.7597 42.6305 15.6778 42.5897 15.6778ZM52.4437 31.4067C52.7292 28.5692 52.9058 25.7181 52.9602 22.867C52.9602 22.8124 52.8787 22.8124 52.8787 22.867C52.8243 25.7181 52.6612 28.5692 52.3622 31.4067C52.3622 31.4476 52.4437 31.4476 52.4437 31.4067ZM54.1155 35.8812C53.9252 34.6807 53.7213 33.4393 53.9252 32.2252C54.0204 31.6659 54.2378 31.1475 54.4417 30.6155C54.632 30.1107 54.7951 29.606 54.7543 29.0603C54.7543 29.0058 54.6728 29.0058 54.6728 29.0603C54.7271 29.6469 54.5233 30.1926 54.3194 30.7383C54.1019 31.2839 53.9116 31.8159 53.8301 32.4025C53.667 33.5757 53.8573 34.7625 54.0475 35.9221C54.0475 35.963 54.1155 35.9357 54.1155 35.8812ZM54.2378 36.9589C53.3951 35.8948 52.4301 34.8171 51.1933 34.2169C49.9972 33.6303 48.638 33.6576 47.3468 33.4393C46.6265 33.3165 45.9061 33.1255 45.2945 32.7027C45.2537 32.6754 45.2129 32.7436 45.2537 32.7709C46.3139 33.4939 47.6323 33.5621 48.8691 33.7121C49.5351 33.794 50.2011 33.9031 50.8127 34.135C51.4787 34.3942 52.0632 34.8171 52.5932 35.2946C53.1777 35.813 53.6942 36.3995 54.1699 37.0134C54.2106 37.0544 54.265 36.9998 54.2378 36.9589ZM53.4223 33.985C52.2534 32.6208 51.0302 31.2157 49.4128 30.3836C47.6323 29.4696 45.6207 29.5378 43.7043 29.1695C42.6577 28.9648 41.6247 28.6238 40.7956 27.9417C40.7549 27.9144 40.7005 27.969 40.7413 27.9963C42.1956 29.1967 44.1528 29.3332 45.9469 29.5514C46.9799 29.6742 48.0128 29.8379 48.9778 30.2608C49.8205 30.6291 50.5681 31.1748 51.2477 31.775C52.0224 32.4707 52.702 33.2483 53.368 34.0395C53.3951 34.0805 53.4495 34.0259 53.4223 33.985ZM51.669 29.7151C50.5681 28.2282 48.7332 27.587 46.9935 27.246C44.9819 26.8367 42.8344 26.714 41.0267 25.6499C40.1568 25.1452 39.4093 24.4358 39.0015 23.5082C38.9879 23.4672 38.92 23.5082 38.9336 23.5491C39.6403 25.1724 41.3393 26.0864 42.9703 26.5503C44.9819 27.1096 47.1158 27.1505 49.073 27.9417C50.0516 28.3373 50.9758 28.9239 51.6146 29.7833C51.6418 29.7833 51.7098 29.7561 51.669 29.7151ZM50.0652 26.4002C49.0322 24.6404 46.8847 24.0948 45.0362 23.6719C43.9489 23.4263 42.848 23.1808 41.815 22.7033C40.9451 22.2941 40.1296 21.7484 39.4229 21.0936C38.6346 20.3569 37.9686 19.4839 37.4793 18.5153C37.4521 18.4744 37.3841 18.5153 37.4113 18.5562C38.2404 20.2342 39.6132 21.6256 41.2578 22.5123C42.182 23.0171 43.1878 23.3308 44.2072 23.5627C45.2809 23.8083 46.3682 24.0129 47.3876 24.4222C48.4206 24.8314 49.4128 25.4589 49.9972 26.4411C50.0244 26.4957 50.0924 26.4548 50.0652 26.4002Z" fill="#4C4942"/>
<path d="M47.8077 22.3897C47.2096 21.6121 46.299 21.2028 45.4155 20.8345C44.4505 20.4389 43.4991 20.0569 42.5884 19.5386C40.7943 18.5291 39.1769 17.2058 37.8449 15.6507C37.0974 14.7776 36.4314 13.8227 35.8877 12.7996C35.8606 12.7586 35.7926 12.7996 35.8198 12.8405C36.7848 14.6276 38.0896 16.2236 39.6255 17.5469C41.1613 18.8838 42.9146 19.9205 44.8175 20.6708C45.8776 21.0937 47.0329 21.503 47.7669 22.4306C47.7805 22.4852 47.8348 22.4306 47.8077 22.3897ZM49.1125 24.6678C48.7183 24.0267 48.5688 23.2764 48.4737 22.5397C48.3785 21.8167 48.297 21.0937 48.161 20.3843C47.8892 18.911 47.4543 17.465 46.897 16.0872C46.5708 15.296 46.2174 14.5321 45.8097 13.7954C45.7825 13.7545 45.7145 13.7954 45.7417 13.8363C46.4757 15.1869 47.0737 16.6056 47.5222 18.0789C47.7397 18.7883 47.9164 19.5249 48.0659 20.2479C48.2154 20.9846 48.297 21.7349 48.3921 22.4715C48.4872 23.2491 48.6368 24.0267 49.0581 24.7088C49.0717 24.7497 49.1397 24.7088 49.1125 24.6678ZM51.0697 28.4739C51.0833 27.4917 51.1648 26.5095 51.2328 25.5273C51.2871 24.7224 51.3687 23.9039 51.2735 23.1127C51.124 21.7758 50.6755 20.4662 50.1998 19.2112C49.9687 18.5973 49.7105 17.9834 49.4115 17.3832C49.3843 17.3422 49.3163 17.3832 49.3435 17.4241C49.928 18.57 50.3765 19.8114 50.7435 21.0391C50.9202 21.6667 51.0833 22.2942 51.1784 22.9353C51.2871 23.6856 51.2192 24.4632 51.1784 25.2135C51.1104 26.2912 51.0153 27.3689 51.0017 28.4602C50.9881 28.5284 51.0697 28.5284 51.0697 28.4739ZM45.6738 19.4021C45.5107 18.2426 45.1573 17.1103 44.7088 16.0326C44.2466 14.914 43.6758 13.85 43.0098 12.8405C42.6564 12.3085 42.2758 11.8037 41.8681 11.3263C41.8409 11.2853 41.7865 11.3399 41.8137 11.3808C43.336 13.1679 44.5049 15.3369 45.1709 17.5742C45.3476 18.1744 45.4971 18.7883 45.5786 19.4158C45.6058 19.4703 45.6738 19.4567 45.6738 19.4021ZM39.041 12.1175C38.9187 10.4805 37.0023 9.82568 36.5265 8.33874C36.513 8.29781 36.4314 8.31145 36.445 8.36602C36.6761 9.07539 37.2197 9.60741 37.7362 10.1122C38.2935 10.6578 38.9051 11.299 38.9595 12.1311C38.9731 12.172 39.0546 12.172 39.041 12.1175ZM60.3664 110.61H59.9722C59.9994 110.119 60.0266 109.628 60.0266 109.137C60.081 106.3 59.714 103.503 59.0208 100.788C58.98 100.625 58.9393 100.461 58.8849 100.297C58.4772 98.7831 57.9743 97.2825 57.3762 95.8092C56.6287 93.9403 55.7588 92.1259 54.9025 90.2979C54.6307 89.725 54.3725 89.1521 54.1142 88.5655C54.0327 88.4018 53.9647 88.2381 53.8967 88.0744C53.3259 86.792 52.7822 85.5097 52.2522 84.2138C50.159 79.1391 48.2834 73.8052 48.1746 68.2393C48.1203 65.4837 48.596 62.769 49.3571 60.1225C50.1454 57.4215 51.192 54.8159 52.1298 52.1831C53.0677 49.5366 53.9103 46.8356 54.2773 44.0527C54.5763 41.87 54.6171 39.5509 54.0598 37.3955C53.9919 37.15 54.3725 37.0408 54.4404 37.2864C54.5356 37.6274 54.6035 37.9821 54.6579 38.3231C55.5006 43.6161 53.7608 48.8818 51.9667 53.7928C51.0017 56.4257 49.9959 59.0449 49.3299 61.7732C48.6504 64.5288 48.4193 67.3254 48.6775 70.1492C49.1804 75.7696 51.3415 81.1035 53.5298 86.2464C53.7201 86.6965 53.9239 87.1467 54.1142 87.5833C54.1822 87.747 54.2637 87.9107 54.3317 88.0744C55.718 91.1301 57.2267 94.1313 58.382 97.2825C58.6946 98.1419 58.9665 99.015 59.2111 99.9017C59.2519 100.065 59.2927 100.215 59.3334 100.379C60.2033 103.708 60.5567 107.145 60.3664 110.61ZM52.4968 102.807C52.4017 105.413 52.1842 108.018 51.9259 110.61H51.5318C51.5454 110.46 51.559 110.324 51.5726 110.174C51.8444 107.391 52.0755 104.594 52.1298 101.784C52.1706 99.5879 52.1162 97.3916 51.8852 95.2089C51.8444 94.8679 51.8036 94.5269 51.7629 94.1858C51.7357 93.9676 51.7085 93.7357 51.6677 93.5174C51.2735 90.8436 50.5532 88.2517 49.6697 85.7007C48.8135 83.2316 47.7941 80.817 46.7611 78.416C45.7281 76.0015 44.668 73.6005 43.7166 71.1587C43.6214 70.9268 44.002 70.8176 44.0971 71.0495C44.2195 71.3633 44.3418 71.6771 44.4641 71.9908C45.4427 74.4327 46.5029 76.8473 47.5358 79.2618C48.5552 81.6628 49.5474 84.0773 50.3765 86.5601C51.0969 88.7564 51.6677 90.9937 52.0211 93.2718C52.0755 93.572 52.1162 93.8857 52.157 94.1995C52.1706 94.2677 52.1706 94.3359 52.1842 94.4041C52.5376 97.2143 52.5919 100.011 52.4968 102.807Z" fill="#4C4942"/>
<path d="M58.0839 80.5713C56.9014 82.563 55.8276 84.6365 54.8898 86.7646C54.6995 87.2012 54.5092 87.6377 54.3325 88.0742C54.2646 88.2379 54.1966 88.4016 54.1287 88.5653C53.3811 90.4206 52.7287 92.3032 52.1579 94.2266C52.0627 94.554 51.9676 94.8814 51.886 95.2088C51.5734 96.3684 51.288 97.5416 51.0433 98.7148C50.2278 102.63 49.8201 106.613 49.8065 110.61H49.4123C49.4123 108.441 49.5347 106.259 49.7793 104.103C50.1599 100.747 50.8259 97.4324 51.7637 94.1857C51.8453 93.8856 51.9404 93.5991 52.0219 93.299C52.185 92.7943 52.3482 92.2759 52.5113 91.7711C52.9326 90.5161 53.3947 89.2884 53.8976 88.0606C53.9656 87.8969 54.0335 87.7332 54.1015 87.5695C55.148 85.0867 56.3577 82.6721 57.7441 80.3531C57.88 80.1484 58.2198 80.3531 58.0839 80.5713ZM52.1443 82.6994C51.4783 77.1882 50.8123 71.5132 52.2122 66.0566C52.8375 63.6147 53.8704 61.2547 55.4063 59.263C56.915 57.3259 58.845 55.7844 60.6255 54.1065C64.1729 50.7643 66.9592 46.5217 68.2504 41.788C69.2291 38.2003 69.3242 34.4624 68.8213 30.7928C68.631 29.3741 68.3456 27.9827 68.0466 26.5776C67.8427 25.6226 67.5845 24.6541 67.5029 23.6855C67.4893 23.5218 67.4757 23.3718 67.4893 23.2081C67.5029 22.9489 67.1087 22.9489 67.0952 23.2081C67.068 24.0538 67.299 24.9269 67.4757 25.7454C67.7476 27.0414 68.0466 28.3237 68.264 29.6333C68.8621 33.1801 68.9708 36.8225 68.2097 40.3557C67.1903 45.1302 64.6486 49.5365 61.2235 52.9878C59.4974 54.7203 57.5674 56.2346 55.9228 58.0489C54.2782 59.8769 53.0957 62.0459 52.3074 64.3787C50.554 69.6034 50.9074 75.1965 51.5191 80.5713C51.6006 81.2807 51.6822 81.9764 51.7637 82.6721C51.7773 82.9586 52.1715 82.9586 52.1443 82.6994ZM46.3406 103.353C46.1639 105.795 45.7698 108.209 45.3348 110.61H44.9407C44.9679 110.488 44.995 110.351 45.0086 110.228C45.4843 107.664 45.8785 105.072 46.0008 102.466C46.1096 100.106 45.9872 97.7325 45.4843 95.4135C44.995 93.1626 44.1659 90.9936 42.8883 89.0701C41.7738 87.3785 40.3059 85.9189 38.6069 84.8139C36.8944 83.7089 34.9508 82.9723 32.912 82.7813C32.6674 82.754 32.6674 82.3584 32.912 82.3857C33.1702 82.4129 33.4285 82.4402 33.7003 82.4812C35.7527 82.7949 37.7099 83.6543 39.3817 84.8684C41.0806 86.0962 42.5213 87.665 43.5951 89.4657C44.8048 91.471 45.5795 93.7219 46.0008 96.0273C46.4493 98.4419 46.5173 100.911 46.3406 103.353ZM79.7083 81.5672C79.5995 81.84 79.4772 82.1265 79.3413 82.3993C78.3083 84.582 76.7317 86.4509 74.9376 88.047C73.0891 89.684 71.0368 91.0754 68.9708 92.4396C66.9049 93.8037 64.8117 95.1543 62.8953 96.7367C61.5769 97.828 60.3537 99.0285 59.3207 100.379C59.212 100.515 59.1168 100.652 59.0217 100.788C58.5867 101.402 58.1926 102.043 57.8392 102.712C57.0917 104.144 56.548 105.74 56.3577 107.35C56.2218 108.441 56.3033 109.533 56.4528 110.61H56.0587C56.0451 110.542 56.0315 110.46 56.0315 110.392C55.8548 109.042 55.8548 107.691 56.1402 106.354C56.48 104.744 57.0917 103.176 57.9343 101.757C58.2334 101.252 58.5596 100.761 58.9129 100.297C59.0081 100.161 59.1168 100.024 59.2256 99.9016C60.3537 98.4692 61.6992 97.2142 63.1264 96.0819C65.0836 94.5268 67.2039 93.1762 69.2834 91.7848C71.3358 90.4206 73.3745 89.0155 75.1822 87.3239C76.9491 85.6733 78.4442 83.7226 79.3549 81.4717C79.4228 81.2398 79.8034 81.3353 79.7083 81.5672Z" fill="#4C4942"/>
<path d="M45.837 105.099C45.2118 105.781 44.0701 105.958 43.241 105.59C42.2352 105.14 41.5284 104.185 40.9984 103.257C39.9246 101.375 39.5033 99.2195 38.8916 97.1596C38.5926 96.1365 38.2392 95.1133 37.7363 94.1584C37.247 93.2035 36.6082 92.3441 35.8199 91.6074C34.2433 90.1205 32.2181 89.1519 30.1386 88.579C27.6241 87.8969 25.0009 87.7468 22.4049 87.665C22.0787 87.6513 21.7525 87.6513 21.4263 87.6377C21.4671 87.7468 21.5214 87.856 21.5622 87.9787C24.4844 85.646 27.6377 83.1632 31.4842 82.8085C32.5443 82.7131 33.6181 82.7813 34.6374 83.0541C34.8821 83.1223 34.9908 82.7403 34.7462 82.6721C32.8569 82.1674 30.8589 82.3311 29.0241 82.9177C27.162 83.5179 25.4766 84.5274 23.9 85.6733C23.0165 86.3281 22.1602 87.0102 21.304 87.7059C21.1681 87.815 21.2904 88.0333 21.4399 88.0469C24.0767 88.1152 26.7407 88.197 29.3231 88.7972C31.4842 89.302 33.6045 90.1887 35.2898 91.6756C36.1053 92.385 36.7713 93.2308 37.3014 94.1857C37.8179 95.1406 38.1849 96.1637 38.4975 97.2005C39.1227 99.2877 39.5576 101.457 40.6178 103.38C41.1479 104.321 41.8275 105.263 42.7789 105.808C43.6487 106.3 44.7225 106.313 45.5924 105.808C45.7826 105.699 45.9593 105.563 46.1088 105.399C46.2855 105.195 46.0001 104.908 45.837 105.099Z" fill="#4C4942"/>
<path d="M46.1367 105.345C46.7212 104.267 47.1833 103.107 47.5774 101.948C48.0124 100.652 48.3793 99.315 48.6376 97.9644C49.1677 95.1542 49.222 92.1667 48.2978 89.4247C47.5095 87.092 46.0144 85.0458 44.0708 83.5452C42.0864 82.0037 39.6942 81.0624 37.207 80.8714C34.5838 80.6668 31.879 81.2534 29.5684 82.522C29.283 82.6721 29.0112 82.8494 28.7393 83.0268C28.5354 83.1632 28.7257 83.5042 28.9432 83.3678C31.0907 81.9491 33.6595 81.2124 36.2284 81.2261C38.702 81.2397 41.1214 81.99 43.1737 83.3815C45.1037 84.6911 46.6804 86.5327 47.6046 88.6744C48.7191 91.2936 48.8279 94.2539 48.4065 97.0368C48.2026 98.3464 47.89 99.6424 47.5095 100.897C47.1425 102.098 46.7076 103.298 46.1639 104.431C46.0552 104.662 45.9328 104.908 45.7969 105.14C45.6882 105.358 46.028 105.563 46.1367 105.345ZM60.2721 98.933C60.0274 97.0368 60.1498 95.086 60.8293 93.2853C61.5089 91.5256 62.7186 90.0659 64.268 89.0018C65.7767 87.9651 67.4893 87.2694 69.2018 86.6964C70.9552 86.0962 72.7493 85.6051 74.489 84.923C76.188 84.2545 77.8462 83.3951 79.1917 82.1401C79.3548 81.99 79.5179 81.8263 79.6675 81.6626C79.5587 81.6217 79.45 81.5671 79.3277 81.5262C79.2325 83.4633 78.8248 85.3868 78.1452 87.2011C77.452 89.0155 76.487 90.7343 75.2773 92.2486C74.1356 93.6809 72.79 94.936 71.295 96C69.7863 97.0641 68.1417 97.9235 66.4155 98.5374C64.3904 99.2604 62.2565 99.6151 60.1498 100.065C59.8779 100.12 59.6197 100.174 59.3478 100.243C59.1032 100.297 59.2119 100.679 59.4566 100.625C61.6177 100.133 63.8059 99.7924 65.9262 99.124C67.7203 98.551 69.4465 97.7189 71.0095 96.6821C72.559 95.659 73.9589 94.4176 75.1686 93.0125C76.4462 91.5119 77.4928 89.8203 78.2539 88.006C79.0151 86.1917 79.5044 84.2682 79.6675 82.3174C79.6946 82.0719 79.7082 81.8127 79.7218 81.5671C79.7354 81.4034 79.5044 81.3079 79.382 81.4307C78.118 82.7949 76.4734 83.7225 74.7608 84.4319C73.0211 85.1549 71.2134 85.6596 69.4329 86.2462C67.6796 86.8328 65.9262 87.5013 64.3768 88.5107C62.8001 89.5202 61.5089 90.9117 60.7206 92.6169C59.9187 94.363 59.6605 96.3274 59.81 98.2373C59.8236 98.4828 59.8507 98.7284 59.8915 98.9876C59.9187 99.1785 60.3129 99.1785 60.2721 98.933ZM53.8568 61.5139C53.1228 60.518 52.8782 59.2766 53.0005 58.0625C53.1228 56.7666 53.6393 55.5797 54.3325 54.4884C55.0801 53.3152 56.0179 52.2921 56.9557 51.269C57.8935 50.2322 58.8178 49.1818 59.674 48.0632C61.373 45.8805 62.8817 43.5614 64.1185 41.0786C65.3962 38.5276 66.3884 35.8266 66.9864 33.03C67.6116 30.1653 67.8427 27.2187 67.5844 24.2994C67.5572 23.931 67.5165 23.5627 67.4621 23.208C67.3398 23.2353 67.2174 23.2762 67.0951 23.3035C68.5766 26.3456 70.0581 29.4014 71.1047 32.6208C72.1376 35.8129 72.7085 39.2097 72.3143 42.5656C71.9745 45.4713 70.8328 48.2269 69.2018 50.6414C67.5436 53.0969 65.3826 55.1841 62.9768 56.8757C60.4624 58.6355 57.6897 59.9996 54.8082 61.05C54.4548 61.1728 54.1015 61.3092 53.7481 61.4184C53.517 61.5002 53.6121 61.8822 53.8568 61.8003C56.8198 60.8045 59.6876 59.5085 62.3108 57.8033C64.8253 56.1663 67.1087 54.1474 68.9164 51.7328C70.6697 49.4001 71.9745 46.699 72.5182 43.8342C73.157 40.492 72.7765 37.0271 71.8794 33.7667C70.9552 30.4654 69.5009 27.3278 68.0194 24.2448C67.8291 23.8628 67.6524 23.4809 67.4621 23.0989C67.3806 22.9352 67.0679 23.0034 67.0951 23.1944C67.4621 26.141 67.3534 29.1285 66.7961 32.0342C66.266 34.8989 65.3282 37.6682 64.0642 40.2874C62.8545 42.7975 61.373 45.1711 59.6876 47.3947C58.845 48.4997 57.9479 49.5774 57.0101 50.6005C56.0858 51.6236 55.1344 52.6468 54.3325 53.779C52.9054 55.798 51.9811 58.4991 53.0821 60.8863C53.2044 61.1592 53.3675 61.4184 53.5442 61.6639C53.6665 61.9095 54.0063 61.7185 53.8568 61.5139Z" fill="#4C4942"/>
<path d="M60.3262 98.8239C60.666 98.251 60.9106 97.6098 61.0193 96.9414C61.1281 96.232 61.1145 95.509 61.196 94.7997C61.3319 93.531 61.7669 92.3032 62.4057 91.1983C62.7727 90.5571 63.2076 89.9432 63.6969 89.3839C63.7377 89.343 63.6697 89.2611 63.6289 89.3157C62.7999 90.2706 62.1203 91.3347 61.6582 92.5215C61.4271 93.1081 61.2504 93.722 61.1553 94.3495C61.0465 95.0452 61.0465 95.7546 60.9786 96.4503C60.897 97.2824 60.666 98.06 60.231 98.783C60.2038 98.8376 60.2854 98.8785 60.3262 98.8239ZM60.8698 98.4011C61.7397 97.2415 62.3513 95.9456 62.6503 94.5132C62.8134 93.7629 62.9086 92.999 63.0989 92.2623C63.2756 91.5393 63.5338 90.8436 63.8464 90.1751C64.0231 89.8068 64.2134 89.4521 64.4309 89.0974C64.6347 88.77 64.8658 88.4426 65.2192 88.2653C65.2735 88.238 65.2328 88.1562 65.1648 88.1834C64.5804 88.4699 64.2542 89.152 63.9687 89.684C63.6289 90.3252 63.3435 91.0073 63.1396 91.703C62.6775 93.1899 62.6232 94.7724 62.0115 96.2184C61.6853 96.9687 61.264 97.678 60.7747 98.3465C60.7475 98.4011 60.8291 98.4556 60.8698 98.4011ZM62.229 97.1324C62.8406 96.5594 63.4794 95.9728 63.9144 95.2498C64.3629 94.5268 64.526 93.6947 64.6347 92.8625C64.7435 92.0168 64.825 91.1437 65.124 90.3388C65.3959 89.6158 65.8036 88.961 66.3201 88.4017C66.9181 87.7606 67.6521 87.2422 68.4676 86.9011C68.522 86.8738 68.4948 86.7783 68.4404 86.8056C67.0676 87.3786 65.8988 88.4426 65.2464 89.7932C64.893 90.5162 64.7435 91.2937 64.6347 92.0986C64.5124 92.999 64.4445 93.9402 64.0639 94.7724C63.6425 95.6864 62.895 96.3821 62.161 97.0642C62.1067 97.1051 62.1882 97.1733 62.229 97.1324Z" fill="#4C4942"/>
<path d="M64.5676 95.3454C65.9268 94.3768 65.9811 92.5898 66.4569 91.1301C66.9462 89.6159 67.884 88.2517 69.1616 87.2968C69.9227 86.7238 70.779 86.2873 71.6217 85.8508C71.6761 85.8235 71.6217 85.7416 71.5673 85.7689C70.8062 86.1645 70.0587 86.5465 69.3519 87.0376C68.7131 87.4878 68.1286 88.0198 67.6529 88.6473C67.2044 89.2203 66.851 89.8614 66.5656 90.5299C66.2394 91.3211 66.1035 92.1532 65.886 92.9717C65.6549 93.8448 65.2744 94.7179 64.5268 95.2499C64.4589 95.2908 64.5132 95.3727 64.5676 95.3454Z" fill="#4C4942"/>
<path d="M66.171 94.0494C68.6718 92.2896 68.8078 88.8655 70.8329 86.7374C71.3766 86.1645 72.029 85.7143 72.7901 85.496C72.8445 85.4824 72.8309 85.3869 72.7629 85.4005C69.7728 86.3009 69.2019 89.7659 67.7884 92.0986C67.3534 92.8216 66.8098 93.4764 66.1166 93.9675C66.0622 94.0084 66.1166 94.0903 66.171 94.0494ZM68.4408 92.7807C69.6504 91.9758 70.7106 90.9527 71.5533 89.7522C72.4639 88.4563 73.0756 86.9557 74.0542 85.687C74.557 85.0322 75.1687 84.4593 75.9026 84.0636C75.957 84.0364 75.9026 83.9545 75.8483 83.9818C74.5842 84.6775 73.728 85.878 73.0076 87.0921C72.5862 87.8151 72.2057 88.5518 71.7572 89.2475C71.3494 89.8886 70.8873 90.4752 70.3572 91.0209C69.7592 91.6484 69.0932 92.2077 68.3728 92.6852C68.3456 92.7261 68.3864 92.808 68.4408 92.7807ZM68.2641 92.6579C69.134 91.6757 69.8543 90.5571 70.5339 89.4248C71.1999 88.3199 71.8251 87.1467 72.627 86.1372C73.062 85.5915 73.5784 85.1004 74.258 84.8958C74.3124 84.8821 74.2988 84.7867 74.2308 84.8003C73.0756 85.1686 72.3824 86.26 71.7572 87.2285C71.0232 88.3744 70.3708 89.5749 69.6097 90.7071C69.1747 91.3619 68.7126 91.9895 68.1961 92.5761C68.1418 92.6306 68.2097 92.6988 68.2641 92.6579ZM72.3416 89.9568C73.1299 89.3839 73.8095 88.6609 74.3396 87.8287C74.8697 86.9966 75.1823 86.0553 75.59 85.155C75.8347 84.6366 76.1065 84.1182 76.4871 83.6817C76.5278 83.6407 76.4599 83.5589 76.4191 83.6135C75.7939 84.3365 75.4405 85.2095 75.0871 86.0826C74.693 87.0239 74.2444 87.9106 73.5784 88.6882C73.1979 89.1247 72.7629 89.5203 72.3008 89.8614C72.2465 89.9023 72.3008 89.9841 72.3416 89.9568ZM75.4269 87.3922C77.0579 86.2872 77.1667 84.1182 78.3084 82.6449C78.3491 82.5903 78.2812 82.5221 78.2404 82.5767C77.1123 84.0364 76.99 86.219 75.3861 87.3104C75.3318 87.3513 75.3726 87.4331 75.4269 87.3922ZM59.6198 100.12C62.6371 97.8145 66.701 98.2919 70.0854 96.8868C70.9281 96.5321 71.73 96.0683 72.4096 95.4408C72.4503 95.3999 72.3824 95.3317 72.3416 95.3726C71.0368 96.5867 69.2971 97.1597 67.5981 97.5416C65.7768 97.9372 63.9011 98.1282 62.1206 98.7285C61.21 99.0422 60.3401 99.4515 59.5654 100.038C59.5246 100.079 59.5654 100.161 59.6198 100.12ZM60.3537 98.974C61.808 97.5553 63.6701 96.6822 65.6001 96.1365C66.6331 95.8501 67.6932 95.6454 68.7534 95.4817C69.6912 95.3453 70.6155 95.2362 71.5397 95.0316C72.5455 94.7996 73.5377 94.4586 74.3804 93.8447C74.4347 93.8038 74.3804 93.722 74.326 93.7629C72.7629 94.9088 70.7786 95.0998 68.9165 95.3726C66.8641 95.6727 64.8118 96.1229 62.9361 97.0505C61.9575 97.5416 61.0469 98.1555 60.2722 98.9194C60.245 98.9467 60.3129 99.0149 60.3537 98.974ZM62.3789 96.9277C63.9691 95.8364 65.804 95.1953 67.6389 94.6769C69.4873 94.1448 71.3766 93.722 73.1843 93.0126C74.1765 92.6306 75.1279 92.1668 76.0114 91.5666C76.0657 91.5256 76.0114 91.4438 75.957 91.4847C74.3668 92.5761 72.5319 93.2036 70.6834 93.7356C68.8349 94.2676 66.9457 94.6905 65.138 95.3999C64.1458 95.7818 63.1944 96.2457 62.3109 96.8459C62.2837 96.8868 62.3381 96.9687 62.3789 96.9277Z" fill="#4C4942"/>
<path d="M59.8502 99.5607C61.2638 98.5375 62.8404 97.7327 64.4986 97.2007C65.3277 96.9278 66.1704 96.7232 67.0402 96.5868C67.9101 96.4504 68.7936 96.3549 69.6634 96.2185C70.6285 96.0684 71.5799 95.8365 72.4633 95.4136C72.5177 95.3863 72.4769 95.3045 72.409 95.3318C70.8051 96.1093 68.9839 96.1912 67.2441 96.4504C65.5316 96.7096 63.8734 97.2143 62.3239 97.9646C61.4405 98.3875 60.5978 98.8922 59.7959 99.4652C59.7551 99.5061 59.7959 99.588 59.8502 99.5607ZM64.7704 95.2226C67.5975 93.2037 71.1721 93.1082 74.3118 91.8258C75.1817 91.4712 76.0108 91.021 76.7447 90.4617C76.7991 90.4207 76.7447 90.3389 76.6904 90.3798C73.9312 92.4943 70.343 92.6307 67.2033 93.8312C66.3199 94.1722 65.4772 94.5951 64.7161 95.1408C64.6753 95.168 64.7296 95.2499 64.7704 95.2226ZM68.1684 92.6989C69.5955 92.2078 71.0226 91.7167 72.4497 91.2256C73.1565 90.9801 73.8497 90.7345 74.5565 90.5026C75.1545 90.298 75.7525 90.107 76.3234 89.8614C76.9214 89.6023 77.4787 89.2612 77.8864 88.7428C77.9272 88.6883 77.8592 88.62 77.8185 88.6746C77.0709 89.6432 75.7797 89.9842 74.6652 90.3662C73.2788 90.8436 71.8925 91.3211 70.5061 91.7986C69.7178 92.0714 68.9295 92.3442 68.1412 92.6171C68.0868 92.6171 68.114 92.7126 68.1684 92.6989ZM70.3023 91.1438C71.5663 90.7072 72.8167 90.2434 74.04 89.7387C74.6516 89.4931 75.2632 89.2339 75.8613 88.9747C76.4321 88.7292 77.0301 88.4973 77.5602 88.1699C78.0495 87.8561 78.4709 87.365 78.4573 86.7648C78.4573 86.6966 78.3621 86.6966 78.3621 86.7648C78.3757 87.3787 77.9272 87.8425 77.4379 88.1426C76.935 88.4427 76.3642 88.661 75.8205 88.9065C74.6516 89.4113 73.4691 89.8887 72.2866 90.3389C71.6206 90.5845 70.9547 90.83 70.2887 91.0619C70.2207 91.0755 70.2479 91.171 70.3023 91.1438Z" fill="#4C4942"/>
<path d="M72.8161 89.4795C74.6782 88.5791 76.948 88.1153 78.2664 86.3692C78.579 85.9599 78.8101 85.4961 78.9052 84.9777C78.9188 84.9095 78.8237 84.8959 78.8101 84.9504C78.3887 87.024 76.2141 87.9789 74.4607 88.661C73.8899 88.8929 73.319 89.1111 72.7618 89.3703C72.7074 89.4249 72.7618 89.5067 72.8161 89.4795Z" fill="#4C4942"/>
<path d="M74.91 87.9241C76.5546 87.0238 78.3351 86.0416 79.3001 84.3637C79.3273 84.3091 79.2457 84.2545 79.2186 84.3091C78.2536 85.987 76.4866 86.9419 74.8556 87.8423C74.8013 87.8696 74.8556 87.9514 74.91 87.9241ZM45.783 104.84C43.8122 104.622 41.9501 103.612 40.6725 102.098C40.3191 101.675 40.0201 101.211 39.7618 100.706C39.7346 100.652 39.6531 100.693 39.6803 100.761C40.5773 102.562 42.2355 103.926 44.1112 104.567C44.6548 104.758 45.2121 104.881 45.7694 104.935C45.8509 104.949 45.8509 104.853 45.783 104.84Z" fill="#4C4942"/>
<path d="M45.974 104.131C45.6886 103.735 45.3352 103.353 44.8731 103.176C44.5061 103.026 44.0984 103.012 43.7042 102.957C42.3994 102.766 41.3529 101.893 40.5645 100.87C40.0617 100.229 39.6403 99.5197 39.1782 98.8376C39.1374 98.783 39.0559 98.8376 39.0966 98.8921C39.885 100.065 40.5781 101.32 41.7063 102.193C42.182 102.562 42.712 102.862 43.2965 102.998C43.7042 103.094 44.112 103.094 44.5197 103.189C45.1042 103.326 45.5255 103.721 45.8789 104.199C45.9333 104.226 46.0148 104.185 45.974 104.131ZM46.0692 103.135C45.9469 101.975 44.9547 101.157 43.9489 100.706C42.712 100.147 41.3257 99.9562 40.1976 99.1922C39.6267 98.8103 39.1374 98.2783 38.9607 97.5962C38.9471 97.5416 38.852 97.5552 38.8656 97.6235C39.1646 98.7284 40.1976 99.4242 41.1898 99.8334C42.4538 100.352 43.8809 100.556 44.9547 101.443C45.4712 101.88 45.8925 102.453 45.974 103.148C45.974 103.189 46.0828 103.189 46.0692 103.135Z" fill="#4C4942"/>
<path d="M46.2187 102.657C46.11 101.116 45.8381 99.274 44.3159 98.4828C43.5955 98.1145 42.7664 98.0599 41.9781 97.9235C41.2169 97.7871 40.483 97.5415 39.8306 97.1459C39.0966 96.6957 38.4714 96.0819 38.0773 95.3316C38.0501 95.277 37.9685 95.3316 37.9957 95.3861C38.6617 96.6412 39.9257 97.5006 41.2713 97.8826C42.0596 98.1008 42.8751 98.1281 43.6634 98.3464C44.4518 98.5783 45.077 99.0694 45.4847 99.7924C45.974 100.665 46.0692 101.689 46.1507 102.684C46.1235 102.725 46.2187 102.725 46.2187 102.657Z" fill="#4C4942"/>
<path d="M46.2732 101.048C46.246 99.2742 46.1373 97.2006 44.5743 96.0547C43.8811 95.55 43.0384 95.3181 42.2229 95.1407C41.3258 94.9498 40.4288 94.7724 39.5589 94.445C38.5395 94.0767 37.5609 93.5583 36.6775 92.9308C36.6231 92.8899 36.5823 92.9854 36.6231 93.0126C37.3706 93.5447 38.1862 93.9812 39.0288 94.3359C39.8579 94.6769 40.7278 94.9088 41.5977 95.0998C42.4268 95.2772 43.2695 95.4272 44.0306 95.8228C44.8325 96.2457 45.4034 96.9415 45.7296 97.7736C46.1373 98.8104 46.1509 99.9426 46.1781 101.034C46.1781 101.116 46.2732 101.116 46.2732 101.048ZM46.0693 96.3139C45.7839 94.7179 44.6014 93.3673 43.1064 92.7944C42.1821 92.4397 41.1763 92.3715 40.1977 92.3033C39.2463 92.2214 38.2949 92.1259 37.3571 91.894C36.3513 91.6485 35.3727 91.2529 34.53 90.6254C34.4756 90.5844 34.4348 90.6663 34.4756 90.7072C35.9163 91.7849 37.724 92.1669 39.4774 92.3306C40.4424 92.4261 41.421 92.4533 42.3724 92.6716C43.2423 92.8762 44.0442 93.2855 44.6966 93.913C45.3626 94.5678 45.8111 95.3999 45.9742 96.3276C45.9878 96.4094 46.0829 96.3821 46.0693 96.3139ZM45.1315 92.9172C44.914 92.1396 44.4655 91.4575 43.8675 90.9391C43.2015 90.3798 42.386 90.066 41.5297 89.9433C39.6812 89.6841 37.86 90.2298 36.0115 90.2707C34.9785 90.298 33.9319 90.1479 33.0349 89.6295C32.9805 89.6022 32.9262 89.6841 32.9805 89.7114C34.5164 90.6117 36.3785 90.4071 38.0638 90.1888C39.8308 89.9569 41.8423 89.6841 43.419 90.7208C44.2073 91.2392 44.7917 92.0304 45.05 92.9444C45.0636 92.999 45.1587 92.9717 45.1315 92.9172Z" fill="#4C4942"/>
<path d="M43.6758 90.1206C43.5807 89.4248 43.0914 88.8655 42.507 88.5245C41.8002 88.1016 40.9575 87.9652 40.1556 87.8833C39.2721 87.7878 38.3615 87.7333 37.4916 87.9652C36.6761 88.1971 35.9422 88.62 35.1674 88.9883C34.2568 89.4112 33.2238 89.7386 32.2316 89.4385C32.1773 89.4248 32.1501 89.5203 32.2044 89.534C33.849 90.0387 35.3441 88.9337 36.7848 88.3199C37.6139 87.9652 38.4702 87.856 39.3673 87.9106C40.2235 87.9652 41.1206 88.047 41.9225 88.3608C42.7108 88.6609 43.4448 89.2748 43.5807 90.1479C43.5807 90.2161 43.6758 90.1888 43.6758 90.1206Z" fill="#4C4942"/>
<path d="M42.1405 87.4876C41.8958 86.7237 40.9308 86.3827 40.2376 86.1917C39.3814 85.9598 38.4707 85.9461 37.5873 86.0689C35.63 86.3281 33.8631 87.2421 32.0282 87.8969C31.0768 88.2379 30.1254 88.4289 29.1196 88.4698C29.0517 88.4698 29.0517 88.5653 29.1196 88.5653C29.9487 88.538 30.7642 88.4016 31.5661 88.1561C32.436 87.8832 33.2923 87.5149 34.135 87.1875C35.8611 86.5054 37.696 85.8916 39.5716 86.1644C40.0609 86.2326 40.5367 86.3554 40.9988 86.56C41.4337 86.751 41.9094 87.0238 42.0589 87.5149C42.0725 87.5695 42.1677 87.5422 42.1405 87.4876ZM39.8435 85.2368C38.362 84.3228 36.5543 84.0363 34.8553 84.3364C33.9854 84.4865 33.1699 84.8139 32.4224 85.2777C31.5933 85.7961 30.8594 86.4645 30.0439 87.0102C29.0924 87.6513 27.9643 88.1561 26.7954 87.9924C26.7275 87.9787 26.7139 88.0742 26.7682 88.0879C28.7662 88.388 30.3293 86.901 31.8244 85.8097C32.5855 85.2504 33.3874 84.8139 34.2981 84.5683C35.1543 84.3364 36.065 84.2682 36.9484 84.3637C37.9542 84.4728 38.9192 84.8002 39.7891 85.3186C39.8435 85.3595 39.8978 85.2777 39.8435 85.2368ZM35.8067 83.1905C34.1757 82.8631 32.436 82.754 30.8458 83.3406C30.207 83.5725 29.5953 83.9271 29.0788 84.391C28.4944 84.9093 28.1274 85.5914 27.7197 86.2462C27.2711 86.9829 26.7003 87.7059 25.8304 87.9378C25.7761 87.9514 25.7896 88.0469 25.8576 88.0333C27.3799 87.6377 27.8284 85.9598 28.739 84.8684C29.7448 83.6952 31.2943 83.1359 32.803 83.0404C33.7952 82.9722 34.8009 83.095 35.7796 83.286C35.8475 83.2996 35.8747 83.2041 35.8067 83.1905Z" fill="#4C4942"/>
<path d="M31.6071 82.604C31.1042 82.4812 30.5333 82.5904 30.044 82.7131C29.4324 82.8632 28.8344 83.0815 28.2771 83.3543C28.0461 83.4771 27.815 83.5998 27.5975 83.7635C27.3121 83.9818 27.0675 84.2683 26.8228 84.5411C26.2655 85.1686 25.7762 85.8644 25.2054 86.4919C24.6074 87.1467 23.8326 87.7878 22.9084 87.8015C22.8404 87.8015 22.8404 87.897 22.9084 87.897C24.4986 87.8697 25.518 86.2736 26.4151 85.1686C26.8636 84.623 27.3257 84.0227 27.9373 83.6408C28.4674 83.3134 29.0654 83.0815 29.6771 82.9041C30.2615 82.7268 30.9683 82.5494 31.5799 82.6858C31.6479 82.7131 31.675 82.6176 31.6071 82.604ZM46.1638 103.653C46.4085 101.566 47.523 99.7379 48.5831 97.9782C48.6103 97.9236 48.5288 97.869 48.5016 97.9236C47.4278 99.697 46.3133 101.552 46.0687 103.653C46.0551 103.708 46.1502 103.708 46.1638 103.653ZM46.2997 100.597C46.3677 99.3833 47.0473 98.3465 47.5909 97.3097C48.121 96.273 48.4336 95.1816 48.5967 94.0221C48.6919 93.3809 48.7598 92.7261 48.8142 92.085C48.8142 92.0168 48.719 92.0168 48.719 92.085C48.6103 93.2581 48.5016 94.445 48.1754 95.5909C48.0123 96.1775 47.7812 96.7231 47.5094 97.2688C47.2375 97.7872 46.9385 98.2919 46.6939 98.8239C46.4356 99.3833 46.2454 99.9835 46.2046 100.597C46.2046 100.652 46.2997 100.652 46.2997 100.597ZM46.0687 98.4829C46.2454 95.2771 47.6997 92.2077 47.3735 88.961C47.2919 88.1425 47.088 87.3377 46.7347 86.601C46.7075 86.5464 46.6259 86.5874 46.6531 86.6556C48.0395 89.5885 46.9657 92.8625 46.3541 95.8501C46.1774 96.7231 46.0279 97.5962 45.9871 98.4966C45.9599 98.5511 46.0551 98.5511 46.0687 98.4829ZM45.7561 95.3317C45.2668 93.5583 45.9871 91.7576 46.0279 89.9841C46.0687 88.1834 45.3619 86.4509 44.3969 84.9776C43.8396 84.1319 43.2008 83.3406 42.5212 82.5767C42.4805 82.5358 42.4125 82.604 42.4533 82.6449C43.6629 84.0227 44.8046 85.496 45.4434 87.2285C45.7561 88.0743 45.9463 88.961 45.9327 89.8614C45.9327 90.7754 45.7425 91.6621 45.6201 92.5624C45.4842 93.4901 45.4163 94.445 45.6745 95.359C45.6745 95.4272 45.7696 95.3999 45.7561 95.3317Z" fill="#4C4942"/>
<path d="M44.7094 91.8395C44.5055 89.9706 44.288 88.0608 43.5948 86.301C42.9696 84.7049 41.9231 83.3271 40.5231 82.3313C39.7484 81.7719 38.8785 81.3354 37.9543 81.0489C37.8999 81.0353 37.8727 81.1308 37.9271 81.1444C39.5173 81.6492 40.958 82.5905 42.0454 83.8591C43.2279 85.2506 43.8395 86.9694 44.1793 88.7428C44.3832 89.766 44.4919 90.8027 44.6142 91.8259C44.6278 91.9077 44.723 91.9077 44.7094 91.8395Z" fill="#4C4942"/>
<path d="M42.5757 88.3198C42.0592 86.9011 41.5156 85.4687 40.6185 84.2409C40.1836 83.6543 39.6807 83.1223 39.0826 82.6994C38.4438 82.2493 37.7371 81.9219 37.0031 81.6763C36.1468 81.3898 35.2498 81.2125 34.3527 81.1034C34.2848 81.0897 34.2848 81.1988 34.3527 81.1988C35.9022 81.4035 37.4788 81.7718 38.7972 82.6312C40.0477 83.4497 40.9039 84.6775 41.5291 86.0144C41.8961 86.7783 42.1816 87.5695 42.4806 88.3607C42.4942 88.4017 42.5893 88.3744 42.5757 88.3198Z" fill="#4C4942"/>
<path d="M38.172 84.1592C36.7177 82.604 34.5702 81.7719 32.4635 81.8128C31.8654 81.8264 31.2674 81.9083 30.683 82.072C30.6286 82.0856 30.6422 82.1811 30.7101 82.1675C32.7489 81.6218 34.9915 81.9901 36.7585 83.1224C37.2478 83.4362 37.7099 83.8181 38.104 84.241C38.1448 84.2683 38.2264 84.2001 38.172 84.1592ZM53.9792 61.2002C54.0063 59.7815 54.0335 58.3628 54.0607 56.944C54.0879 55.8254 54.0199 54.4885 54.8354 53.6155C54.8762 53.5745 54.8083 53.5063 54.7675 53.5472C54.1694 54.1884 54.0199 55.0615 53.9792 55.9073C53.9248 56.9986 53.9248 58.1036 53.9112 59.2085C53.8976 59.877 53.884 60.5318 53.8704 61.2002C53.884 61.2684 53.9792 61.2684 53.9792 61.2002ZM54.5092 60.1498C54.5636 59.6178 54.7675 59.113 54.9578 58.6219C55.148 58.1308 55.3111 57.6534 55.3519 57.1214C55.4471 56.0027 55.0937 54.8978 55.1752 53.7792C55.2024 53.3835 55.2432 52.7287 55.6781 52.5514C55.7325 52.5241 55.7053 52.4286 55.6509 52.4559C55.3111 52.5923 55.1888 52.9879 55.1209 53.329C55.0393 53.8337 55.0529 54.3385 55.0937 54.8432C55.148 55.4434 55.2568 56.0437 55.2568 56.6575C55.2704 57.2578 55.148 57.8171 54.9306 58.3764C54.7131 58.9494 54.4413 59.5223 54.3869 60.1498C54.4005 60.2044 54.4956 60.2044 54.5092 60.1498ZM55.5422 58.963C56.2218 58.1172 56.6567 57.0941 56.779 56.0164C56.847 55.4298 56.8062 54.8432 56.7247 54.2566C56.6295 53.6427 56.5208 53.0152 56.548 52.3877C56.5752 51.7602 56.7655 51.119 57.2276 50.6552C57.2683 50.6143 57.2004 50.5461 57.1596 50.587C56.3985 51.3646 56.3849 52.5105 56.5208 53.52C56.6024 54.1611 56.7383 54.7886 56.7247 55.4434C56.7111 56.0164 56.6159 56.5757 56.4393 57.1214C56.2218 57.7625 55.8956 58.3628 55.4742 58.8811C55.4335 58.9357 55.5014 59.0176 55.5422 58.963ZM57.4858 56.6575C58.1518 55.8936 58.6139 54.9523 58.7906 53.9565C58.8858 53.4654 58.8994 52.9607 58.845 52.4559C58.777 51.8284 58.6139 51.2282 58.546 50.6006C58.478 49.9731 58.5324 49.3183 58.8722 48.7863C58.8994 48.7317 58.8178 48.6772 58.7906 48.7317C58.1926 49.673 58.4644 50.7916 58.6547 51.8148C58.8586 52.9061 58.7906 53.9974 58.3693 55.0342C58.1382 55.6071 57.812 56.1255 57.4043 56.5893C57.3771 56.6439 57.445 56.7121 57.4858 56.6575ZM56.9693 57.5033C57.3635 56.3711 57.6217 55.1842 57.7169 53.9838C57.812 52.7833 57.7305 51.5828 57.4994 50.4097C57.4858 50.3415 57.3907 50.3687 57.4043 50.4369C57.6353 51.6101 57.7169 52.797 57.6217 53.9838C57.5266 55.1706 57.2548 56.3438 56.8742 57.476C56.8606 57.5306 56.9557 57.5579 56.9693 57.5033ZM59.6061 54.8705C60.1906 53.9156 60.5304 52.797 60.5304 51.6783C60.5304 51.0781 60.4352 50.4915 60.3129 49.9049C60.1906 49.3047 60.0411 48.7045 60.0818 48.0906C60.1226 47.4767 60.3265 46.8628 60.8022 46.4536C60.843 46.4126 60.775 46.3444 60.7342 46.3854C59.9187 47.0947 59.9051 48.2406 60.0818 49.2365C60.2042 49.8776 60.3808 50.5052 60.4216 51.16C60.4624 51.7602 60.4216 52.3741 60.2857 52.9607C60.1362 53.6155 59.878 54.2566 59.5246 54.8296C59.4974 54.8705 59.5789 54.9251 59.6061 54.8705ZM61.3459 53.2608C62.1885 52.4423 62.4468 51.2418 62.4196 50.0959C62.3924 49.3865 62.2701 48.6772 62.175 47.9814C62.0798 47.3266 62.0119 46.6582 61.9847 46.0034C61.9575 45.294 62.0119 44.5574 62.3788 43.9435C62.406 43.8889 62.3245 43.8344 62.2973 43.8889C61.6857 44.8984 61.8759 46.2217 61.9983 47.3403C62.1478 48.7045 62.5147 50.0823 62.2157 51.4464C62.0662 52.1012 61.7808 52.7287 61.2915 53.2062C61.2235 53.2335 61.2915 53.3017 61.3459 53.2608Z" fill="#4C4942"/>
<path d="M60.7745 53.7518C61.8347 51.9647 61.359 49.8366 61.0871 47.9132C60.992 47.272 60.924 46.6308 60.9104 45.9897C60.9104 45.9215 60.8153 45.9215 60.8153 45.9897C60.8289 47.3675 61.1551 48.7044 61.291 50.0686C61.4133 51.3099 61.3454 52.6195 60.693 53.7109C60.6658 53.7518 60.7473 53.8064 60.7745 53.7518ZM62.8948 51.5555C63.887 50.1913 63.887 48.4452 63.8191 46.8355C63.7783 45.8669 63.7103 44.8984 63.8462 43.9434C63.9686 43.0704 64.3084 42.2519 64.6074 41.4334C64.9336 40.5739 65.219 39.6736 65.1103 38.746C65.0967 38.6777 65.0015 38.6777 65.0151 38.746C65.219 40.4648 64.1045 41.9654 63.8055 43.6024C63.4793 45.3622 63.8734 47.1492 63.7103 48.909C63.6152 49.8366 63.3705 50.7506 62.8133 51.5146C62.7725 51.5555 62.8541 51.5964 62.8948 51.5555ZM65.0831 48.5816C65.4365 47.0537 64.8928 45.5259 65.0831 43.998C65.1375 43.5615 65.2462 43.1249 65.4229 42.7157C65.5996 42.2928 65.8306 41.8972 65.9666 41.4606C66.2248 40.6694 66.3199 39.8373 66.3879 39.0051C66.4695 37.982 66.4694 36.9316 66.2112 35.9358C66.1976 35.8812 66.1025 35.8948 66.1161 35.9631C66.3335 36.8498 66.3607 37.7774 66.3063 38.6914C66.252 39.5508 66.1704 40.4375 65.9258 41.2697C65.8035 41.7062 65.5996 42.0882 65.4093 42.4974C65.2326 42.8794 65.1103 43.2886 65.0287 43.6979C64.8928 44.4482 64.9472 45.1985 65.0151 45.9488C65.0967 46.8082 65.1782 47.6813 64.9744 48.5407C64.9744 48.6225 65.0695 48.6362 65.0831 48.5816Z" fill="#4C4942"/>
<path d="M65.9257 46.9991C66.7276 43.5887 67.5295 40.0964 67.2848 36.5769C67.2169 35.622 67.0674 34.6671 66.8363 33.7394C66.8227 33.6849 66.7276 33.6985 66.7412 33.7667C67.611 37.1635 67.1897 40.7103 66.4829 44.0935C66.2791 45.062 66.0616 46.0169 65.8305 46.9719C65.8169 47.0401 65.9121 47.0673 65.9257 46.9991ZM68.2906 41.4061C68.5896 38.6504 68.4673 35.8539 67.9372 33.1392C67.7877 32.3616 67.5975 31.5977 67.38 30.8474C67.3664 30.7928 67.2712 30.8065 67.2848 30.8747C68.046 33.5484 68.413 36.3177 68.345 39.1006C68.3314 39.8782 68.277 40.6558 68.1955 41.4197C68.1819 41.4743 68.2906 41.4743 68.2906 41.4061ZM54.1553 61.282C54.6989 60.1497 55.8406 59.4949 56.9823 59.072C58.2056 58.6355 59.4968 58.4854 60.7608 58.1717C61.454 57.9943 62.1336 57.7488 62.7316 57.3532C62.786 57.3123 62.7316 57.2304 62.6773 57.2713C61.5491 58.0216 60.1492 58.2126 58.8308 58.4718C57.6211 58.7173 56.3707 59.0584 55.3377 59.7814C54.8077 60.1497 54.3455 60.6408 54.0601 61.2274C54.0465 61.2956 54.1281 61.3365 54.1553 61.282Z" fill="#4C4942"/>
<path d="M55.0264 59.6996C55.7875 58.5265 56.9428 57.6261 58.234 57.1214C58.8864 56.8622 59.5932 56.6848 60.2999 56.6303C61.0883 56.5621 61.863 56.7258 62.6513 56.6848C63.2765 56.6575 64.092 56.5211 64.4998 55.9891C64.5406 55.9345 64.4726 55.8663 64.4318 55.9209C64.0241 56.4393 63.2086 56.5621 62.5834 56.5893C61.7814 56.6166 60.9931 56.4666 60.1912 56.5484C58.832 56.6848 57.5272 57.2032 56.4399 58.0354C55.8555 58.4855 55.339 59.0312 54.9312 59.6587C54.904 59.6996 54.9856 59.7542 55.0264 59.6996ZM57.1331 57.2032C58.0981 56.2892 59.2806 55.6481 60.5582 55.307C61.2242 55.1297 61.9038 55.0615 62.5969 55.0615C63.3173 55.0615 64.0377 55.0887 64.758 54.9933C65.3697 54.9114 66.0221 54.775 66.457 54.3112C66.4978 54.2702 66.4298 54.202 66.389 54.243C65.9541 54.7068 65.2881 54.8296 64.6901 54.9114C63.9561 55.0069 63.2086 54.9523 62.4746 54.966C61.197 54.9796 59.933 55.2934 58.8049 55.8936C58.1796 56.221 57.5952 56.6439 57.0787 57.135C57.0243 57.1896 57.0923 57.2578 57.1331 57.2032Z" fill="#4C4942"/>
<path d="M58.6958 55.6753C59.6608 54.7613 60.8433 54.1065 62.1209 53.7518C62.7733 53.5745 63.4529 53.479 64.1189 53.4517C64.8528 53.4244 65.5868 53.479 66.3207 53.3699C66.9867 53.2744 67.6119 53.0152 68.1012 52.5377C68.142 52.4968 68.074 52.4286 68.0333 52.4695C66.9595 53.5199 65.3965 53.3016 64.0237 53.3562C62.7461 53.4108 61.4821 53.7518 60.3404 54.3521C59.7151 54.6931 59.1443 55.1024 58.6278 55.5935C58.587 55.648 58.655 55.7162 58.6958 55.6753ZM61.2918 53.479C62.2704 52.6332 63.3169 51.7465 64.6218 51.4737C65.3557 51.3236 66.1168 51.3918 66.8644 51.2963C67.4896 51.2145 68.0876 50.9826 68.6449 50.6824C69.2701 50.3278 69.841 49.8912 70.4118 49.4411C70.4662 49.4001 70.3982 49.3319 70.3439 49.3728C69.2973 50.1913 68.1692 51.0508 66.81 51.2145C66.1032 51.2963 65.3693 51.2281 64.6625 51.3782C64.0373 51.5009 63.4529 51.7738 62.9228 52.1148C62.3248 52.4968 61.7675 52.9606 61.2374 53.4244C61.183 53.4517 61.251 53.5199 61.2918 53.479ZM62.95 51.3236C64.9344 49.291 68.21 49.8912 70.3846 48.1997C70.8875 47.8041 71.2953 47.313 71.5263 46.7127C71.5535 46.6582 71.4584 46.6309 71.4312 46.6854C70.9827 47.8995 69.7866 48.6089 68.6313 49.0045C67.3129 49.4547 65.913 49.6048 64.6218 50.1368C63.9829 50.396 63.3713 50.7507 62.882 51.2554C62.8276 51.2963 62.9092 51.3645 62.95 51.3236ZM64.0509 49.9731C64.6082 49.7139 64.8936 49.1682 65.2198 48.6771C65.6275 48.0496 66.1848 47.6131 66.8644 47.2857C67.6119 46.931 68.4002 46.7264 69.175 46.4399C69.8817 46.1807 70.5477 45.8397 71.173 45.4031C71.7438 45.0075 72.4914 44.4891 72.5321 43.7252C72.5321 43.657 72.437 43.657 72.437 43.7252C72.3962 44.4755 71.6079 44.9802 71.0506 45.3622C70.4254 45.7851 69.7458 46.1261 69.0255 46.3853C67.7207 46.8491 66.1984 47.1629 65.3285 48.3361C64.9208 48.8817 64.6625 49.5911 64.0101 49.8776C63.9422 49.9185 63.9965 50.0004 64.0509 49.9731ZM65.6275 47.8041C65.7635 46.3853 66.9595 45.3758 68.0876 44.6665C68.7129 44.2709 69.3653 43.9298 69.9769 43.5206C70.5477 43.1386 71.0642 42.6884 71.5127 42.17C72.002 41.5971 72.3962 40.9559 72.6816 40.2602C72.7088 40.2056 72.6137 40.1784 72.5865 40.2329C72.0292 41.5971 71.0506 42.7021 69.8274 43.5069C68.6449 44.2845 67.2993 44.8711 66.3615 45.9761C65.913 46.5081 65.6004 47.122 65.5324 47.8177C65.5188 47.8723 65.6139 47.8723 65.6275 47.8041ZM66.8916 44.8711C67.2721 43.5615 68.4954 42.7839 69.542 42.0336C70.072 41.6517 70.5749 41.256 71.0099 40.7786C71.4176 40.3148 71.7438 39.81 72.0021 39.2507C72.2739 38.6505 72.4506 37.9957 72.5185 37.3409C72.5185 37.2727 72.4234 37.2727 72.4234 37.3409C72.2875 38.6096 71.7438 39.81 70.9011 40.7649C70.0177 41.7471 68.808 42.3201 67.8566 43.2204C67.3809 43.6706 66.9731 44.2163 66.7828 44.8575C66.7828 44.8984 66.878 44.9257 66.8916 44.8711ZM67.9245 42.0473C69.2022 39.7418 70.9011 37.5319 71.2409 34.8445C71.3361 34.1351 71.3225 33.4121 71.173 32.7027C71.1594 32.6345 71.0642 32.6618 71.0778 32.73C71.6351 35.3765 70.2623 37.8866 68.9575 40.0829C68.5769 40.724 68.1964 41.3515 67.8294 42.0063C67.8158 42.0473 67.8974 42.1018 67.9245 42.0473ZM68.5905 39.5781C69.0391 38.2412 69.3653 36.8634 69.6371 35.472C69.9089 34.0942 70.1672 32.73 70.1536 31.3249C70.1536 30.5473 70.072 29.7561 69.9089 28.9922C69.8953 28.924 69.8002 28.9513 69.8138 29.0195C70.1128 30.3836 70.1128 31.7887 69.9497 33.1802C69.8682 33.8759 69.7186 34.5716 69.5827 35.2537C69.4468 35.9358 69.2973 36.6179 69.1342 37.2863C68.9439 38.0503 68.74 38.8005 68.4818 39.5508C68.4818 39.619 68.5769 39.6327 68.5905 39.5781ZM68.9167 32.3753C69.1886 30.6701 69.2837 28.9513 69.2157 27.2188C69.2157 27.1506 69.1206 27.1506 69.1206 27.2188C69.1886 28.9376 69.0934 30.6565 68.8216 32.348C68.808 32.4026 68.9031 32.4299 68.9167 32.3753Z" fill="#4C4942"/>
</svg>
